<svg xmlns="http://www.w3.org/2000/svg" xmlns:xlink="http://www.w3.org/1999/xlink" viewBox="0 0 348.43 368.01"><defs><pattern id="New_Pattern_2" data-name="New Pattern 2" width="229.6" height="151.37" patternTransform="matrix(0.81, 0, 0, -0.86, 915.59, 649.8)" patternUnits="userSpaceOnUse" viewBox="0 0 229.59 151.37"><rect width="229.6" height="151.37" fill="none"/><rect x="0.01" y="0.01" width="229.58" height="151.36" fill="none"/><path d="M56.19,56.12A10.45,10.45,0,0,0,56.63,51a9.06,9.06,0,0,0-2.44-4.74,13.65,13.65,0,0,0-1.93-1.63,15.79,15.79,0,0,0-3.74-1.82L44,41.18l3.74-10.73a12,12,0,0,0-2-.4,6.41,6.41,0,0,0-1.75,0,6.65,6.65,0,0,0-3.68,1.66,8.83,8.83,0,0,0-2.51,3.89L30,57.81l11.8,4.11a14.21,14.21,0,0,0,6.49.87,8.81,8.81,0,0,0,4.91-2.11A10.64,10.64,0,0,0,56.19,56.12Zm-6.27-6.55-2.73,7.87-7.84-2.73,1.24-3.54,1.81.62-1.25-2.57h0l3.39-1.64.25.52,1,2.06.63-1.81L50,49.58Z" fill="#0c3c63"/><path d="M80,54.68A13.08,13.08,0,0,0,80.48,48a11.3,11.3,0,0,0-3.1-5.72,12.65,12.65,0,0,0-2.32-1.88,15.54,15.54,0,0,0-3,0A10.86,10.86,0,0,0,66.2,43a13.94,13.94,0,0,0-3.66,5.4l-.27.78L56.08,66.93l7.23,2.51,6.18-17.75A6.14,6.14,0,0,1,72.23,48a1.26,1.26,0,0,1,.33-.16,4.68,4.68,0,0,1,3.13-.19c.29.07.58.17.86.26A5.37,5.37,0,0,1,80,50.73,5.49,5.49,0,0,1,80,54.68Z" fill="#0c3c63"/><path d="M75,80.68l-3.14-12,2.52,2L79.75,55.3l.21-.6A13.19,13.19,0,0,0,80.42,48a11.32,11.32,0,0,0-3.09-5.73A13.14,13.14,0,0,0,75,40.37a16.27,16.27,0,0,1,3,.6l.71.24a15.48,15.48,0,0,1,5.89,3.61,11.82,11.82,0,0,1,3.1,5.72,13.37,13.37,0,0,1-.65,7.33l-5.34,15.4H85Z" fill="#2cd717"/><path d="M41.18,49.23" fill="#0c3c63"/><path d="M102.81,80.93a3,3,0,0,1-1.2.82,4.24,4.24,0,0,1-1.62.19,7.14,7.14,0,0,1-2-.43l-5-1.74.3-.85.67.24a1.21,1.21,0,0,0,.33.07.62.62,0,0,0,.61-.26,1.37,1.37,0,0,0,.26-.51l2.71-7.8a3,3,0,0,0,.13-.59,1.59,1.59,0,0,0-.07-.38,1.31,1.31,0,0,0-.23-.24,1,1,0,0,0-.31-.15l-.67-.23.31-.89L103,70.25l-.3.85-1-.35a1.32,1.32,0,0,0-.33-.08.65.65,0,0,0-.34,0,.73.73,0,0,0-.27.22,2.12,2.12,0,0,0-.25.47L99.58,74l.57.19a7.38,7.38,0,0,1,2.12,1.1,4.52,4.52,0,0,1,1.21,1.33,3.51,3.51,0,0,1,.39,1.49,4.3,4.3,0,0,1-.24,1.51A3,3,0,0,1,102.81,80.93Zm-5.41-.77.61.21a2.12,2.12,0,0,0,1,.18,1.18,1.18,0,0,0,.76-.25,2.2,2.2,0,0,0,.63-.66,8.28,8.28,0,0,0,.5-1.09,5.11,5.11,0,0,0,.32-1.28,2.79,2.79,0,0,0-.09-1,1.66,1.66,0,0,0-.51-.69,3.47,3.47,0,0,0-1-.5l-.39-.14Z" fill="#0c3c63"/><path d="M112.4,74.5l-.53-.18a1.63,1.63,0,0,0-.48-.13.9.9,0,0,0-.4,0,.56.56,0,0,0-.36.23,2.73,2.73,0,0,0-.27.54l-1,2.8-.16.46a2.58,2.58,0,0,0-.13.6,3,3,0,0,0,0,1.19,1.77,1.77,0,0,0,.23.48.91.91,0,0,0,.45.32.58.58,0,0,0,.41.06.89.89,0,0,0,.34-.16,1.1,1.1,0,0,0,.29-.38,3.32,3.32,0,0,0,.24-.59,2.53,2.53,0,0,1,1.38,1,1.5,1.5,0,0,1,.12,1.35,1.31,1.31,0,0,1-.8.84,2.46,2.46,0,0,1-1.54-.14,3.5,3.5,0,0,1-.82-.41,1.84,1.84,0,0,1-.54-.5,2.37,2.37,0,0,1-.3-.62,6.35,6.35,0,0,1-.13-.76h-.07l-.76,1.17-3.3-1.15.3-.85h0a2.73,2.73,0,0,0,.51.14.94.94,0,0,0,.41,0,1,1,0,0,0,.37-.27,4.53,4.53,0,0,0,.27-.54l1.65-4.75a2,2,0,0,0,.1-.64.83.83,0,0,0-.12-.44,1.3,1.3,0,0,0-.34-.28,3,3,0,0,0-.49-.2h0l.29-.85,5.42,1.89Z" fill="#0c3c63"/><path d="M122.2,84a3.73,3.73,0,0,1-1.34,1.12,3.49,3.49,0,0,1-1.61.4,4.94,4.94,0,0,1-1.83-.32,4.26,4.26,0,0,1-2.77-2.2,5,5,0,0,1,.12-3.77,5.64,5.64,0,0,1,1-1.89A3.45,3.45,0,0,1,117,76.2a3.33,3.33,0,0,1,1.61-.39,5,5,0,0,1,1.83.32,4.43,4.43,0,0,1,2.8,2.24,5.22,5.22,0,0,1-.13,3.81A9.06,9.06,0,0,1,122.2,84Zm-5.49-2.35a3.73,3.73,0,0,0-.1,1.2,1.53,1.53,0,0,0,.31.82,1.68,1.68,0,0,0,1.59.56,1.44,1.44,0,0,0,.75-.46,4,4,0,0,0,.67-1,15,15,0,0,0,.64-1.48,7.67,7.67,0,0,0,.46-1.55,4.4,4.4,0,0,0,.1-1.2,1.4,1.4,0,0,0-1-1.34,1.38,1.38,0,0,0-.85-.06,1.51,1.51,0,0,0-.77.49,4.13,4.13,0,0,0-.66,1,10.29,10.29,0,0,0-.64,1.49A14.32,14.32,0,0,0,116.71,81.64Z" fill="#0c3c63"/><path d="M131.59,80.19l-.29.85-.75-.26a2,2,0,0,0-.4-.1,1.09,1.09,0,0,0-.44,0,.8.8,0,0,0-.39.22,1.68,1.68,0,0,0-.31.53l-2,5.67,2.23.77-.38,1.1-2.23-.77-.31.88A7.84,7.84,0,0,0,126,90a3.49,3.49,0,0,0-.06.65,1.16,1.16,0,0,0,.12.44.62.62,0,0,0,.32.23.56.56,0,0,0,.44,0,.77.77,0,0,0,.36-.23,2.72,2.72,0,0,0,.29-.38,3,3,0,0,0,.18-.41,3.33,3.33,0,0,1,1.4.77.91.91,0,0,1,.21,1,1.25,1.25,0,0,1-.3.42,1,1,0,0,1-.56.24,4.92,4.92,0,0,1-.94,0,8.5,8.5,0,0,1-1.34-.35,5.61,5.61,0,0,1-1.42-.73,2.88,2.88,0,0,1-.8-1,2.18,2.18,0,0,1-.26-1.2,5.7,5.7,0,0,1,.29-1.41l.21-.6L122.72,87l.38-1.09,1.45.5,2-5.67a1,1,0,0,0,.09-.6.91.91,0,0,0-.17-.42,3.07,3.07,0,0,0-.35-.28,1.76,1.76,0,0,0-.37-.17l-.36-.12.3-.85Z" fill="#0c3c63"/><path d="M138.32,82.65a3.79,3.79,0,0,1,.86.74,2.09,2.09,0,0,1,.41.78,1.81,1.81,0,0,1-.06.73.87.87,0,0,1-.7.63,2.15,2.15,0,0,0-.17-.65,2,2,0,0,0-.35-.6,2.33,2.33,0,0,0-.53-.51,3.32,3.32,0,0,0-.77-.4,2,2,0,0,0-.94-.14,2,2,0,0,0-.88.34,2.42,2.42,0,0,0-.75.81,6.29,6.29,0,0,0-.67,1.35l5.31,1.85-.28.82A5,5,0,0,1,138,90a3.28,3.28,0,0,1-1.17.95,3.52,3.52,0,0,1-1.46.32,5.21,5.21,0,0,1-3.28-1.18,3.74,3.74,0,0,1-1-1.33,3.93,3.93,0,0,1-.27-1.73,6.65,6.65,0,0,1,.42-2.11,7.2,7.2,0,0,1,.93-1.78A4.22,4.22,0,0,1,133.44,82a3.66,3.66,0,0,1,1.62-.43,5.72,5.72,0,0,1,1.92.31A3.2,3.2,0,0,1,138.32,82.65Zm-4.22,7.23a.7.7,0,0,0,.63,0,1.24,1.24,0,0,0,.57-.39,4,4,0,0,0,.51-.78,10.07,10.07,0,0,0,.45-1.07l-2.8-1a4.38,4.38,0,0,0-.23,2.15,1.31,1.31,0,0,0,.87,1Z" fill="#0c3c63"/><path d="M146.51,85.37a3.7,3.7,0,0,1,.9.95,2.33,2.33,0,0,1,.37,1.12,3.38,3.38,0,0,1-.17,1.3,2.56,2.56,0,0,1-.5.86,2.62,2.62,0,0,1-.75.53,2.52,2.52,0,0,1-1,.3,6.25,6.25,0,0,1-1.14.08,8.69,8.69,0,0,0-1.25,0,5.27,5.27,0,0,0-.81.15,1.31,1.31,0,0,0-.49.27,1,1,0,0,0-.26.42,1.07,1.07,0,0,0,0,.47.8.8,0,0,0,.18.41,2.82,2.82,0,0,0,.36.33,1.89,1.89,0,0,0,.47.24,1.41,1.41,0,0,0,1.22-.09,2.13,2.13,0,0,0,.8-1.15,2.1,2.1,0,0,1,1.18.73,1.14,1.14,0,0,1,.09,1,1.08,1.08,0,0,1-.32.49,1.24,1.24,0,0,1-.67.32,3.06,3.06,0,0,1-1,.05,5.73,5.73,0,0,1-1.36-.32,4.87,4.87,0,0,1-1.37-.63,3.36,3.36,0,0,1-.93-.83,2.41,2.41,0,0,1-.28-2.28,3.43,3.43,0,0,1,.51-.89,2.77,2.77,0,0,1,.79-.56,2.82,2.82,0,0,1,1.07-.31,9.94,9.94,0,0,1,1.34-.09,5.78,5.78,0,0,0,1.09-.06,2.06,2.06,0,0,0,.73-.14,1.19,1.19,0,0,0,.72-.7,1,1,0,0,0-.12-.92,1.64,1.64,0,0,0-.41-.42q-.36-.18-.72-.33a1.63,1.63,0,0,0-.76-.1,1.78,1.78,0,0,0-.71.22,2.06,2.06,0,0,0-.59.55,3.24,3.24,0,0,0-.47.88,2.19,2.19,0,0,1-.44-.2,1.24,1.24,0,0,1-.44-.35,2.14,2.14,0,0,1-.25-.53,1.21,1.21,0,0,1,.08-.68,1.87,1.87,0,0,1,.43-.68,1.68,1.68,0,0,1,.78-.41,3.76,3.76,0,0,1,1.16,0,7.51,7.51,0,0,1,1.54.37A9.78,9.78,0,0,1,146.51,85.37Z" fill="#0c3c63"/><path d="M154.41,88.14a3.4,3.4,0,0,1,.9,1,2.23,2.23,0,0,1,.37,1.12,3,3,0,0,1-.17,1.29,2.3,2.3,0,0,1-.5.87,2.72,2.72,0,0,1-.74.53,2.52,2.52,0,0,1-1,.3,6.25,6.25,0,0,1-1.14.08,8.69,8.69,0,0,0-1.25,0,4.3,4.3,0,0,0-.81.16,1.29,1.29,0,0,0-.49.26,1.06,1.06,0,0,0-.26.43.9.9,0,0,0,0,.46.91.91,0,0,0,.17.42,1.59,1.59,0,0,0,.36.32,1.89,1.89,0,0,0,.47.24,1.47,1.47,0,0,0,1.23-.09,2.16,2.16,0,0,0,.79-1.15,2.32,2.32,0,0,1,1.18.73,1.17,1.17,0,0,1,.1,1,1.15,1.15,0,0,1-.33.48,1.24,1.24,0,0,1-.67.32,3.06,3.06,0,0,1-1,0,5.73,5.73,0,0,1-1.36-.32,5.17,5.17,0,0,1-1.37-.63,3.19,3.19,0,0,1-.94-.85,2.71,2.71,0,0,1-.42-1.06,2.54,2.54,0,0,1,.15-1.22,3.16,3.16,0,0,1,.51-.89,2.77,2.77,0,0,1,.79-.56,3,3,0,0,1,1.06-.31,9.94,9.94,0,0,1,1.34-.09,6.86,6.86,0,0,0,1.09,0,2.32,2.32,0,0,0,.73-.15,1.18,1.18,0,0,0,.45-.28,1.09,1.09,0,0,0,.27-.42,1.19,1.19,0,0,0,0-.46,1.23,1.23,0,0,0-.57-.88,4.6,4.6,0,0,0-.68-.31,1.78,1.78,0,0,0-.76-.11,1.65,1.65,0,0,0-.72.23,2.21,2.21,0,0,0-.59.55,2.91,2.91,0,0,0-.46.87,2.28,2.28,0,0,1-.45-.2,1.23,1.23,0,0,1-.6-1.56,1.87,1.87,0,0,1,.43-.68,1.68,1.68,0,0,1,.78-.41,4.5,4.5,0,0,1,1.16,0,8.25,8.25,0,0,1,1.54.38A9,9,0,0,1,154.41,88.14Z" fill="#0c3c63"/><path d="M157.12,90.07l.29-.85,5.18,1.8-.3.85-.18-.06a1.38,1.38,0,0,0-.4-.1,1.09,1.09,0,0,0-.44,0,.8.8,0,0,0-.39.22,1.35,1.35,0,0,0-.31.53l-2.37,6.8-3.82-1.33.29-.85.18.06a1.8,1.8,0,0,0,.4.1,1.09,1.09,0,0,0,.44,0,2.24,2.24,0,0,0,.4-.22,1.72,1.72,0,0,0,.29-.49l1.71-4.93a1,1,0,0,0,.09-.6.91.91,0,0,0-.17-.42,3,3,0,0,0-.34-.28,1.84,1.84,0,0,0-.38-.17Zm-2.27,10.38a.93.93,0,0,1,.41-.26,1.06,1.06,0,0,1,.5-.06,1.86,1.86,0,0,1,1.06.37,1.06,1.06,0,0,1,.39.37.9.9,0,0,1,.2.47,1.51,1.51,0,0,1-.4,1,1.16,1.16,0,0,1-.45.24,1.19,1.19,0,0,1-.53,0,1.81,1.81,0,0,1-1.06-.37,1.13,1.13,0,0,1-.36-.36,1.06,1.06,0,0,1-.16-.45,1.06,1.06,0,0,1,.4-1Z" fill="#0c3c63"/><path d="M169.58,100.49a3.81,3.81,0,0,1-1.34,1.12,3.36,3.36,0,0,1-1.61.39,5,5,0,0,1-1.84-.32A4.24,4.24,0,0,1,162,99.49a5,5,0,0,1,.12-3.78,5.68,5.68,0,0,1,1-1.88,3.73,3.73,0,0,1,1.34-1.12,3.46,3.46,0,0,1,1.61-.4,5.47,5.47,0,0,1,1.83.32,4.45,4.45,0,0,1,2.76,2.24,5.2,5.2,0,0,1-.13,3.8A6,6,0,0,1,169.58,100.49Zm-5.46-2.34a3.86,3.86,0,0,0-.11,1.22,1.46,1.46,0,0,0,.53,1.1,1.49,1.49,0,0,0,2.11-.16l0,0a4.13,4.13,0,0,0,.66-1,13,13,0,0,0,.64-1.48,7.67,7.67,0,0,0,.46-1.55,4.4,4.4,0,0,0,.1-1.2,1.4,1.4,0,0,0-1-1.34,1.25,1.25,0,0,0-.85-.06,1.51,1.51,0,0,0-.77.49,4.13,4.13,0,0,0-.66,1,10.17,10.17,0,0,0-.64,1.48C164.43,97.15,164.29,97.65,164.12,98.15Z" fill="#0c3c63"/><path d="M183.23,98.25l-.29.85h0a3.23,3.23,0,0,0-.51-.14.68.68,0,0,0-.4,0,.78.78,0,0,0-.34.28,1.83,1.83,0,0,0-.28.58l-1.31,3.75a4.92,4.92,0,0,1-.67,1.36,2.76,2.76,0,0,1-.86.77,2.44,2.44,0,0,1-1,.27,4,4,0,0,1-1.2-.22,5.24,5.24,0,0,1-.69-.28,2.31,2.31,0,0,1-.58-.4,2.42,2.42,0,0,1-.42-.62,3,3,0,0,1-.27-.93h-.07l-.62,1.09-3.44-1.24.31-.89h0a2.73,2.73,0,0,0,.51.14.68.68,0,0,0,.4,0,.57.57,0,0,0,.36-.23,3.06,3.06,0,0,0,.26-.51l1.68-4.82a2,2,0,0,0,.1-.64,1,1,0,0,0-.16-.45,1.3,1.3,0,0,0-.34-.28,3.26,3.26,0,0,0-.48-.2h0l.3-.85,5,1.74-.29.85h0a3.23,3.23,0,0,0-.51-.14.9.9,0,0,0-.4,0,.58.58,0,0,0-.36.23,3.06,3.06,0,0,0-.26.51L175.27,101a7,7,0,0,0-.26,1,4.51,4.51,0,0,0,0,.9,1.43,1.43,0,0,0,.23.72,1.34,1.34,0,0,0,1.25.51,1.66,1.66,0,0,0,.54-.29,2.16,2.16,0,0,0,.44-.6,7.11,7.11,0,0,0,.4-.89L179.73,97Z" fill="#0c3c63"/><path d="M186.25,108a1.18,1.18,0,0,0,.45-.28,2,2,0,0,0,.35-.55,5.1,5.1,0,0,0,.3-.73l.31-.89-1.34-.5a5.32,5.32,0,0,1-2.49-1.64,2.34,2.34,0,0,1-.25-2.27,3.7,3.7,0,0,1,.62-1.09,2.22,2.22,0,0,1,.81-.64,2.42,2.42,0,0,1,1-.21,3.12,3.12,0,0,1,1,.2,3.6,3.6,0,0,1,.75.34,3.23,3.23,0,0,1,.52.46,3,3,0,0,1,.36.56c.08.23.2.47.3.74h.14l.71-1,3,1-.3.85h-.07a2.11,2.11,0,0,0-.49-.09.57.57,0,0,0-.34.08,1.14,1.14,0,0,0-.27.31,2.91,2.91,0,0,0-.23.55l-1.38,4.21a4.53,4.53,0,0,1-.66,1.2,2.44,2.44,0,0,1-.93.63,3.19,3.19,0,0,1-1.23.09,8.63,8.63,0,0,1-2.81-.94,4.4,4.4,0,0,1-1-.65,3.7,3.7,0,0,1-.53-.78,1,1,0,0,1,0-.85,1,1,0,0,1,.86-.65,4.08,4.08,0,0,1,1.72.32,2.29,2.29,0,0,0-.21.72,1.34,1.34,0,0,0,0,.63.89.89,0,0,0,.67.79A1.14,1.14,0,0,0,186.25,108Zm-.2-6.07a2.63,2.63,0,0,0-.15.79,1.26,1.26,0,0,0,.11.69,1.37,1.37,0,0,0,.41.54,3.17,3.17,0,0,0,.76.43l.73.29.42-1.2a3.93,3.93,0,0,0,.19-.89,3.14,3.14,0,0,0-.09-.75,2,2,0,0,0-.35-.6,1.45,1.45,0,0,0-.59-.36.78.78,0,0,0-.83.11,2.09,2.09,0,0,0-.59,1Z" fill="#0c3c63"/><path d="M193.36,102.69l.3-.85,5.17,1.8-.29.85-.18-.06a2,2,0,0,0-.4-.1,1.09,1.09,0,0,0-.44,0,.8.8,0,0,0-.39.22,1.35,1.35,0,0,0-.31.53l-3.63,10.41-3.82-1.33.28-.81.18.06a1.38,1.38,0,0,0,.4.1,1.09,1.09,0,0,0,.44,0,2.56,2.56,0,0,0,.39-.22,1.54,1.54,0,0,0,.3-.49l3-8.58a1.54,1.54,0,0,0,.09-.6.91.91,0,0,0-.17-.42,3,3,0,0,0-.34-.28,1.84,1.84,0,0,0-.38-.17Z" fill="#0c3c63"/><path d="M110.81,65.72l-4.26-1.48.3-.85.67.24a1.28,1.28,0,0,0,.34.07.91.91,0,0,0,.33,0,1.13,1.13,0,0,0,.27-.22,1.37,1.37,0,0,0,.26-.51l2.22-6.38a3.87,3.87,0,0,0,.19-1.12,1.69,1.69,0,0,0-.2-.91,2,2,0,0,0-.59-.68,4.88,4.88,0,0,0-2-.73,2.38,2.38,0,0,0-.88.13,2.33,2.33,0,0,0-.75.57,3,3,0,0,0-.57,1.08L104,61.16a2.94,2.94,0,0,0-.12.59,1.21,1.21,0,0,0,.06.38.55.55,0,0,0,.2.23,1.09,1.09,0,0,0,.31.14l.67.24-.29.85-5.6-2,.29-.85.71.25a1.14,1.14,0,0,0,.33.07h.3a.89.89,0,0,0,.28-.23,1.57,1.57,0,0,0,.25-.5l2.17-6.24a4.43,4.43,0,0,1,.91-1.59,2.89,2.89,0,0,1,1.29-.82,4.07,4.07,0,0,1,1.63-.15,9.21,9.21,0,0,1,2,.46,6.78,6.78,0,0,1,1.76.89,3.68,3.68,0,0,1,1,1.15,2.5,2.5,0,0,1,.36,1.36,4.21,4.21,0,0,1-.26,1.53L110,63.27a2.94,2.94,0,0,0-.12.59,1.21,1.21,0,0,0,.06.38.55.55,0,0,0,.2.23.87.87,0,0,0,.31.14l.71.25Z" fill="#0c3c63"/><path d="M119,57.16a1.75,1.75,0,0,0-.61,1l-1.76,5,2.09.73-.38,1.1-2.09-.73-.7,2-1.35-.47a3.88,3.88,0,0,0-.19-1.85,3.16,3.16,0,0,0-.51-.69,2.24,2.24,0,0,0-.85-.54l.29-.81,1.24.43L116,57.08a5,5,0,0,1,.6-1.14,1.76,1.76,0,0,1,.73-.62,1.6,1.6,0,0,1,.89-.16,3.12,3.12,0,0,1,1,.2,7.12,7.12,0,0,1,.76.31c.2.11.44.23.6.33a2.8,2.8,0,0,1,.48.37,1.93,1.93,0,0,1,.3.27l-.3,1a4.85,4.85,0,0,0-.49-.29,4.35,4.35,0,0,0-.59-.25A1.09,1.09,0,0,0,119,57.16Z" fill="#0c3c63"/><path d="M121.94,57.48l-.18-.06.3-.85,5.17,1.8-.29.85-.18-.06a1.38,1.38,0,0,0-.4-.1.82.82,0,0,0-.44,0,.9.9,0,0,0-.4.23,1.65,1.65,0,0,0-.3.53l-2.37,6.8L119,65.29l.3-.85.18.06a1.8,1.8,0,0,0,.4.1,1.09,1.09,0,0,0,.44,0,1.46,1.46,0,0,0,.38-.18,1.92,1.92,0,0,0,.29-.5L122.72,59a1.59,1.59,0,0,0,.09-.61.88.88,0,0,0-.17-.41,2.2,2.2,0,0,0-.34-.28,1.84,1.84,0,0,0-.38-.17Zm-2.42,10.36a1,1,0,0,1,.41-.25,1.07,1.07,0,0,1,.5-.07,1.86,1.86,0,0,1,1.06.37,1.09,1.09,0,0,1,.39.38.87.87,0,0,1,.2.46,2.18,2.18,0,0,1-.08.57,1.92,1.92,0,0,1-.29.5,1.31,1.31,0,0,1-.45.24,1.19,1.19,0,0,1-.53,0,1.86,1.86,0,0,1-1.06-.37,1.13,1.13,0,0,1-.36-.36,1.06,1.06,0,0,1-.16-.45,1.39,1.39,0,0,1,.08-.57A1.51,1.51,0,0,1,119.52,67.84Z" fill="#0c3c63"/><path d="M127.66,59.55l-.18-.06.29-.85,5.18,1.8-.3.85-.18-.06a1.73,1.73,0,0,0-.84-.1.94.94,0,0,0-.39.22,1.86,1.86,0,0,0-.3.53L127.31,72.3,123.48,71l.3-.85.17.06a1.45,1.45,0,0,0,.41.1,1.62,1.62,0,0,0,.44,0,1.9,1.9,0,0,0,.39-.23,1.51,1.51,0,0,0,.29-.49l3-8.57a1.59,1.59,0,0,0,.09-.61.91.91,0,0,0-.17-.42,2.88,2.88,0,0,0-.34-.27,1.17,1.17,0,0,0-.38-.17Z" fill="#0c3c63"/><path d="M133.39,61.47l-.18-.07.29-.85,5.18,1.82-.3.85-.18-.07a2,2,0,0,0-.4-.1,1.62,1.62,0,0,0-.44,0,.8.8,0,0,0-.39.22,1.89,1.89,0,0,0-.31.53l-2.36,6.8-3.83-1.33.3-.85.17.06a1.38,1.38,0,0,0,.4.1,1.62,1.62,0,0,0,.44,0,1.41,1.41,0,0,0,.39-.19,1.72,1.72,0,0,0,.29-.49L134.17,63a1.54,1.54,0,0,0,.09-.6.91.91,0,0,0-.17-.42,3,3,0,0,0-.34-.28,1.84,1.84,0,0,0-.38-.17ZM131,71.83a.93.93,0,0,1,.41-.26.86.86,0,0,1,.5-.06,2.68,2.68,0,0,1,.55.11,3.06,3.06,0,0,1,.51.26,1.22,1.22,0,0,1,.38.37.9.9,0,0,1,.2.47,1.47,1.47,0,0,1-.37,1.06,1,1,0,0,1-.44.24,1.25,1.25,0,0,1-.54.06,2.57,2.57,0,0,1-.55-.12,3,3,0,0,1-.51-.25,1.24,1.24,0,0,1-.35-.37.91.91,0,0,1-.16-.45,1.58,1.58,0,0,1,.08-.57A.7.7,0,0,1,131,71.83Z" fill="#0c3c63"/><path d="M142.69,65.37a1.75,1.75,0,0,0-.61,1l-1.76,5,2.1.73L142,73.2l-2.09-.73-.7,2L137.89,74a3.88,3.88,0,0,0-.19-1.85,3.22,3.22,0,0,0-.51-.7,2.22,2.22,0,0,0-.85-.53l.29-.82,1.27.45,1.83-5.18a4.15,4.15,0,0,1,.6-1.14,1.76,1.76,0,0,1,.73-.62,1.93,1.93,0,0,1,.89-.16,3.12,3.12,0,0,1,1,.2,5.63,5.63,0,0,1,.77.31l.6.32c.15.1.3.2.45.32a1.48,1.48,0,0,1,.3.26l-.37,1.07c-.13-.09-.33-.2-.49-.29a3.37,3.37,0,0,0-.59-.25A1.12,1.12,0,0,0,142.69,65.37Z" fill="#0c3c63"/><path d="M145.68,65.75l-.18-.06.3-.85,5.17,1.8-.29.85-.18-.06a1.38,1.38,0,0,0-.4-.1,1.62,1.62,0,0,0-.44,0,.88.88,0,0,0-.4.22,1.65,1.65,0,0,0-.3.53l-2.37,6.8-3.83-1.33.3-.85.18.06a1.38,1.38,0,0,0,.4.1,1.09,1.09,0,0,0,.44,0,.88.88,0,0,0,.67-.68l1.72-4.93a1.54,1.54,0,0,0,.09-.6.91.91,0,0,0-.17-.42,3,3,0,0,0-.34-.28,1.84,1.84,0,0,0-.38-.17ZM143,76.6a1.36,1.36,0,0,1,.29-.49.93.93,0,0,1,.41-.26,1.06,1.06,0,0,1,.5-.06,1.86,1.86,0,0,1,1.06.37,1.25,1.25,0,0,1,.39.37.9.9,0,0,1,.2.47,2.18,2.18,0,0,1-.08.57,1.72,1.72,0,0,1-.29.49,1,1,0,0,1-.45.24,1.19,1.19,0,0,1-.53.06,1.86,1.86,0,0,1-1.06-.37,1.54,1.54,0,0,1-.36-.36,1.1,1.1,0,0,1-.16-.46A1.58,1.58,0,0,1,143,76.6Z" fill="#0c3c63"/><path d="M157.59,69a3.5,3.5,0,0,1,.85.73,2.09,2.09,0,0,1,.41.78,1.55,1.55,0,0,1-.06.74.87.87,0,0,1-.7.63,2.13,2.13,0,0,0-.16-.66,2,2,0,0,0-.35-.6,2.13,2.13,0,0,0-.54-.5,3.45,3.45,0,0,0-.74-.38,2.21,2.21,0,0,0-1-.13,1.92,1.92,0,0,0-.87.33,2.56,2.56,0,0,0-.76.81,6.37,6.37,0,0,0-.67,1.36l5.31,1.85-.29.85a5,5,0,0,1-.84,1.61,3.21,3.21,0,0,1-1.22,1,3,3,0,0,1-1.46.33,5.32,5.32,0,0,1-3.29-1.18,3.83,3.83,0,0,1-1-1.33,4.09,4.09,0,0,1-.28-1.73,7.32,7.32,0,0,1,.42-2.12,7.23,7.23,0,0,1,.94-1.78,4.19,4.19,0,0,1,1.31-1.13,3.38,3.38,0,0,1,1.62-.43,5.72,5.72,0,0,1,1.92.31A6.21,6.21,0,0,1,157.59,69Zm-4.27,7.33a1,1,0,0,0,.68,0,1.33,1.33,0,0,0,.58-.39,3.4,3.4,0,0,0,.49-.74c.16-.35.32-.69.46-1.08l-2.8-1a4,4,0,0,0-.27,2.13,1.28,1.28,0,0,0,.86,1Z" fill="#0c3c63"/><path d="M165.73,71.73a3.74,3.74,0,0,1,.9,1,2.32,2.32,0,0,1,.36,1.12,3,3,0,0,1-.17,1.29,2.19,2.19,0,0,1-.5.86,2.31,2.31,0,0,1-.74.54,2.9,2.9,0,0,1-1,.3,6.25,6.25,0,0,1-1.14.08,6.42,6.42,0,0,0-1.24,0,5.27,5.27,0,0,0-.81.15,1.31,1.31,0,0,0-.49.27,1,1,0,0,0-.27.42.94.94,0,0,0,0,.47.88.88,0,0,0,.17.41,2.82,2.82,0,0,0,.36.33,2.16,2.16,0,0,0,.48.24,1.41,1.41,0,0,0,1.22-.09,2.09,2.09,0,0,0,.79-1.12,2.4,2.4,0,0,1,1.17.73,1.17,1.17,0,0,1,.1,1,1.28,1.28,0,0,1-1,.8,2.8,2.8,0,0,1-1,0,5.73,5.73,0,0,1-1.36-.32,4.87,4.87,0,0,1-1.37-.63,3.42,3.42,0,0,1-.94-.84,3,3,0,0,1-.42-1.07,2.54,2.54,0,0,1,.15-1.22,3.16,3.16,0,0,1,.51-.89,2.91,2.91,0,0,1,.79-.56,3.24,3.24,0,0,1,1.06-.31,8.54,8.54,0,0,1,1.34-.08,5.73,5.73,0,0,0,1.09-.06,2.32,2.32,0,0,0,.73-.15,1.15,1.15,0,0,0,.45-.27,1.21,1.21,0,0,0,.27-.43,1,1,0,0,0-.12-.91,1.18,1.18,0,0,0-.41-.42,4.66,4.66,0,0,0-.68-.32,1.78,1.78,0,0,0-.76-.11,1.74,1.74,0,0,0-1.3.78,2.62,2.62,0,0,0-.47.87,2.25,2.25,0,0,1-.45-.19,1.33,1.33,0,0,1-.43-.35,2,2,0,0,1-.25-.53,1.26,1.26,0,0,1,.08-.69,2,2,0,0,1,.43-.68,1.62,1.62,0,0,1,.78-.4,3.76,3.76,0,0,1,1.16,0,7.54,7.54,0,0,1,1.54.38C164.84,71.31,165.31,71.55,165.73,71.73Z" fill="#0c3c63"/><path d="M195.48,121.15a3.43,3.43,0,0,1-.55-.35,3,3,0,0,1-1-1.8,2.41,2.41,0,0,1,0-1,.41.41,0,0,1,0-.22h0l.12-.32.06-.18a2.13,2.13,0,0,1,.42-.65,2.88,2.88,0,0,1,1.64-.94,3.35,3.35,0,0,1,1,0,.31.31,0,0,1,.19,0,2.89,2.89,0,0,1-.13,5.64,2.8,2.8,0,0,1-1,0,.72.72,0,0,1-.29-.06l-.32-.11C195.53,121.12,195.49,121.11,195.48,121.15Zm.46-.52h0a2.27,2.27,0,0,0,2.9-1.38v0h0a2.29,2.29,0,1,0-2.92,1.41Z" fill="#0c3c63"/><path d="M197.28,118.72a.7.7,0,0,1,.23.59.86.86,0,0,1-.15.43,1.6,1.6,0,0,1-.25.27.55.55,0,0,1-.39.1,3.87,3.87,0,0,1-.59-.13l-1.14-.39h0l1-2.76h0l.67.24h0l-.34,1h0l.25.09a.91.91,0,0,0,.33,0,.87.87,0,0,0,.22-.17c.19-.21.41-.37.6-.58h0l.71.24v0c-.23.2-.47.43-.71.67a.74.74,0,0,1-.23.2.66.66,0,0,1-.36.11h0S197.26,118.67,197.28,118.72Zm-1.35.56v0l.35.12h.15a.3.3,0,0,0,.26-.15.3.3,0,0,0,.08-.24.37.37,0,0,0-.14-.29.56.56,0,0,0-.2-.11l-.28-.1h0l-.11.32Z" fill="#0c3c63"/><polygon points="98.48 47.72 98.91 47.87 88.1 78.91 87.67 78.76 98.48 47.72" fill="#0c3c63"/></pattern></defs><title>documents_required_for_iec_code</title><g style="isolation:isolate"><g id="Layer_14" data-name="Layer 14"><path d="M266.84,289.79s16.81,11.21,27,2-.6-16,8.95-27,23.8-10.06,26-24.17-11.51-10.5.3-25.14,6-56.77-10.76-52.67-10.45,43-14.68,47.83S288.75,212,287.4,222.35s5.05,23.14-2.7,29.62S262.12,273.28,266.84,289.79Z" fill="#84e572"/><path d="M254.91,297.58s54-31.34,70.41-108.32" fill="none" stroke="#427339" stroke-miterlimit="10"/><path d="M260.33,310.74s.61,12,8.61,13.66,7.43-6,16.1-5.31,13.28,7.82,20.79,3.84.94-9.24,12.15-8.78,29.29-17.31,21.39-23.87-24.29,10.28-28.11,10-5.93-6.64-11.34-3.63-9.29,10.64-15.14,9.24S266.55,302.62,260.33,310.74Z" fill="#84e572"/><path d="M257,308.76S289,319.38,331.8,296.89" fill="none" stroke="#427339" stroke-miterlimit="10"/><path d="M264.35,308.59s10.18,12.54,20.13,8,3.33-12.33,13.23-18.49,20.55-2.05,25.54-12.31S317,275,329.43,266.63s18-41.93,4.26-42.77-18.16,30.36-22.54,33.05S299.49,254.41,296,262s-1.62,18.87-9.07,22S264.65,294.87,264.35,308.59Z" fill="#adeda1"/><path d="M258.49,309s43.68-13.72,72.24-72" fill="none" stroke="#427339" stroke-miterlimit="10"/><path d="M288.89,304.87C293,296,304.32,290,312.45,288s7.37-6.45,8-14.9c.64-8.23,19.06-24.93,20-25.8-1.89,8-5.87,15.87-11.07,19.36-12.48,8.37-1.2,8.86-6.18,19.12s-15.64,6.14-25.54,12.31-3.27,13.92-13.23,18.49c-5.58,2.57-11.23-.25-15.12-3.22v0S284.79,313.77,288.89,304.87Z" fill="#9dea8e"/><path d="M152.45,289.79s-16.81,11.21-27,2,.6-16-8.94-27-23.81-10.06-26-24.17,11.51-10.5-.31-25.14-6-56.77,10.76-52.67,10.45,43,14.68,47.83,14.87,1.34,16.23,11.66-5.06,23.14,2.69,29.62S157.18,273.28,152.45,289.79Z" fill="#84e572"/><path d="M164.38,297.58s-54-31.34-70.41-108.32" fill="none" stroke="#427339" stroke-miterlimit="10"/><path d="M159,310.74s-.61,12-8.62,13.66-7.43-6-16.1-5.31-13.27,7.82-20.79,3.84-.94-9.24-12.14-8.78S72,296.84,79.92,290.28s24.3,10.28,28.12,10,5.92-6.64,11.34-3.63,9.29,10.64,15.14,9.24S152.74,302.62,159,310.74Z" fill="#84e572"/><path d="M162.27,308.76s-31.93,10.62-74.78-11.87" fill="none" stroke="#427339" stroke-miterlimit="10"/><path d="M154.94,308.59s-10.18,12.54-20.13,8-3.32-12.33-13.22-18.49S101,296,96.05,285.75s6.3-10.75-6.19-19.12-18-41.93-4.25-42.77,18.15,30.36,22.53,33.05,11.67-2.5,15.14,5.06,1.63,18.87,9.07,22S154.64,294.87,154.94,308.59Z" fill="#adeda1"/><path d="M160.81,309s-43.69-13.72-72.24-72" fill="none" stroke="#427339" stroke-miterlimit="10"/><path d="M130.41,304.87C126.32,296,115,290,106.84,288s-7.36-6.45-8-14.9c-.64-8.23-19-24.93-20-25.8,1.9,8,5.88,15.87,11.07,19.36,12.49,8.37,1.2,8.86,6.19,19.12s15.64,6.14,25.54,12.31,3.27,13.92,13.22,18.49c5.58,2.57,11.23-.25,15.12-3.22v0S134.5,313.77,130.41,304.87Z" fill="#9dea8e"/><path d="M87.16,355.92c0,2.85-16.73,5.26-37.42,5.39s-37.48-2.07-37.5-4.92S29,351.13,49.67,351,87.15,353.07,87.16,355.92Z" fill="#e2e3e3" style="mix-blend-mode:multiply"/><path d="M66.25,172.9s1,15.11.72,19.5c0,0,3.36,46.28-3,32.5l-1.11-4.27s-4.76-9.69-1.79-25.7L58.5,175.7Z" fill="#ffc1ad"/><path d="M55.83,183.17s8.35,65,9.94,90.8c.2,3.14-1.61,7-2.95,9.81L62,288.09c-.36,4.22-2.81,17.6-3.59,21.77L52.8,336.47l5.48,9.76-4.45,1.92L45,338.38s2.26-4,1.21-20.39c-1-15.71-3.47-29.82-.5-36.18,4.82-10.31.92-21.85-1.29-28.24-5.31-15.28-27.73-42.76-8.6-70.72Z" fill="#ffc1ad"/><path d="M50.46,145.75c-4.74-1.81-3.54-4.2-3.44-6.13.28-5.88-1.54-11.87.14-15.93l-9.06-4s1.24,4.3-1,19c-.52,3.39-6.48,7.13-7.08,7.46-3.59,2,2.37,22.33,20.6,12.29l.23-.13C54.47,156.22,54,147.07,50.46,145.75Z" fill="#ffc1ad"/><path d="M47.16,138.25c-.08-1.25.27-1.65.14-3-4.56-.69-8.26-4.59-9.79-5.56,0,.47.23,4,.19,4.48,1.57,2.51,4.32,6.09,9.22,6.43C46.92,140.63,47.19,138.55,47.16,138.25Z" fill="#fc9f97"/><path d="M65.05,349.71c-4.15-1.24-6.25-2.78-6.9-3.8.22.9-4,.43-7.54-1.4,0,0-4.77-6.82-5.66-6.13-2.13,8.58-.69,3.2,1.33,15.14h2l.61-2.53s2.19,0,5.75,2.58,15,.45,15,.45C71.77,352.77,69.52,351.05,65.05,349.71Z" fill="#0f6ba8"/><path d="M56.36,192s-5.46,64.43-6,85.44l-3.17,10.83c-.55,4.2-4.36,22.79-5.34,26.91l-7,25.1,4.17,10-4.53,1.71-6.56-12.06s1-.05,1.24-14.18c.23-15.75-1.14-28.3,2.12-34.52,5.29-10.08,0-27.67-1.9-34.15-4.6-15.52-7.64-47.13,1.47-62.6Z" fill="#ffc1ad"/><path d="M44.84,355.28c-3.78-2.11-5.5-4.06-5.91-5.2,0,.92-4-.46-7.07-3,0,0-3.18-7.69-4.2-7.2-3.93,7.91-.79,5-1.4,17.07l2.52-.15,0-3.78s2.14.46,5.06,3.76,14.58,3.69,14.58,3.69C50.75,359.71,48.92,357.55,44.84,355.28Z" fill="#0f6ba8"/><path d="M65.39,168.05c-.77-1.27-2.92-10.44-4-15a6.42,6.42,0,0,0-5.53-5.26c-1.85-.23-3.93-1.58-5.47-2.39h0c-.83,2.45-8.26,3.78-12.78,1.14l-4.39-3c-5.94,4-5.36,3.18-6.75,4.36-6.83,5.79-7.14,6.6-1.51,21.07l4,7.79c1.17,8.88-2.89,38.13-2.89,38.13,18.8,8.68,34,1.45,37.2-15.42l-1.07-17.94C65.65,179.36,69,174,65.39,168.05Z" fill="#0f6ba8"/><path d="M52.28,114.74s1.43,2,1,6.29a63.42,63.42,0,0,0,.94,6.75c.27,6.93-4.23,11.27-5.87,11.24a12.78,12.78,0,0,1-8.88-4.22c-3.38-3.63-4.55-17.79-.83-20.73C44.48,109.5,50.51,112.33,52.28,114.74Z" fill="#ffc1ad"/><path d="M26.91,200.2s-8,25.57,1.12,77.6c0,0,10.23,7.72,40.55-.73,0,0,6.1-61-5.32-77.5C63.26,199.57,53.87,203.52,26.91,200.2Z" fill="#092d4a"/><rect x="25.82" y="163.8" width="32.35" height="43.13" rx="0.69" transform="translate(68.81 -2.8) rotate(20.88)" fill="#e2e8ec"/><path d="M38.45,192.77s2.55-2.62,4.16-2.66,4.62-.38,5,.24c.42.81-1.78,1.28-4.18,1.53Z" fill="#ffc1ad"/><path d="M41.23,191.29s6.15,1.24,7.07,1.65a1.27,1.27,0,0,1,.13,2.32c-.49.26.63,1.23-.7,2.24-.83.63-.11.9-.65,1.62-.42.56-1.58.36-1.74,1.06-.28,1.28-1.52.82-2.45.91a9.87,9.87,0,0,1-6.62-3.49C33.31,194.07,41.23,191.29,41.23,191.29Z" fill="#ffc1ad"/><path d="M10.48,175.12c-2.95,7.41-4.64,9.66-3.32,13.1C8.6,192,42.4,200.69,46.76,199.27l1.3-4.11a10.09,10.09,0,0,0-4.33-1.54c-7-1.1-16.46-10.41-23.46-12.12,0,0,1-.75,4.05-5.09" fill="#ffc1ad"/><path d="M22,180.32c3.54-6.15,9.83-15,11-20.44,3.74-17.2-9-13-11.85-5.83-3.42,8.76-9.31,16.37-11.3,21.36Z" fill="#0f6ba8"/><polyline points="58.22 154.12 60.66 161.87 64.1 166.38" fill="none" stroke="#004593" stroke-linecap="round" stroke-miterlimit="10" stroke-width="0.5"/><path d="M52.64,121.73a21.85,21.85,0,0,0,3.69,5.71c.75.78-1.78,3-2.84,3.05C51.16,130.59,52.64,121.73,52.64,121.73Z" fill="#ffc1ad"/><path d="M46.29,192.53s3.59.63,3.86.63,3.14-.28,3.41-.27c.74,0,.38,1.52-1.46,1.75s-2.71.85-4.24.58C45.81,194.86,46.29,192.53,46.29,192.53Z" fill="#ffc1ad"/><path d="M44.9,194.9s5.23.29,5.55.26,3.68-.67,4-.7c.88-.07.62,1.47-1.53,1.92a25.32,25.32,0,0,1-5.88,1A2.13,2.13,0,0,1,44.9,194.9Z" fill="#ffc1ad"/><path d="M34.4,114.8A6.9,6.9,0,0,0,33,106.63c-3.27-2.93-9.43-1.83-11.22,2.15a7,7,0,0,0,12.65,6Z" fill="#73431b"/><path d="M39.94,125.53a13.09,13.09,0,0,0-.12-7.65s5.55-5.84,12-3.69c0,0-10.58-8.28-17.28-1.46s-5.11,16.37,3.26,21Z" fill="#73431b"/><path d="M36,129.59c1.11,1.64,2.94,2.26,4.1,1.37s1.18-2.93.07-4.57S37.18,124.14,36,125,34.84,128,36,129.59Z" fill="#ffc1ad"/><path d="M44.48,301.25l2.63-8.62a13.56,13.56,0,0,0,4-12" fill="none" stroke="#fc9f97" stroke-linecap="round" stroke-miterlimit="10" stroke-width="0.5"/><line x1="26.67" y1="172.56" x2="29.65" y2="165.02" fill="none" stroke="#004593" stroke-linecap="round" stroke-miterlimit="10" stroke-width="0.5"/><path d="M326.34,331.73c0,5.71-52.9,10.34-118.17,10.34S90,337.44,90,331.73s52.9-10.33,118.16-10.33S326.34,326,326.34,331.73Z" fill="#f4f5f6" style="mix-blend-mode:multiply"/><rect x="105.01" y="25.8" width="208.16" height="304.67" rx="5.16" fill="#98764e"/><rect x="114.77" y="36.46" width="186.72" height="284.14" fill="#fcfcfc"/><rect x="169.19" y="121.59" width="110.44" height="4.66" fill="#d8e0e6"/><rect x="169.19" y="135.24" width="110.44" height="4.66" fill="#d8e0e6"/><rect x="135.99" y="119.04" width="23.42" height="23.42" rx="1.28" fill="#e0e6eb"/><polyline points="140.43 130.15 146.29 135.38 154.97 126.37" fill="none" stroke="#32d314" stroke-miterlimit="10" stroke-width="3"/><rect x="169.19" y="159.85" width="110.44" height="4.66" fill="#d8e0e6"/><rect x="169.19" y="173.5" width="110.44" height="4.66" fill="#d8e0e6"/><rect x="135.99" y="157.3" width="23.42" height="23.42" rx="1.28" fill="#e0e6eb"/><polyline points="140.43 168.41 146.29 173.64 154.97 164.63" fill="none" stroke="#fcfcfc" stroke-miterlimit="10" stroke-width="3"/><rect x="169.19" y="198.11" width="110.44" height="4.66" fill="#d8e0e6"/><rect x="169.19" y="211.76" width="110.44" height="4.66" fill="#d8e0e6"/><rect x="135.99" y="195.55" width="23.42" height="23.42" rx="1.28" fill="#e0e6eb"/><polyline points="140.43 206.67 146.29 211.9 154.97 202.89" fill="none" stroke="#fcfcfc" stroke-miterlimit="10" stroke-width="3"/><rect x="169.07" y="236.37" width="110.44" height="4.66" fill="#d8e0e6"/><rect x="169.07" y="250.02" width="85.11" height="4.66" fill="#d8e0e6"/><rect x="135.99" y="233.81" width="23.42" height="23.42" rx="1.28" fill="#e0e6eb"/><polyline points="140.43 244.93 146.29 250.16 154.97 241.15" fill="none" stroke="#fcfcfc" stroke-miterlimit="10" stroke-width="3"/><rect x="169.07" y="288.26" width="85.11" height="4.66" fill="#d8e0e6"/><rect x="169.07" y="274.65" width="85.11" height="4.66" fill="#d8e0e6"/><rect x="135.99" y="272.07" width="23.42" height="23.42" rx="1.28" fill="#e0e6eb"/><polyline points="140.43 283.19 146.29 288.42 154.97 279.41" fill="none" stroke="#fcfcfc" stroke-miterlimit="10" stroke-width="3"/><path d="M244,24.12H231.56a22.89,22.89,0,0,0-44.46,0H174.69A1.72,1.72,0,0,0,173,25.85V37.12a1.73,1.73,0,0,0,1.73,1.73H244a1.73,1.73,0,0,0,1.72-1.73V25.85A1.72,1.72,0,0,0,244,24.12ZM205.07,20a4.13,4.13,0,1,1,4.4,4.1h-.55A4.11,4.11,0,0,1,205.07,20Z" fill="#ffbe69"/><rect x="203.22" y="32.89" width="38.22" height="3.44" rx="1.28" fill="#ffd37e"/><path d="M210.15,6.73c-.27,0-.54,0-.82,0A22.91,22.91,0,0,0,187.1,24.12h1.64A22.91,22.91,0,0,1,210.15,6.73Z" fill="#f2ad63"/><path d="M213.33,20A4.12,4.12,0,0,1,210,24a4.68,4.68,0,0,0,.54.08h.55a4.12,4.12,0,0,0-.27-8.23A4.38,4.38,0,0,0,210,16,4.14,4.14,0,0,1,213.33,20Z" fill="#f2ad63"/><path d="M174.61,37.12V25.85a1.72,1.72,0,0,1,1.72-1.73h-1.64A1.72,1.72,0,0,0,173,25.85V37.12a1.73,1.73,0,0,0,1.73,1.73h1.64A1.73,1.73,0,0,1,174.61,37.12Z" fill="#f2ad63"/><path d="M208.42,16a3.87,3.87,0,0,0-.77-.08,4.12,4.12,0,0,0-.27,8.23h.55a3.85,3.85,0,0,0,.49-.08,4.11,4.11,0,0,1,0-8.07Z" fill="#ffd37e"/><path d="M230,24.12h1.55A22.91,22.91,0,0,0,209.33,6.7c-.26,0-.51,0-.77,0A22.9,22.9,0,0,1,230,24.12Z" fill="#ffd37e"/><path d="M244,24.12h-1.54a1.72,1.72,0,0,1,1.72,1.73V37.12a1.73,1.73,0,0,1-1.72,1.73H244a1.73,1.73,0,0,0,1.72-1.73V25.85A1.72,1.72,0,0,0,244,24.12Z" fill="#ffd37e"/><polygon points="301.44 36.41 301.48 320.6 292.84 320.6 301.44 36.41" fill="#dfe2e5"/><path d="M148.19,66.67a7.66,7.66,0,0,0-1.09-4.11,7.4,7.4,0,0,0-3-2.72,9.88,9.88,0,0,0-4.48-1h-7.08v15.6h7.08a10,10,0,0,0,4.48-1,7.4,7.4,0,0,0,3-2.72A7.69,7.69,0,0,0,148.19,66.67Zm-4.29,2.57a4.21,4.21,0,0,1-1.78,1.69,5.79,5.79,0,0,1-2.71.6h-3.27V61.81h3.27a5.92,5.92,0,0,1,2.71.59,4.37,4.37,0,0,1,1.78,1.68,5.6,5.6,0,0,1,0,5.16Z" fill="#0c3c63"/><path d="M166.35,69.89a8.45,8.45,0,0,0,0-6.45,7.54,7.54,0,0,0-1.79-2.56,8.12,8.12,0,0,0-2.71-1.69,9.5,9.5,0,0,0-3.39-.59,9.31,9.31,0,0,0-3.4.61,8.32,8.32,0,0,0-2.71,1.69,7.7,7.7,0,0,0-1.79,2.55,8.52,8.52,0,0,0,0,6.43,7.64,7.64,0,0,0,1.79,2.56,8.26,8.26,0,0,0,2.72,1.69,10,10,0,0,0,6.78,0,7.94,7.94,0,0,0,2.71-1.68A7.58,7.58,0,0,0,166.35,69.89ZM163,68.69a4.93,4.93,0,0,1-1,1.58,4.55,4.55,0,0,1-1.55,1,4.8,4.8,0,0,1-1.92.37,4.93,4.93,0,0,1-1.94-.37,4.46,4.46,0,0,1-1.55-1,4.88,4.88,0,0,1-1-1.58,5.7,5.7,0,0,1,0-4,4.77,4.77,0,0,1,1-1.58,4.62,4.62,0,0,1,1.55-1,5.11,5.11,0,0,1,1.94-.36,5,5,0,0,1,1.92.36,4.73,4.73,0,0,1,1.55,1,4.83,4.83,0,0,1,1,1.58,5.7,5.7,0,0,1,0,4Z" fill="#0c3c63"/><path d="M171.13,72.46a7.85,7.85,0,0,0,2.69,1.68,9.9,9.9,0,0,0,7.05-.12A7.19,7.19,0,0,0,183.63,72l-2.34-2.14a5.42,5.42,0,0,1-1.77,1.39,4.87,4.87,0,0,1-2.15.48,5.16,5.16,0,0,1-2-.37,4.55,4.55,0,0,1-2.62-2.61,5.75,5.75,0,0,1,0-4.06,4.7,4.7,0,0,1,1-1.58,4.77,4.77,0,0,1,1.59-1,5.35,5.35,0,0,1,2-.36,5,5,0,0,1,2.15.46,5.42,5.42,0,0,1,1.77,1.39l2.34-2.14a7,7,0,0,0-2.76-2.06,9.29,9.29,0,0,0-3.68-.71,9.4,9.4,0,0,0-3.35.59,8.17,8.17,0,0,0-2.7,1.69,7.81,7.81,0,0,0-1.78,2.56,8.6,8.6,0,0,0,0,6.46A8,8,0,0,0,171.13,72.46Z" fill="#0c3c63"/><path d="M192.87,74.73A7,7,0,0,0,198,72.88a7.11,7.11,0,0,0,1.87-5.3V58.87h-3.54v8.62a4.63,4.63,0,0,1-.91,3.2,3.78,3.78,0,0,1-5.1,0,4.63,4.63,0,0,1-.92-3.2V58.87h-3.63v8.71a7.15,7.15,0,0,0,1.87,5.3A7,7,0,0,0,192.87,74.73Z" fill="#0c3c63"/><polygon points="212.33 68.55 206.49 58.87 203.5 58.87 203.5 74.47 206.87 74.47 206.87 65.27 211.45 72.8 213.06 72.8 217.65 65.17 217.69 74.47 221.06 74.47 221.06 58.87 218.05 58.87 212.33 68.55" fill="#0c3c63"/><polygon points="228.36 67.96 235.6 67.96 235.6 65.13 228.36 65.13 228.36 61.77 236.56 61.77 236.56 58.87 224.78 58.87 224.78 74.47 236.85 74.47 236.85 71.57 228.36 71.57 228.36 67.96" fill="#0c3c63"/><polygon points="254.03 58.87 250.46 58.87 250.46 68.33 242.71 58.87 239.72 58.87 239.72 74.47 243.29 74.47 243.29 65 251.04 74.47 254.03 74.47 254.03 58.87" fill="#0c3c63"/><polygon points="255.96 61.81 260.95 61.81 260.95 74.47 264.56 74.47 264.56 61.81 269.55 61.81 269.55 58.87 255.96 58.87 255.96 61.81" fill="#0c3c63"/><path d="M282.62,67.88a3.85,3.85,0,0,0-1.31-1.29,8.56,8.56,0,0,0-1.76-.79,18.31,18.31,0,0,0-1.93-.52c-.66-.14-1.25-.29-1.79-.43a3.51,3.51,0,0,1-1.29-.59,1.21,1.21,0,0,1-.49-1,1.45,1.45,0,0,1,.3-.89,2,2,0,0,1,.95-.64A5.33,5.33,0,0,1,277,61.5a8.16,8.16,0,0,1,2.13.3,8.83,8.83,0,0,1,2.16.9L282.45,60a8.52,8.52,0,0,0-2.51-1,11.81,11.81,0,0,0-2.9-.36,9,9,0,0,0-3.67.66A5,5,0,0,0,271.2,61a4.38,4.38,0,0,0-.71,2.44,4,4,0,0,0,.48,2,3.76,3.76,0,0,0,1.29,1.31,8,8,0,0,0,1.78.81c.65.2,1.29.37,1.93.51s1.23.29,1.77.44a4.15,4.15,0,0,1,1.3.6,1.18,1.18,0,0,1,.49,1,1.26,1.26,0,0,1-.31.85,2,2,0,0,1-1,.59,5.44,5.44,0,0,1-1.73.23,8.66,8.66,0,0,1-2.78-.46,8.26,8.26,0,0,1-2.36-1.17l-1.23,2.72a8.46,8.46,0,0,0,2.78,1.3,12.61,12.61,0,0,0,3.59.5,8.84,8.84,0,0,0,3.68-.67,5,5,0,0,0,2.19-1.75,4.22,4.22,0,0,0,.73-2.41A3.83,3.83,0,0,0,282.62,67.88Z" fill="#0c3c63"/><path d="M157.05,96.17a5.11,5.11,0,0,0,2.34-1.91,5.41,5.41,0,0,0-2.34-8,8.81,8.81,0,0,0-3.61-.68H146.7v15.6h3.63V96.83h3.27l3,4.37h3.88l-3.48-5Zm-1.31-6.92a2.44,2.44,0,0,1,.85,2,2.51,2.51,0,0,1-.85,2,3.82,3.82,0,0,1-2.5.71h-2.91V88.54h2.91A3.82,3.82,0,0,1,155.74,89.25Z" fill="#0c3c63"/><polygon points="166.66 94.69 173.9 94.69 173.9 91.86 166.66 91.86 166.66 88.5 174.85 88.5 174.85 85.6 163.07 85.6 163.07 101.2 175.14 101.2 175.14 98.3 166.66 98.3 166.66 94.69" fill="#0c3c63"/><path d="M190.74,102.13a2.52,2.52,0,0,1-1-.21,3.42,3.42,0,0,1-1-.7l-.19-.21a3.59,3.59,0,0,0,.43-.14,8,8,0,0,0,2.7-1.68,7.65,7.65,0,0,0,1.8-2.57,8.57,8.57,0,0,0,0-6.45,7.82,7.82,0,0,0-1.8-2.56,8,8,0,0,0-2.7-1.68,10,10,0,0,0-6.8,0,8.32,8.32,0,0,0-2.71,1.69,7.7,7.7,0,0,0-1.79,2.55,8.52,8.52,0,0,0,0,6.43,7.64,7.64,0,0,0,1.79,2.56,8.26,8.26,0,0,0,2.72,1.69,8.77,8.77,0,0,0,2.12.52c.51.52,1,1,1.4,1.34a10,10,0,0,0,1.64,1.2,6.56,6.56,0,0,0,3.33.86,5.17,5.17,0,0,0,4.21-1.91l-1.6-1.92A3.41,3.41,0,0,1,190.74,102.13ZM182.08,97a4.72,4.72,0,0,1-1-1.59,5.73,5.73,0,0,1,0-4,4.58,4.58,0,0,1,2.57-2.61,4.93,4.93,0,0,1,1.94-.37,4.88,4.88,0,0,1,1.93.37,4.72,4.72,0,0,1,2.58,2.61,5.73,5.73,0,0,1,0,4,4.76,4.76,0,0,1-2.58,2.63,5.06,5.06,0,0,1-1.93.36,5.11,5.11,0,0,1-1.94-.36A4.7,4.7,0,0,1,182.08,97Z" fill="#0c3c63"/><path d="M207.24,94.23a4.61,4.61,0,0,1-.91,3.19,3.78,3.78,0,0,1-5.1,0,4.61,4.61,0,0,1-.91-3.19V85.6h-3.64v8.71a7.14,7.14,0,0,0,1.88,5.31,8.16,8.16,0,0,0,10.35,0,7.14,7.14,0,0,0,1.88-5.31V85.6h-3.55Z" fill="#0c3c63"/><rect x="214.37" y="85.6" width="3.63" height="15.59" fill="#0c3c63"/><path d="M232,96.17a5.11,5.11,0,0,0,2.34-1.91,5.41,5.41,0,0,0-2.34-8,8.84,8.84,0,0,0-3.61-.68h-6.75v15.6h3.63V96.83h3.27l3,4.37h3.88l-3.47-5Zm-1.32-6.92a2.41,2.41,0,0,1,.85,2,2.48,2.48,0,0,1-.85,2,3.79,3.79,0,0,1-2.49.71h-2.92V88.54h2.92A3.79,3.79,0,0,1,230.72,89.25Z" fill="#0c3c63"/><polygon points="241.64 94.69 248.88 94.69 248.88 91.86 241.64 91.86 241.64 88.5 249.84 88.5 249.84 85.6 238.05 85.6 238.05 101.2 250.13 101.2 250.13 98.3 241.64 98.3 241.64 94.69" fill="#0c3c63"/><path d="M264.56,86.57a10,10,0,0,0-4.48-1H253v15.6h7.08a10,10,0,0,0,4.48-1,7.4,7.4,0,0,0,3-2.72,8.29,8.29,0,0,0,0-8.22A7.4,7.4,0,0,0,264.56,86.57ZM264.4,96a4.32,4.32,0,0,1-1.79,1.7,5.84,5.84,0,0,1-2.7.59h-3.28V88.54h3.28a5.84,5.84,0,0,1,2.7.59,4.36,4.36,0,0,1,1.79,1.69,5.58,5.58,0,0,1,0,5.15Z" fill="#0c3c63"/><path d="M310.72,352.71c0,4.75-19,8.6-42.48,8.6s-42.49-3.85-42.49-8.6,19-8.61,42.49-8.61S310.72,348,310.72,352.71Z" fill="#e2e3e3" style="mix-blend-mode:multiply"/><path d="M291.8,151.38c4.63,4.39,8.43,8.14,10.14,10a3,3,0,0,1,.76,2.56c-1.29,6.93-13.29,25.14-17.46,31.65l-6.84-4.22s10.64-23,10.08-25.51c0,0-2.46-1.6-6.13-4.4" fill="#ffc1ad"/><path d="M281.24,162.61c-4.54-3.47-9.81-10-15.7-16.38a14.55,14.55,0,0,1-3.71-11.53c.63-4,6.33-2.73,6.33-2.73,6.47,5.14,16.89,13,23.64,19.41" fill="#81cbfc"/><polygon points="243.54 194.57 243.52 278.56 251.77 349.45 261.48 348.8 260.91 277.95 282.68 190.03 243.54 194.57" fill="#3d6382"/><polygon points="263.07 196.47 275.2 283.25 295.8 349.53 301.16 343.54 290.95 281.36 286.93 211.6 285.87 198.1 263.07 196.47" fill="#3d6382"/><path d="M251.6,346.46c-1,0-9.42,4.49-14.14,7a1.17,1.17,0,0,0,.41,2.18l11.71,1.51,3.95-.78a3.4,3.4,0,0,1,2.67.6l1.33,1a1.64,1.64,0,0,0,1,.32l1.65-.06a1.64,1.64,0,0,0,1.58-1.7l-.46-11.28Z" fill="#54351b"/><path d="M301.15,343.31c-1.19,0-14.07,3-19.27,4.28a.72.72,0,0,0-.11,1.36L290,352.3l3,.1a2.9,2.9,0,0,1,2.55,1.74h0a1,1,0,0,0,.5.51l.92.42a1.92,1.92,0,0,0,1,.15l3.57-.44a1.89,1.89,0,0,0,1.64-2.06Z" fill="#54351b"/><polygon points="158.87 119.34 176.56 106.57 182 112.15 164.03 125.11 158.87 119.34" fill="#32d314"/><polygon points="157.98 120.37 155.16 127.47 162.82 125.69 157.98 120.37" fill="#ffc1ad"/><path d="M165.77,121.42a4.17,4.17,0,1,1-4.69-3.09A4,4,0,0,1,165.77,121.42Z" fill="#32d314"/><path d="M183.38,108.72a4.18,4.18,0,1,1-4.7-3.1A4,4,0,0,1,183.38,108.72Z" fill="#ffc1ad"/><path d="M181,108.86a1.48,1.48,0,0,1-1.3,1.62,1.4,1.4,0,1,1,1.3-1.62Z" fill="#32d314"/><path d="M155.88,125.67l-.72,1.8,2.08-.48A3.74,3.74,0,0,1,155.88,125.67Z" fill="#32d314"/><path d="M174.14,116.53a2.66,2.66,0,0,1-2.45-.79c-2.25-2.42-3.72-5.28-5-4.67-1.48.71-.57,1.5-1.83,2.4-.4.29-1.69,0-1.95,1s-.29,2-1.22,2.72-.39,3.08-.07,3.9a9,9,0,0,0,1.74,2.2,20.86,20.86,0,0,0,6.62,4.5c2.45,1,4.89-1.69,6.41-4.24,1.15-1.92.15-7.42.15-7.42C175.69,116.26,174.89,116.39,174.14,116.53Z" fill="#ffc1ad"/><polygon points="167 111 170.87 110.7 168.59 112.34 167 111" fill="#ffc1ad"/><path d="M228.91,112.86,227,117.51a.85.85,0,0,0,.55,1l2.07.68Z" fill="#ffc1ad"/><path d="M206,153.35l30.12,7c3.34.5,2.05-24.4,2.05-24.4L222,138l-12-.45" fill="#81cbfc"/><path d="M238.49,135.93l.16-.09c1.54-.89.42-13.32-1.46-16.34l10.72-19.31a137.57,137.57,0,0,0,3.94,24,12.05,12.05,0,0,0,6.19,7.11" fill="#ffc1ad"/><path d="M243.23,125l1.54-7.89s-2.53,5.27-2.56,5.58a31.16,31.16,0,0,1-3.32,3.14,51.19,51.19,0,0,1,.44,8.11Z" fill="#fc9f97"/><path d="M230.61,126.65a1.71,1.71,0,0,0,1.47,1.47c8.62.85,20.56-13.81,19.33-22.57-.62-4.39-5.47-5.81-10-6.26-7.08-.71-12.39-.93-13,11.84C228.41,111.26,230.61,126.65,230.61,126.65Z" fill="#ffc1ad"/><path d="M229.38,104.45l-1-1.66a5.1,5.1,0,0,1,5.17-7.71c11.27,1.92,20.87,5,20.78,10.36-.24,14.61-2.18,18.5-2.18,18.5s-6.22,3.42-7.73-8.86c-4.92,3.92-7.17-8.42-7.17-8.42C237,104.73,232.16,105.09,229.38,104.45Z" fill="#473b30"/><path d="M245.52,116.14c-.66,1.72-2.26,2.75-3.58,2.3s-1.85-2.21-1.19-3.93,2.26-2.76,3.57-2.31S246.18,114.41,245.52,116.14Z" fill="#ffc1ad"/><polygon points="210 137.55 200.35 135.79 173.71 121.19 166.46 125.2 198.28 149.29 206.58 151.53 210 137.55" fill="#ffc1ad"/><path d="M229.88,152.9c-.27-7.21-3-13.76-1.58-14.39,0,0,9.41-3.9,11-4.66,0,0,13.06-1,15.42-4.8,0,0,13,2,13.5,3.08,7.19,15.59,6.57,20,6.57,20L279.78,174l7,24.44c-4.82,3.13-30.85,10.06-43,9.41,0,0-2.08-23.38-2.8-27.19C240.94,180.67,230.12,159.2,229.88,152.9Z" fill="#81cbfc"/><rect x="-0.01" y="-0.09" width="348.46" height="368.2" opacity="0.01" fill="url(#New_Pattern_2)"/></g></g></svg>