<svg xmlns="http://www.w3.org/2000/svg" xmlns:xlink="http://www.w3.org/1999/xlink" width="175" zoomAndPan="magnify" viewBox="0 0 131.25 52.499999" height="70" preserveAspectRatio="xMidYMid meet" version="1.0"><defs><clipPath id="id1"><path d="M 63 33 L 85 33 L 85 41.164062 L 63 41.164062 Z M 63 33 " clip-rule="nonzero"/></clipPath><clipPath id="id2"><path d="M 50 10.703125 L 72 10.703125 L 72 19 L 50 19 Z M 50 10.703125 " clip-rule="nonzero"/></clipPath><clipPath id="id3"><path d="M 25.5625 33 L 30 33 L 30 39 L 25.5625 39 Z M 25.5625 33 " clip-rule="nonzero"/></clipPath><clipPath id="id4"><path d="M 25.5625 20 L 39 20 L 39 32 L 25.5625 32 Z M 25.5625 20 " clip-rule="nonzero"/></clipPath><clipPath id="id5"><path d="M 63 33 L 85 33 L 85 41.164062 L 63 41.164062 Z M 63 33 " clip-rule="nonzero"/></clipPath><clipPath id="id6"><path d="M 50 10.703125 L 72 10.703125 L 72 19 L 50 19 Z M 50 10.703125 " clip-rule="nonzero"/></clipPath><clipPath id="id7"><path d="M 25.5625 33 L 30 33 L 30 39 L 25.5625 39 Z M 25.5625 33 " clip-rule="nonzero"/></clipPath><clipPath id="id8"><path d="M 25.5625 20 L 39 20 L 39 32 L 25.5625 32 Z M 25.5625 20 " clip-rule="nonzero"/></clipPath><clipPath id="id9"><path d="M 98 15 L 105.054688 15 L 105.054688 22 L 98 22 Z M 98 15 " clip-rule="nonzero"/></clipPath></defs><path fill="#575756" d="M 101.273438 18.410156 L 101.273438 19.8125 L 100.871094 19.8125 L 100.871094 16.40625 L 101.925781 16.40625 C 102.324219 16.40625 102.632812 16.492188 102.851562 16.65625 C 103.066406 16.824219 103.175781 17.078125 103.175781 17.417969 C 103.175781 17.597656 103.125 17.761719 103.023438 17.894531 C 102.921875 18.027344 102.785156 18.132812 102.59375 18.21875 C 102.789062 18.292969 102.929688 18.398438 103 18.546875 C 103.078125 18.695312 103.117188 18.863281 103.117188 19.058594 L 103.117188 19.242188 C 103.117188 19.347656 103.125 19.441406 103.136719 19.527344 C 103.144531 19.617188 103.164062 19.695312 103.191406 19.757812 L 103.191406 19.824219 L 102.773438 19.824219 C 102.753906 19.789062 102.75 19.746094 102.738281 19.691406 C 102.726562 19.632812 102.722656 19.578125 102.722656 19.523438 C 102.714844 19.46875 102.714844 19.414062 102.714844 19.363281 C 102.714844 19.3125 102.714844 19.269531 102.714844 19.242188 L 102.714844 19.070312 C 102.714844 18.839844 102.667969 18.679688 102.566406 18.582031 C 102.464844 18.480469 102.292969 18.429688 102.042969 18.429688 L 101.273438 18.429688 Z M 101.273438 18.039062 L 102.015625 18.039062 C 102.113281 18.039062 102.210938 18.027344 102.304688 18 C 102.398438 17.96875 102.476562 17.933594 102.550781 17.875 C 102.617188 17.828125 102.671875 17.761719 102.714844 17.683594 C 102.761719 17.605469 102.777344 17.515625 102.777344 17.417969 C 102.777344 17.300781 102.761719 17.207031 102.734375 17.121094 C 102.707031 17.039062 102.65625 16.972656 102.59375 16.917969 C 102.527344 16.867188 102.441406 16.824219 102.332031 16.800781 C 102.21875 16.777344 102.09375 16.761719 101.929688 16.761719 L 101.277344 16.761719 L 101.277344 18.039062 Z M 101.273438 18.039062 " fill-opacity="1" fill-rule="nonzero"/><path fill="#88aa2d" d="M 62.972656 33.984375 L 62.960938 33.984375 C 62.972656 33.984375 62.972656 33.984375 62.976562 33.996094 Z M 62.972656 33.984375 " fill-opacity="1" fill-rule="nonzero"/><g clip-path="url(#id1)"><path fill="#88aa2d" d="M 63.230469 36.140625 L 64.664062 37.671875 C 64.664062 37.679688 64.675781 37.691406 64.675781 37.691406 L 64.746094 37.769531 C 64.773438 37.792969 64.796875 37.808594 64.800781 37.835938 L 64.890625 37.925781 C 64.902344 37.929688 64.917969 37.941406 64.917969 37.964844 C 65.726562 38.789062 66.675781 39.46875 67.757812 39.984375 C 68.925781 40.542969 70.15625 40.902344 71.441406 41.046875 C 71.953125 41.109375 72.484375 41.125 72.992188 41.125 C 73.777344 41.113281 74.570312 41.046875 75.351562 40.910156 C 76.222656 40.765625 77.039062 40.519531 77.839844 40.191406 C 78.222656 40.027344 78.609375 39.847656 78.992188 39.65625 C 80.132812 39.050781 81.105469 38.285156 81.945312 37.34375 C 82.734375 36.460938 83.34375 35.503906 83.8125 34.453125 C 83.941406 34.1875 84.070312 33.917969 84.1875 33.640625 C 83.933594 33.792969 83.691406 33.945312 83.445312 34.070312 C 81.765625 34.964844 79.914062 35.414062 77.910156 35.414062 C 77.234375 35.414062 76.582031 35.363281 75.953125 35.269531 C 75.289062 35.164062 74.636719 35.003906 74.015625 34.796875 C 73.917969 34.757812 73.839844 34.730469 73.738281 34.691406 C 73.597656 34.644531 73.453125 34.585938 73.324219 34.527344 C 72.367188 34.207031 71.351562 34.003906 70.292969 33.929688 C 69.511719 33.890625 68.761719 33.917969 68.019531 34.003906 C 67.132812 34.105469 66.3125 34.277344 65.582031 34.539062 C 65.226562 34.691406 64.910156 34.859375 64.636719 35.046875 C 64.109375 35.378906 63.648438 35.757812 63.230469 36.140625 Z M 63.230469 36.140625 " fill-opacity="1" fill-rule="nonzero"/></g><g clip-path="url(#id2)"><path fill="#88aa2d" d="M 69.910156 13.949219 C 69.910156 13.929688 69.902344 13.921875 69.878906 13.910156 C 69.070312 13.082031 68.132812 12.402344 67.042969 11.894531 C 65.890625 11.328125 64.664062 10.972656 63.359375 10.824219 C 62.84375 10.761719 62.332031 10.734375 61.828125 10.742188 C 61.039062 10.742188 60.25 10.816406 59.457031 10.945312 C 58.601562 11.101562 57.757812 11.339844 56.972656 11.660156 C 56.574219 11.828125 56.199219 12.003906 55.816406 12.210938 C 54.691406 12.808594 53.703125 13.578125 52.859375 14.511719 C 52.078125 15.390625 51.460938 16.363281 50.996094 17.410156 C 50.867188 17.675781 50.734375 17.941406 50.625 18.226562 C 50.867188 18.070312 51.113281 17.921875 51.363281 17.78125 C 53.042969 16.890625 54.890625 16.453125 56.898438 16.453125 C 57.574219 16.453125 58.214844 16.5 58.855469 16.59375 C 59.519531 16.695312 60.160156 16.851562 60.792969 17.066406 C 60.882812 17.09375 60.980469 17.132812 61.070312 17.171875 C 61.222656 17.222656 61.34375 17.28125 61.484375 17.339844 C 62.441406 17.660156 63.457031 17.859375 64.519531 17.925781 C 65.300781 17.964844 66.0625 17.9375 66.78125 17.859375 C 67.679688 17.761719 68.488281 17.582031 69.230469 17.332031 C 69.578125 17.171875 69.890625 17 70.191406 16.8125 C 70.714844 16.46875 71.179688 16.109375 71.589844 15.726562 L 70.167969 14.195312 C 70.15625 14.183594 70.144531 14.171875 70.140625 14.167969 L 70.066406 14.101562 C 70.050781 14.074219 70.039062 14.050781 70.019531 14.035156 Z M 69.910156 13.949219 " fill-opacity="1" fill-rule="nonzero"/></g><path fill="#88aa2d" d="M 49.199219 32.171875 C 49.082031 32.171875 48.960938 32.210938 48.882812 32.296875 C 48.792969 32.398438 48.753906 32.492188 48.753906 32.621094 C 48.753906 32.734375 48.792969 32.835938 48.882812 32.925781 C 48.960938 33.011719 49.078125 33.0625 49.199219 33.0625 C 49.328125 33.0625 49.441406 33.023438 49.523438 32.933594 C 49.601562 32.847656 49.640625 32.742188 49.640625 32.613281 C 49.640625 32.496094 49.601562 32.386719 49.523438 32.296875 C 49.441406 32.210938 49.328125 32.171875 49.199219 32.171875 Z M 49.199219 32.171875 " fill-opacity="1" fill-rule="nonzero"/><path fill="#88aa2d" d="M 49.480469 33.785156 L 48.933594 33.785156 L 48.933594 37.976562 L 49.472656 37.976562 L 49.472656 33.785156 Z M 49.480469 33.785156 " fill-opacity="1" fill-rule="nonzero"/><path fill="#88aa2d" d="M 55.871094 34 C 55.644531 34.207031 55.539062 34.449219 55.539062 34.742188 C 55.539062 35.046875 55.617188 35.28125 55.78125 35.480469 C 55.933594 35.675781 56.167969 35.839844 56.484375 36 C 56.792969 36.15625 57.015625 36.304688 57.160156 36.421875 C 57.300781 36.550781 57.371094 36.707031 57.371094 36.894531 C 57.371094 37.089844 57.289062 37.25 57.144531 37.394531 C 56.980469 37.542969 56.796875 37.609375 56.582031 37.609375 C 56.273438 37.609375 55.976562 37.453125 55.695312 37.148438 L 55.359375 37.53125 C 55.519531 37.71875 55.695312 37.863281 55.921875 37.964844 C 56.140625 38.070312 56.375 38.128906 56.601562 38.128906 C 56.964844 38.128906 57.277344 38.003906 57.523438 37.757812 C 57.769531 37.515625 57.890625 37.222656 57.890625 36.867188 C 57.890625 36.589844 57.8125 36.355469 57.644531 36.15625 C 57.480469 35.96875 57.226562 35.785156 56.914062 35.625 C 56.597656 35.445312 56.378906 35.3125 56.238281 35.191406 C 56.113281 35.074219 56.039062 34.9375 56.039062 34.757812 C 56.039062 34.59375 56.113281 34.453125 56.230469 34.347656 C 56.351562 34.242188 56.496094 34.171875 56.6875 34.171875 C 56.964844 34.171875 57.25 34.320312 57.546875 34.59375 L 57.890625 34.238281 C 57.496094 33.855469 57.132812 33.667969 56.753906 33.667969 C 56.375 33.679688 56.089844 33.785156 55.871094 34 Z M 55.871094 34 " fill-opacity="1" fill-rule="nonzero"/><path fill="#88aa2d" d="M 53.925781 33.945312 C 53.578125 33.765625 53.207031 33.679688 52.789062 33.679688 C 52.097656 33.679688 51.519531 33.90625 51.074219 34.332031 C 50.628906 34.765625 50.417969 35.292969 50.417969 35.925781 C 50.417969 36.527344 50.632812 37.050781 51.070312 37.480469 C 51.515625 37.902344 52.058594 38.128906 52.710938 38.128906 C 53.109375 38.128906 53.507812 38.042969 53.863281 37.886719 C 54.222656 37.71875 54.515625 37.488281 54.722656 37.183594 L 54.300781 36.898438 C 53.890625 37.394531 53.378906 37.632812 52.769531 37.632812 C 52.246094 37.632812 51.824219 37.453125 51.476562 37.117188 C 51.140625 36.773438 50.964844 36.375 50.964844 35.890625 C 50.964844 35.414062 51.140625 35.007812 51.488281 34.671875 C 51.832031 34.359375 52.257812 34.199219 52.769531 34.199219 C 53.414062 34.199219 53.925781 34.445312 54.300781 34.925781 L 54.722656 34.652344 C 54.542969 34.355469 54.269531 34.109375 53.925781 33.945312 Z M 53.925781 33.945312 " fill-opacity="1" fill-rule="nonzero"/><g clip-path="url(#id3)"><path fill="#88aa2d" d="M 27.765625 33.679688 C 27.152344 33.679688 26.625 33.90625 26.203125 34.332031 C 25.777344 34.765625 25.5625 35.296875 25.5625 35.914062 C 25.5625 36.523438 25.765625 37.039062 26.203125 37.472656 C 26.625 37.902344 27.152344 38.125 27.765625 38.125 C 28.390625 38.125 28.914062 37.898438 29.324219 37.472656 C 29.75 37.039062 29.957031 36.511719 29.957031 35.902344 C 29.957031 35.285156 29.75 34.765625 29.324219 34.332031 C 28.902344 33.90625 28.367188 33.679688 27.765625 33.679688 Z M 26.597656 34.714844 C 26.925781 34.371094 27.3125 34.207031 27.765625 34.207031 C 28.222656 34.207031 28.605469 34.371094 28.917969 34.714844 C 29.253906 35.046875 29.414062 35.445312 29.414062 35.917969 C 29.414062 36.378906 29.257812 36.785156 28.929688 37.109375 C 28.613281 37.433594 28.222656 37.597656 27.753906 37.597656 C 27.289062 37.597656 26.90625 37.433594 26.585938 37.109375 C 26.269531 36.789062 26.113281 36.382812 26.113281 35.917969 C 26.113281 35.457031 26.269531 35.046875 26.597656 34.714844 Z M 26.597656 34.714844 " fill-opacity="1" fill-rule="nonzero"/></g><path fill="#88aa2d" d="M 31.746094 33.855469 C 31.609375 33.960938 31.46875 34.148438 31.3125 34.40625 L 31.3125 33.789062 L 30.757812 33.789062 L 30.757812 37.980469 L 31.3125 37.980469 L 31.3125 36.5625 C 31.3125 35.863281 31.339844 35.386719 31.421875 35.109375 C 31.492188 34.84375 31.589844 34.632812 31.742188 34.460938 C 31.890625 34.292969 32.046875 34.207031 32.214844 34.207031 C 32.304688 34.207031 32.382812 34.222656 32.460938 34.273438 L 32.75 33.8125 C 32.574219 33.722656 32.40625 33.671875 32.226562 33.671875 C 32.054688 33.679688 31.886719 33.738281 31.746094 33.855469 Z M 31.746094 33.855469 " fill-opacity="1" fill-rule="nonzero"/><path fill="#88aa2d" d="M 35.441406 33.679688 C 34.820312 33.679688 34.296875 33.882812 33.859375 34.304688 C 33.414062 34.738281 33.203125 35.238281 33.203125 35.824219 C 33.203125 36.382812 33.410156 36.867188 33.816406 37.28125 C 34.230469 37.691406 34.738281 37.898438 35.355469 37.898438 C 35.691406 37.898438 35.996094 37.84375 36.304688 37.703125 C 36.589844 37.578125 36.84375 37.382812 37.074219 37.109375 L 37.074219 37.292969 C 37.074219 37.742188 37.011719 38.074219 36.90625 38.28125 C 36.800781 38.496094 36.609375 38.675781 36.34375 38.8125 C 36.082031 38.953125 35.769531 39.019531 35.421875 39.019531 C 34.667969 39.019531 34.164062 38.742188 33.851562 38.191406 L 33.257812 38.191406 C 33.617188 39.074219 34.335938 39.503906 35.441406 39.503906 C 35.757812 39.503906 36.054688 39.457031 36.328125 39.355469 C 36.59375 39.265625 36.824219 39.128906 37.019531 38.945312 C 37.214844 38.769531 37.351562 38.550781 37.453125 38.28125 C 37.558594 38.015625 37.609375 37.59375 37.609375 37.027344 L 37.609375 33.785156 L 37.070312 33.785156 L 37.070312 34.511719 C 36.59375 33.960938 36.054688 33.679688 35.441406 33.679688 Z M 34.234375 34.699219 C 34.5625 34.367188 34.964844 34.210938 35.449219 34.210938 C 35.914062 34.210938 36.308594 34.355469 36.617188 34.660156 C 36.933594 34.976562 37.089844 35.359375 37.085938 35.824219 C 37.085938 36.285156 36.921875 36.667969 36.628906 36.960938 C 36.308594 37.253906 35.917969 37.40625 35.421875 37.40625 C 34.9375 37.40625 34.535156 37.25 34.230469 36.957031 C 33.910156 36.648438 33.753906 36.277344 33.753906 35.847656 C 33.75 35.414062 33.910156 35.03125 34.234375 34.699219 Z M 34.234375 34.699219 " fill-opacity="1" fill-rule="nonzero"/><path fill="#88aa2d" d="M 42.917969 33.785156 L 42.382812 33.785156 L 42.382812 34.554688 C 41.960938 33.964844 41.398438 33.671875 40.707031 33.671875 C 40.101562 33.671875 39.601562 33.890625 39.171875 34.320312 C 38.734375 34.757812 38.519531 35.28125 38.519531 35.890625 C 38.519531 36.5 38.734375 37.015625 39.171875 37.472656 C 39.589844 37.902344 40.109375 38.125 40.734375 38.125 C 41.351562 38.125 41.910156 37.832031 42.382812 37.253906 L 42.382812 37.980469 L 42.917969 37.980469 Z M 40.746094 34.210938 C 41.207031 34.210938 41.613281 34.367188 41.9375 34.699219 C 42.257812 35.019531 42.421875 35.425781 42.421875 35.902344 C 42.421875 36.402344 42.257812 36.804688 41.925781 37.136719 C 41.59375 37.460938 41.195312 37.625 40.746094 37.625 C 40.285156 37.625 39.898438 37.449219 39.554688 37.117188 C 39.234375 36.785156 39.070312 36.375 39.070312 35.914062 C 39.070312 35.441406 39.226562 35.035156 39.554688 34.703125 C 39.875 34.359375 40.269531 34.210938 40.746094 34.210938 Z M 40.746094 34.210938 " fill-opacity="1" fill-rule="nonzero"/><path fill="#88aa2d" d="M 45.046875 34.75 C 45.195312 34.558594 45.351562 34.433594 45.546875 34.328125 C 45.742188 34.226562 45.941406 34.175781 46.144531 34.175781 C 46.351562 34.175781 46.527344 34.210938 46.675781 34.265625 C 46.820312 34.332031 46.929688 34.433594 47.019531 34.550781 C 47.121094 34.664062 47.1875 34.816406 47.226562 34.992188 C 47.277344 35.160156 47.304688 35.492188 47.304688 35.980469 L 47.304688 37.980469 L 47.839844 37.980469 L 47.839844 35.824219 C 47.839844 35.285156 47.777344 34.882812 47.671875 34.597656 C 47.570312 34.332031 47.40625 34.109375 47.136719 33.945312 C 46.878906 33.765625 46.589844 33.679688 46.289062 33.679688 C 45.660156 33.679688 45.132812 33.960938 44.699219 34.542969 L 44.699219 33.789062 L 44.152344 33.789062 L 44.152344 37.980469 L 44.699219 37.980469 L 44.699219 36.445312 C 44.699219 35.878906 44.714844 35.484375 44.765625 35.296875 C 44.816406 35.097656 44.90625 34.921875 45.046875 34.75 Z M 45.046875 34.75 " fill-opacity="1" fill-rule="nonzero"/><path fill="#88aa2d" d="M 72.59375 15.847656 L 72.578125 15.871094 C 72.589844 15.878906 72.613281 15.890625 72.628906 15.90625 C 72.605469 15.886719 72.59375 15.871094 72.59375 15.847656 Z M 72.59375 15.847656 " fill-opacity="1" fill-rule="nonzero"/><path fill="#88aa2d" d="M 70.710938 16.613281 C 70.769531 16.652344 70.816406 16.691406 70.878906 16.730469 L 70.882812 16.738281 C 71.09375 16.90625 71.296875 17.082031 71.507812 17.25 C 71.535156 17.277344 71.558594 17.300781 71.585938 17.328125 C 71.714844 17.445312 71.832031 17.554688 71.949219 17.671875 C 71.988281 17.699219 72.027344 17.742188 72.066406 17.777344 C 72.082031 17.792969 72.117188 17.835938 72.144531 17.867188 C 72.273438 17.992188 72.390625 18.132812 72.511719 18.257812 C 73.421875 19.277344 74.046875 20.394531 74.367188 21.609375 C 74.445312 21.890625 74.523438 22.171875 74.597656 22.441406 C 74.738281 23.089844 74.816406 23.703125 74.835938 24.300781 C 74.835938 24.40625 74.835938 24.519531 74.835938 24.617188 C 74.847656 25.285156 74.867188 25.675781 74.867188 25.78125 L 74.867188 25.964844 C 74.867188 26.222656 74.867188 26.488281 74.867188 26.730469 C 74.867188 26.757812 74.867188 26.796875 74.867188 26.835938 C 74.867188 27.433594 74.867188 28.035156 74.855469 28.609375 C 74.855469 28.609375 74.855469 28.609375 74.855469 28.621094 L 67.433594 20.9375 C 67.386719 20.914062 67.355469 20.910156 67.324219 20.910156 L 66.644531 20.910156 L 66.644531 31.171875 L 68.550781 31.171875 L 68.550781 24.667969 L 74.835938 31.167969 L 74.835938 31.179688 C 74.835938 31.1875 74.835938 31.1875 74.835938 31.195312 L 76.695312 31.195312 C 76.695312 31.144531 76.695312 30.921875 76.695312 30.527344 C 76.695312 30.257812 76.695312 29.890625 76.695312 29.453125 C 76.695312 28.597656 76.683594 27.730469 76.683594 26.847656 C 76.683594 26.605469 76.683594 26.371094 76.683594 26.121094 C 76.683594 26.082031 76.683594 26.042969 76.683594 26.003906 L 76.683594 25.617188 C 76.683594 25.476562 76.683594 25.34375 76.683594 25.222656 L 76.683594 24.996094 C 76.683594 24.867188 76.683594 24.75 76.683594 24.625 C 76.683594 23.871094 76.621094 23.144531 76.5 22.445312 C 76.152344 20.53125 75.332031 18.878906 74.027344 17.503906 C 73.777344 17.25 73.503906 17.007812 73.214844 16.757812 C 73.164062 16.707031 73.136719 16.667969 73.085938 16.640625 C 73.070312 16.617188 73.046875 16.613281 73.023438 16.589844 C 72.863281 16.460938 72.699219 16.328125 72.527344 16.207031 C 72.488281 16.167969 72.4375 16.140625 72.390625 16.109375 C 72.238281 16.003906 72.09375 15.890625 71.941406 15.785156 C 71.492188 15.480469 71.015625 15.199219 70.542969 14.941406 C 68.449219 13.835938 66.097656 13.230469 63.480469 13.121094 C 63.414062 13.109375 63.351562 13.109375 63.28125 13.109375 C 63.035156 13.097656 62.789062 13.085938 62.539062 13.085938 C 60.484375 13.085938 58.605469 13.367188 56.863281 13.949219 C 56.660156 14.011719 56.457031 14.078125 56.261719 14.15625 C 56.222656 14.179688 56.171875 14.195312 56.132812 14.207031 C 55.644531 14.40625 55.175781 14.609375 54.710938 14.84375 C 54.632812 14.894531 54.542969 14.933594 54.457031 14.976562 C 55.007812 14.722656 55.59375 14.503906 56.183594 14.339844 L 56.195312 14.339844 C 56.21875 14.328125 56.222656 14.328125 56.234375 14.328125 L 56.25 14.316406 C 57.773438 13.867188 59.425781 13.640625 61.195312 13.640625 C 61.203125 13.640625 61.222656 13.640625 61.222656 13.640625 C 61.234375 13.640625 61.234375 13.640625 61.234375 13.640625 C 61.667969 13.640625 62.082031 13.664062 62.511719 13.679688 C 62.636719 13.691406 62.765625 13.703125 62.90625 13.707031 C 62.917969 13.707031 62.933594 13.707031 62.957031 13.71875 C 62.957031 13.71875 62.96875 13.71875 62.972656 13.71875 C 65.933594 14.007812 68.511719 14.953125 70.710938 16.613281 Z M 70.710938 16.613281 " fill-opacity="1" fill-rule="nonzero"/><path fill="#88aa2d" d="M 63.933594 21.230469 C 63.933594 21.113281 63.933594 21.007812 63.933594 20.921875 L 62.050781 20.921875 L 62.050781 31.183594 L 63.933594 31.183594 Z M 63.933594 21.230469 " fill-opacity="1" fill-rule="nonzero"/><path fill="#88aa2d" d="M 60.023438 22.59375 C 59.882812 22.316406 59.703125 22.0625 59.480469 21.839844 C 59.464844 21.828125 59.464844 21.828125 59.457031 21.820312 C 59.449219 21.808594 59.4375 21.800781 59.425781 21.789062 C 58.839844 21.214844 58.140625 20.921875 57.3125 20.921875 L 50.644531 20.921875 L 50.644531 31.171875 L 52.503906 31.171875 L 52.503906 22.59375 L 57.3125 22.59375 C 57.332031 22.59375 57.332031 22.59375 57.351562 22.59375 C 57.683594 22.601562 57.980469 22.734375 58.21875 22.976562 C 58.476562 23.234375 58.605469 23.527344 58.605469 23.882812 C 58.605469 24.046875 58.570312 24.1875 58.539062 24.320312 C 58.464844 24.496094 58.371094 24.652344 58.21875 24.800781 C 58.21875 24.800781 58.210938 24.8125 58.203125 24.816406 C 58.203125 24.828125 58.203125 24.828125 58.191406 24.828125 C 58.054688 24.980469 57.820312 25.085938 57.496094 25.152344 C 57.484375 25.160156 57.46875 25.160156 57.445312 25.160156 L 57.433594 25.160156 C 57.421875 25.160156 57.417969 25.160156 57.394531 25.160156 L 53.402344 25.160156 L 53.402344 25.171875 L 53.363281 25.171875 C 56 30.089844 59.019531 33.691406 62.410156 35.933594 C 64.9375 37.609375 67.863281 38.5625 71.1875 38.78125 C 74.546875 39.007812 77.46875 38.457031 80.003906 37.105469 C 76.621094 38.140625 73.4375 38.417969 70.429688 37.929688 C 67.46875 37.4375 64.796875 36.210938 62.410156 34.253906 C 60.179688 32.429688 58.203125 29.964844 56.472656 26.851562 L 57.3125 26.851562 L 57.3125 26.832031 C 58.140625 26.832031 58.839844 26.554688 59.425781 25.976562 C 59.671875 25.734375 59.871094 25.460938 60.015625 25.160156 C 60.082031 25.023438 60.144531 24.867188 60.195312 24.710938 C 60.222656 24.585938 60.246094 24.457031 60.273438 24.320312 C 60.296875 24.179688 60.296875 24.023438 60.296875 23.882812 C 60.296875 23.804688 60.296875 23.726562 60.296875 23.648438 C 60.265625 23.269531 60.179688 22.925781 60.023438 22.59375 Z M 60.023438 22.59375 " fill-opacity="1" fill-rule="nonzero"/><path fill="#88aa2d" d="M 62.984375 33.988281 L 62.972656 33.976562 L 62.960938 33.976562 C 62.972656 33.984375 62.972656 33.984375 62.984375 33.988281 Z M 62.984375 33.988281 " fill-opacity="1" fill-rule="nonzero"/><path fill="#88aa2d" d="M 79.472656 22.40625 C 79.40625 22.472656 79.355469 22.535156 79.292969 22.59375 C 78.808594 23.121094 78.464844 23.691406 78.234375 24.320312 C 78.132812 24.597656 78.066406 24.867188 78.015625 25.160156 C 77.964844 25.445312 77.949219 25.738281 77.949219 26.03125 C 77.949219 26.316406 77.972656 26.582031 78.011719 26.847656 C 78.167969 27.921875 78.664062 28.875 79.472656 29.691406 C 80.484375 30.683594 81.6875 31.171875 83.125 31.171875 C 84.558594 31.171875 85.777344 30.679688 86.78125 29.691406 C 87.601562 28.875 88.085938 27.929688 88.242188 26.847656 C 88.28125 26.582031 88.296875 26.320312 88.296875 26.03125 C 88.296875 25.738281 88.28125 25.445312 88.230469 25.160156 L 83.273438 25.160156 L 83.347656 26.84375 L 86.523438 26.84375 L 86.523438 26.851562 C 86.394531 27.480469 86.066406 28.039062 85.585938 28.527344 C 84.910156 29.191406 84.089844 29.53125 83.125 29.53125 C 82.167969 29.53125 81.339844 29.199219 80.667969 28.527344 C 80.179688 28.039062 79.859375 27.480469 79.730469 26.851562 C 79.679688 26.597656 79.652344 26.34375 79.652344 26.078125 C 79.652344 25.753906 79.691406 25.449219 79.757812 25.167969 C 79.835938 24.875 79.953125 24.601562 80.113281 24.324219 C 80.269531 24.082031 80.449219 23.851562 80.667969 23.625 C 81.339844 22.949219 82.167969 22.617188 83.125 22.617188 C 84.097656 22.617188 84.917969 22.949219 85.585938 23.625 C 85.804688 23.851562 85.984375 24.074219 86.136719 24.324219 L 88.019531 24.324219 C 87.800781 23.699219 87.445312 23.128906 86.957031 22.601562 C 86.910156 22.539062 86.851562 22.484375 86.78125 22.410156 C 85.859375 21.492188 84.753906 20.988281 83.472656 20.921875 C 83.355469 20.910156 83.242188 20.910156 83.125 20.910156 C 83.007812 20.910156 82.898438 20.910156 82.78125 20.921875 C 81.496094 20.988281 80.394531 21.484375 79.472656 22.40625 Z M 79.472656 22.40625 " fill-opacity="1" fill-rule="nonzero"/><path fill="#88aa2d" d="M 95.082031 20.914062 C 94.957031 20.902344 94.851562 20.902344 94.734375 20.902344 C 94.617188 20.902344 94.511719 20.902344 94.398438 20.914062 C 93.105469 20.980469 92 21.484375 91.082031 22.40625 C 91.007812 22.472656 90.964844 22.535156 90.902344 22.59375 C 90.417969 23.121094 90.070312 23.691406 89.847656 24.320312 C 89.746094 24.597656 89.679688 24.867188 89.628906 25.160156 C 89.582031 25.445312 89.5625 25.738281 89.5625 26.03125 C 89.5625 26.316406 89.582031 26.582031 89.621094 26.847656 C 89.777344 27.921875 90.273438 28.875 91.082031 29.691406 C 92.089844 30.683594 93.296875 31.171875 94.734375 31.171875 C 96.171875 31.171875 97.382812 30.679688 98.386719 29.691406 C 99.207031 28.875 99.691406 27.929688 99.847656 26.847656 C 99.886719 26.582031 99.910156 26.320312 99.910156 26.03125 C 99.910156 25.738281 99.886719 25.445312 99.84375 25.160156 C 99.804688 24.867188 99.722656 24.597656 99.636719 24.320312 C 99.410156 23.691406 99.050781 23.121094 98.570312 22.59375 C 98.523438 22.535156 98.464844 22.476562 98.394531 22.40625 C 97.472656 21.484375 96.363281 20.988281 95.082031 20.914062 Z M 91.367188 25.160156 C 91.441406 24.867188 91.558594 24.597656 91.734375 24.320312 C 91.871094 24.074219 92.058594 23.847656 92.28125 23.621094 C 92.953125 22.945312 93.78125 22.613281 94.738281 22.613281 C 95.710938 22.613281 96.523438 22.945312 97.199219 23.621094 C 97.417969 23.847656 97.597656 24.070312 97.753906 24.320312 C 97.910156 24.597656 98.027344 24.867188 98.109375 25.160156 C 98.183594 25.445312 98.226562 25.75 98.226562 26.070312 C 98.226562 26.335938 98.199219 26.59375 98.136719 26.847656 C 97.996094 27.472656 97.683594 28.035156 97.199219 28.523438 C 96.523438 29.1875 95.710938 29.527344 94.738281 29.527344 C 93.78125 29.527344 92.953125 29.191406 92.28125 28.523438 C 91.800781 28.035156 91.472656 27.472656 91.34375 26.847656 C 91.28125 26.59375 91.265625 26.335938 91.265625 26.070312 C 91.257812 25.75 91.296875 25.445312 91.367188 25.160156 Z M 91.367188 25.160156 " fill-opacity="1" fill-rule="nonzero"/><g clip-path="url(#id4)"><path fill="#88aa2d" d="M 27.171875 20.914062 C 27.160156 20.914062 27.160156 20.914062 27.15625 20.914062 L 25.570312 31.179688 L 27.417969 31.179688 L 28.289062 25.199219 L 31.558594 31.179688 C 31.570312 31.179688 31.570312 31.179688 31.570312 31.179688 C 31.640625 31.179688 31.691406 31.179688 31.734375 31.179688 L 32.308594 31.179688 L 35.523438 25.257812 L 36.433594 31.179688 L 38.289062 31.179688 L 37.339844 25.15625 L 37.203125 24.3125 L 36.941406 22.660156 L 36.917969 22.59375 L 36.648438 20.921875 L 36.648438 20.910156 L 35.90625 20.910156 L 35.117188 22.378906 L 35.082031 22.429688 L 35.054688 22.476562 L 35.054688 22.5 L 31.917969 28.246094 L 27.859375 20.925781 C 27.675781 20.914062 27.429688 20.914062 27.171875 20.914062 Z M 27.171875 20.914062 " fill-opacity="1" fill-rule="nonzero"/></g><path fill="#88aa2d" d="M 47.917969 22.59375 C 47.867188 22.535156 47.804688 22.476562 47.738281 22.40625 C 46.820312 21.484375 45.714844 20.980469 44.429688 20.914062 C 44.3125 20.902344 44.203125 20.902344 44.085938 20.902344 C 43.96875 20.902344 43.855469 20.902344 43.75 20.914062 C 42.457031 20.980469 41.351562 21.484375 40.433594 22.40625 C 40.363281 22.472656 40.304688 22.535156 40.253906 22.59375 C 39.769531 23.121094 39.410156 23.691406 39.195312 24.320312 C 39.09375 24.597656 39.015625 24.867188 38.976562 25.160156 C 38.925781 25.445312 38.910156 25.738281 38.910156 26.03125 C 38.910156 26.316406 38.925781 26.582031 38.96875 26.847656 C 39.125 27.921875 39.613281 28.875 40.433594 29.691406 C 41.441406 30.683594 42.644531 31.171875 44.085938 31.171875 C 45.523438 31.171875 46.734375 30.679688 47.738281 29.691406 C 48.558594 28.875 49.042969 27.929688 49.199219 26.847656 C 49.238281 26.582031 49.257812 26.320312 49.257812 26.03125 C 49.257812 25.738281 49.238281 25.445312 49.183594 25.160156 C 49.144531 24.867188 49.066406 24.597656 48.976562 24.320312 C 48.753906 23.691406 48.402344 23.121094 47.917969 22.59375 Z M 47.097656 24.320312 C 47.257812 24.597656 47.375 24.867188 47.453125 25.160156 C 47.523438 25.445312 47.570312 25.75 47.570312 26.070312 C 47.570312 26.335938 47.542969 26.59375 47.484375 26.847656 C 47.355469 27.472656 47.023438 28.035156 46.546875 28.523438 C 45.871094 29.1875 45.054688 29.527344 44.085938 29.527344 C 43.125 29.527344 42.296875 29.191406 41.625 28.523438 C 41.140625 28.035156 40.816406 27.472656 40.6875 26.847656 C 40.636719 26.59375 40.597656 26.335938 40.597656 26.070312 C 40.597656 25.75 40.648438 25.445312 40.714844 25.160156 C 40.792969 24.867188 40.917969 24.597656 41.085938 24.320312 C 41.234375 24.074219 41.414062 23.847656 41.632812 23.621094 C 42.300781 22.945312 43.132812 22.613281 44.089844 22.613281 C 45.0625 22.613281 45.875 22.945312 46.550781 23.621094 C 46.761719 23.847656 46.9375 24.074219 47.097656 24.320312 Z M 47.097656 24.320312 " fill-opacity="1" fill-rule="nonzero"/><path fill="#88aa2d" d="M 62.972656 33.984375 L 62.960938 33.984375 C 62.972656 33.984375 62.972656 33.984375 62.976562 33.996094 Z M 62.972656 33.984375 " fill-opacity="1" fill-rule="nonzero"/><g clip-path="url(#id5)"><path fill="#a3bf2f" d="M 63.230469 36.140625 L 64.664062 37.671875 C 64.664062 37.679688 64.675781 37.691406 64.675781 37.691406 L 64.746094 37.769531 C 64.773438 37.792969 64.796875 37.808594 64.800781 37.835938 L 64.890625 37.925781 C 64.902344 37.929688 64.917969 37.941406 64.917969 37.964844 C 65.726562 38.789062 66.675781 39.46875 67.757812 39.984375 C 68.925781 40.542969 70.15625 40.902344 71.441406 41.046875 C 71.953125 41.109375 72.484375 41.125 72.992188 41.125 C 73.777344 41.113281 74.570312 41.046875 75.351562 40.910156 C 76.222656 40.765625 77.039062 40.519531 77.839844 40.191406 C 78.222656 40.027344 78.609375 39.847656 78.992188 39.65625 C 80.132812 39.050781 81.105469 38.285156 81.945312 37.34375 C 82.734375 36.460938 83.34375 35.503906 83.8125 34.453125 C 83.941406 34.1875 84.070312 33.917969 84.1875 33.640625 C 83.933594 33.792969 83.691406 33.945312 83.445312 34.070312 C 81.765625 34.964844 79.914062 35.414062 77.910156 35.414062 C 77.234375 35.414062 76.582031 35.363281 75.953125 35.269531 C 75.289062 35.164062 74.636719 35.003906 74.015625 34.796875 C 73.917969 34.757812 73.839844 34.730469 73.738281 34.691406 C 73.597656 34.644531 73.453125 34.585938 73.324219 34.527344 C 72.367188 34.207031 71.351562 34.003906 70.292969 33.929688 C 69.511719 33.890625 68.761719 33.917969 68.019531 34.003906 C 67.132812 34.105469 66.3125 34.277344 65.582031 34.539062 C 65.226562 34.691406 64.910156 34.859375 64.636719 35.046875 C 64.109375 35.378906 63.648438 35.757812 63.230469 36.140625 Z M 63.230469 36.140625 " fill-opacity="1" fill-rule="nonzero"/></g><g clip-path="url(#id6)"><path fill="#a3bf2f" d="M 69.910156 13.949219 C 69.910156 13.929688 69.902344 13.921875 69.878906 13.910156 C 69.070312 13.082031 68.132812 12.402344 67.042969 11.894531 C 65.890625 11.328125 64.664062 10.972656 63.359375 10.824219 C 62.84375 10.761719 62.332031 10.734375 61.828125 10.742188 C 61.039062 10.742188 60.25 10.816406 59.457031 10.945312 C 58.601562 11.101562 57.757812 11.339844 56.972656 11.660156 C 56.574219 11.828125 56.199219 12.003906 55.816406 12.210938 C 54.691406 12.808594 53.703125 13.578125 52.859375 14.511719 C 52.078125 15.390625 51.460938 16.363281 50.996094 17.410156 C 50.867188 17.675781 50.734375 17.941406 50.625 18.226562 C 50.867188 18.070312 51.113281 17.921875 51.363281 17.78125 C 53.042969 16.890625 54.890625 16.453125 56.898438 16.453125 C 57.574219 16.453125 58.214844 16.5 58.855469 16.59375 C 59.519531 16.695312 60.160156 16.851562 60.792969 17.066406 C 60.882812 17.09375 60.980469 17.132812 61.070312 17.171875 C 61.222656 17.222656 61.34375 17.28125 61.484375 17.339844 C 62.441406 17.660156 63.457031 17.859375 64.519531 17.925781 C 65.300781 17.964844 66.0625 17.9375 66.78125 17.859375 C 67.679688 17.761719 68.488281 17.582031 69.230469 17.332031 C 69.578125 17.171875 69.890625 17 70.191406 16.8125 C 70.714844 16.46875 71.179688 16.109375 71.589844 15.726562 L 70.167969 14.195312 C 70.15625 14.183594 70.144531 14.171875 70.140625 14.167969 L 70.066406 14.101562 C 70.050781 14.074219 70.039062 14.050781 70.019531 14.035156 Z M 69.910156 13.949219 " fill-opacity="1" fill-rule="nonzero"/></g><path fill="#88aa2d" d="M 49.199219 32.171875 C 49.082031 32.171875 48.960938 32.210938 48.882812 32.296875 C 48.792969 32.398438 48.753906 32.492188 48.753906 32.621094 C 48.753906 32.734375 48.792969 32.835938 48.882812 32.925781 C 48.960938 33.011719 49.078125 33.0625 49.199219 33.0625 C 49.328125 33.0625 49.441406 33.023438 49.523438 32.933594 C 49.601562 32.847656 49.640625 32.742188 49.640625 32.613281 C 49.640625 32.496094 49.601562 32.386719 49.523438 32.296875 C 49.441406 32.210938 49.328125 32.171875 49.199219 32.171875 Z M 49.199219 32.171875 " fill-opacity="1" fill-rule="nonzero"/><path fill="#88aa2d" d="M 49.480469 33.785156 L 48.933594 33.785156 L 48.933594 37.976562 L 49.472656 37.976562 L 49.472656 33.785156 Z M 49.480469 33.785156 " fill-opacity="1" fill-rule="nonzero"/><path fill="#88aa2d" d="M 55.871094 34 C 55.644531 34.207031 55.539062 34.449219 55.539062 34.742188 C 55.539062 35.046875 55.617188 35.28125 55.78125 35.480469 C 55.933594 35.675781 56.167969 35.839844 56.484375 36 C 56.792969 36.15625 57.015625 36.304688 57.160156 36.421875 C 57.300781 36.550781 57.371094 36.707031 57.371094 36.894531 C 57.371094 37.089844 57.289062 37.25 57.144531 37.394531 C 56.980469 37.542969 56.796875 37.609375 56.582031 37.609375 C 56.273438 37.609375 55.976562 37.453125 55.695312 37.148438 L 55.359375 37.53125 C 55.519531 37.71875 55.695312 37.863281 55.921875 37.964844 C 56.140625 38.070312 56.375 38.128906 56.601562 38.128906 C 56.964844 38.128906 57.277344 38.003906 57.523438 37.757812 C 57.769531 37.515625 57.890625 37.222656 57.890625 36.867188 C 57.890625 36.589844 57.8125 36.355469 57.644531 36.15625 C 57.480469 35.96875 57.226562 35.785156 56.914062 35.625 C 56.597656 35.445312 56.378906 35.3125 56.238281 35.191406 C 56.113281 35.074219 56.039062 34.9375 56.039062 34.757812 C 56.039062 34.59375 56.113281 34.453125 56.230469 34.347656 C 56.351562 34.242188 56.496094 34.171875 56.6875 34.171875 C 56.964844 34.171875 57.25 34.320312 57.546875 34.59375 L 57.890625 34.238281 C 57.496094 33.855469 57.132812 33.667969 56.753906 33.667969 C 56.375 33.679688 56.089844 33.785156 55.871094 34 Z M 55.871094 34 " fill-opacity="1" fill-rule="nonzero"/><path fill="#88aa2d" d="M 53.925781 33.945312 C 53.578125 33.765625 53.207031 33.679688 52.789062 33.679688 C 52.097656 33.679688 51.519531 33.90625 51.074219 34.332031 C 50.628906 34.765625 50.417969 35.292969 50.417969 35.925781 C 50.417969 36.527344 50.632812 37.050781 51.070312 37.480469 C 51.515625 37.902344 52.058594 38.128906 52.710938 38.128906 C 53.109375 38.128906 53.507812 38.042969 53.863281 37.886719 C 54.222656 37.71875 54.515625 37.488281 54.722656 37.183594 L 54.300781 36.898438 C 53.890625 37.394531 53.378906 37.632812 52.769531 37.632812 C 52.246094 37.632812 51.824219 37.453125 51.476562 37.117188 C 51.140625 36.773438 50.964844 36.375 50.964844 35.890625 C 50.964844 35.414062 51.140625 35.007812 51.488281 34.671875 C 51.832031 34.359375 52.257812 34.199219 52.769531 34.199219 C 53.414062 34.199219 53.925781 34.445312 54.300781 34.925781 L 54.722656 34.652344 C 54.542969 34.355469 54.269531 34.109375 53.925781 33.945312 Z M 53.925781 33.945312 " fill-opacity="1" fill-rule="nonzero"/><g clip-path="url(#id7)"><path fill="#88aa2d" d="M 27.765625 33.679688 C 27.152344 33.679688 26.625 33.90625 26.203125 34.332031 C 25.777344 34.765625 25.5625 35.296875 25.5625 35.914062 C 25.5625 36.523438 25.765625 37.039062 26.203125 37.472656 C 26.625 37.902344 27.152344 38.125 27.765625 38.125 C 28.390625 38.125 28.914062 37.898438 29.324219 37.472656 C 29.75 37.039062 29.957031 36.511719 29.957031 35.902344 C 29.957031 35.285156 29.75 34.765625 29.324219 34.332031 C 28.902344 33.90625 28.367188 33.679688 27.765625 33.679688 Z M 26.597656 34.714844 C 26.925781 34.371094 27.3125 34.207031 27.765625 34.207031 C 28.222656 34.207031 28.605469 34.371094 28.917969 34.714844 C 29.253906 35.046875 29.414062 35.445312 29.414062 35.917969 C 29.414062 36.378906 29.257812 36.785156 28.929688 37.109375 C 28.613281 37.433594 28.222656 37.597656 27.753906 37.597656 C 27.289062 37.597656 26.90625 37.433594 26.585938 37.109375 C 26.269531 36.789062 26.113281 36.382812 26.113281 35.917969 C 26.113281 35.457031 26.269531 35.046875 26.597656 34.714844 Z M 26.597656 34.714844 " fill-opacity="1" fill-rule="nonzero"/></g><path fill="#88aa2d" d="M 31.746094 33.855469 C 31.609375 33.960938 31.46875 34.148438 31.3125 34.40625 L 31.3125 33.789062 L 30.757812 33.789062 L 30.757812 37.980469 L 31.3125 37.980469 L 31.3125 36.5625 C 31.3125 35.863281 31.339844 35.386719 31.421875 35.109375 C 31.492188 34.84375 31.589844 34.632812 31.742188 34.460938 C 31.890625 34.292969 32.046875 34.207031 32.214844 34.207031 C 32.304688 34.207031 32.382812 34.222656 32.460938 34.273438 L 32.75 33.8125 C 32.574219 33.722656 32.40625 33.671875 32.226562 33.671875 C 32.054688 33.679688 31.886719 33.738281 31.746094 33.855469 Z M 31.746094 33.855469 " fill-opacity="1" fill-rule="nonzero"/><path fill="#88aa2d" d="M 35.441406 33.679688 C 34.820312 33.679688 34.296875 33.882812 33.859375 34.304688 C 33.414062 34.738281 33.203125 35.238281 33.203125 35.824219 C 33.203125 36.382812 33.410156 36.867188 33.816406 37.28125 C 34.230469 37.691406 34.738281 37.898438 35.355469 37.898438 C 35.691406 37.898438 35.996094 37.84375 36.304688 37.703125 C 36.589844 37.578125 36.84375 37.382812 37.074219 37.109375 L 37.074219 37.292969 C 37.074219 37.742188 37.011719 38.074219 36.90625 38.28125 C 36.800781 38.496094 36.609375 38.675781 36.34375 38.8125 C 36.082031 38.953125 35.769531 39.019531 35.421875 39.019531 C 34.667969 39.019531 34.164062 38.742188 33.851562 38.191406 L 33.257812 38.191406 C 33.617188 39.074219 34.335938 39.503906 35.441406 39.503906 C 35.757812 39.503906 36.054688 39.457031 36.328125 39.355469 C 36.59375 39.265625 36.824219 39.128906 37.019531 38.945312 C 37.214844 38.769531 37.351562 38.550781 37.453125 38.28125 C 37.558594 38.015625 37.609375 37.59375 37.609375 37.027344 L 37.609375 33.785156 L 37.070312 33.785156 L 37.070312 34.511719 C 36.59375 33.960938 36.054688 33.679688 35.441406 33.679688 Z M 34.234375 34.699219 C 34.5625 34.367188 34.964844 34.210938 35.449219 34.210938 C 35.914062 34.210938 36.308594 34.355469 36.617188 34.660156 C 36.933594 34.976562 37.089844 35.359375 37.085938 35.824219 C 37.085938 36.285156 36.921875 36.667969 36.628906 36.960938 C 36.308594 37.253906 35.917969 37.40625 35.421875 37.40625 C 34.9375 37.40625 34.535156 37.25 34.230469 36.957031 C 33.910156 36.648438 33.753906 36.277344 33.753906 35.847656 C 33.75 35.414062 33.910156 35.03125 34.234375 34.699219 Z M 34.234375 34.699219 " fill-opacity="1" fill-rule="nonzero"/><path fill="#88aa2d" d="M 42.917969 33.785156 L 42.382812 33.785156 L 42.382812 34.554688 C 41.960938 33.964844 41.398438 33.671875 40.707031 33.671875 C 40.101562 33.671875 39.601562 33.890625 39.171875 34.320312 C 38.734375 34.757812 38.519531 35.28125 38.519531 35.890625 C 38.519531 36.5 38.734375 37.015625 39.171875 37.472656 C 39.589844 37.902344 40.109375 38.125 40.734375 38.125 C 41.351562 38.125 41.910156 37.832031 42.382812 37.253906 L 42.382812 37.980469 L 42.917969 37.980469 Z M 40.746094 34.210938 C 41.207031 34.210938 41.613281 34.367188 41.9375 34.699219 C 42.257812 35.019531 42.421875 35.425781 42.421875 35.902344 C 42.421875 36.402344 42.257812 36.804688 41.925781 37.136719 C 41.59375 37.460938 41.195312 37.625 40.746094 37.625 C 40.285156 37.625 39.898438 37.449219 39.554688 37.117188 C 39.234375 36.785156 39.070312 36.375 39.070312 35.914062 C 39.070312 35.441406 39.226562 35.035156 39.554688 34.703125 C 39.875 34.359375 40.269531 34.210938 40.746094 34.210938 Z M 40.746094 34.210938 " fill-opacity="1" fill-rule="nonzero"/><path fill="#88aa2d" d="M 45.046875 34.75 C 45.195312 34.558594 45.351562 34.433594 45.546875 34.328125 C 45.742188 34.226562 45.941406 34.175781 46.144531 34.175781 C 46.351562 34.175781 46.527344 34.210938 46.675781 34.265625 C 46.820312 34.332031 46.929688 34.433594 47.019531 34.550781 C 47.121094 34.664062 47.1875 34.816406 47.226562 34.992188 C 47.277344 35.160156 47.304688 35.492188 47.304688 35.980469 L 47.304688 37.980469 L 47.839844 37.980469 L 47.839844 35.824219 C 47.839844 35.285156 47.777344 34.882812 47.671875 34.597656 C 47.570312 34.332031 47.40625 34.109375 47.136719 33.945312 C 46.878906 33.765625 46.589844 33.679688 46.289062 33.679688 C 45.660156 33.679688 45.132812 33.960938 44.699219 34.542969 L 44.699219 33.789062 L 44.152344 33.789062 L 44.152344 37.980469 L 44.699219 37.980469 L 44.699219 36.445312 C 44.699219 35.878906 44.714844 35.484375 44.765625 35.296875 C 44.816406 35.097656 44.90625 34.921875 45.046875 34.75 Z M 45.046875 34.75 " fill-opacity="1" fill-rule="nonzero"/><path fill="#88aa2d" d="M 72.59375 15.847656 L 72.578125 15.871094 C 72.589844 15.878906 72.613281 15.890625 72.628906 15.90625 C 72.605469 15.886719 72.59375 15.871094 72.59375 15.847656 Z M 72.59375 15.847656 " fill-opacity="1" fill-rule="nonzero"/><path fill="#88aa2d" d="M 70.710938 16.613281 C 70.769531 16.652344 70.816406 16.691406 70.878906 16.730469 L 70.882812 16.738281 C 71.09375 16.90625 71.296875 17.082031 71.507812 17.25 C 71.535156 17.277344 71.558594 17.300781 71.585938 17.328125 C 71.714844 17.445312 71.832031 17.554688 71.949219 17.671875 C 71.988281 17.699219 72.027344 17.742188 72.066406 17.777344 C 72.082031 17.792969 72.117188 17.835938 72.144531 17.867188 C 72.273438 17.992188 72.390625 18.132812 72.511719 18.257812 C 73.421875 19.277344 74.046875 20.394531 74.367188 21.609375 C 74.445312 21.890625 74.523438 22.171875 74.597656 22.441406 C 74.738281 23.089844 74.816406 23.703125 74.835938 24.300781 C 74.835938 24.40625 74.835938 24.519531 74.835938 24.617188 C 74.847656 25.285156 74.867188 25.675781 74.867188 25.78125 L 74.867188 25.964844 C 74.867188 26.222656 74.867188 26.488281 74.867188 26.730469 C 74.867188 26.757812 74.867188 26.796875 74.867188 26.835938 C 74.867188 27.433594 74.867188 28.035156 74.855469 28.609375 C 74.855469 28.609375 74.855469 28.609375 74.855469 28.621094 L 67.433594 20.9375 C 67.386719 20.914062 67.355469 20.910156 67.324219 20.910156 L 66.644531 20.910156 L 66.644531 31.171875 L 68.550781 31.171875 L 68.550781 24.667969 L 74.835938 31.167969 L 74.835938 31.179688 C 74.835938 31.1875 74.835938 31.1875 74.835938 31.195312 L 76.695312 31.195312 C 76.695312 31.144531 76.695312 30.921875 76.695312 30.527344 C 76.695312 30.257812 76.695312 29.890625 76.695312 29.453125 C 76.695312 28.597656 76.683594 27.730469 76.683594 26.847656 C 76.683594 26.605469 76.683594 26.371094 76.683594 26.121094 C 76.683594 26.082031 76.683594 26.042969 76.683594 26.003906 L 76.683594 25.617188 C 76.683594 25.476562 76.683594 25.34375 76.683594 25.222656 L 76.683594 24.996094 C 76.683594 24.867188 76.683594 24.75 76.683594 24.625 C 76.683594 23.871094 76.621094 23.144531 76.5 22.445312 C 76.152344 20.53125 75.332031 18.878906 74.027344 17.503906 C 73.777344 17.25 73.503906 17.007812 73.214844 16.757812 C 73.164062 16.707031 73.136719 16.667969 73.085938 16.640625 C 73.070312 16.617188 73.046875 16.613281 73.023438 16.589844 C 72.863281 16.460938 72.699219 16.328125 72.527344 16.207031 C 72.488281 16.167969 72.4375 16.140625 72.390625 16.109375 C 72.238281 16.003906 72.09375 15.890625 71.941406 15.785156 C 71.492188 15.480469 71.015625 15.199219 70.542969 14.941406 C 68.449219 13.835938 66.097656 13.230469 63.480469 13.121094 C 63.414062 13.109375 63.351562 13.109375 63.28125 13.109375 C 63.035156 13.097656 62.789062 13.085938 62.539062 13.085938 C 60.484375 13.085938 58.605469 13.367188 56.863281 13.949219 C 56.660156 14.011719 56.457031 14.078125 56.261719 14.15625 C 56.222656 14.179688 56.171875 14.195312 56.132812 14.207031 C 55.644531 14.40625 55.175781 14.609375 54.710938 14.84375 C 54.632812 14.894531 54.542969 14.933594 54.457031 14.976562 C 55.007812 14.722656 55.59375 14.503906 56.183594 14.339844 L 56.195312 14.339844 C 56.21875 14.328125 56.222656 14.328125 56.234375 14.328125 L 56.25 14.316406 C 57.773438 13.867188 59.425781 13.640625 61.195312 13.640625 C 61.203125 13.640625 61.222656 13.640625 61.222656 13.640625 C 61.234375 13.640625 61.234375 13.640625 61.234375 13.640625 C 61.667969 13.640625 62.082031 13.664062 62.511719 13.679688 C 62.636719 13.691406 62.765625 13.703125 62.90625 13.707031 C 62.917969 13.707031 62.933594 13.707031 62.957031 13.71875 C 62.957031 13.71875 62.96875 13.71875 62.972656 13.71875 C 65.933594 14.007812 68.511719 14.953125 70.710938 16.613281 Z M 70.710938 16.613281 " fill-opacity="1" fill-rule="nonzero"/><path fill="#88aa2d" d="M 63.933594 21.230469 C 63.933594 21.113281 63.933594 21.007812 63.933594 20.921875 L 62.050781 20.921875 L 62.050781 31.183594 L 63.933594 31.183594 Z M 63.933594 21.230469 " fill-opacity="1" fill-rule="nonzero"/><path fill="#88aa2d" d="M 60.023438 22.59375 C 59.882812 22.316406 59.703125 22.0625 59.480469 21.839844 C 59.464844 21.828125 59.464844 21.828125 59.457031 21.820312 C 59.449219 21.808594 59.4375 21.800781 59.425781 21.789062 C 58.839844 21.214844 58.140625 20.921875 57.3125 20.921875 L 50.644531 20.921875 L 50.644531 31.171875 L 52.503906 31.171875 L 52.503906 22.59375 L 57.3125 22.59375 C 57.332031 22.59375 57.332031 22.59375 57.351562 22.59375 C 57.683594 22.601562 57.980469 22.734375 58.21875 22.976562 C 58.476562 23.234375 58.605469 23.527344 58.605469 23.882812 C 58.605469 24.046875 58.570312 24.1875 58.539062 24.320312 C 58.464844 24.496094 58.371094 24.652344 58.21875 24.800781 C 58.21875 24.800781 58.210938 24.8125 58.203125 24.816406 C 58.203125 24.828125 58.203125 24.828125 58.191406 24.828125 C 58.054688 24.980469 57.820312 25.085938 57.496094 25.152344 C 57.484375 25.160156 57.46875 25.160156 57.445312 25.160156 L 57.433594 25.160156 C 57.421875 25.160156 57.417969 25.160156 57.394531 25.160156 L 53.402344 25.160156 L 53.402344 25.171875 L 53.363281 25.171875 C 56 30.089844 59.019531 33.691406 62.410156 35.933594 C 64.9375 37.609375 67.863281 38.5625 71.1875 38.78125 C 74.546875 39.007812 77.46875 38.457031 80.003906 37.105469 C 76.621094 38.140625 73.4375 38.417969 70.429688 37.929688 C 67.46875 37.4375 64.796875 36.210938 62.410156 34.253906 C 60.179688 32.429688 58.203125 29.964844 56.472656 26.851562 L 57.3125 26.851562 L 57.3125 26.832031 C 58.140625 26.832031 58.839844 26.554688 59.425781 25.976562 C 59.671875 25.734375 59.871094 25.460938 60.015625 25.160156 C 60.082031 25.023438 60.144531 24.867188 60.195312 24.710938 C 60.222656 24.585938 60.246094 24.457031 60.273438 24.320312 C 60.296875 24.179688 60.296875 24.023438 60.296875 23.882812 C 60.296875 23.804688 60.296875 23.726562 60.296875 23.648438 C 60.265625 23.269531 60.179688 22.925781 60.023438 22.59375 Z M 60.023438 22.59375 " fill-opacity="1" fill-rule="nonzero"/><path fill="#88aa2d" d="M 62.984375 33.988281 L 62.972656 33.976562 L 62.960938 33.976562 C 62.972656 33.984375 62.972656 33.984375 62.984375 33.988281 Z M 62.984375 33.988281 " fill-opacity="1" fill-rule="nonzero"/><path fill="#88aa2d" d="M 79.472656 22.40625 C 79.40625 22.472656 79.355469 22.535156 79.292969 22.59375 C 78.808594 23.121094 78.464844 23.691406 78.234375 24.320312 C 78.132812 24.597656 78.066406 24.867188 78.015625 25.160156 C 77.964844 25.445312 77.949219 25.738281 77.949219 26.03125 C 77.949219 26.316406 77.972656 26.582031 78.011719 26.847656 C 78.167969 27.921875 78.664062 28.875 79.472656 29.691406 C 80.484375 30.683594 81.6875 31.171875 83.125 31.171875 C 84.558594 31.171875 85.777344 30.679688 86.78125 29.691406 C 87.601562 28.875 88.085938 27.929688 88.242188 26.847656 C 88.28125 26.582031 88.296875 26.320312 88.296875 26.03125 C 88.296875 25.738281 88.28125 25.445312 88.230469 25.160156 L 83.273438 25.160156 L 83.347656 26.84375 L 86.523438 26.84375 L 86.523438 26.851562 C 86.394531 27.480469 86.066406 28.039062 85.585938 28.527344 C 84.910156 29.191406 84.089844 29.53125 83.125 29.53125 C 82.167969 29.53125 81.339844 29.199219 80.667969 28.527344 C 80.179688 28.039062 79.859375 27.480469 79.730469 26.851562 C 79.679688 26.597656 79.652344 26.34375 79.652344 26.078125 C 79.652344 25.753906 79.691406 25.449219 79.757812 25.167969 C 79.835938 24.875 79.953125 24.601562 80.113281 24.324219 C 80.269531 24.082031 80.449219 23.851562 80.667969 23.625 C 81.339844 22.949219 82.167969 22.617188 83.125 22.617188 C 84.097656 22.617188 84.917969 22.949219 85.585938 23.625 C 85.804688 23.851562 85.984375 24.074219 86.136719 24.324219 L 88.019531 24.324219 C 87.800781 23.699219 87.445312 23.128906 86.957031 22.601562 C 86.910156 22.539062 86.851562 22.484375 86.78125 22.410156 C 85.859375 21.492188 84.753906 20.988281 83.472656 20.921875 C 83.355469 20.910156 83.242188 20.910156 83.125 20.910156 C 83.007812 20.910156 82.898438 20.910156 82.78125 20.921875 C 81.496094 20.988281 80.394531 21.484375 79.472656 22.40625 Z M 79.472656 22.40625 " fill-opacity="1" fill-rule="nonzero"/><path fill="#88aa2d" d="M 95.082031 20.914062 C 94.957031 20.902344 94.851562 20.902344 94.734375 20.902344 C 94.617188 20.902344 94.511719 20.902344 94.398438 20.914062 C 93.105469 20.980469 92 21.484375 91.082031 22.40625 C 91.007812 22.472656 90.964844 22.535156 90.902344 22.59375 C 90.417969 23.121094 90.070312 23.691406 89.847656 24.320312 C 89.746094 24.597656 89.679688 24.867188 89.628906 25.160156 C 89.582031 25.445312 89.5625 25.738281 89.5625 26.03125 C 89.5625 26.316406 89.582031 26.582031 89.621094 26.847656 C 89.777344 27.921875 90.273438 28.875 91.082031 29.691406 C 92.089844 30.683594 93.296875 31.171875 94.734375 31.171875 C 96.171875 31.171875 97.382812 30.679688 98.386719 29.691406 C 99.207031 28.875 99.691406 27.929688 99.847656 26.847656 C 99.886719 26.582031 99.910156 26.320312 99.910156 26.03125 C 99.910156 25.738281 99.886719 25.445312 99.84375 25.160156 C 99.804688 24.867188 99.722656 24.597656 99.636719 24.320312 C 99.410156 23.691406 99.050781 23.121094 98.570312 22.59375 C 98.523438 22.535156 98.464844 22.476562 98.394531 22.40625 C 97.472656 21.484375 96.363281 20.988281 95.082031 20.914062 Z M 91.367188 25.160156 C 91.441406 24.867188 91.558594 24.597656 91.734375 24.320312 C 91.871094 24.074219 92.058594 23.847656 92.28125 23.621094 C 92.953125 22.945312 93.78125 22.613281 94.738281 22.613281 C 95.710938 22.613281 96.523438 22.945312 97.199219 23.621094 C 97.417969 23.847656 97.597656 24.070312 97.753906 24.320312 C 97.910156 24.597656 98.027344 24.867188 98.109375 25.160156 C 98.183594 25.445312 98.226562 25.75 98.226562 26.070312 C 98.226562 26.335938 98.199219 26.59375 98.136719 26.847656 C 97.996094 27.472656 97.683594 28.035156 97.199219 28.523438 C 96.523438 29.1875 95.710938 29.527344 94.738281 29.527344 C 93.78125 29.527344 92.953125 29.191406 92.28125 28.523438 C 91.800781 28.035156 91.472656 27.472656 91.34375 26.847656 C 91.28125 26.59375 91.265625 26.335938 91.265625 26.070312 C 91.257812 25.75 91.296875 25.445312 91.367188 25.160156 Z M 91.367188 25.160156 " fill-opacity="1" fill-rule="nonzero"/><g clip-path="url(#id8)"><path fill="#88aa2d" d="M 27.171875 20.914062 C 27.160156 20.914062 27.160156 20.914062 27.15625 20.914062 L 25.570312 31.179688 L 27.417969 31.179688 L 28.289062 25.199219 L 31.558594 31.179688 C 31.570312 31.179688 31.570312 31.179688 31.570312 31.179688 C 31.640625 31.179688 31.691406 31.179688 31.734375 31.179688 L 32.308594 31.179688 L 35.523438 25.257812 L 36.433594 31.179688 L 38.289062 31.179688 L 37.339844 25.15625 L 37.203125 24.3125 L 36.941406 22.660156 L 36.917969 22.59375 L 36.648438 20.921875 L 36.648438 20.910156 L 35.90625 20.910156 L 35.117188 22.378906 L 35.082031 22.429688 L 35.054688 22.476562 L 35.054688 22.5 L 31.917969 28.246094 L 27.859375 20.925781 C 27.675781 20.914062 27.429688 20.914062 27.171875 20.914062 Z M 27.171875 20.914062 " fill-opacity="1" fill-rule="nonzero"/></g><path fill="#88aa2d" d="M 47.917969 22.59375 C 47.867188 22.535156 47.804688 22.476562 47.738281 22.40625 C 46.820312 21.484375 45.714844 20.980469 44.429688 20.914062 C 44.3125 20.902344 44.203125 20.902344 44.085938 20.902344 C 43.96875 20.902344 43.855469 20.902344 43.75 20.914062 C 42.457031 20.980469 41.351562 21.484375 40.433594 22.40625 C 40.363281 22.472656 40.304688 22.535156 40.253906 22.59375 C 39.769531 23.121094 39.410156 23.691406 39.195312 24.320312 C 39.09375 24.597656 39.015625 24.867188 38.976562 25.160156 C 38.925781 25.445312 38.910156 25.738281 38.910156 26.03125 C 38.910156 26.316406 38.925781 26.582031 38.96875 26.847656 C 39.125 27.921875 39.613281 28.875 40.433594 29.691406 C 41.441406 30.683594 42.644531 31.171875 44.085938 31.171875 C 45.523438 31.171875 46.734375 30.679688 47.738281 29.691406 C 48.558594 28.875 49.042969 27.929688 49.199219 26.847656 C 49.238281 26.582031 49.257812 26.320312 49.257812 26.03125 C 49.257812 25.738281 49.238281 25.445312 49.183594 25.160156 C 49.144531 24.867188 49.066406 24.597656 48.976562 24.320312 C 48.753906 23.691406 48.402344 23.121094 47.917969 22.59375 Z M 47.097656 24.320312 C 47.257812 24.597656 47.375 24.867188 47.453125 25.160156 C 47.523438 25.445312 47.570312 25.75 47.570312 26.070312 C 47.570312 26.335938 47.542969 26.59375 47.484375 26.847656 C 47.355469 27.472656 47.023438 28.035156 46.546875 28.523438 C 45.871094 29.1875 45.054688 29.527344 44.085938 29.527344 C 43.125 29.527344 42.296875 29.191406 41.625 28.523438 C 41.140625 28.035156 40.816406 27.472656 40.6875 26.847656 C 40.636719 26.59375 40.597656 26.335938 40.597656 26.070312 C 40.597656 25.75 40.648438 25.445312 40.714844 25.160156 C 40.792969 24.867188 40.917969 24.597656 41.085938 24.320312 C 41.234375 24.074219 41.414062 23.847656 41.632812 23.621094 C 42.300781 22.945312 43.132812 22.613281 44.089844 22.613281 C 45.0625 22.613281 45.875 22.945312 46.550781 23.621094 C 46.761719 23.847656 46.9375 24.074219 47.097656 24.320312 Z M 47.097656 24.320312 " fill-opacity="1" fill-rule="nonzero"/><g clip-path="url(#id9)"><path fill="#575756" d="M 101.980469 15.359375 C 103.519531 15.359375 104.773438 16.605469 104.773438 18.136719 C 104.773438 19.667969 103.519531 20.914062 101.980469 20.914062 C 100.441406 20.914062 99.1875 19.667969 99.1875 18.136719 C 99.1875 16.605469 100.441406 15.359375 101.980469 15.359375 M 101.980469 15.082031 C 100.285156 15.082031 98.90625 16.453125 98.90625 18.136719 C 98.90625 19.824219 100.285156 21.191406 101.980469 21.191406 C 103.675781 21.191406 105.054688 19.824219 105.054688 18.136719 C 105.054688 16.453125 103.675781 15.082031 101.980469 15.082031 Z M 101.980469 15.082031 " fill-opacity="1" fill-rule="nonzero"/></g></svg>