<svg width="31" height="34" viewBox="0 0 31 34" fill="none" xmlns="http://www.w3.org/2000/svg">
<path d="M23.2631 24.1578C24.2514 24.1578 25.0526 23.3566 25.0526 22.3683C25.0526 21.38 24.2514 20.5789 23.2631 20.5789C22.2748 20.5789 21.4736 21.38 21.4736 22.3683C21.4736 23.3566 22.2748 24.1578 23.2631 24.1578Z" fill="#32D314"/>
<path d="M28.6316 16.0087V13.7877C28.6298 13.1347 28.4062 12.5008 27.9961 11.9864C27.586 11.4719 27.0128 11.1062 26.3671 10.9469V10.4367C26.3671 8.82107 25.1327 7.50663 23.6147 7.50663H21.7206C21.7308 7.36251 21.7367 7.20397 21.7367 7.05119C21.7748 6.13887 21.6245 5.22841 21.2947 4.37452C20.965 3.52063 20.4626 2.74094 19.8178 2.08231C19.173 1.42368 18.3991 0.899698 17.5426 0.541859C16.6861 0.18402 15.7647 -0.000291314 14.8337 3.45607e-07C13.9027 0.000292006 12.9814 0.185181 12.1251 0.543556C11.2689 0.901932 10.4953 1.4264 9.85096 2.08543C9.2066 2.74447 8.70473 3.52447 8.37552 4.37856C8.04632 5.23266 7.89656 6.14322 7.93526 7.05552C7.93526 7.20829 7.93526 7.36107 7.95142 7.51096H2.75236C2.15082 7.51175 1.56816 7.71701 1.10359 8.09179C0.483701 8.597 0.0932097 9.32255 0.0176345 10.1096C0.00582039 10.2182 -6.59605e-05 10.3274 5.57462e-07 10.4367V31.0699C0.000686713 31.6436 0.17282 32.2045 0.495111 32.6833C0.817401 33.162 1.27571 33.5376 1.81335 33.7636C2.18464 33.9204 2.58473 34.0008 2.98895 34H25.6441C26.4362 33.9992 27.1956 33.6903 27.7557 33.1409C28.3158 32.5916 28.6308 31.8468 28.6316 31.0699V28.5996H26.5743V31.0699C26.5735 31.3116 26.4753 31.5432 26.301 31.7142C26.1267 31.8851 25.8906 31.9815 25.6441 31.9822H2.75236C2.5156 31.9721 2.29256 31.8704 2.13202 31.6995C1.97147 31.5285 1.88649 31.3022 1.89565 31.0699V10.4367C1.89553 10.3253 1.91491 10.2146 1.95296 10.1096C2.00781 9.94272 2.11423 9.79675 2.25748 9.6919C2.40072 9.58705 2.57367 9.52851 2.75236 9.52441H8.4099C8.59725 9.99375 8.83779 10.4409 9.12701 10.8576H4.9419C4.9419 10.9123 4.9419 10.9671 4.9419 11.0219V12.8754H25.6441C25.8906 12.8761 26.1267 12.9725 26.301 13.1434C26.4753 13.3143 26.5735 13.5459 26.5743 13.7877V16.0087H28.6316ZM14.0528 9.42784L11.4282 6.75141L12.7008 5.55228L14.1718 7.05552L17.4179 4.34017L18.5626 5.65605L14.0528 9.42784ZM24.4714 10.8576H20.5435C20.8327 10.4409 21.0733 9.99375 21.2606 9.52441H23.6118C23.8487 9.53415 24.072 9.63569 24.2326 9.80674C24.3932 9.97779 24.4781 10.2044 24.4685 10.4367L24.4714 10.8576Z" fill="#32D314"/>
<path d="M28.8293 27.7368H22.7535C21.4649 27.7368 20.229 27.1712 19.3179 26.1645C18.4067 25.1577 17.8948 23.7922 17.8948 22.3684C17.8948 20.9446 18.4067 19.5791 19.3179 18.5724C20.229 17.5656 21.4649 17 22.7535 17H28.8293C29.2515 17 29.6563 17.1853 29.9549 17.5151C30.2534 17.845 30.4211 18.2923 30.4211 18.7588V25.978C30.4211 26.4445 30.2534 26.8919 29.9549 27.2217C29.6563 27.5515 29.2515 27.7368 28.8293 27.7368ZM22.7535 18.8941C21.9195 18.8941 21.1197 19.2601 20.53 19.9117C19.9403 20.5633 19.609 21.447 19.609 22.3684C19.609 23.2899 19.9403 24.1736 20.53 24.8251C21.1197 25.4767 21.9195 25.8427 22.7535 25.8427H28.7068V18.8941H22.7535Z" fill="#32D314"/>
</svg>
