<svg width="34" height="32" viewBox="0 0 34 32" fill="none" xmlns="http://www.w3.org/2000/svg">
<g clip-path="url(#clip0_92_239)">
<path d="M5.29962 14.9139C5.14839 15.06 5.06455 15.1392 4.98071 15.2234C4.51605 15.6987 4.17676 15.6962 3.70897 15.2052C2.59003 14.03 1.47291 12.8538 0.357628 11.6764C-0.112515 11.1771 -0.118 10.8289 0.345875 10.3403C3.4927 7.02282 6.64084 3.70778 9.79028 0.395211C10.2878 -0.127999 10.5292 -0.126349 11.033 0.401813C12.1708 1.59513 13.3062 2.79092 14.4392 3.98919C14.871 4.44638 14.86 4.84827 14.4126 5.30299C14.2088 5.5093 13.9965 5.70654 13.7183 5.97557C14.2778 6.03829 14.726 6.068 15.1679 6.14062C15.7354 6.24242 16.2814 6.44828 16.7813 6.74883C16.8934 6.81403 16.9921 6.89573 17.1394 6.80412C17.598 6.51256 18.0961 6.29608 18.6164 6.16208C19.1582 6.03448 19.7137 5.98396 20.2682 6.01188C19.9783 5.69994 19.755 5.46474 19.5364 5.22459C19.1595 4.81196 19.1493 4.44142 19.5293 4.03788C20.6968 2.7978 21.869 1.56267 23.046 0.332492C23.4863 -0.127174 23.7387 -0.113145 24.2025 0.375405C27.3703 3.70778 30.5369 7.04235 33.7026 10.3791C34.103 10.8016 34.0983 11.2044 33.6924 11.6319C32.5593 12.8301 31.4239 14.0259 30.2862 15.2192C29.8317 15.6962 29.4603 15.6929 29.009 15.2118C28.9377 15.135 28.8773 15.0467 28.8225 14.9766C28.6438 15.0542 28.694 15.1837 28.6846 15.2786C28.5984 16.1121 28.3892 16.9085 27.9104 17.5844C27.6965 17.8873 27.7725 18.035 27.9888 18.2578C28.7292 19.0146 29.4525 19.7878 30.1828 20.5586C30.7313 21.1363 30.9577 21.8584 30.935 22.6589C30.9036 23.7457 30.3473 24.4926 29.3216 24.8326C29.0865 24.9102 29.034 24.9869 29.074 25.2526C29.3388 27.0319 28.0953 28.3556 26.395 28.1221C26.21 28.0965 26.0698 28.0395 25.9797 28.3176C25.5518 29.6611 24.6578 30.2273 23.3234 30.0218C23.129 29.9921 23.028 29.9888 22.9527 30.2264C22.3627 32.0857 20.2886 32.5924 18.9173 31.2167C18.3508 30.6473 17.8015 30.0614 17.2569 29.4656C17.0924 29.2873 16.9944 29.251 16.7868 29.4309C16.1827 29.9533 15.4673 30.1464 14.6954 30.0408C13.7724 29.9137 13.1839 29.3368 12.9042 28.4208C12.8258 28.1526 12.7522 28.0585 12.4544 28.1146C11.2281 28.3449 10.2604 27.7259 9.86863 26.4757C9.79028 26.2174 9.69311 26.153 9.45412 26.2042C9.118 26.2651 8.77319 26.2462 8.44488 26.1489C7.20214 25.827 6.51651 24.6981 6.75628 23.3265C6.80016 23.074 6.75001 23.0055 6.53375 22.9304C4.81616 22.3403 4.30997 20.1864 5.55036 18.7579C5.77917 18.4938 6.13883 18.2834 6.22894 17.9797C6.32532 17.6562 5.93118 17.388 5.79171 17.0719C5.5057 16.4125 5.35525 15.7251 5.29962 14.9139ZM11.558 18.6135C13.1095 18.6052 14.1156 19.8514 13.9283 21.4482C13.8954 21.728 13.9283 21.8477 14.212 21.9434C15.3819 22.3412 15.9492 23.3744 15.7368 24.6849C15.6961 24.9399 15.7321 25.0307 15.9852 25.1099C17.0172 25.4317 17.5798 26.238 17.5853 27.3727C17.5817 27.4807 17.6004 27.5883 17.6401 27.688C17.6797 27.7877 17.7393 27.8772 17.8148 27.9504C18.5036 28.6634 19.1837 29.3855 19.8662 30.1051C19.9999 30.2569 20.1594 30.3809 20.3364 30.4707C20.7626 30.668 21.2539 30.5021 21.5768 30.0498C21.8502 29.6661 21.8228 29.251 21.4812 28.8582C21.1991 28.5339 20.9092 28.2178 20.6145 27.9058C19.7025 26.9419 18.7849 25.983 17.872 25.0175C17.5367 24.6626 17.4803 24.316 17.6801 23.9851C17.9433 23.5518 18.4558 23.5237 18.8507 23.9364C19.8976 25.0307 20.9374 26.1324 21.985 27.2283C22.3635 27.6252 22.7357 28.0321 23.1377 28.4018C23.5608 28.7913 24.0709 28.7212 24.4987 28.2599C24.8639 27.867 24.8795 27.3645 24.4987 26.9395C23.9463 26.3172 23.3743 25.714 22.8046 25.1091C21.9584 24.212 21.1035 23.324 20.2596 22.4245C19.8749 22.0119 19.9187 21.4581 20.3379 21.1965C20.6475 21.0026 20.9703 21.0661 21.2869 21.3979C22.3875 22.5532 23.4863 23.7086 24.5833 24.864C25.0817 25.3888 25.573 25.9211 26.0815 26.4319C26.5384 26.8933 27.0156 26.8866 27.4246 26.441C27.9221 25.8996 27.8885 25.3616 27.3149 24.7567C25.7843 23.1425 24.2537 21.5277 22.7231 19.9124C22.3392 19.5072 22.3055 19.0872 22.6166 18.7571C22.9277 18.427 23.3429 18.4616 23.7183 18.8536C24.2284 19.3859 24.7291 19.9265 25.2423 20.4563C26.1662 21.4078 27.0367 22.4154 28.0083 23.315C28.4409 23.7152 28.8906 23.6731 29.2769 23.2209C29.7228 22.6993 29.7001 22.1761 29.1806 21.6248C27.6986 20.0552 26.2134 18.4894 24.7252 16.9275C23.3414 15.4693 21.9521 14.0168 20.5762 12.5487C20.3575 12.3152 20.2525 12.3168 20.0958 12.604C19.8819 12.996 19.6304 13.3665 19.3906 13.7437C18.8962 14.5202 18.2051 15.0038 17.3533 15.2531C16.0495 15.6368 14.9188 15.2481 13.8625 14.4278C13.2168 13.9277 13.0311 13.0826 13.459 12.3647C14.2613 11.0294 15.0449 9.6826 15.8575 8.35312C16.0401 8.05356 15.9687 7.9405 15.6961 7.82083C14.1501 7.1334 12.695 7.31578 11.4687 8.50497C10.0684 9.86416 8.74029 11.3108 7.42389 12.7583C6.4883 13.7891 6.39427 15.2531 7.05796 16.4629C7.26247 16.8351 7.44974 16.9679 7.88541 16.8202C9.06077 16.4224 10.1828 16.8755 10.6358 17.964C10.8583 18.4988 11.0299 18.885 11.558 18.6135ZM13.0076 4.63123C12.9293 4.53798 12.8658 4.4538 12.7937 4.37788C12.0932 3.63515 11.3833 2.90893 10.6953 2.15465C10.472 1.90707 10.3482 1.90707 10.117 2.1497C8.3485 4.03623 6.56196 5.9079 4.78011 7.78452L1.95925 10.7596C1.84093 10.8842 1.69362 10.9783 1.89343 11.1837C2.66447 11.9818 3.42688 12.7913 4.19008 13.6026C4.30683 13.7272 4.39538 13.7387 4.51213 13.6026C4.66885 13.421 4.8428 13.251 5.00892 13.076C7.59418 10.3544 10.18 7.63103 12.7663 4.90604C12.8446 4.82764 12.9199 4.73521 13.0076 4.63123ZM23.6101 1.898C23.5444 1.94619 23.4811 1.99797 23.4205 2.05314C22.6628 2.84869 21.9106 3.65083 21.1482 4.43977C20.9867 4.60482 21.0424 4.70055 21.1725 4.83755C23.9338 7.74023 26.6922 10.6462 29.4478 13.5555C29.6296 13.7478 29.7275 13.7032 29.8834 13.5357C30.6059 12.7605 31.3351 11.993 32.0712 11.2333C32.2373 11.0624 32.2545 10.9584 32.079 10.7736C29.3234 7.8852 26.5707 4.99214 23.8209 2.09441C23.7614 2.02756 23.6885 1.97062 23.6101 1.898ZM19.9336 7.46928C19.7911 7.46983 19.6488 7.47948 19.5074 7.49816C18.7402 7.6335 17.9238 7.7804 17.4654 8.48846C16.5204 9.95246 15.6632 11.4817 14.7699 12.9828C14.6986 13.1025 14.6774 13.185 14.8083 13.2906C16.2132 14.4352 17.4944 14.1406 18.2873 12.8021C18.6948 12.1138 19.1273 11.4429 19.5559 10.7695C19.8772 10.2636 20.4053 10.2248 20.8136 10.6581C22.6894 12.6469 24.5648 14.636 26.4396 16.6255C26.6575 16.8582 26.7491 16.8012 26.8941 16.5619C27.6683 15.2803 27.5163 13.7346 26.4569 12.5957C25.222 11.2715 23.9776 9.95906 22.7239 8.65847C21.9772 7.88355 21.0784 7.46598 19.9336 7.46928ZM12.6644 21.029C12.626 20.6164 12.3635 20.3317 12.0015 20.1295C11.8414 20.0286 11.6535 19.9878 11.4685 20.0137C11.2836 20.0396 11.1124 20.1307 10.9829 20.2722C10.0763 21.199 9.1736 22.1315 8.30306 23.0954C7.88541 23.5576 7.97317 24.1254 8.44645 24.5858C8.85469 24.982 9.29271 24.9844 9.72916 24.5372C10.6154 23.6294 11.4836 22.6985 12.3557 21.7734C12.451 21.6767 12.5274 21.5613 12.5804 21.4335C12.6333 21.3058 12.6619 21.1684 12.6644 21.029ZM6.23913 20.67C6.26342 21.0373 6.51181 21.3773 6.90046 21.5943C7.26404 21.7965 7.57041 21.6397 7.85955 21.3748C8.39428 20.8925 8.89209 20.3665 9.34834 19.8019C9.74013 19.3141 9.72289 18.8751 9.31151 18.4616C8.86566 18.0135 8.3391 17.9846 7.91832 18.4055C7.46463 18.8594 7.02191 19.3257 6.5792 19.7919C6.46444 19.9028 6.37437 20.039 6.31545 20.1908C6.25652 20.3426 6.23019 20.5062 6.23834 20.67H6.23913ZM13.4394 23.1672C13.1965 23.1507 13.0162 23.2762 12.8439 23.4346C12.3041 23.9314 11.7965 24.4657 11.3245 25.034C10.9468 25.4903 10.9453 25.9277 11.3245 26.3453C11.7461 26.8058 12.2719 26.8858 12.6809 26.4914C13.209 25.9822 13.7128 25.4433 14.2026 24.8928C14.4619 24.6007 14.527 24.2326 14.3334 23.8621C14.1399 23.4916 13.8829 23.1895 13.4386 23.1672H13.4394ZM14.0725 27.6162C14.0803 28.1328 14.639 28.6684 15.153 28.6519C15.6671 28.6354 16.2657 27.9917 16.2571 27.4519C16.2485 26.9122 15.7164 26.3428 15.2283 26.356C14.7236 26.37 14.0639 27.0897 14.0717 27.6162H14.0725Z" fill="#32D314"/>
</g>
<defs>
<clipPath id="clip0_92_239">
<rect width="34" height="32" fill="white"/>
</clipPath>
</defs>
</svg>
