<svg id="Layer_1" data-name="Layer 1" xmlns="http://www.w3.org/2000/svg" xmlns:xlink="http://www.w3.org/1999/xlink" viewBox="0 0 150 150">
  <defs>
    <linearGradient id="linear-gradient" x1="-264.51" y1="511.99" x2="-128.7" y2="511.99" gradientTransform="translate(-121.6 586.99) rotate(180)" gradientUnits="userSpaceOnUse">
      <stop offset="0" stop-color="#28912e"/>
      <stop offset="1" stop-color="#8ad314"/>
    </linearGradient>
    <linearGradient id="linear-gradient-2" x1="102.89" y1="134.8" x2="52.94" y2="27.68" gradientTransform="matrix(1, 0, 0, 1, 0, 0)" xlink:href="#linear-gradient"/>
  </defs>
  <g>
    <g style="opacity: 0.21">
      <circle cx="75" cy="75" r="67.9" style="fill: url(#linear-gradient)"/>
    </g>
    <circle cx="75" cy="75" r="58.85" style="fill: url(#linear-gradient-2)"/>
  </g>
  <g>
    <g>
      <path d="M92.73,35.78A20.08,20.08,0,0,0,73.59,50.2h.24a8.64,8.64,0,0,1,1.43.08,10.18,10.18,0,0,1,2.22.66A16.18,16.18,0,0,1,92.73,39.77a16.65,16.65,0,0,1,6.67,31.7,10.27,10.27,0,0,1,2.86,3A20.66,20.66,0,0,0,112.82,56.4c0-11.33-9-20.62-20.09-20.62Z" style="fill: #fff"/>
      <path d="M101.23,87.84A6,6,0,0,0,99,83.12a6,6,0,0,0-4.92-9.29H79.7a40.89,40.89,0,0,0,1.51-6.92A26.73,26.73,0,0,0,81,60.8a7.78,7.78,0,0,0-6.19-6.44,5,5,0,0,0-5.64,3.91L68,64.05a15.38,15.38,0,0,1-4.29,7.83L57,78.39a3.4,3.4,0,0,1-2.3.9H52.86a2.76,2.76,0,0,0-2.62-2H40.08A2.72,2.72,0,0,0,37.38,80v23.22a2.71,2.71,0,0,0,2.7,2.77H50.32a2.75,2.75,0,0,0,2.62-2H56l.47.73a13.51,13.51,0,0,0,11.2,6.52h1A73.41,73.41,0,0,0,85.1,109.6a4.82,4.82,0,0,0,1.75.32h6a5.93,5.93,0,0,0,5.87-6,5.52,5.52,0,0,0-1-3.35,6.1,6.1,0,0,0,2.15-4.64,6,6,0,0,0-1-3.26,6.32,6.32,0,0,0,2.31-4.81ZM45.16,101.61a2.56,2.56,0,0,1-2.54-2.68,2.58,2.58,0,1,1,2.54,2.68ZM85.74,77.82H94a2,2,0,0,1,0,3.91H85.74a2,2,0,0,1,0-3.91Zm-4.29,28.36a78.29,78.29,0,0,1-13,1h-.72a9.29,9.29,0,0,1-7.94-4.56l-1-1.71a1.93,1.93,0,0,0-1.67-1H53V83.36h1.59a7.14,7.14,0,0,0,5-2l6.67-6.52a19,19,0,0,0,5.4-9.94l1.19-5.79A1,1,0,0,1,74,58.35a3.59,3.59,0,0,1,2.93,3.1,18.39,18.39,0,0,1,.24,5A42.55,42.55,0,0,1,75,75.13,2.18,2.18,0,0,0,75.18,77a1.93,1.93,0,0,0,1.66.89h3.34l-.08.49C77.64,89,69.3,88.17,69,88.17a1.78,1.78,0,0,0-1.43.41A1.83,1.83,0,0,0,66.84,90a2.17,2.17,0,0,0,.4,1.55,1.73,1.73,0,0,0,1.35.73,3.84,3.84,0,0,0,.87.08,14.29,14.29,0,0,0,9.29-3.42,6.17,6.17,0,0,0,2.15,3.83,6,6,0,0,0-1,3.26,6.14,6.14,0,0,0,2.15,4.65,5.65,5.65,0,0,0-1,3.34,4.46,4.46,0,0,0,.39,2.2Zm11.44-.33h-6a2,2,0,0,1,0-3.91h6a2,2,0,0,1,1.9,2A1.9,1.9,0,0,1,92.89,105.85ZM94,97.78H85.74a2,2,0,0,1,0-3.91H94a2,2,0,0,1,1.91,2,1.86,1.86,0,0,1-1.91,2Zm1.35-8H84.47a2,2,0,0,1,0-3.91H95.35a2,2,0,0,1,0,3.91Z" style="fill: #fff"/>
    </g>
    <path d="M99.35,48.82a1.41,1.41,0,0,0,0-2.82H85.63a1.41,1.41,0,0,0,0,2.82h4.12c2.59,0,3.63,1.33,4,2.81H85.63a1.41,1.41,0,0,0,0,2.81h8.08c-.34,1.48-1.37,2.82-4,2.82H85.63a1.38,1.38,0,0,0-1.3,1,1.44,1.44,0,0,0,.48,1.57l11,8.44A1.35,1.35,0,0,0,97.7,68a1.43,1.43,0,0,0-.27-2l-7.68-5.91a6.12,6.12,0,0,0,4.49-1.4,6.4,6.4,0,0,0,2.25-4.23h2.86a1.41,1.41,0,0,0,0-2.81H96.49a7.26,7.26,0,0,0-1-2.81Z" style="fill: #fff"/>
  </g>
</svg>
