<svg width="51" height="50" viewBox="0 0 51 50" fill="none" xmlns="http://www.w3.org/2000/svg">
<g id="Call icon">
<circle id="BG" cx="25.5" cy="25" r="25" fill="#0c3c63" fill-opacity="0.25"/>
<circle id="Icon" cx="25.481" cy="24.981" r="16.9732" fill="white"/>
<g id="Green Circle">
<g id="Group">
<path id="Vector" d="M25.4422 3.60206C13.7215 3.52176 4.25306 13.1107 4.1034 24.6032C3.94827 36.5593 13.6339 46.1701 25.2816 46.2376C37.13 46.307 46.7335 36.6815 46.7554 24.95C46.7773 13.1563 37.1409 3.53089 25.4422 3.60206ZM36.3908 32.5076C35.4053 33.4931 34.4069 34.4641 33.4342 35.4606C32.8921 36.0154 32.2716 36.3202 31.5982 36.26C30.0888 36.2362 28.7693 35.8749 27.5009 35.3146C25.3728 34.3765 23.4492 33.1226 21.7208 31.5659C20.1823 30.1806 18.7259 28.7169 17.4867 27.0506C16.3551 25.5285 15.3714 23.9188 14.7253 22.1229C14.3731 21.1429 14.1103 20.1391 14.0574 19.0933C14.0172 18.2592 14.2161 17.5201 14.8695 16.9069C15.8843 15.9542 16.8461 14.9449 17.8334 13.9612C18.4576 13.337 19.2351 13.4447 19.6549 14.2295C20.5145 15.8428 21.3631 17.4599 22.2118 19.0787C22.4783 19.5915 22.3231 20.2686 21.865 20.7103C21.5256 21.0352 21.1952 21.371 20.8539 21.694C20.6258 21.9076 20.5802 22.1485 20.6696 22.4423C20.9397 23.3238 21.4106 24.0977 21.9764 24.8058C23.3342 26.5049 24.8435 28.0489 26.7325 29.1732C27.1139 29.3995 27.5155 29.5875 27.9535 29.6879C28.2126 29.7463 28.4189 29.6915 28.605 29.498C29.0065 29.0838 29.4135 28.6768 29.8224 28.2698C30.3115 27.7861 31.016 27.6675 31.6128 28.0143C33.1531 28.9104 34.6898 29.8174 36.2138 30.7409C36.9347 31.1789 36.9931 31.9071 36.3908 32.5076Z" fill="#0c3c63"/>
</g>
</g>
</g>
</svg>
