<svg id="Layer_1" data-name="Layer 1" xmlns="http://www.w3.org/2000/svg" xmlns:xlink="http://www.w3.org/1999/xlink" viewBox="0 0 150 150">
  <defs>
    <linearGradient id="linear-gradient" x1="-2304.51" y1="511.99" x2="-2168.7" y2="511.99" gradientTransform="translate(-2161.6 586.99) rotate(180)" gradientUnits="userSpaceOnUse">
      <stop offset="0" stop-color="#28912e"/>
      <stop offset="1" stop-color="#8ad314"/>
    </linearGradient>
    <linearGradient id="linear-gradient-2" x1="102.89" y1="134.8" x2="52.94" y2="27.68" gradientTransform="matrix(1, 0, 0, 1, 0, 0)" xlink:href="#linear-gradient"/>
  </defs>
  <g>
    <g style="opacity: 0.21">
      <circle cx="75" cy="75" r="67.9" style="fill: url(#linear-gradient)"/>
    </g>
    <circle cx="75" cy="75" r="58.85" style="fill: url(#linear-gradient-2)"/>
  </g>
  <g>
    <path d="M73.17,92.09A17.2,17.2,0,0,0,92,77.8a20.31,20.31,0,0,0,.2-2.81h0A17.19,17.19,0,0,0,61.8,64,16.88,16.88,0,0,0,59,68.66,17.17,17.17,0,0,0,67.74,90.6a16.91,16.91,0,0,0,2.59,1A18.13,18.13,0,0,0,73.17,92.09ZM66.52,86a13.83,13.83,0,0,1-4.32-5.6,15,15,0,0,1-1-3.53,15.19,15.19,0,0,1,0-3.69,15,15,0,0,1,1-3.53A15.38,15.38,0,0,1,64,66.54a13.85,13.85,0,0,1,9.14-5.28,16.17,16.17,0,0,1,3.68,0,15.61,15.61,0,0,1,3.53,1A16.33,16.33,0,0,1,83.44,64,15.71,15.71,0,0,1,86,66.54a14.35,14.35,0,0,1,2.8,6.61,15.1,15.1,0,0,1,0,3.68,16.64,16.64,0,0,1-1,3.54A16.33,16.33,0,0,1,86,83.45,16.06,16.06,0,0,1,83.44,86a13.8,13.8,0,0,1-6.61,2.76,16.26,16.26,0,0,1-3.69,0A13.72,13.72,0,0,1,66.52,86Z" style="fill: #fff"/>
    <path d="M77.31,66.92a1.21,1.21,0,0,1,0,.38,2.27,2.27,0,0,1-2.29,2,2.34,2.34,0,0,1,0-4.68,2.36,2.36,0,0,1,1.66.68,2.42,2.42,0,0,1,.65,1.28A1.93,1.93,0,0,1,77.31,66.92Z" style="fill: #fff"/>
    <path d="M72.42,74h.89v8.33h-.89A1.67,1.67,0,0,0,70.75,84a1.64,1.64,0,0,0,.49,1.18,1.71,1.71,0,0,0,1.18.49h5.13a1.7,1.7,0,0,0,1.18-.49,1.67,1.67,0,0,0,0-2.36,1.74,1.74,0,0,0-1.18-.49h-.9v-10A1.7,1.7,0,0,0,75,70.63H72.42a1.74,1.74,0,0,0-1.19.5,1.65,1.65,0,0,0,0,2.36A1.74,1.74,0,0,0,72.42,74Z" style="fill: #fff"/>
    <path d="M108.43,60.66a34.67,34.67,0,0,0-66.9,0,7.85,7.85,0,0,0-6.16,7.64v9.8A7.88,7.88,0,0,0,43.24,86h0a7.67,7.67,0,0,0,1.9-.24,7.88,7.88,0,0,0,6-7.63v-9.8a7.9,7.9,0,0,0-3.68-6.65,28.71,28.71,0,0,1,55.08,0,7.58,7.58,0,0,0-2,1.86,7.83,7.83,0,0,0-1.63,4.79v9.8a7.81,7.81,0,0,0,4.68,7.19A29.15,29.15,0,0,1,79.89,108a3.94,3.94,0,0,0-2.63-1H72.71a3.9,3.9,0,0,0-2.8,1.17,2.24,2.24,0,0,0-.32.37,3.91,3.91,0,0,0-.83,2.41,3.5,3.5,0,0,0,.27,1.43,3.9,3.9,0,0,0,3.68,2.53h4.55a3.92,3.92,0,0,0,2.79-1.16,5.17,5.17,0,0,0,.58-.73,34.16,34.16,0,0,0,28-27.29,7.87,7.87,0,0,0,6-7.6v-9.8A7.83,7.83,0,0,0,108.43,60.66ZM45.15,78.18v.08a1.91,1.91,0,0,1-3.81-.16V68.3a1.87,1.87,0,0,1,1-1.64h0a1.83,1.83,0,0,1,1-.26,1.89,1.89,0,0,1,1.27.49h0a2,2,0,0,1,.63,1.42v9.8Zm63.47-.08a1.9,1.9,0,0,1-2,1.9h-.07a1.66,1.66,0,0,1-.76-.21,2,2,0,0,1-1-1.69V68.3a1.88,1.88,0,0,1,.63-1.42h0a1.9,1.9,0,0,1,2.23-.23h0a1.93,1.93,0,0,1,.94,1.64Z" style="fill: #fff"/>
  </g>
</svg>
