<svg id="Layer_1" data-name="Layer 1" xmlns="http://www.w3.org/2000/svg" xmlns:xlink="http://www.w3.org/1999/xlink" viewBox="0 0 150 150">
  <defs>
    <linearGradient id="linear-gradient" x1="-604.51" y1="511.99" x2="-468.7" y2="511.99" gradientTransform="translate(-461.6 586.99) rotate(180)" gradientUnits="userSpaceOnUse">
      <stop offset="0" stop-color="#28912e"/>
      <stop offset="1" stop-color="#8ad314"/>
    </linearGradient>
    <linearGradient id="linear-gradient-2" x1="102.89" y1="134.8" x2="52.94" y2="27.68" gradientTransform="matrix(1, 0, 0, 1, 0, 0)" xlink:href="#linear-gradient"/>
  </defs>
  <g>
    <g style="opacity: 0.21">
      <circle cx="75" cy="75" r="67.9" style="fill: url(#linear-gradient)"/>
    </g>
    <circle cx="75" cy="75" r="58.85" style="fill: url(#linear-gradient-2)"/>
  </g>
  <path d="M59.44,82.91A3.11,3.11,0,0,0,56.33,86h0v5.55A24.85,24.85,0,0,1,50.1,75.13a22.77,22.77,0,0,1,.17-2.74,3.11,3.11,0,0,0-6.18-.77v0a29.06,29.06,0,0,0-.21,3.49A31,31,0,0,0,51.4,95.36H47a3.11,3.11,0,0,0,0,6.22H59.44a3,3,0,0,0,2.47-1.31l.12-.14a1,1,0,0,0,0-.1,2.94,2.94,0,0,0,.33-.8,4.1,4.1,0,0,0,.1-.48c0-.1,0-.18,0-.28V86a3.11,3.11,0,0,0-3.11-3.11Zm4.67-26.46H58.56A24.82,24.82,0,0,1,75,50.23a22.89,22.89,0,0,1,2.74.16,3.11,3.11,0,0,0,.75-6.18h0A27.12,27.12,0,0,0,75,44a31,31,0,0,0-20.23,7.52V47.12a3.11,3.11,0,0,0-6.22,0V59.57a3,3,0,0,0,.12.6h0a3,3,0,0,0,.44,1.07l0,0a3.13,3.13,0,0,0,.77.77.73.73,0,0,1,.08.09s.1,0,.14.06a2.57,2.57,0,0,0,.56.26,3.23,3.23,0,0,0,.82.17c.05,0,.09,0,.15,0H64.11a3.12,3.12,0,0,0,0-6.23Zm37.22,33.63a3.08,3.08,0,0,0-.44-1.08l0,0a3.13,3.13,0,0,0-.77-.77L100,88.1s-.08,0-.11,0a3.8,3.8,0,0,0-1.27-.42,2.93,2.93,0,0,0-.29,0H85.89a3.11,3.11,0,0,0,0,6.22h5.55A24.82,24.82,0,0,1,75,100a21,21,0,0,1-2.74-.16,3.11,3.11,0,0,0-.75,6.18,29.06,29.06,0,0,0,3.49.21,31,31,0,0,0,20.23-7.52v4.41a3.11,3.11,0,0,0,6.22,0V90.69a3.14,3.14,0,0,0-.12-.61ZM103,54.9a3.12,3.12,0,0,0,0-6.23H90.56a3.19,3.19,0,0,0-.6.12h0a3,3,0,0,0-1.06.43l-.06,0a3.23,3.23,0,0,0-.76.76l-.09.09s0,.07,0,.1a3.71,3.71,0,0,0-.43,1.29c0,.1,0,.18,0,.28V64.23a3.11,3.11,0,1,0,6.22,0V58.69A24.81,24.81,0,0,1,99.9,75.13a22.9,22.9,0,0,1-.17,2.74,3.12,3.12,0,0,0,2.72,3.46l.38,0a3.11,3.11,0,0,0,3.08-2.74,28.89,28.89,0,0,0,.21-3.48A31,31,0,0,0,98.6,54.9Z" style="fill: #fff"/>
</svg>
