<svg id="Layer_1" data-name="Layer 1" xmlns="http://www.w3.org/2000/svg" xmlns:xlink="http://www.w3.org/1999/xlink" viewBox="0 0 150 150">
  <defs>
    <linearGradient id="linear-gradient" x1="75.49" y1="511.99" x2="211.3" y2="511.99" gradientTransform="translate(218.4 586.99) rotate(180)" gradientUnits="userSpaceOnUse">
      <stop offset="0" stop-color="#28912e"/>
      <stop offset="1" stop-color="#8ad314"/>
    </linearGradient>
    <linearGradient id="linear-gradient-2" x1="102.89" y1="134.8" x2="52.94" y2="27.68" gradientTransform="matrix(1, 0, 0, 1, 0, 0)" xlink:href="#linear-gradient"/>
  </defs>
  <g>
    <g style="opacity: 0.21">
      <circle cx="75" cy="75" r="67.9" style="fill: url(#linear-gradient)"/>
    </g>
    <circle cx="75" cy="75" r="58.85" style="fill: url(#linear-gradient-2)"/>
  </g>
  <g>
    <path d="M85,105a1.17,1.17,0,0,1-.32.25l-9,7.33a1.3,1.3,0,0,1-.82.31,1.47,1.47,0,0,1-.82-.31l-9.09-7.46a1.21,1.21,0,0,1-.44-1.13l4.42-38.65H81.26l4.11,38.71a1.54,1.54,0,0,1-.38,1Z" style="fill: #fff"/>
    <path d="M94.4,57.15,89.91,38.08a1.26,1.26,0,0,0-2-.75L75,46.23,62.13,37.32a1.16,1.16,0,0,0-1.2-.12,1.19,1.19,0,0,0-.76.88L55.63,57.15a1.17,1.17,0,0,0,.44,1.27,1.19,1.19,0,0,0,.76.25,1.9,1.9,0,0,0,.56-.13L66,54l2.53,8.84H81.45L84,54l8.59,4.54a.91.91,0,0,0,.56.13,1.14,1.14,0,0,0,.76-.25,1.31,1.31,0,0,0,.51-1.27ZM66.23,51l-7.45,4,3.48-14.59,10.35,7.2Zm17.62,0h0l-6.38-3.41,10.42-7.2L91.37,55Z" style="fill: #fff"/>
  </g>
</svg>
