<?xml version="1.0" encoding="utf-8"?>
<!-- Generator: Adobe Illustrator 25.4.0, SVG Export Plug-In . SVG Version: 6.00 Build 0)  -->
<svg version="1.1" id="Layer_1" xmlns="http://www.w3.org/2000/svg" xmlns:xlink="http://www.w3.org/1999/xlink" x="0px" y="0px"
	 viewBox="0 0 150 150" style="enable-background:new 0 0 150 150;" xml:space="preserve">
<style type="text/css">
	.st0{opacity:0.21;}
	.st1{fill:url(#SVGID_1_);}
	.st2{fill:url(#SVGID_00000075846058121048483080000012672705966985064875_);}
	.st3{fill:#FFFFFF;}
</style>
<g>
	<g class="st0">
		
			<linearGradient id="SVGID_1_" gradientUnits="userSpaceOnUse" x1="-3090.5" y1="330.41" x2="-2954.7002" y2="330.41" gradientTransform="matrix(-1 0 0 1 -2947.6001 -255.41)">
			<stop  offset="0" style="stop-color:#28912E"/>
			<stop  offset="1" style="stop-color:#8AD314"/>
		</linearGradient>
		<circle class="st1" cx="75" cy="75" r="67.9"/>
	</g>
	
		<linearGradient id="SVGID_00000022520096278250439370000007924824046167913881_" gradientUnits="userSpaceOnUse" x1="102.8857" y1="17.598" x2="52.9356" y2="124.718" gradientTransform="matrix(1 0 0 -1 0 152.4)">
		<stop  offset="0" style="stop-color:#28912E"/>
		<stop  offset="1" style="stop-color:#8AD314"/>
	</linearGradient>
	<circle style="fill:url(#SVGID_00000022520096278250439370000007924824046167913881_);" cx="75" cy="75" r="58.9"/>
</g>
<path class="st3" d="M106.2,66.2c-0.8-2.9-2-5.6-3.6-8.2c-1.2,1.5-2.4,3-3.6,4.5l-1.7,2.1c1.5,3.2,2.3,6.8,2.3,10.3
	c0,6.8-2.8,12.9-7.2,17.3S81.8,99.5,75,99.5c-2.4,0-4.8-0.4-7.1-1.1c0.4-1.3,0.6-2.6,0.6-4c0-7.2-5.8-13-13-13c-1.4,0-2.7,0.2-4,0.6
	c-0.7-2.3-1.1-4.7-1.1-7.1c0-6.8,2.8-12.9,7.2-17.3s10.5-7.2,17.3-7.2c2.6,0,5.2,0.4,7.6,1.2c2.4,0.8,4.7,2,6.8,3.5
	c1.9-1.9,3.8-3.8,5.7-5.6c-5.7-4.6-12.8-7.1-20.1-7.1c-8.9,0-17,3.6-22.9,9.5c-5.9,5.9-9.5,14-9.5,22.9c0,4.1,0.8,8.2,2.3,12
	c-1.5,2.2-2.3,4.7-2.3,7.4c0,7.2,5.8,13,13,13c2.7,0,5.2-0.8,7.4-2.3c3.8,1.5,7.9,2.3,12,2.3c8.9,0,17-3.6,22.9-9.5
	c5.9-5.9,9.5-14,9.5-22.9C107.4,72,107,69,106.2,66.2z M55.6,104.5c-5.6,0-10.1-4.5-10.1-10.1c0-5.6,4.5-10.1,10.1-10.1
	c5.6,0,10.1,4.5,10.1,10.1C65.7,100,61.2,104.5,55.6,104.5z"/>
<path class="st3" d="M90.7,57.2c4.1-4.1,8.3-8.1,12.4-12.1c0.6-0.5,0.9-0.6,1.4,0c0.8,0.8,1.6,1.6,2.4,2.4c0.5,0.4,0.5,0.7,0.1,1.2
	c-10.4,13-20.9,26-31.3,39C70.3,82.7,65.1,77,59.7,71.8c-0.3-0.3-0.3-0.5,0-0.8c1.2-1.4,2.5-2.8,3.6-4.2c0.3-0.4,0.5-0.3,0.9-0.1
	l9.7,6c0.3,0.3,0.8,0.3,1.1,0l0.1-0.1C80.3,67.5,85.6,62.4,90.7,57.2z"/>
<path class="st3" d="M62.5,95.8c0-0.2,0.1-0.4,0.1-0.6v-0.8c0-0.5,0-0.9-0.1-1.4h-6.8v2.8h4c-0.1,0.2-0.2,0.4-0.3,0.6l-0.2,0.3
	L59,97l-0.2,0.3l-0.2,0.2l-0.3,0.3l-0.2,0.1C58,98,57.9,98,57.7,98.1l-0.1,0.1c-0.1,0.1-0.3,0.1-0.5,0.2L57,98.5
	c-0.2,0.1-0.3,0.1-0.5,0.1h-0.2c-0.2,0-0.5,0.1-0.7,0.1c-0.3,0-0.5,0-0.8-0.1l-0.2-0.1c-0.2,0-0.3-0.1-0.5-0.2l-0.2-0.1
	c-0.2-0.1-0.3-0.2-0.5-0.2l-0.2-0.1c-0.2-0.1-0.4-0.3-0.5-0.4c-0.1-0.1-0.1-0.1-0.2-0.2s-0.2-0.2-0.3-0.3s-0.1-0.2-0.2-0.3l-0.2-0.3
	c-0.1-0.1-0.1-0.2-0.1-0.3c-0.4-1-0.4-2.1,0-3.1l0.1-0.2c0.1-0.2,0.1-0.3,0.2-0.4l0.2-0.2c0.1-0.1,0.2-0.2,0.3-0.4
	c0.1-0.1,0.1-0.1,0.2-0.2c0.2-0.2,0.4-0.3,0.5-0.4l0.1-0.1c0.2-0.1,0.4-0.2,0.5-0.3l0.2-0.1c0.2-0.1,0.3-0.1,0.5-0.2l0.2-0.1
	c0.3,0,0.5-0.1,0.8-0.1c1,0,2,0.4,2.8,1.1l2-2c-1.3-1.2-3-1.9-4.8-1.9c-0.3,0-0.6,0-0.9,0.1h-0.2c-0.2,0-0.5,0.1-0.7,0.2h-0.2
	c-0.3,0.1-0.5,0.2-0.8,0.3L52.6,88c-0.2,0.1-0.4,0.2-0.7,0.3l-0.2,0.1c-0.5,0.3-0.9,0.7-1.3,1.1c0,0-0.1,0.1-0.1,0.1
	c-0.2,0.2-0.3,0.4-0.5,0.6v0.1c-0.2,0.2-0.3,0.5-0.5,0.8l0,0c-1.1,2-1.1,4.4,0,6.5l0,0c0.3,0.6,0.6,1.1,1.1,1.5v0.1
	c0.4,0.4,0.9,0.8,1.4,1.2l0.1,0.1c0.2,0.1,0.5,0.2,0.7,0.4l0.1,0.1c0.3,0.1,0.5,0.2,0.8,0.3h0.2c0.2,0.1,0.5,0.1,0.7,0.2h0.2
	c0.3,0,0.6,0.1,0.9,0.1h1l0.4-0.1l0.4-0.1c0.1,0,0.2,0,0.2-0.1L58,101l0.2-0.1l0.5-0.2h0.1c0.2-0.1,0.3-0.2,0.5-0.3l0,0
	c0.2-0.1,0.3-0.2,0.5-0.3l0,0l0.5-0.4l0,0C61.3,98.7,62.1,97.4,62.5,95.8C62.4,95.9,62.4,95.9,62.5,95.8z"/>
</svg>
