<svg id="Layer_2" data-name="Layer 2" xmlns="http://www.w3.org/2000/svg" xmlns:xlink="http://www.w3.org/1999/xlink" viewBox="0 0 30 30"><defs><style>.cls-1{fill:none;}.cls-2{clip-path:url(#clip-path);}.cls-3{clip-path:url(#clip-path-2);}.cls-4{fill:#fbbc05;}.cls-5{clip-path:url(#clip-path-3);}.cls-6{fill:#ea4335;}.cls-7{clip-path:url(#clip-path-5);}.cls-8{fill:#34a853;}.cls-9{clip-path:url(#clip-path-7);}.cls-10{fill:#4285f4;}</style><clipPath id="clip-path"><rect class="cls-1" x="1.2" y="6.6" width="9.9" height="17.03"/></clipPath><clipPath id="clip-path-2"><path class="cls-1" d="M28.48,12.5H15.32v5.43h7.57c-.7,3.45-3.65,5.43-7.57,5.43a8.31,8.31,0,1,1,0-16.61,8.18,8.18,0,0,1,5.2,1.85l4.11-4.09A14.07,14.07,0,1,0,15.32,29.1c7.06,0,13.48-5.1,13.48-14A11.71,11.71,0,0,0,28.48,12.5Z"/></clipPath><clipPath id="clip-path-3"><rect class="cls-1" x="1.2" y="0.9" width="27.6" height="14.45"/></clipPath><clipPath id="clip-path-5"><rect class="cls-1" x="1.2" y="0.9" width="27.6" height="28.21"/></clipPath><clipPath id="clip-path-7"><rect class="cls-1" x="7.88" y="6.6" width="20.92" height="22.5"/></clipPath></defs><title>Google icon</title><g class="cls-2"><g class="cls-3"><path class="cls-4" d="M-.08,23.36V6.75l10.91,8.3Z"/></g></g><g class="cls-5"><g class="cls-3"><path class="cls-6" d="M-.08,6.75l10.91,8.3,4.49-3.89,15.4-2.5V-.28H-.08Z"/></g></g><g class="cls-7"><g class="cls-3"><path class="cls-8" d="M-.08,23.36,19.17,8.66l5.07.64L30.72-.28V30.38H-.08Z"/></g></g><g class="cls-9"><g class="cls-3"><path class="cls-10" d="M30.72,30.38,10.83,15.05,8.26,13.14,30.72,6.75Z"/></g></g></svg>