<?xml version="1.0" encoding="utf-8"?>
<!-- Generator: Adobe Illustrator 26.3.1, SVG Export Plug-In . SVG Version: 6.00 Build 0)  -->
<svg version="1.1" id="Layer_1" xmlns="http://www.w3.org/2000/svg" xmlns:xlink="http://www.w3.org/1999/xlink" x="0px" y="0px"
	 viewBox="0 0 1080 785.9" style="enable-background:new 0 0 1080 785.9;" xml:space="preserve">
<style type="text/css">
	.st0{fill:none;}
	.st1{fill:#0C3C63;}
	.st2{fill:#32D314;}
	.st3{opacity:0.64;fill:#F7F9FA;enable-background:new    ;}
	.st4{fill:url(#SVGID_1_);}
	.st5{fill:url(#SVGID_00000051346822680696187980000007409679360044422294_);}
	.st6{fill:#83E471;}
	.st7{fill:#4ACF39;}
	.st8{fill:url(#SVGID_00000009586752127815438620000002325245321073865648_);}
	.st9{fill:#25B814;}
	.st10{fill:url(#SVGID_00000129893048858032703860000002542261949377446060_);}
	.st11{fill:#C99E59;}
	.st12{fill:url(#SVGID_00000103258101364502289090000000458701662913821331_);}
	.st13{fill:#A1A1A1;}
	.st14{fill:#EEEEEE;}
	.st15{fill:#FFFFFF;}
	.st16{fill:#5BDC43;}
	.st17{opacity:0.47;}
	.st18{fill:#CED8E0;}
	.st19{fill:#CFD8DE;}
	.st20{opacity:0.41;}
	.st21{opacity:0.55;}
	.st22{opacity:0.5;}
	.st23{fill:#7DE069;}
	.st24{fill:#092D4A;}
	.st25{fill:#FFAE73;}
	.st26{fill:url(#SVGID_00000032641743894539206620000006289257800374384770_);}
	.st27{fill:url(#SVGID_00000141448359140782943700000004548772703867638965_);}
	.st28{fill:url(#SVGID_00000092424460286129478440000001185407662862794132_);}
	.st29{fill:url(#SVGID_00000157284698218375032650000002939882650667806646_);}
	.st30{fill:url(#SVGID_00000034776586650964395720000001372751320353332645_);}
	.st31{fill:url(#SVGID_00000062889811024186226730000009541801811128914096_);}
	.st32{fill:#B58A50;}
	.st33{fill:#E8E8E8;}
	.st34{fill:url(#SVGID_00000034080737369033383440000017223022661298172048_);}
	.st35{fill:#092D4B;}
	.st36{fill:url(#SVGID_00000086651673837057251860000016402455122923525508_);}
	.st37{fill:#E1E3E5;}
	.st38{fill:#D4D5D6;}
	.st39{opacity:1.000000e-02;fill:url(#SVGID_00000094603707589882681840000011839754703222663299_);}
</style>
<pattern  y="785.9" width="580" height="500" patternUnits="userSpaceOnUse" id="SVGID_0000011621021055937442706" viewBox="19.4 -591.9 580 500" style="overflow:visible;">
	<g>
		<rect x="19.4" y="-591.9" class="st0" width="580" height="500"/>
		<g>
			<rect x="19.4" y="-591.9" class="st0" width="580" height="500"/>
			<g>
				<rect x="19.4" y="-591.9" class="st0" width="580" height="500"/>
				<g>
					<rect x="19.4" y="-591.9" class="st0" width="580" height="500"/>
					<g>
						<rect x="19.4" y="-591.9" class="st0" width="580" height="500"/>
						<g>
							<path class="st1" d="M471.1-43.9c1.3,8.1,0.7,15.4-1.8,21.8c-2.5,6.8-7,12.7-12.7,17c-2.6,2-5.4,3.6-8.4,5
								c-3.4-0.1-6.7-0.7-9.9-1.6c-6.9-1.9-12.7-5.7-17.5-11.2c-4.3-5-7.4-11.4-9.2-19.2c-0.2-0.9-0.4-1.7-0.6-2.6l-11.4-60.1
								l24.5-4.6l11.4,60.3c1.1,6,3.5,10.4,7.1,13.1c0.3,0.2,0.7,0.5,1.1,0.7c2.8,1.7,6.1,2.4,10,2.1c1-0.1,1.9-0.2,2.9-0.4
								c5.7-1.1,9.8-3.5,12.3-7.4C471-34.5,471.7-38.8,471.1-43.9z"/>
							<path class="st2" d="M467.6-130.2L451.7-93l9.2-5.3l9.9,52.4c0.1,0.7,0.2,1.4,0.3,2c1.3,8.1,0.7,15.4-1.8,21.8
								c-2.5,6.8-7,12.7-12.7,17c-2.6,2-5.4,3.6-8.4,5c3.3,0.2,6.6,0,9.8-0.5c0.8-0.1,1.6-0.3,2.4-0.4c7.9-1.5,14.8-4.4,20.7-8.8
								c5.8-4.3,10.2-10.2,12.7-17c2.6-6.9,3.1-14.9,1.4-23.9l-9.9-52.3l10.5,1.6L467.6-130.2z"/>
							<path class="st1" d="M557.3-117.7c-0.9-1.3-2.1-2.4-3.5-3.1c-1.6-0.8-3.4-1.3-5.1-1.4c-2.3-0.2-4.6,0-6.8,0.4l-16.9,3.2
								l0.5,2.9l2.3-0.4c0.4-0.1,0.8-0.1,1.1-0.1s0.7,0.1,1,0.3s0.6,0.5,0.8,0.9c0.3,0.5,0.5,1.1,0.5,1.7l5,26.6
								c0.2,0.6,0.2,1.3,0.1,1.9c0,0.4-0.2,0.8-0.4,1.2c-0.2,0.3-0.5,0.5-0.8,0.7c-0.4,0.2-0.7,0.3-1.1,0.3l-2.3,0.4l0.6,2.9
								l20.2-3.8l-0.6-2.9l-3.4,0.6c-0.4,0.1-0.8,0.1-1.1,0.1c-0.4,0-0.7-0.1-1-0.3s-0.6-0.5-0.8-0.9c-0.3-0.5-0.5-1.1-0.6-1.7
								l-1.7-8.8l1.9-0.4c3-0.6,5.4-1.4,7.4-2.5c1.9-1.1,3.4-2.3,4.5-3.7c1.1-1.3,1.7-2.9,2-4.6c0.3-1.6,0.3-3.3,0-4.9
								C558.9-114.6,558.2-116.2,557.3-117.7z M539.3-118l2.2-0.4c1.1-0.2,2.2-0.2,3.2-0.1c0.9,0.2,1.7,0.6,2.4,1.2
								c0.7,0.7,1.3,1.5,1.7,2.5c0.5,1.2,0.9,2.5,1.1,3.8c0.3,1.4,0.4,2.9,0.4,4.3c0,1.1-0.3,2.2-0.8,3.1c-0.5,0.9-1.2,1.6-2,2.1
								c-1.1,0.6-2.2,1-3.4,1.2l-1.4,0.3L539.3-118z"/>
							<path class="st1" d="M585-92.2l-1.8,0.3c-0.5,0.1-1,0.1-1.5,0.2c-0.4,0-0.9-0.1-1.3-0.3c-0.4-0.2-0.8-0.6-1-1
								c-0.3-0.6-0.6-1.2-0.7-1.9l-1.8-9.5c-0.1-0.4-0.2-1-0.2-1.6c-0.1-0.6-0.1-1.3-0.1-1.9c0-0.7,0-1.3,0.1-2
								c0.1-0.6,0.2-1.3,0.5-1.9c0.2-0.5,0.5-1.1,1-1.5c0.4-0.4,1-0.7,1.6-0.8c0.4-0.1,0.9-0.1,1.4,0.1c0.4,0.2,0.7,0.4,1,0.7
								c0.3,0.4,0.6,0.9,0.7,1.4c0.2,0.7,0.4,1.3,0.5,2c2.2-0.4,3.9-1.2,4.9-2.4c1-1.1,1.4-2.6,1.1-4.3c-0.3-1.5-1-2.5-2.2-3
								c-1.2-0.6-2.9-0.6-5-0.2c-1,0.2-2,0.5-2.9,0.9c-0.7,0.3-1.4,0.8-2,1.3c-0.5,0.5-1,1.2-1.2,1.8c-0.3,0.8-0.6,1.6-0.8,2.4
								l-0.3,0.1l-1.9-4.1l-11.2,2.1l0.6,2.9h0.2c0.6-0.1,1.1-0.2,1.7-0.2c0.4,0,0.9,0.1,1.3,0.3c0.4,0.2,0.8,0.6,1,1
								c0.3,0.6,0.5,1.2,0.6,1.9l3,16c0.1,0.7,0.2,1.4,0.1,2.1c-0.1,0.5-0.3,1-0.6,1.4s-0.8,0.6-1.2,0.8c-0.6,0.2-1.1,0.4-1.7,0.5
								h-0.2l0.6,2.9l18.4-3.5L585-92.2z"/>
							<path class="st1" d="M621.1-118.4c-0.9-1.7-2.2-3.1-3.7-4.3c-1.5-1.1-3.2-1.7-5-2c-2-0.3-4.1-0.2-6.1,0.2
								c-4.7,0.9-8.1,2.8-10,5.8c-2,3-2.4,7.1-1.5,12.3c0.4,2.3,1.1,4.5,2.3,6.6c0.9,1.7,2.2,3.1,3.7,4.3c1.5,1.1,3.2,1.7,5,2
								c2,0.3,4.1,0.2,6.1-0.2c4.7-0.9,8.1-2.8,10-5.9c1.9-3,2.4-7.1,1.4-12.3C622.9-114.1,622.2-116.4,621.1-118.4z M602.6-113.3
								c-0.1-1.3,0-2.6,0.3-3.9c0.2-1,0.7-1.8,1.4-2.6c1.5-1.3,3.5-1.7,5.4-1c0.9,0.4,1.7,1.1,2.2,1.9c0.7,1.1,1.3,2.3,1.7,3.5
								c0.6,1.7,1,3.4,1.3,5.1c0.3,1.7,0.6,3.4,0.7,5.2c0.1,1.3,0,2.7-0.3,3.9c-0.2,1-0.7,1.9-1.4,2.6c-0.7,0.7-1.6,1.1-2.5,1.3
								s-1.9,0.1-2.8-0.2c-0.9-0.4-1.7-1.1-2.2-2c-0.7-1.1-1.3-2.3-1.7-3.6c-0.6-1.7-1-3.4-1.3-5.1
								C602.9-109.8,602.7-111.5,602.6-113.3z"/>
							<path class="st1" d="M528.6-12.8l-1.4,0.3l-19.9-105.4l1.4-0.3L528.6-12.8z"/>
						</g>
						<g>
							<path class="st1" d="M41.1-118.4c-0.9-1.7-2.2-3.1-3.7-4.3c-1.5-1.1-3.2-1.7-5-2c-2-0.3-4.1-0.2-6.1,0.2
								c-4.7,0.9-8.1,2.8-10,5.8c-2,3-2.4,7.1-1.5,12.3c0.4,2.3,1.1,4.5,2.3,6.6c0.9,1.7,2.2,3.1,3.7,4.3c1.5,1.1,3.2,1.7,5,2
								c2,0.3,4.1,0.2,6.1-0.2c4.7-0.9,8.1-2.8,10-5.9c1.9-3,2.4-7.1,1.4-12.3C42.9-114.1,42.2-116.4,41.1-118.4z M22.6-113.3
								c-0.1-1.3,0-2.6,0.3-3.9c0.2-1,0.7-1.8,1.4-2.6c1.5-1.3,3.5-1.7,5.4-1c0.9,0.4,1.7,1.1,2.2,1.9c0.7,1.1,1.3,2.3,1.7,3.5
								c0.6,1.7,1,3.4,1.3,5.1c0.3,1.7,0.6,3.4,0.7,5.2c0.1,1.3,0,2.7-0.3,3.9c-0.2,1-0.7,1.9-1.4,2.6c-0.7,0.7-1.6,1.1-2.5,1.3
								c-0.9,0.2-1.9,0.1-2.8-0.2c-0.9-0.4-1.7-1.1-2.2-2c-0.7-1.1-1.3-2.3-1.7-3.6c-0.6-1.7-1-3.4-1.3-5.1
								C22.9-109.8,22.7-111.5,22.6-113.3z"/>
							<path class="st1" d="M69.8-101.4l-0.6-2.9l-2.6,0.5c-0.4,0.1-0.8,0.1-1.3,0.1s-0.9-0.1-1.4-0.2c-0.5-0.2-0.9-0.5-1.2-0.9
								c-0.4-0.5-0.6-1.2-0.7-1.8l-3.7-19.3l7.6-1.4l-0.7-3.8l-7.6,1.4l-0.6-3c-0.2-1.1-0.4-2.1-0.5-3.1c-0.1-0.7-0.1-1.4,0-2.1
								c0-0.5,0.2-0.9,0.6-1.3c0.3-0.3,0.7-0.5,1.1-0.6c0.5-0.1,0.9,0,1.4,0.2c0.4,0.2,0.8,0.6,1,1c0.3,0.4,0.6,0.9,0.7,1.4
								c0.2,0.5,0.3,0.9,0.4,1.4c2.3-0.4,3.9-1.1,4.9-1.8c1-0.7,1.4-1.9,1.2-3c-0.1-0.6-0.3-1.1-0.7-1.5c-0.5-0.5-1.1-0.8-1.7-1
								c-1-0.3-2-0.4-3-0.3c-1.5,0.1-3,0.2-4.5,0.5c-1.7,0.3-3.4,0.9-4.9,1.7c-1.2,0.7-2.3,1.6-3.1,2.8s-1.2,2.4-1.4,3.8
								c-0.2,1.6-0.1,3.2,0.2,4.7l0.4,2.1l-4.9,0.9l0.7,3.8l4.9-0.9l3.7,19.3c0.2,0.6,0.2,1.3,0,2c-0.2,0.5-0.4,0.9-0.8,1.3
								c-0.3,0.3-0.7,0.6-1.2,0.7c-0.4,0.2-0.8,0.3-1.2,0.4l-1.2,0.2l0.6,2.9L69.8-101.4z"/>
							<path class="st1" d="M92.9-105.7c1.1-0.5,2.2-1.1,3.1-1.9c0.7-0.6,1.3-1.4,1.6-2.2c0.3-0.8,0.4-1.6,0.2-2.4
								c-0.2-1.3-0.9-2.1-2-2.4c-0.2,0.7-0.5,1.4-0.9,2c-0.4,0.7-0.9,1.3-1.5,1.8c-0.6,0.6-1.3,1-2,1.4c-0.8,0.4-1.7,0.7-2.6,0.8
								c-1,0.2-2.1,0.2-3.2,0c-1-0.3-1.9-0.8-2.6-1.5c-0.9-0.9-1.6-1.9-2.1-3c-0.7-1.5-1.2-3.1-1.5-4.6l18.1-3.4l-0.5-2.8
								c-0.3-2-1-3.8-2-5.6c-0.8-1.5-2-2.7-3.4-3.7c-1.3-0.9-2.9-1.5-4.5-1.7c-3.9-0.5-7.8,0.3-11.2,2.3c-1.5,0.9-2.8,2.2-3.7,3.8
								c-1,1.6-1.6,3.5-1.8,5.4c-0.2,2.3-0.1,4.7,0.4,7c0.4,2.2,1.1,4.3,2.1,6.3c0.9,1.7,2.1,3.1,3.6,4.2c1.5,1.1,3.2,1.8,5.1,2.1
								c2.1,0.4,4.3,0.3,6.4-0.1C89.8-104.6,91.4-105.1,92.9-105.7z M84.7-131.3c0.7,0.4,1.3,0.9,1.7,1.5c0.6,0.8,1,1.7,1.3,2.7
								c0.4,1.2,0.7,2.5,1,3.7l-9.5,1.8c-0.4-3-0.4-5.3,0.2-7s1.7-2.7,3.2-3C83.2-131.6,84-131.6,84.7-131.3z"/>
							<path class="st1" d="M120.5-111.2c1.3-0.6,2.5-1.5,3.4-2.6c0.8-1,1.5-2.2,1.7-3.5c0.3-1.4,0.3-2.8,0-4.2
								c-0.2-1.1-0.6-2.1-1.2-3c-0.6-0.8-1.3-1.5-2.2-2.1c-1-0.6-2-1.1-3-1.4c-1.2-0.4-2.4-0.6-3.7-0.8c-1.6-0.2-2.9-0.5-4-0.7
								c-0.9-0.2-1.7-0.5-2.5-0.8c-0.5-0.2-1.1-0.6-1.4-1.1s-0.5-1-0.6-1.5s-0.1-1,0.1-1.6c0.2-0.5,0.4-0.9,0.8-1.2
								c0.4-0.4,0.8-0.7,1.3-0.9c0.5-0.2,1.1-0.4,1.7-0.5c1.6-0.3,2.9,0,3.9,0.8s1.7,2.2,2,4c2-0.4,3.4-1,4.1-1.8s1-1.8,0.8-3.1
								c-0.1-0.7-0.4-1.3-0.9-1.8c-0.6-0.6-1.3-1-2-1.3c-1-0.4-2.1-0.6-3.2-0.6c-1.5,0-3,0.1-4.5,0.4c-1.7,0.3-3.2,0.8-4.8,1.5
								c-1.3,0.5-2.4,1.4-3.4,2.3c-0.9,0.9-1.5,2-1.9,3.2c-0.3,1.3-0.4,2.7-0.1,4c0.2,1.1,0.6,2.2,1.2,3.2c0.6,0.9,1.4,1.6,2.3,2.2
								c1,0.6,2.1,1.1,3.3,1.5c1.4,0.4,2.8,0.7,4.3,0.9c1.4,0.2,2.5,0.4,3.5,0.7c0.8,0.2,1.6,0.5,2.3,0.9c0.5,0.3,1,0.7,1.4,1.1
								c0.3,0.5,0.5,1,0.6,1.6c0.2,1-0.1,2.1-0.8,2.9c-0.4,0.5-1,0.9-1.6,1.1c-0.7,0.4-1.6,0.6-2.4,0.8s-1.7,0.2-2.5-0.1
								c-0.8-0.2-1.5-0.6-2.1-1.1c-0.7-0.6-1.3-1.3-1.7-2.1c-0.5-1-0.8-2-1-3c-0.5,0.1-1.1,0.3-1.6,0.4c-0.6,0.2-1.1,0.5-1.6,0.9
								s-0.9,0.9-1.1,1.5c-0.3,0.7-0.3,1.5-0.1,2.3c0.1,0.9,0.5,1.7,1.1,2.5s1.4,1.4,2.3,1.7c1.2,0.4,2.5,0.7,3.7,0.7
								c1.7,0,3.5-0.1,5.2-0.5C117.3-109.8,119-110.3,120.5-111.2z"/>
							<path class="st1" d="M147.5-116.3c1.3-0.6,2.5-1.5,3.4-2.6c0.8-1,1.5-2.2,1.7-3.5c0.3-1.4,0.3-2.8,0-4.2
								c-0.2-1.1-0.6-2.1-1.2-3c-0.6-0.8-1.3-1.5-2.2-2.1c-1-0.6-2-1.1-3-1.4c-1.2-0.4-2.4-0.6-3.7-0.8c-1.6-0.2-2.9-0.5-4-0.7
								c-0.9-0.2-1.7-0.5-2.5-0.8c-0.6-0.2-1.1-0.6-1.4-1.1c-0.3-0.5-0.5-1-0.6-1.5s-0.1-1,0.1-1.6c0.2-0.5,0.4-0.9,0.8-1.2
								c0.4-0.4,0.8-0.7,1.3-0.9s1.1-0.4,1.7-0.5c1.6-0.3,2.9,0,3.9,0.8c1,0.9,1.7,2.2,2,4c2-0.4,3.4-1,4.1-1.8
								c0.7-0.8,1-1.8,0.8-3.1c-0.1-0.7-0.4-1.3-0.9-1.8c-0.6-0.6-1.2-1.1-2-1.3c-1-0.4-2.1-0.6-3.2-0.6c-1.5,0-3,0.1-4.5,0.4
								c-1.7,0.3-3.2,0.8-4.8,1.5c-1.3,0.6-2.5,1.4-3.4,2.3s-1.5,2-1.9,3.2c-0.3,1.3-0.4,2.7-0.1,4c0.2,1.1,0.6,2.2,1.2,3.2
								c0.6,0.9,1.4,1.6,2.3,2.2c1,0.6,2.1,1.1,3.3,1.5c1.4,0.4,2.8,0.7,4.3,0.9c1.4,0.2,2.5,0.4,3.5,0.7c0.8,0.2,1.6,0.5,2.3,0.9
								c0.5,0.3,1,0.7,1.4,1.1c0.3,0.5,0.5,1,0.6,1.6c0.1,0.5,0.1,1-0.1,1.5c-0.1,0.5-0.4,1-0.7,1.4c-0.4,0.5-1,0.9-1.6,1.1
								c-0.8,0.4-1.6,0.6-2.4,0.8c-0.8,0.2-1.7,0.2-2.5-0.1c-0.8-0.2-1.5-0.6-2.1-1.1c-0.7-0.6-1.3-1.3-1.7-2.1c-0.5-1-0.8-2-1-3
								c-0.5,0.1-1.1,0.3-1.6,0.4c-0.6,0.2-1.1,0.5-1.6,0.9s-0.9,0.9-1.1,1.5c-0.3,0.7-0.3,1.5-0.1,2.3c0.1,0.9,0.5,1.7,1.1,2.5
								s1.4,1.4,2.3,1.7c1.2,0.4,2.5,0.7,3.7,0.7c1.7,0,3.5-0.1,5.2-0.5C144.2-114.9,145.9-115.4,147.5-116.3z"/>
							<path class="st1" d="M157-121l0.6,2.9l17.5-3.3l-0.6-2.9l-0.6,0.1c-0.4,0.1-0.9,0.1-1.3,0.1c-0.4,0-0.9-0.1-1.4-0.2
								c-0.5-0.2-0.9-0.5-1.2-0.9c-0.4-0.5-0.6-1.2-0.7-1.8l-4.4-23.1l-13,2.5l0.6,2.9l0.6-0.1c0.4-0.1,0.8-0.1,1.3-0.1
								c0.4,0,0.9,0.1,1.4,0.2c0.5,0.2,0.8,0.5,1.2,0.8c0.4,0.5,0.6,1.1,0.7,1.7l3.2,16.8c0.2,0.6,0.2,1.3,0,2
								c-0.2,0.5-0.4,0.9-0.8,1.3c-0.3,0.3-0.7,0.6-1.2,0.7c-0.4,0.2-0.8,0.3-1.3,0.4L157-121z M154.7-155.6
								c0.3,0.4,0.7,0.8,1.2,1.1c0.5,0.2,1.1,0.4,1.6,0.4c1.3,0.1,2.5-0.1,3.6-0.7c0.5-0.3,1-0.6,1.4-1s0.6-0.9,0.8-1.4
								c0.2-0.6,0.2-1.2,0-1.9c-0.1-0.6-0.3-1.2-0.7-1.7c-0.3-0.4-0.8-0.8-1.3-1s-1.1-0.4-1.6-0.4c-1.2-0.1-2.5,0.2-3.6,0.7
								c-0.5,0.2-1,0.6-1.4,1s-0.6,0.9-0.8,1.4c-0.1,0.6-0.2,1.3,0,1.9C154.1-156.6,154.4-156.1,154.7-155.6z"/>
							<path class="st1" d="M202.2-148.9c-0.9-1.7-2.2-3.1-3.7-4.3c-1.5-1.1-3.2-1.7-5-2c-2-0.3-4.1-0.2-6.1,0.2
								c-4.7,0.9-8.1,2.8-10,5.8c-2,3-2.4,7.1-1.5,12.3c0.4,2.3,1.1,4.5,2.3,6.6c0.9,1.7,2.2,3.1,3.7,4.3c1.5,1.1,3.2,1.7,5,2
								c2,0.3,4.1,0.2,6.1-0.2c4.7-0.9,8.1-2.8,10-5.9c1.9-3,2.4-7.1,1.4-12.3C203.9-144.9,203.1-147.1,202.2-148.9z M183.6-143.8
								c-0.1-1.3,0-2.6,0.3-3.9c0.2-1,0.7-1.8,1.4-2.6c1.5-1.3,3.5-1.7,5.4-1c0.9,0.4,1.7,1.1,2.2,1.9c0.7,1.1,1.3,2.3,1.7,3.5
								c0.6,1.7,1,3.4,1.3,5.1s0.6,3.4,0.7,5.2c0.1,1.3,0,2.7-0.3,3.9c-0.2,1-0.7,1.9-1.4,2.6s-1.6,1.1-2.5,1.3
								c-0.9,0.2-1.9,0.1-2.8-0.2c-0.9-0.4-1.7-1.1-2.2-1.9c-0.7-1.1-1.3-2.3-1.7-3.6c-0.5-1.7-1-3.4-1.3-5.1
								C184-140.3,183.8-142,183.6-143.8z"/>
							<path class="st1" d="M245.2-134.6l-0.6-2.9h-0.2c-0.6,0.1-1.1,0.2-1.7,0.2c-0.4,0-0.9-0.1-1.3-0.3c-0.4-0.2-0.7-0.6-0.9-1
								c-0.3-0.6-0.5-1.3-0.6-2l-2.4-12.8c-0.3-1.6-0.8-3.2-1.5-4.7c-0.6-1.2-1.4-2.2-2.4-3c-1-0.7-2-1.2-3.2-1.4
								c-1.3-0.2-2.7-0.2-4,0.1c-0.8,0.2-1.6,0.4-2.4,0.6c-0.7,0.2-1.5,0.6-2.1,1c-0.7,0.5-1.2,1.1-1.7,1.8c-0.6,0.9-1,1.8-1.3,2.8
								l-0.3,0.1l-1.5-3.8l-11.6,2.2l0.6,2.9h0.2c0.5-0.1,1.1-0.2,1.7-0.2c0.4,0,0.9,0.1,1.3,0.3c0.4,0.2,0.8,0.5,1,0.9
								c0.3,0.6,0.5,1.2,0.6,1.8l3.1,16.3c0.2,0.7,0.2,1.4,0.1,2.1c-0.1,0.5-0.3,1-0.7,1.3s-0.8,0.6-1.3,0.8s-1.1,0.4-1.7,0.5h-0.1
								l0.6,2.9l16.9-3.2l-0.6-2.9H227c-0.5,0.1-1.1,0.2-1.7,0.2c-0.4,0-0.9-0.1-1.3-0.3c-0.4-0.2-0.7-0.5-1-0.9
								c-0.3-0.6-0.5-1.2-0.6-1.8l-2-10.5c-0.2-1.1-0.3-2.2-0.4-3.3c0-1,0-1.9,0.3-2.9c0.2-0.8,0.6-1.5,1.1-2.1
								c0.6-0.6,1.3-1,2.2-1.1c0.7-0.1,1.5-0.1,2.2,0.1s1.2,0.6,1.6,1.2c0.5,0.7,0.9,1.4,1.2,2.2c0.4,1,0.6,2.1,0.8,3.1l3.4,18.2
								L245.2-134.6z"/>
							<path class="st1" d="M259.4-164.8c0.5,0.2,1,0.6,1.3,1.1c0.4,0.6,0.7,1.2,0.8,1.9c0.2,0.8,0.4,1.6,0.6,2.5l0.6,3l-4.5,1
								c-4.1,0.9-7.1,2.3-8.9,4.1c-1.8,1.8-2.4,4.2-1.8,7.2c0.2,1.4,0.7,2.7,1.4,3.8c0.6,1,1.4,1.8,2.4,2.5c0.9,0.6,2,1,3.1,1.1
								c1.2,0.2,2.3,0.1,3.5-0.1c0.9-0.2,1.8-0.4,2.7-0.8c0.7-0.3,1.3-0.7,1.9-1.2s1.1-1.1,1.5-1.7s0.9-1.4,1.4-2.2l0.5-0.1l1.9,3.6
								l10.3-1.9l-0.6-2.9h-0.2c-0.5,0.1-1.1,0.1-1.6,0.1c-0.4,0-0.8-0.2-1.1-0.4c-0.3-0.3-0.6-0.7-0.8-1.1
								c-0.2-0.6-0.4-1.2-0.5-1.9l-2.7-14.1c-0.3-1.5-0.8-2.9-1.6-4.2c-0.6-1.1-1.6-1.9-2.7-2.5c-1.2-0.6-2.6-0.9-3.9-0.9
								c-1.7,0-3.5,0.1-5.2,0.5c-1.5,0.3-2.9,0.6-4.4,1.1c-1.2,0.4-2.4,1-3.4,1.7c-0.9,0.6-1.6,1.3-2.1,2.2
								c-0.5,0.8-0.6,1.8-0.4,2.8c0.3,1.4,1.1,2.2,2.4,2.5c1.3,0.3,3.3,0.2,5.8-0.2c-0.1-0.8-0.2-1.6-0.3-2.4c0-0.7,0.1-1.4,0.2-2
								c0.4-1.2,1.4-2.1,2.6-2.2C258.1-165,258.8-165,259.4-164.8z M255.9-147.9c0-0.7,0.3-1.4,0.6-2.1c0.4-0.6,0.9-1.2,1.6-1.6
								c0.8-0.5,1.7-0.8,2.7-1l2.5-0.6l0.8,4.1c0.2,1,0.2,2,0.2,3c-0.1,0.8-0.3,1.6-0.6,2.4c-0.3,0.7-0.8,1.2-1.4,1.7
								c-0.6,0.4-1.3,0.7-2,0.9c-1.1,0.2-1.9-0.1-2.6-0.7c-0.7-0.7-1.1-1.8-1.4-3.4C255.9-146.1,255.9-147,255.9-147.9z"/>
							<path class="st1" d="M280.1-144.3l0.6,2.9l17.6-3.3l-0.6-2.9l-0.7,0.1c-0.4,0.1-0.9,0.1-1.3,0.1s-0.9-0.1-1.4-0.2
								c-0.5-0.2-0.9-0.5-1.2-0.9c-0.4-0.5-0.6-1.2-0.7-1.8l-6.7-35.4l-13,2.5l0.6,2.9l0.6-0.1c0.4-0.1,0.8-0.1,1.3-0.1
								c0.4,0,0.9,0.1,1.4,0.2c0.5,0.2,0.9,0.5,1.2,0.8c0.4,0.5,0.6,1.1,0.7,1.7l5.5,29.1c0.2,0.6,0.2,1.3,0,2
								c-0.2,0.5-0.4,0.9-0.8,1.3c-0.3,0.3-0.7,0.6-1.2,0.7c-0.4,0.2-0.8,0.3-1.3,0.4L280.1-144.3L280.1-144.3z"/>
							<path class="st1" d="M295.6-202.6c-0.7,0.2-1.3,0.5-1.9,0.8c-2,1.2-3.5,3-4.2,5.2c-0.3,1.1-0.5,2.2-0.4,3.3
								c0,0.3,0,0.5,0.1,0.8c0,0,0,0,0,0.1l0.2,1c0.1,0.2,0.1,0.4,0.2,0.6c0.2,0.8,0.6,1.5,1,2.2c1.1,1.8,2.8,3.2,4.8,3.8
								c1.1,0.4,2.2,0.5,3.3,0.5c4.7-0.1,8.6-3.6,9.2-8.3c0.1-0.7,0.1-1.3,0-1.9c-0.1-1.7-0.7-3.3-1.7-4.7c-1.1-1.6-2.7-2.8-4.5-3.5
								c-1.1-0.4-2.2-0.6-3.3-0.5c-0.3,0-0.7,0-1,0.1l0,0l-1,0.2C296-202.7,295.8-202.7,295.6-202.6z M305.8-195
								c0.8,4.1-1.9,8-6,8.7c-4.1,0.8-8-1.9-8.7-6c-0.8-4.1,1.9-8,6-8.7C301.1-201.8,305-199.1,305.8-195z"/>
							<path class="st1" d="M300.4-194.1c0.6-0.4,1-1.1,1.1-1.8c0-0.5,0-1-0.2-1.4c-0.1-0.4-0.3-0.7-0.6-1c-0.4-0.3-0.8-0.5-1.3-0.5
								c-0.6-0.1-1.3,0-1.9,0.1c-1.3,0.2-2.6,0.5-3.9,0.7c-0.2,0-0.2,0-0.1,0.2l1.8,9.4c0,0.1,0,0.1,0.2,0.1l2.2-0.4
								c0.1,0,0.1,0,0.1-0.2l-0.6-3.4c0-0.1,0-0.1,0.1-0.1c0.3,0,0.6-0.1,0.8-0.1c0.4,0,0.7,0.1,1,0.3c0.2,0.2,0.4,0.4,0.6,0.6
								c0.6,0.7,1.1,1.5,1.7,2.2c0,0.1,0.1,0.1,0.2,0.1l2.5-0.5c0.1,0,0.1,0,0-0.1c-0.6-0.8-1.3-1.7-1.9-2.5
								c-0.2-0.3-0.4-0.5-0.7-0.7c-0.3-0.3-0.7-0.5-1.1-0.6h-0.1C300.2-193.9,300.3-194,300.4-194.1z M296.3-196.5
								c0-0.1,0-0.1,0.1-0.1c0.4,0,0.8-0.2,1.2-0.2c0.2,0,0.4,0,0.6,0c0.3,0.1,0.6,0.2,0.7,0.6c0.1,0.3,0.2,0.6,0.2,0.9
								c0,0.4-0.2,0.7-0.6,0.8c-0.2,0.1-0.4,0.2-0.7,0.2c-0.3,0.1-0.6,0.1-0.9,0.2c-0.1,0-0.1,0-0.1-0.1l-0.2-1.1L296.3-196.5z"/>
						</g>
						<g>
							<path class="st1" d="M104.7-310c1.1,5.9,0.8,11.5-1,16.9s-5.2,10.1-10.2,14.2c-2.2,1.7-4.5,3.2-7.1,4.4
								c-3.7,1.8-8.1,3.1-12.9,4l-15.4,2.9l6.9,36.4c-2.2,0.3-4.5,0.4-6.7,0.3c-1.9-0.1-3.9-0.4-5.7-1c-4.3-1.2-8.2-3.7-11.1-7.1
								c-3-3.5-5.1-8.1-6.2-13.8L21-328.1l40.1-7.6c8.1-1.5,15.2-1.4,21.3,0.3c6.1,1.8,11,4.8,14.8,9.2
								C101-321.7,103.5-316.4,104.7-310z M76.4-318.5l-26.7,5l2.3,12l6.1-1.2l-5.3,7.7l10.1,6.9l1.1-1.5l4.2-6.2l1.2,6.1l12-2.3
								L76.4-318.5z"/>
							<path class="st1" d="M181.1-293.9c1.3,8.1,0.7,15.4-1.8,21.8c-2.5,6.8-7,12.7-12.7,17c-2.6,2-5.4,3.6-8.4,5
								c-3.4-0.1-6.7-0.7-9.9-1.6c-6.9-1.9-12.7-5.7-17.5-11.2c-4.3-5-7.4-11.4-9.2-19.2c-0.2-0.9-0.4-1.7-0.6-2.6l-11.4-60.1
								l24.5-4.6l11.4,60.3c1.1,6,3.5,10.4,7.1,13.1c0.3,0.2,0.7,0.5,1.1,0.7c2.8,1.7,6.1,2.4,10,2.1c1-0.1,1.9-0.2,2.9-0.4
								c5.7-1.1,9.8-3.5,12.3-7.4C181-284.5,181.7-288.8,181.1-293.9z"/>
							<path class="st2" d="M177.6-380.2L161.7-343l9.2-5.3l9.9,52.4c0.1,0.7,0.2,1.4,0.3,2c1.3,8.1,0.7,15.4-1.8,21.8
								c-2.5,6.8-7,12.7-12.7,17c-2.6,2-5.4,3.6-8.4,5c3.3,0.2,6.6,0,9.8-0.5c0.8-0.1,1.6-0.3,2.4-0.4c7.9-1.5,14.8-4.4,20.7-8.8
								c5.8-4.3,10.2-10.2,12.7-17c2.6-6.9,3.1-14.9,1.4-23.9l-9.9-52.3l10.5,1.6L177.6-380.2z"/>
							<path class="st1" d="M267.3-367.7c-0.9-1.3-2.1-2.4-3.5-3.1c-1.6-0.8-3.4-1.3-5.1-1.4c-2.3-0.2-4.6,0-6.8,0.4l-16.9,3.2
								l0.5,2.9l2.3-0.4c0.4-0.1,0.8-0.1,1.1-0.1s0.7,0.1,1,0.3c0.3,0.2,0.6,0.5,0.8,0.9c0.3,0.5,0.5,1.1,0.5,1.7l5,26.6
								c0.1,0.6,0.2,1.3,0.1,1.9c0,0.4-0.2,0.8-0.4,1.2c-0.2,0.3-0.5,0.5-0.8,0.7c-0.4,0.2-0.7,0.3-1.1,0.4l-2.3,0.4l0.6,2.9
								l20.2-3.8l-0.6-2.9l-3.4,0.6c-0.4,0.1-0.8,0.1-1.1,0.1c-0.4,0-0.7-0.1-1-0.3c-0.3-0.2-0.6-0.5-0.8-0.9
								c-0.3-0.5-0.5-1.1-0.6-1.7l-1.7-8.8l1.9-0.4c3-0.6,5.4-1.4,7.4-2.5s3.4-2.3,4.5-3.7c1.1-1.3,1.7-2.9,2-4.6
								c0.3-1.6,0.3-3.3,0-4.9C268.9-364.6,268.2-366.2,267.3-367.7z M249.3-368l2.2-0.4c1.1-0.2,2.2-0.2,3.2-0.1
								c0.9,0.2,1.7,0.6,2.4,1.2c0.7,0.7,1.3,1.5,1.7,2.5c0.5,1.2,0.9,2.5,1.1,3.8c0.3,1.4,0.4,2.9,0.4,4.3c0,1.1-0.3,2.2-0.8,3.1
								s-1.2,1.6-2,2.1c-1.1,0.6-2.2,1-3.4,1.2l-1.4,0.3L249.3-368z"/>
							<path class="st1" d="M295-342.2l-1.8,0.3c-0.5,0.1-1,0.1-1.5,0.2c-0.4,0-0.9-0.1-1.3-0.3c-0.4-0.2-0.8-0.6-1-1
								c-0.3-0.6-0.6-1.2-0.7-1.9l-1.8-9.5c-0.1-0.4-0.2-1-0.2-1.6c-0.1-0.6-0.1-1.3-0.1-1.9c0-0.7,0-1.3,0.1-2
								c0.1-0.6,0.2-1.3,0.5-1.9c0.2-0.5,0.5-1.1,1-1.5c0.4-0.4,1-0.7,1.6-0.8c0.4-0.1,0.9-0.1,1.4,0.1c0.4,0.1,0.7,0.4,1,0.7
								c0.3,0.4,0.6,0.9,0.7,1.4c0.2,0.7,0.4,1.3,0.5,2c2.2-0.4,3.9-1.2,4.9-2.4c1-1.1,1.4-2.6,1.1-4.3c-0.3-1.5-1-2.5-2.2-3
								c-1.2-0.6-2.9-0.6-5-0.2c-1,0.2-2,0.5-2.9,0.9c-0.7,0.3-1.4,0.8-2,1.3c-0.5,0.5-1,1.2-1.2,1.8c-0.3,0.8-0.6,1.6-0.8,2.4
								l-0.3,0.1l-1.9-4.1l-11.2,2.1l0.6,2.9h0.2c0.6-0.1,1.1-0.2,1.7-0.2c0.4,0,0.9,0.1,1.3,0.3c0.4,0.2,0.8,0.6,1,1
								c0.3,0.6,0.5,1.2,0.6,1.9l3,16c0.1,0.7,0.2,1.4,0.1,2.1c-0.1,0.5-0.3,1-0.6,1.4c-0.3,0.4-0.8,0.6-1.2,0.8
								c-0.6,0.2-1.1,0.4-1.7,0.5h-0.2l0.6,2.9l18.4-3.5L295-342.2z"/>
							<path class="st1" d="M331.1-368.4c-0.9-1.7-2.2-3.1-3.7-4.3c-1.5-1.1-3.2-1.7-5-2c-2-0.3-4.1-0.2-6.1,0.2
								c-4.7,0.9-8.1,2.8-10,5.8c-2,3-2.4,7.1-1.5,12.3c0.4,2.3,1.1,4.5,2.3,6.6c0.9,1.7,2.2,3.1,3.7,4.3c1.5,1.1,3.2,1.7,5,2
								c2,0.3,4.1,0.2,6.1-0.2c4.7-0.9,8.1-2.8,10-5.9s2.4-7.1,1.4-12.3C332.9-364.1,332.2-366.4,331.1-368.4z M312.6-363.3
								c-0.1-1.3,0-2.6,0.3-3.9c0.2-1,0.7-1.8,1.4-2.6c1.5-1.3,3.5-1.7,5.4-1c0.9,0.4,1.7,1.1,2.2,1.9c0.7,1.1,1.3,2.3,1.7,3.5
								c0.6,1.7,1,3.4,1.3,5.1s0.6,3.4,0.7,5.2c0.1,1.3,0,2.7-0.3,3.9c-0.2,1-0.7,1.9-1.4,2.6c-0.7,0.7-1.6,1.1-2.5,1.3
								c-0.9,0.2-1.9,0.1-2.8-0.2c-0.9-0.4-1.7-1.1-2.2-2c-0.7-1.1-1.3-2.3-1.7-3.6c-0.6-1.7-1-3.4-1.3-5.1
								C312.9-359.8,312.7-361.5,312.6-363.3z"/>
							<path class="st1" d="M359.8-351.4l-0.6-2.9l-2.6,0.5c-0.4,0.1-0.8,0.1-1.3,0.1s-0.9-0.1-1.4-0.2c-0.5-0.2-0.9-0.5-1.2-0.9
								c-0.4-0.5-0.6-1.2-0.7-1.8l-3.7-19.3l7.6-1.4l-0.7-3.8l-7.6,1.4l-0.6-3c-0.2-1.1-0.4-2.1-0.5-3.1c-0.1-0.7-0.1-1.4,0-2.1
								c0-0.5,0.2-0.9,0.6-1.3c0.3-0.3,0.7-0.5,1.1-0.6c0.5-0.1,0.9,0,1.4,0.2c0.4,0.2,0.8,0.6,1,1c0.3,0.4,0.6,0.9,0.7,1.4
								c0.2,0.5,0.3,0.9,0.4,1.4c2.3-0.4,3.9-1.1,4.9-1.8c1-0.7,1.4-1.9,1.2-3c-0.1-0.6-0.3-1.1-0.7-1.5c-0.5-0.5-1.1-0.8-1.7-1
								c-1-0.3-2-0.4-3-0.3c-1.5,0.1-3,0.2-4.5,0.5c-1.7,0.3-3.4,0.9-4.9,1.7c-1.2,0.7-2.3,1.6-3.1,2.8c-0.8,1.2-1.2,2.4-1.4,3.8
								c-0.2,1.6-0.1,3.2,0.2,4.7l0.4,2.1l-4.9,0.9l0.7,3.8l4.9-0.9l3.7,19.3c0.2,0.6,0.2,1.3,0,2c-0.2,0.5-0.4,0.9-0.8,1.3
								c-0.3,0.3-0.7,0.6-1.2,0.7c-0.4,0.2-0.8,0.3-1.2,0.4l-1.2,0.2l0.6,2.9L359.8-351.4z"/>
							<path class="st1" d="M382.9-355.7c1.1-0.5,2.2-1.1,3.1-1.9c0.7-0.6,1.3-1.4,1.6-2.2c0.3-0.8,0.4-1.6,0.2-2.4
								c-0.2-1.3-0.9-2.1-2-2.4c-0.2,0.7-0.5,1.4-0.9,2c-0.4,0.7-0.9,1.3-1.5,1.8c-0.6,0.6-1.3,1-2,1.4c-0.8,0.4-1.7,0.7-2.6,0.8
								c-1,0.2-2.1,0.2-3.2,0c-1-0.3-1.9-0.8-2.6-1.5c-0.9-0.9-1.6-1.9-2.1-3c-0.7-1.5-1.2-3.1-1.5-4.6l18.1-3.4l-0.5-2.8
								c-0.3-2-1-3.8-2-5.6c-0.8-1.5-2-2.7-3.4-3.7c-1.4-0.9-2.9-1.5-4.5-1.7c-3.9-0.5-7.8,0.3-11.2,2.3c-1.5,0.9-2.8,2.2-3.7,3.8
								c-1,1.6-1.6,3.5-1.8,5.4c-0.2,2.3-0.1,4.7,0.4,7c0.4,2.2,1.1,4.3,2.1,6.3c0.9,1.6,2.1,3.1,3.6,4.2s3.2,1.8,5,2.1
								c2.1,0.4,4.3,0.3,6.4-0.1C379.8-354.6,381.4-355.1,382.9-355.7z M374.7-381.3c0.7,0.4,1.3,0.9,1.7,1.5c0.6,0.8,1,1.7,1.3,2.7
								c0.4,1.2,0.7,2.5,1,3.7l-9.5,1.8c-0.5-3-0.4-5.3,0.2-7c0.6-1.7,1.7-2.7,3.2-3C373.2-381.6,374-381.6,374.7-381.3z"/>
							<path class="st1" d="M410.5-361.2c1.3-0.6,2.5-1.5,3.4-2.6c0.8-1,1.5-2.2,1.7-3.5c0.3-1.4,0.3-2.8,0-4.2
								c-0.2-1.1-0.6-2.1-1.2-3c-0.6-0.8-1.3-1.5-2.2-2.1c-1-0.6-2-1.1-3-1.4c-1.2-0.4-2.4-0.6-3.7-0.8c-1.6-0.2-2.9-0.5-4-0.7
								c-0.9-0.2-1.7-0.5-2.5-0.8c-0.5-0.2-1.1-0.6-1.4-1.1s-0.5-1-0.6-1.5s-0.1-1,0.1-1.6c0.2-0.5,0.4-0.9,0.8-1.2
								c0.4-0.4,0.8-0.7,1.3-0.9c0.5-0.2,1.1-0.4,1.7-0.5c1.6-0.3,2.9,0,3.9,0.8c1,0.8,1.7,2.2,2,4c2-0.4,3.4-1,4.1-1.8
								c0.7-0.8,1-1.8,0.8-3.1c-0.1-0.7-0.4-1.3-0.9-1.8c-0.6-0.6-1.3-1-2-1.3c-1-0.4-2.1-0.6-3.2-0.6c-1.5,0-3,0.1-4.5,0.4
								c-1.7,0.3-3.2,0.8-4.8,1.5c-1.3,0.5-2.4,1.4-3.4,2.3c-0.9,0.9-1.5,2-1.9,3.2c-0.3,1.3-0.4,2.7-0.1,4c0.2,1.1,0.6,2.2,1.2,3.2
								c0.6,0.9,1.4,1.6,2.3,2.2c1,0.6,2.1,1.1,3.3,1.5c1.4,0.4,2.8,0.7,4.3,0.9c1.4,0.2,2.5,0.4,3.5,0.7c0.8,0.2,1.6,0.5,2.3,0.9
								c0.5,0.3,1,0.7,1.4,1.1c0.3,0.5,0.5,1,0.6,1.6c0.2,1-0.1,2.1-0.8,2.9c-0.4,0.5-1,0.9-1.5,1.1c-0.7,0.4-1.6,0.6-2.4,0.8
								c-0.8,0.2-1.7,0.2-2.5-0.1c-0.8-0.2-1.5-0.6-2.1-1.1c-0.7-0.6-1.3-1.3-1.7-2.1c-0.5-1-0.8-2-1-3c-0.5,0.1-1.1,0.3-1.6,0.4
								c-0.6,0.2-1.1,0.5-1.6,0.9s-0.9,0.9-1.1,1.5c-0.3,0.7-0.3,1.5-0.1,2.3c0.1,0.9,0.5,1.7,1.1,2.5s1.4,1.4,2.3,1.7
								c1.2,0.4,2.5,0.7,3.7,0.7c1.7,0,3.5-0.1,5.2-0.5C407.3-359.8,409-360.3,410.5-361.2z"/>
							<path class="st1" d="M437.5-366.3c1.3-0.6,2.5-1.5,3.4-2.6c0.8-1,1.5-2.2,1.7-3.5c0.3-1.4,0.3-2.8,0-4.2
								c-0.2-1.1-0.6-2.1-1.2-3c-0.6-0.8-1.3-1.5-2.2-2.1c-1-0.6-2-1.1-3-1.4c-1.2-0.4-2.4-0.6-3.7-0.8c-1.6-0.2-2.9-0.5-4-0.7
								c-0.9-0.2-1.7-0.5-2.5-0.8c-0.6-0.2-1.1-0.6-1.4-1.1s-0.5-1-0.6-1.5s-0.1-1,0.1-1.6c0.2-0.5,0.4-0.9,0.8-1.2
								c0.4-0.4,0.8-0.7,1.3-0.9c0.5-0.2,1.1-0.4,1.7-0.5c1.6-0.3,2.9,0,3.9,0.8c1,0.8,1.7,2.2,2,4c2-0.4,3.4-1,4.1-1.8
								c0.7-0.8,1-1.8,0.8-3.1c-0.1-0.7-0.4-1.3-0.9-1.8c-0.6-0.6-1.2-1.1-2-1.3c-1-0.4-2.1-0.6-3.2-0.6c-1.5,0-3,0.1-4.5,0.4
								c-1.7,0.3-3.2,0.8-4.8,1.5c-1.3,0.6-2.5,1.4-3.5,2.3c-0.9,0.9-1.5,2-1.9,3.2c-0.3,1.3-0.4,2.7-0.1,4c0.2,1.1,0.6,2.2,1.2,3.2
								c0.6,0.9,1.4,1.6,2.3,2.2c1,0.6,2.1,1.1,3.3,1.5c1.4,0.4,2.8,0.7,4.3,0.9c1.4,0.2,2.5,0.4,3.5,0.7c0.8,0.2,1.6,0.5,2.3,0.9
								c0.5,0.3,1,0.7,1.4,1.1c0.3,0.5,0.5,1,0.6,1.6c0.1,0.5,0.1,1-0.1,1.5c-0.1,0.5-0.4,1-0.7,1.4c-0.4,0.5-1,0.9-1.5,1.1
								c-0.8,0.4-1.6,0.6-2.4,0.8c-0.8,0.2-1.7,0.2-2.5-0.1c-0.8-0.2-1.5-0.6-2.1-1.1c-0.7-0.6-1.3-1.3-1.7-2.1c-0.5-1-0.8-2-1-3
								c-0.5,0.1-1.1,0.3-1.6,0.4c-0.6,0.2-1.1,0.5-1.6,0.9s-0.9,0.9-1.1,1.5c-0.3,0.7-0.3,1.5-0.1,2.3c0.1,0.9,0.5,1.7,1.1,2.5
								s1.4,1.4,2.3,1.7c1.2,0.4,2.5,0.7,3.7,0.7c1.7,0,3.5-0.1,5.2-0.5C434.2-364.9,435.9-365.4,437.5-366.3z"/>
							<path class="st1" d="M447-371l0.6,2.9l17.5-3.3l-0.6-2.9l-0.6,0.1c-0.4,0.1-0.9,0.1-1.3,0.1s-0.9-0.1-1.4-0.2
								c-0.5-0.2-0.9-0.5-1.2-0.9c-0.4-0.5-0.6-1.2-0.7-1.8l-4.4-23.1l-13,2.5l0.6,2.9l0.6-0.1c0.4-0.1,0.8-0.1,1.3-0.1
								c0.4,0,0.9,0.1,1.4,0.2c0.5,0.2,0.8,0.5,1.2,0.8c0.4,0.5,0.6,1.1,0.7,1.7l3.2,16.8c0.2,0.6,0.2,1.3,0,2
								c-0.2,0.5-0.4,0.9-0.8,1.3c-0.3,0.3-0.7,0.6-1.2,0.7c-0.4,0.2-0.8,0.3-1.3,0.4H447z M444.7-405.6c0.3,0.4,0.7,0.8,1.2,1.1
								c0.5,0.2,1.1,0.4,1.6,0.4c1.3,0.1,2.5-0.1,3.6-0.7c0.5-0.3,1-0.6,1.4-1s0.6-0.9,0.8-1.4c0.2-0.6,0.2-1.2,0-1.9
								c-0.1-0.6-0.3-1.2-0.7-1.7c-0.3-0.4-0.8-0.8-1.3-1c-0.5-0.2-1.1-0.4-1.6-0.4c-1.2-0.1-2.5,0.2-3.6,0.7c-0.5,0.2-1,0.6-1.4,1
								s-0.6,0.9-0.8,1.4c-0.1,0.6-0.2,1.3,0,1.9C444.1-406.6,444.4-406.1,444.7-405.6z"/>
							<path class="st1" d="M492.2-398.9c-0.9-1.7-2.2-3.1-3.7-4.3c-1.5-1.1-3.2-1.7-5-2c-2-0.3-4.1-0.2-6.1,0.2
								c-4.7,0.9-8.1,2.8-10,5.8c-2,3-2.4,7.1-1.5,12.3c0.4,2.3,1.1,4.5,2.3,6.6c0.9,1.7,2.2,3.1,3.7,4.3c1.5,1.1,3.2,1.7,5,2
								c2,0.3,4.1,0.2,6.1-0.2c4.7-0.9,8.1-2.8,10-5.9c1.9-3,2.4-7.1,1.5-12.3C493.9-394.9,493.1-397.1,492.2-398.9z M473.6-393.8
								c-0.1-1.3,0-2.6,0.3-3.9c0.2-1,0.7-1.8,1.4-2.6c1.5-1.3,3.5-1.7,5.4-1c0.9,0.4,1.7,1.1,2.2,1.9c0.7,1.1,1.3,2.3,1.7,3.5
								c0.6,1.7,1,3.4,1.3,5.1s0.6,3.4,0.7,5.2c0.1,1.3,0,2.7-0.3,3.9c-0.2,1-0.7,1.9-1.4,2.6c-0.7,0.7-1.6,1.1-2.5,1.3
								c-0.9,0.2-1.9,0.1-2.8-0.2c-0.9-0.4-1.7-1.1-2.2-1.9c-0.7-1.1-1.3-2.3-1.7-3.6c-0.5-1.7-1-3.4-1.3-5.1
								C474-390.3,473.8-392,473.6-393.8z"/>
							<path class="st1" d="M535.2-384.6l-0.6-2.9h-0.2c-0.6,0.1-1.1,0.2-1.7,0.2c-0.4,0-0.9-0.1-1.3-0.3c-0.4-0.2-0.7-0.6-0.9-1
								c-0.3-0.6-0.5-1.3-0.6-2l-2.4-12.8c-0.3-1.6-0.8-3.2-1.5-4.7c-0.6-1.1-1.4-2.2-2.4-3c-1-0.7-2-1.2-3.2-1.4
								c-1.3-0.2-2.7-0.2-4,0.1c-0.8,0.2-1.6,0.4-2.4,0.6c-0.7,0.2-1.5,0.6-2.1,1c-0.7,0.5-1.2,1.1-1.7,1.8c-0.6,0.9-1,1.8-1.3,2.8
								l-0.3,0.1l-1.5-3.8l-11.6,2.2l0.6,2.9h0.2c0.5-0.1,1.1-0.2,1.7-0.2c0.4,0,0.9,0.1,1.3,0.3c0.4,0.2,0.8,0.5,1,0.9
								c0.3,0.6,0.5,1.2,0.6,1.8l3.1,16.3c0.2,0.7,0.2,1.4,0.1,2.1c-0.1,0.5-0.3,1-0.7,1.3c-0.4,0.3-0.8,0.6-1.3,0.8
								c-0.5,0.2-1.1,0.4-1.7,0.5h-0.1l0.6,2.9l16.9-3.2l-0.6-2.9H517c-0.5,0.1-1.1,0.2-1.7,0.2c-0.4,0-0.9-0.1-1.3-0.3
								c-0.4-0.2-0.7-0.5-1-0.9c-0.3-0.6-0.5-1.2-0.6-1.8l-2-10.5c-0.2-1.1-0.3-2.2-0.4-3.3c0-1,0-1.9,0.3-2.9
								c0.2-0.8,0.6-1.5,1.1-2.1c0.6-0.6,1.3-1,2.2-1.1c0.7-0.1,1.5-0.1,2.2,0.1s1.2,0.6,1.7,1.2c0.5,0.7,0.9,1.4,1.2,2.2
								c0.4,1,0.6,2.1,0.8,3.1l3.4,18.2L535.2-384.6z"/>
							<path class="st1" d="M549.4-414.8c0.5,0.2,1,0.6,1.3,1.1c0.4,0.6,0.7,1.2,0.8,1.9c0.2,0.8,0.4,1.6,0.6,2.5l0.6,3l-4.5,1
								c-4.1,0.9-7.1,2.3-8.9,4.1c-1.8,1.8-2.4,4.2-1.8,7.2c0.2,1.4,0.7,2.7,1.4,3.8c0.6,1,1.4,1.8,2.4,2.5c0.9,0.6,2,1,3.1,1.1
								c1.2,0.2,2.3,0.1,3.5-0.1c0.9-0.2,1.8-0.4,2.7-0.8c0.7-0.3,1.3-0.7,1.9-1.2c0.6-0.5,1.1-1.1,1.5-1.7c0.4-0.6,0.9-1.4,1.4-2.2
								l0.5-0.1l1.9,3.6l10.3-1.9l-0.6-2.9h-0.2c-0.5,0.1-1.1,0.1-1.6,0.1c-0.4,0-0.8-0.2-1.1-0.4c-0.3-0.3-0.6-0.7-0.8-1.1
								c-0.2-0.6-0.4-1.2-0.5-1.9l-2.7-14.1c-0.3-1.5-0.8-2.9-1.6-4.2c-0.6-1.1-1.6-1.9-2.7-2.5c-1.2-0.6-2.6-0.9-3.9-0.9
								c-1.7,0-3.5,0.1-5.2,0.5c-1.5,0.3-2.9,0.6-4.4,1.1c-1.2,0.4-2.4,1-3.4,1.7c-0.9,0.6-1.6,1.3-2.1,2.2
								c-0.5,0.8-0.6,1.8-0.4,2.8c0.3,1.4,1.1,2.2,2.4,2.5c1.3,0.3,3.3,0.2,5.8-0.2c-0.1-0.8-0.2-1.6-0.3-2.4c0-0.7,0.1-1.4,0.2-2
								c0.4-1.2,1.4-2.1,2.6-2.2C548.1-415,548.8-415,549.4-414.8z M545.9-397.9c0-0.7,0.3-1.4,0.6-2.1c0.4-0.6,0.9-1.2,1.6-1.6
								c0.8-0.5,1.7-0.8,2.7-1l2.5-0.6l0.8,4.1c0.2,1,0.2,2,0.2,3c-0.1,0.8-0.3,1.6-0.6,2.4c-0.3,0.7-0.8,1.2-1.4,1.7
								c-0.6,0.4-1.3,0.7-2,0.9c-1.1,0.2-1.9-0.1-2.6-0.7c-0.7-0.7-1.1-1.8-1.4-3.4C545.9-396.1,545.9-397,545.9-397.9z"/>
							<path class="st1" d="M570.1-394.3l0.6,2.9l17.6-3.3l-0.6-2.9l-0.7,0.1c-0.4,0.1-0.9,0.1-1.3,0.1c-0.4,0-0.9-0.1-1.4-0.2
								c-0.5-0.2-0.9-0.5-1.2-0.9c-0.4-0.5-0.6-1.2-0.7-1.8l-6.7-35.4l-13,2.5l0.6,2.9l0.6-0.1c0.4-0.1,0.8-0.1,1.3-0.1
								c0.4,0,0.9,0.1,1.4,0.2c0.5,0.2,0.8,0.5,1.2,0.8c0.4,0.5,0.6,1.1,0.7,1.7l5.5,29.1c0.2,0.6,0.2,1.3,0,2
								c-0.2,0.5-0.4,0.9-0.8,1.3c-0.3,0.3-0.7,0.6-1.2,0.7c-0.4,0.2-0.8,0.3-1.3,0.4H570.1L570.1-394.3z"/>
							<path class="st1" d="M286-314.6l-14.4,2.7l0.6,2.9l2.3-0.4c0.4-0.1,0.7-0.1,1.1-0.1c0.3,0,0.7,0.1,1,0.3
								c0.3,0.2,0.6,0.5,0.8,0.9c0.3,0.5,0.5,1.1,0.5,1.7L282-285c0.3,1.2,0.3,2.5,0.1,3.8c-0.1,1-0.5,2-1.1,2.8s-1.3,1.5-2.2,1.9
								c-1,0.6-2.1,0.9-3.2,1.1c-1.2,0.2-2.3,0.3-3.5,0.2c-1-0.1-2-0.4-2.9-0.9c-0.9-0.6-1.6-1.3-2.1-2.2c-0.6-1.2-1.1-2.5-1.3-3.8
								l-4-21.3c-0.1-0.6-0.2-1.3-0.1-1.9c0-0.4,0.1-0.8,0.4-1.2c0.2-0.3,0.5-0.5,0.8-0.7s0.7-0.3,1.1-0.3l2.3-0.4l-0.5-2.9l-19,3.6
								l0.6,2.9l2.4-0.4c0.4-0.1,0.7-0.1,1.1-0.1c0.3,0,0.7,0.1,1,0.3c0.3,0.2,0.6,0.5,0.8,0.9c0.3,0.5,0.5,1.1,0.5,1.7l4,21.1
								c0.4,2.2,1.1,4.1,2.1,5.6c0.9,1.4,2.2,2.5,3.7,3.3c1.6,0.8,3.4,1.2,5.2,1.3c2.2,0.1,4.4-0.1,6.6-0.5c2.1-0.3,4.1-1,6.1-2
								c1.5-0.8,2.8-1.8,3.9-3.2c0.9-1.2,1.5-2.7,1.8-4.2c0.3-1.7,0.2-3.4-0.1-5.1l-4.1-21.5c-0.1-0.6-0.2-1.3-0.1-1.9
								c0-0.4,0.1-0.8,0.4-1.2c0.2-0.3,0.5-0.5,0.8-0.7s0.7-0.3,1.1-0.3l2.4-0.5L286-314.6z"/>
							<path class="st1" d="M307.9-283.2c-0.7-0.7-1.2-1.8-1.5-3.5l-3.2-17.1l7.1-1.3l-0.7-3.8l-7.1,1.3l-1.3-6.8l-4.6,0.9
								c-0.1,2.6-0.6,4.5-1.5,5.9c-0.5,0.8-1.2,1.5-1.9,2c-0.9,0.7-1.9,1.1-3.1,1.3l0.5,2.9l4.2-0.8l3.3,17.7c0.2,1.4,0.7,2.7,1.3,4
								c0.5,1,1.2,1.8,2.1,2.4s1.8,0.9,2.8,1c1.2,0.1,2.3,0.1,3.5-0.2c0.9-0.2,1.8-0.4,2.7-0.6c0.8-0.2,1.5-0.5,2.2-0.7
								c0.6-0.2,1.1-0.5,1.6-0.8c0.4-0.2,0.7-0.4,1.1-0.7l-0.7-3.6c-0.5,0.2-1.1,0.5-1.8,0.7c-0.7,0.2-1.3,0.4-2,0.5
								C309.6-282.3,308.6-282.5,307.9-283.2z"/>
							<path class="st1" d="M317.1-282.7l0.6,2.9l17.5-3.3l-0.6-2.9l-0.6,0.1c-0.4,0.1-0.9,0.1-1.3,0.1s-0.9-0.1-1.4-0.2
								c-0.5-0.2-0.9-0.5-1.2-0.9c-0.4-0.5-0.6-1.2-0.7-1.8l-4.4-23.1l-13,2.5l0.6,2.9l0.6-0.1c0.4-0.1,0.8-0.1,1.3-0.1
								c0.4,0,0.9,0.1,1.4,0.2c0.5,0.2,0.8,0.5,1.2,0.8c0.4,0.5,0.6,1.1,0.7,1.7l3.2,16.8c0.2,0.6,0.2,1.3,0,2
								c-0.2,0.5-0.4,0.9-0.8,1.3c-0.3,0.3-0.7,0.6-1.2,0.7c-0.4,0.1-0.8,0.3-1.3,0.4H317.1z M314.8-317.3c0.3,0.4,0.7,0.8,1.2,1.1
								c0.5,0.2,1.1,0.4,1.6,0.4c1.3,0.1,2.5-0.1,3.6-0.7c0.5-0.2,1-0.6,1.4-1s0.6-0.9,0.8-1.4c0.2-0.6,0.2-1.2,0-1.9
								c-0.1-0.6-0.3-1.2-0.7-1.7c-0.3-0.4-0.8-0.8-1.3-1s-1.1-0.4-1.6-0.4c-1.2-0.1-2.5,0.2-3.6,0.7c-0.5,0.2-1,0.6-1.4,1
								s-0.6,0.9-0.8,1.4c-0.1,0.6-0.2,1.3,0,1.9C314.2-318.4,314.4-317.8,314.8-317.3z"/>
							<path class="st1" d="M336.5-286.4l0.6,2.9l17.5-3.3l-0.6-2.9l-0.6,0.1c-0.4,0.1-0.9,0.1-1.3,0.1c-0.5,0-0.9-0.1-1.4-0.2
								c-0.5-0.2-0.9-0.5-1.2-0.9c-0.4-0.5-0.6-1.2-0.7-1.8l-6.7-35.4l-12.9,2.5l0.6,2.9l0.6-0.1c0.4-0.1,0.8-0.1,1.3-0.1
								c0.4,0,0.9,0.1,1.4,0.2c0.5,0.2,0.8,0.5,1.2,0.8c0.4,0.5,0.6,1.1,0.7,1.7l5.5,29.2c0.2,0.6,0.2,1.3,0,2
								c-0.2,0.5-0.4,0.9-0.8,1.3c-0.3,0.3-0.7,0.6-1.2,0.7c-0.4,0.1-0.8,0.3-1.3,0.4L336.5-286.4z"/>
							<path class="st1" d="M355.9-290.1l0.6,2.9l17.5-3.3l-0.6-2.9l-0.6,0.1c-0.4,0.1-0.9,0.1-1.3,0.1c-0.5,0-0.9-0.1-1.4-0.2
								c-0.5-0.2-0.9-0.5-1.2-0.9c-0.4-0.5-0.6-1.2-0.7-1.8l-4.4-23.1l-13,2.5l0.6,2.9l0.6-0.1c0.4-0.1,0.8-0.1,1.3-0.1
								c0.4,0,0.9,0.1,1.4,0.2c0.5,0.2,0.8,0.5,1.2,0.8c0.4,0.5,0.6,1.1,0.7,1.7l3.2,16.8c0.2,0.6,0.2,1.3,0,2
								c-0.2,0.5-0.4,0.9-0.8,1.3c-0.3,0.3-0.7,0.6-1.2,0.7c-0.4,0.1-0.8,0.3-1.3,0.4H355.9z M353.7-324.7c0.3,0.4,0.7,0.8,1.2,1.1
								c0.5,0.3,1.1,0.4,1.6,0.4c0.6,0,1.3,0,1.9-0.1s1.2-0.3,1.8-0.6c0.5-0.2,1-0.6,1.4-1s0.6-0.9,0.8-1.4c0.2-0.6,0.2-1.2,0-1.9
								c-0.1-0.6-0.3-1.2-0.7-1.7c-0.3-0.4-0.8-0.8-1.3-1s-1.1-0.4-1.6-0.4c-0.6,0-1.2,0-1.9,0.1c-0.6,0.1-1.2,0.3-1.8,0.6
								c-0.5,0.2-1,0.6-1.4,1s-0.6,0.9-0.8,1.4c-0.1,0.6-0.2,1.3,0,1.9C353.1-325.8,353.3-325.2,353.7-324.7z"/>
							<path class="st1" d="M388.5-298.4c-0.7-0.7-1.2-1.8-1.6-3.5l-3.2-17.1l7.1-1.3l-0.7-3.8l-7.1,1.3l-1.3-6.8l-4.6,0.9
								c-0.1,2.6-0.6,4.5-1.5,5.9c-0.5,0.8-1.2,1.5-1.9,2c-0.9,0.7-1.9,1.1-3.1,1.3l0.5,2.9l4.1-0.8l3.3,17.7c0.2,1.4,0.7,2.7,1.3,4
								c0.5,1,1.2,1.8,2.1,2.4s1.8,0.9,2.8,1c1.2,0.1,2.3,0.1,3.5-0.2c0.9-0.2,1.8-0.4,2.7-0.6c0.8-0.2,1.5-0.5,2.2-0.7
								c0.6-0.2,1.1-0.5,1.6-0.8c0.4-0.2,0.7-0.4,1.1-0.7l-0.7-3.6c-0.5,0.2-1.1,0.5-1.8,0.7c-0.7,0.2-1.3,0.4-2,0.5
								C390.2-297.6,389.3-297.8,388.5-298.4z"/>
							<path class="st1" d="M397.7-298l0.6,2.9l17.5-3.3l-0.6-2.9l-0.6,0.1c-0.4,0.1-0.9,0.1-1.3,0.1c-0.5,0-0.9-0.1-1.4-0.2
								c-0.5-0.2-0.9-0.5-1.2-0.9c-0.4-0.5-0.6-1.2-0.7-1.8l-4.4-23.1l-13,2.5l0.6,2.9l0.6-0.1c0.4-0.1,0.8-0.1,1.3-0.1
								c0.4,0,0.9,0.1,1.4,0.2c0.5,0.2,0.8,0.5,1.2,0.8c0.4,0.5,0.6,1.1,0.7,1.7l3.2,16.8c0.2,0.6,0.2,1.3,0,2
								c-0.2,0.5-0.4,0.9-0.8,1.3c-0.3,0.3-0.7,0.6-1.2,0.7c-0.4,0.1-0.8,0.3-1.3,0.4H397.7z M395.5-332.6c0.3,0.4,0.7,0.8,1.2,1.1
								c0.5,0.3,1.1,0.4,1.6,0.4c1.3,0.1,2.5-0.1,3.6-0.7c0.5-0.2,1-0.6,1.4-1s0.6-0.9,0.8-1.4c0.2-0.6,0.2-1.2,0-1.9
								c-0.1-0.6-0.3-1.2-0.7-1.7c-0.3-0.4-0.8-0.8-1.3-1s-1.1-0.4-1.6-0.4c-1.2-0.1-2.5,0.2-3.6,0.7c-0.5,0.2-1,0.6-1.4,1
								s-0.6,0.9-0.8,1.4c-0.1,0.6-0.2,1.3,0,1.9C394.9-333.7,395.1-333.1,395.5-332.6z"/>
							<path class="st1" d="M438.5-302.5c1.1-0.5,2.2-1.1,3.1-1.9c0.7-0.6,1.3-1.4,1.6-2.2c0.3-0.8,0.4-1.6,0.2-2.4
								c-0.2-1.3-0.9-2.1-2-2.4c-0.2,0.7-0.5,1.4-0.9,2c-0.4,0.7-0.9,1.2-1.5,1.8c-0.6,0.5-1.3,1-2,1.4c-0.8,0.4-1.7,0.7-2.6,0.8
								c-1,0.2-2.1,0.2-3.2,0c-1-0.3-1.9-0.8-2.6-1.5c-0.9-0.9-1.6-1.9-2.1-3c-0.7-1.5-1.2-3.1-1.5-4.7l18.1-3.4l-0.5-2.8
								c-0.3-2-1-3.8-2-5.6c-0.8-1.5-2-2.7-3.4-3.7c-1.4-0.9-2.9-1.5-4.6-1.7c-3.9-0.5-7.8,0.3-11.2,2.3c-1.5,0.9-2.8,2.2-3.7,3.8
								c-1,1.6-1.6,3.5-1.8,5.4c-0.2,2.3-0.1,4.7,0.4,7c0.4,2.2,1.1,4.3,2.1,6.3c0.9,1.6,2.1,3.1,3.6,4.2s3.2,1.8,5,2.1
								c2.1,0.4,4.3,0.3,6.4-0.1C435.4-301.5,437-301.9,438.5-302.5z M430.2-328.1c0.7,0.4,1.3,0.9,1.7,1.5c0.5,0.8,1,1.7,1.3,2.7
								c0.4,1.2,0.7,2.5,1,3.7l-9.5,1.8c-0.5-3-0.4-5.3,0.2-7s1.7-2.7,3.2-3C428.8-328.5,429.5-328.4,430.2-328.1z"/>
							<path class="st1" d="M466.1-307.9c1.3-0.6,2.5-1.5,3.4-2.6c0.8-1,1.5-2.2,1.7-3.5c0.3-1.4,0.3-2.9,0-4.3
								c-0.2-1.1-0.6-2.1-1.2-3c-0.6-0.8-1.3-1.5-2.2-2.1c-1-0.6-2-1.1-3-1.4c-1.2-0.4-2.4-0.6-3.7-0.8c-1.6-0.2-2.9-0.5-4-0.7
								c-0.9-0.2-1.7-0.5-2.5-0.8c-0.6-0.2-1.1-0.6-1.4-1.1s-0.5-1-0.6-1.5s-0.1-1,0.1-1.6c0.2-0.5,0.4-0.9,0.8-1.2
								c0.4-0.4,0.8-0.7,1.3-0.9c0.5-0.2,1.1-0.4,1.7-0.5c1.6-0.3,2.9,0,3.9,0.8c1,0.9,1.7,2.2,2,4c2-0.4,3.4-1,4.1-1.8
								s1-1.8,0.8-3.1c-0.1-0.7-0.4-1.3-0.9-1.8c-0.6-0.6-1.3-1-2-1.3c-1-0.4-2.1-0.6-3.2-0.6c-1.5-0.1-3,0.1-4.5,0.4
								c-1.7,0.3-3.2,0.8-4.8,1.5c-1.3,0.6-2.5,1.4-3.5,2.3c-0.9,0.9-1.5,2-1.9,3.2c-0.3,1.3-0.4,2.7-0.1,4c0.2,1.1,0.6,2.2,1.2,3.2
								c0.6,0.9,1.4,1.6,2.3,2.2c1,0.6,2.1,1.1,3.3,1.5c1.4,0.4,2.8,0.7,4.3,0.9c1.4,0.2,2.5,0.4,3.5,0.7c0.8,0.2,1.6,0.5,2.3,0.9
								c0.5,0.3,1,0.7,1.4,1.1c0.3,0.5,0.5,1,0.6,1.6c0.2,1-0.1,2.1-0.8,2.9c-0.4,0.5-1,0.9-1.5,1.1c-0.8,0.4-1.6,0.6-2.4,0.8
								c-0.8,0.2-1.7,0.2-2.5-0.1c-0.8-0.2-1.5-0.6-2.1-1.1c-0.7-0.6-1.3-1.3-1.7-2.1c-0.5-1-0.8-2-1-3c-0.5,0.1-1.1,0.3-1.6,0.4
								c-0.6,0.2-1.1,0.5-1.6,0.9s-0.9,0.9-1.1,1.5c-0.3,0.7-0.3,1.5-0.1,2.3c0.1,0.9,0.5,1.7,1.1,2.5s1.4,1.4,2.3,1.7
								c1.2,0.4,2.5,0.7,3.7,0.7c1.7,0,3.5-0.1,5.2-0.5C462.8-306.7,464.5-307.2,466.1-307.9z"/>
							<path class="st1" d="M585.6-452.6c-0.7,0.2-1.3,0.5-1.9,0.8c-2,1.2-3.5,3-4.2,5.2c-0.3,1.1-0.5,2.2-0.4,3.3
								c0,0.3,0,0.5,0.1,0.8c0,0,0,0,0,0.1l0.2,1c0.1,0.2,0.1,0.4,0.2,0.6c0.2,0.8,0.6,1.5,1,2.2c1.1,1.8,2.8,3.2,4.8,3.8
								c1.1,0.4,2.2,0.5,3.3,0.5c4.7-0.1,8.6-3.6,9.2-8.3c0.1-0.7,0.1-1.3,0-1.9c-0.1-1.7-0.7-3.3-1.7-4.7c-1.1-1.6-2.7-2.8-4.5-3.5
								c-1.1-0.4-2.2-0.6-3.3-0.5c-0.3,0-0.7,0-1,0.1l0,0l-1,0.2C586-452.7,585.8-452.7,585.6-452.6z M595.8-445
								c0.8,4.1-1.9,8-6,8.7c-4.1,0.8-8-1.9-8.7-6c-0.8-4.1,1.9-8,6-8.7C591.1-451.8,595-449.1,595.8-445z"/>
							<path class="st1" d="M590.4-444.1c0.6-0.4,1-1.1,1.1-1.8c0-0.5,0-1-0.2-1.4c-0.1-0.4-0.3-0.7-0.6-1c-0.4-0.3-0.8-0.5-1.3-0.5
								c-0.6-0.1-1.3,0-1.9,0.1c-1.3,0.2-2.6,0.5-3.9,0.7c-0.2,0-0.2,0-0.1,0.2l1.8,9.4c0,0.1,0,0.1,0.2,0.1l2.2-0.4
								c0.1,0,0.1,0,0.1-0.2l-0.6-3.4c0-0.1,0-0.1,0.1-0.1c0.3,0,0.6-0.1,0.8-0.1c0.4,0,0.7,0.1,1,0.3c0.2,0.2,0.4,0.4,0.6,0.6
								c0.6,0.7,1.1,1.5,1.7,2.2c0,0.1,0.1,0.1,0.2,0.1l2.5-0.5c0.1,0,0.1,0,0-0.1c-0.6-0.8-1.3-1.7-1.9-2.5
								c-0.2-0.3-0.4-0.5-0.7-0.7c-0.3-0.3-0.7-0.5-1.1-0.6h-0.1C590.2-443.9,590.3-444,590.4-444.1z M586.3-446.5
								c0-0.1,0-0.1,0.1-0.1c0.4,0,0.8-0.2,1.2-0.2c0.2,0,0.4,0,0.6,0c0.3,0.1,0.6,0.2,0.7,0.6c0.1,0.3,0.2,0.6,0.2,0.9
								c0,0.4-0.2,0.7-0.6,0.8c-0.2,0.1-0.4,0.2-0.7,0.2c-0.3,0.1-0.6,0.1-0.9,0.2c-0.1,0-0.1,0-0.1-0.1l-0.2-1.1L586.3-446.5z"/>
							<path class="st1" d="M238.6-262.8l-1.4,0.3l-19.9-105.4l1.4-0.3L238.6-262.8z"/>
						</g>
						<g>
							<path class="st1" d="M394.7-560c1.1,5.9,0.8,11.5-1,16.9c-1.8,5.4-5.2,10.1-10.2,14.2c-2.2,1.7-4.5,3.2-7.1,4.4
								c-3.7,1.8-8.1,3.1-12.9,4l-15.4,2.9l6.9,36.4c-2.2,0.3-4.5,0.4-6.7,0.3c-1.9-0.1-3.9-0.4-5.7-1c-4.3-1.2-8.2-3.7-11.1-7.1
								c-3-3.5-5.1-8.1-6.2-13.8L311-578.1l40.1-7.6c8.1-1.5,15.2-1.4,21.3,0.3c6.1,1.7,11,4.8,14.8,9.2
								C391-571.7,393.5-566.4,394.7-560z M366.4-568.5l-26.7,5l2.3,12l6.1-1.2l-5.3,7.7l10.1,6.9l1.1-1.5l4.2-6.2l1.2,6.1l12-2.3
								L366.4-568.5z"/>
							<path class="st1" d="M471.1-543.9c1.3,8.1,0.7,15.4-1.8,21.8c-2.5,6.8-7,12.7-12.7,17c-2.6,2-5.4,3.6-8.4,5
								c-3.4-0.1-6.7-0.7-9.9-1.6c-6.9-1.9-12.7-5.7-17.5-11.2c-4.3-5-7.4-11.4-9.2-19.2c-0.2-0.9-0.4-1.7-0.6-2.6l-11.4-60.1
								l24.5-4.6l11.4,60.2c1.1,6,3.5,10.4,7.1,13.1c0.3,0.2,0.7,0.5,1.1,0.7c2.8,1.7,6.1,2.4,10,2.1c1-0.1,1.9-0.2,2.9-0.4
								c5.7-1.1,9.8-3.5,12.3-7.4C471-534.5,471.7-538.8,471.1-543.9z"/>
							<path class="st2" d="M467.6-630.2L451.7-593l9.2-5.3l9.9,52.4c0.1,0.7,0.2,1.4,0.3,2c1.3,8.1,0.7,15.4-1.8,21.8
								c-2.5,6.8-7,12.7-12.7,17c-2.6,2-5.4,3.6-8.4,5c3.3,0.2,6.6,0,9.8-0.5c0.8-0.1,1.6-0.3,2.4-0.4c7.9-1.5,14.8-4.4,20.7-8.8
								c5.8-4.3,10.2-10.2,12.7-17c2.6-6.9,3.1-14.9,1.4-23.9l-9.9-52.3l10.5,1.6L467.6-630.2z"/>
							<path class="st1" d="M557.3-617.7c-0.9-1.3-2.1-2.4-3.5-3.1c-1.6-0.8-3.4-1.3-5.1-1.4c-2.3-0.2-4.6,0-6.8,0.4l-16.9,3.2
								l0.5,2.9l2.3-0.4c0.4-0.1,0.8-0.1,1.1-0.1s0.7,0.1,1,0.3c0.3,0.2,0.6,0.5,0.8,0.9c0.3,0.5,0.5,1.1,0.5,1.7l5,26.6
								c0.2,0.6,0.2,1.3,0.1,1.9c0,0.4-0.2,0.8-0.4,1.2c-0.2,0.3-0.5,0.5-0.8,0.7c-0.4,0.2-0.7,0.3-1.1,0.3l-2.3,0.4l0.6,2.9
								l20.2-3.8l-0.6-2.9l-3.4,0.6c-0.4,0.1-0.8,0.1-1.1,0.1c-0.4,0-0.7-0.1-1-0.3c-0.3-0.2-0.6-0.5-0.8-0.9
								c-0.3-0.5-0.5-1.1-0.6-1.7l-1.7-8.8l1.9-0.4c3-0.6,5.4-1.4,7.4-2.5c1.9-1.1,3.4-2.3,4.5-3.7c1.1-1.3,1.7-2.9,2-4.6
								c0.3-1.6,0.3-3.3,0-4.9C558.9-614.6,558.2-616.2,557.3-617.7z M539.3-618l2.2-0.4c1.1-0.2,2.2-0.2,3.2-0.1
								c0.9,0.2,1.7,0.6,2.4,1.2c0.7,0.7,1.3,1.5,1.7,2.5c0.5,1.2,0.9,2.5,1.1,3.8c0.3,1.4,0.4,2.9,0.4,4.3c0,1.1-0.3,2.2-0.8,3.1
								c-0.5,0.9-1.2,1.6-2,2.1c-1.1,0.6-2.2,1-3.4,1.2l-1.4,0.3L539.3-618z"/>
							<path class="st1" d="M585-592.2l-1.8,0.3c-0.5,0.1-1,0.1-1.5,0.2c-0.4,0-0.9-0.1-1.3-0.3c-0.4-0.2-0.8-0.6-1-1
								c-0.3-0.6-0.6-1.2-0.7-1.9l-1.8-9.5c-0.1-0.4-0.2-1-0.2-1.6c-0.1-0.6-0.1-1.3-0.1-1.9c0-0.7,0-1.3,0.1-2
								c0.1-0.6,0.2-1.3,0.5-1.9c0.2-0.5,0.5-1.1,1-1.5c0.4-0.4,1-0.7,1.6-0.8c0.4-0.1,0.9-0.1,1.4,0.1c0.4,0.2,0.7,0.4,1,0.7
								c0.3,0.4,0.6,0.9,0.7,1.4c0.2,0.7,0.4,1.3,0.5,2c2.2-0.4,3.9-1.2,4.9-2.4c1-1.1,1.4-2.6,1.1-4.3c-0.3-1.5-1-2.5-2.2-3
								c-1.2-0.6-2.9-0.6-5-0.2c-1,0.2-2,0.5-2.9,0.8c-0.7,0.3-1.4,0.8-2,1.3c-0.5,0.5-1,1.2-1.2,1.8c-0.3,0.8-0.6,1.6-0.8,2.4
								l-0.3,0.1l-1.9-4.1l-11.2,2.1l0.6,2.9h0.2c0.6-0.1,1.1-0.2,1.7-0.2c0.4,0,0.9,0.1,1.3,0.3c0.4,0.2,0.8,0.6,1,1
								c0.3,0.6,0.5,1.2,0.6,1.9l3,16c0.1,0.7,0.2,1.4,0.1,2.1c-0.1,0.5-0.3,1-0.6,1.4s-0.8,0.6-1.2,0.8c-0.6,0.2-1.1,0.4-1.7,0.5
								h-0.2l0.6,2.9l18.4-3.5L585-592.2z"/>
							<path class="st1" d="M576-564.6l-14.4,2.7l0.6,2.9l2.3-0.4c0.4-0.1,0.7-0.1,1.1-0.1c0.3,0,0.7,0.1,1,0.3s0.6,0.5,0.8,0.9
								c0.3,0.5,0.5,1.1,0.5,1.7L572-535c0.3,1.2,0.3,2.5,0.1,3.8c-0.1,1-0.5,2-1.1,2.8c-0.6,0.8-1.3,1.5-2.2,1.9
								c-1,0.6-2.1,0.9-3.2,1.1c-1.2,0.2-2.3,0.3-3.5,0.2c-1-0.1-2-0.4-2.9-0.9c-0.9-0.6-1.6-1.3-2.1-2.2c-0.6-1.2-1.1-2.5-1.3-3.8
								l-4-21.3c-0.2-0.6-0.2-1.3-0.1-1.9c0-0.4,0.1-0.8,0.4-1.2c0.2-0.3,0.5-0.5,0.8-0.7c0.3-0.2,0.7-0.3,1.1-0.3l2.3-0.4l-0.5-2.9
								l-19,3.6l0.6,2.9l2.4-0.4c0.4-0.1,0.7-0.1,1.1-0.1c0.3,0,0.7,0.1,1,0.3s0.6,0.5,0.8,0.9c0.3,0.5,0.5,1.1,0.5,1.7l4,21.1
								c0.4,2.2,1.1,4.1,2.1,5.6c0.9,1.4,2.2,2.5,3.7,3.3c1.6,0.8,3.4,1.2,5.2,1.3c2.2,0.1,4.4-0.1,6.6-0.5c2.1-0.3,4.1-1,6.1-2
								c1.5-0.8,2.8-1.8,3.9-3.2c0.9-1.2,1.5-2.7,1.8-4.2c0.3-1.7,0.2-3.4-0.1-5.1l-4.1-21.5c-0.2-0.6-0.2-1.3-0.1-1.9
								c0-0.4,0.1-0.8,0.4-1.2c0.2-0.3,0.5-0.5,0.8-0.7c0.3-0.2,0.7-0.3,1.1-0.3l2.4-0.5L576-564.6z"/>
							<path class="st1" d="M597.9-533.2c-0.7-0.7-1.2-1.8-1.5-3.5l-3.2-17.1l7.1-1.3l-0.7-3.8l-7.1,1.3l-1.3-6.8l-4.6,0.9
								c-0.1,2.6-0.6,4.5-1.5,5.9c-0.5,0.8-1.2,1.5-1.9,2c-0.9,0.7-1.9,1.1-3.1,1.3l0.5,2.9l4.2-0.8l3.3,17.7c0.2,1.4,0.7,2.7,1.3,4
								c0.5,1,1.2,1.8,2.1,2.4c0.9,0.6,1.8,0.9,2.8,1c1.2,0.1,2.3,0.1,3.5-0.2c0.9-0.2,1.8-0.4,2.7-0.6c0.8-0.2,1.5-0.5,2.2-0.7
								c0.6-0.2,1.1-0.5,1.6-0.8c0.4-0.2,0.7-0.4,1.1-0.7l-0.7-3.6c-0.5,0.2-1.1,0.5-1.8,0.7s-1.3,0.4-2,0.5
								C599.6-532.3,598.6-532.5,597.9-533.2z"/>
							<path class="st1" d="M528.6-512.8l-1.4,0.3l-19.9-105.4l1.4-0.3L528.6-512.8z"/>
						</g>
						<g>
							<path class="st1" d="M17.9-533.2c-0.7-0.7-1.2-1.8-1.5-3.5l-3.2-17.1l7.1-1.3l-0.7-3.8l-7.1,1.3l-1.3-6.8l-4.6,0.9
								c-0.1,2.6-0.6,4.5-1.5,5.9c-0.5,0.8-1.2,1.5-1.9,2c-1.1,0.7-2.1,1.2-3.2,1.4l0.5,2.9l4.2-0.9L8-534.5c0.2,1.4,0.7,2.7,1.3,4
								c0.5,1,1.2,1.8,2.1,2.4c0.9,0.6,1.8,0.9,2.8,1c1.2,0.1,2.3,0.1,3.5-0.2c0.9-0.2,1.8-0.4,2.7-0.6c0.8-0.2,1.5-0.5,2.2-0.7
								c0.6-0.2,1.1-0.5,1.6-0.8c0.4-0.2,0.7-0.4,1.1-0.7l-0.7-3.6c-0.5,0.2-1.1,0.5-1.8,0.7c-0.7,0.2-1.3,0.4-2,0.5
								C19.6-532.3,18.6-532.5,17.9-533.2z"/>
							<path class="st1" d="M27.1-532.7l0.6,2.9l17.5-3.3l-0.6-2.9l-0.6,0.1c-0.4,0.1-0.9,0.1-1.3,0.1c-0.4,0-0.9-0.1-1.4-0.2
								c-0.5-0.2-0.9-0.5-1.2-0.9c-0.4-0.5-0.6-1.2-0.7-1.8L35-561.8l-13,2.5l0.6,2.9l0.6-0.1c0.4-0.1,0.8-0.1,1.3-0.1
								c0.4,0,0.9,0.1,1.4,0.2c0.5,0.2,0.8,0.5,1.2,0.8c0.4,0.5,0.6,1.1,0.7,1.7l3.2,16.8c0.2,0.6,0.2,1.3,0,2
								c-0.2,0.5-0.4,0.9-0.8,1.3c-0.3,0.3-0.7,0.6-1.2,0.7c-0.4,0.1-0.8,0.3-1.3,0.4H27.1L27.1-532.7z M24.8-567.3
								c0.3,0.4,0.7,0.8,1.2,1.1c0.5,0.2,1.1,0.4,1.6,0.4c1.3,0.1,2.5-0.1,3.6-0.7c0.5-0.2,1-0.6,1.4-1s0.6-0.9,0.8-1.4
								c0.2-0.6,0.2-1.2,0-1.9c-0.1-0.6-0.3-1.2-0.7-1.7c-0.3-0.4-0.8-0.8-1.3-1s-1.1-0.4-1.6-0.4c-1.2-0.1-2.5,0.2-3.6,0.7
								c-0.5,0.2-1,0.6-1.4,1c-0.4,0.4-0.6,0.9-0.8,1.4c-0.1,0.6-0.2,1.3,0,1.9C24.2-568.4,24.4-567.8,24.8-567.3z"/>
							<path class="st1" d="M46.5-536.4l0.6,2.9l17.5-3.3l-0.6-2.9l-0.6,0.1c-0.4,0.1-0.9,0.1-1.3,0.1c-0.5,0-0.9-0.1-1.4-0.2
								c-0.5-0.2-0.9-0.5-1.2-0.9c-0.4-0.5-0.6-1.2-0.7-1.8l-6.7-35.4l-12.9,2.5l0.6,2.9l0.6-0.1c0.4-0.1,0.8-0.1,1.3-0.1
								c0.4,0,0.9,0.1,1.4,0.2c0.5,0.2,0.8,0.5,1.2,0.8c0.4,0.5,0.6,1.1,0.7,1.7l5.5,29.2c0.2,0.6,0.2,1.3,0,2
								c-0.2,0.5-0.4,0.9-0.8,1.3c-0.3,0.3-0.7,0.6-1.2,0.7c-0.4,0.1-0.8,0.3-1.3,0.4L46.5-536.4z"/>
							<path class="st1" d="M65.9-540.1l0.6,2.9l17.5-3.3l-0.6-2.9l-0.6,0.1c-0.4,0.1-0.9,0.1-1.3,0.1c-0.5,0-0.9-0.1-1.4-0.2
								c-0.5-0.2-0.9-0.5-1.2-0.9c-0.4-0.5-0.6-1.2-0.7-1.8l-4.4-23.1l-13,2.5l0.6,2.9l0.6-0.1c0.4-0.1,0.8-0.1,1.3-0.1
								c0.4,0,0.9,0.1,1.4,0.2c0.5,0.2,0.8,0.5,1.2,0.8c0.4,0.5,0.6,1.1,0.7,1.7l3.2,16.8c0.2,0.6,0.2,1.3,0,2
								c-0.2,0.5-0.4,0.9-0.8,1.3c-0.3,0.3-0.7,0.6-1.2,0.7c-0.4,0.1-0.8,0.3-1.3,0.4H65.9L65.9-540.1z M63.7-574.7
								c0.3,0.4,0.7,0.8,1.2,1.1c0.5,0.3,1.1,0.4,1.6,0.4c0.6,0,1.3,0,1.9-0.1c0.6-0.1,1.2-0.3,1.8-0.6c0.5-0.2,1-0.6,1.4-1
								c0.4-0.4,0.6-0.9,0.8-1.4c0.2-0.6,0.2-1.2,0-1.9c-0.1-0.6-0.3-1.2-0.7-1.7c-0.3-0.4-0.8-0.8-1.3-1c-0.5-0.2-1.1-0.4-1.6-0.4
								c-0.6,0-1.2,0-1.9,0.1c-0.6,0.1-1.2,0.3-1.8,0.6c-0.5,0.2-1,0.6-1.4,1c-0.4,0.4-0.6,0.9-0.8,1.4c-0.1,0.6-0.2,1.3,0,1.9
								C63.1-575.8,63.3-575.2,63.7-574.7z"/>
							<path class="st1" d="M98.5-548.4c-0.7-0.7-1.2-1.8-1.6-3.5L93.7-569l7.1-1.3l-0.7-3.8l-7.1,1.3l-1.3-6.8l-4.6,0.9
								c-0.1,2.6-0.6,4.5-1.5,5.9c-0.5,0.8-1.2,1.5-1.9,2c-0.9,0.7-1.9,1.1-3.1,1.3l0.5,2.9l4.1-0.8l3.3,17.7c0.2,1.4,0.7,2.7,1.3,4
								c0.5,1,1.2,1.8,2.1,2.4s1.8,0.9,2.8,1c1.2,0.1,2.3,0.1,3.5-0.2c0.9-0.2,1.8-0.4,2.7-0.6c0.8-0.2,1.5-0.5,2.2-0.7
								c0.6-0.2,1.1-0.5,1.6-0.8c0.4-0.2,0.7-0.4,1.1-0.7l-0.7-3.6c-0.5,0.2-1.1,0.5-1.8,0.7c-0.7,0.2-1.3,0.4-2,0.5
								C100.2-547.6,99.3-547.8,98.5-548.4z"/>
							<path class="st1" d="M107.7-548l0.6,2.9l17.5-3.3l-0.6-2.9l-0.6,0.1c-0.4,0.1-0.9,0.1-1.3,0.1c-0.5,0-0.9-0.1-1.4-0.2
								c-0.5-0.2-0.9-0.5-1.2-0.9c-0.4-0.5-0.6-1.2-0.7-1.8l-4.4-23.1l-13,2.5l0.6,2.9l0.6-0.1c0.4-0.1,0.8-0.1,1.3-0.1
								c0.4,0,0.9,0.1,1.4,0.2c0.5,0.2,0.8,0.5,1.2,0.8c0.4,0.5,0.6,1.1,0.7,1.7l3.2,16.8c0.2,0.6,0.2,1.3,0,2
								c-0.2,0.5-0.4,0.9-0.8,1.3c-0.3,0.3-0.7,0.6-1.2,0.7c-0.4,0.1-0.8,0.3-1.3,0.4H107.7L107.7-548z M105.5-582.6
								c0.3,0.4,0.7,0.8,1.2,1.1s1.1,0.4,1.6,0.4c1.3,0.1,2.5-0.1,3.6-0.7c0.5-0.2,1-0.6,1.4-1c0.4-0.4,0.6-0.9,0.8-1.4
								c0.2-0.6,0.2-1.2,0-1.9c-0.1-0.6-0.3-1.2-0.7-1.7c-0.3-0.4-0.8-0.8-1.3-1s-1.1-0.4-1.6-0.4c-1.2-0.1-2.5,0.2-3.6,0.7
								c-0.5,0.2-1,0.6-1.4,1s-0.6,0.9-0.8,1.4c-0.1,0.6-0.2,1.3,0,1.9C104.9-583.7,105.1-583.1,105.5-582.6z"/>
							<path class="st1" d="M148.5-552.5c1.1-0.5,2.2-1.1,3.1-1.9c0.7-0.6,1.3-1.4,1.6-2.2c0.3-0.8,0.4-1.6,0.2-2.4
								c-0.2-1.3-0.9-2.1-2-2.4c-0.2,0.7-0.5,1.4-0.9,2c-0.4,0.7-0.9,1.2-1.5,1.8c-0.6,0.5-1.3,1-2,1.4c-0.8,0.4-1.7,0.7-2.6,0.8
								c-1,0.2-2.1,0.2-3.2,0c-1-0.3-1.9-0.8-2.6-1.5c-0.9-0.9-1.6-1.9-2.1-3c-0.7-1.5-1.2-3.1-1.5-4.7l18.1-3.4l-0.5-2.8
								c-0.3-2-1-3.8-2-5.6c-0.8-1.5-2-2.7-3.4-3.7c-1.4-0.9-2.9-1.5-4.6-1.7c-3.9-0.5-7.8,0.3-11.2,2.3c-1.5,0.9-2.8,2.2-3.7,3.8
								c-1,1.6-1.6,3.5-1.8,5.4c-0.2,2.3-0.1,4.7,0.4,7c0.4,2.2,1.1,4.3,2.1,6.3c0.9,1.7,2.1,3.1,3.6,4.2s3.2,1.8,5.1,2.1
								c2.1,0.4,4.3,0.3,6.4-0.1C145.4-551.5,147-551.9,148.5-552.5z M140.2-578.1c0.7,0.4,1.3,0.9,1.7,1.5c0.5,0.8,1,1.7,1.3,2.7
								c0.4,1.2,0.7,2.5,1,3.7l-9.5,1.8c-0.5-3-0.4-5.3,0.2-7c0.6-1.7,1.7-2.7,3.2-3C138.8-578.5,139.5-578.4,140.2-578.1z"/>
							<path class="st1" d="M176.1-557.9c1.3-0.6,2.5-1.5,3.4-2.6c0.8-1,1.5-2.2,1.7-3.5c0.3-1.4,0.3-2.9,0-4.3
								c-0.2-1.1-0.6-2.1-1.2-3c-0.6-0.8-1.3-1.5-2.2-2.1c-1-0.6-2-1.1-3-1.4c-1.2-0.4-2.4-0.6-3.7-0.8c-1.6-0.2-2.9-0.5-4-0.7
								c-0.9-0.2-1.7-0.5-2.5-0.8c-0.6-0.2-1.1-0.6-1.4-1.1c-0.3-0.5-0.5-1-0.6-1.5s-0.1-1,0.1-1.6c0.2-0.5,0.4-0.9,0.8-1.2
								c0.4-0.4,0.8-0.7,1.3-0.9c0.5-0.2,1.1-0.4,1.7-0.5c1.6-0.3,2.9,0,3.9,0.8c1,0.9,1.7,2.2,2,4c2-0.4,3.4-1,4.1-1.8
								c0.7-0.8,1-1.8,0.8-3.1c-0.1-0.7-0.4-1.3-0.9-1.8c-0.6-0.6-1.3-1-2-1.3c-1-0.4-2.1-0.6-3.2-0.6c-1.5-0.1-3,0.1-4.5,0.4
								c-1.7,0.3-3.2,0.8-4.8,1.5c-1.3,0.6-2.5,1.4-3.5,2.3c-0.9,0.9-1.5,2-1.9,3.2c-0.3,1.3-0.4,2.7-0.1,4c0.2,1.1,0.6,2.2,1.2,3.2
								c0.6,0.9,1.4,1.6,2.3,2.2c1,0.6,2.1,1.1,3.3,1.5c1.4,0.4,2.8,0.7,4.3,0.9c1.4,0.2,2.5,0.4,3.5,0.7c0.8,0.2,1.6,0.5,2.3,0.8
								c0.5,0.3,1,0.7,1.4,1.1c0.3,0.5,0.5,1,0.6,1.6c0.2,1-0.1,2.1-0.8,2.9c-0.4,0.5-1,0.9-1.6,1.1c-0.8,0.4-1.6,0.6-2.4,0.8
								c-0.8,0.2-1.7,0.2-2.5-0.1c-0.8-0.2-1.5-0.6-2.1-1.1c-0.7-0.6-1.3-1.3-1.7-2.1c-0.5-1-0.8-2-1-3c-0.5,0.1-1.1,0.3-1.6,0.4
								c-0.6,0.2-1.1,0.5-1.6,0.9c-0.5,0.4-0.9,0.9-1.1,1.5c-0.3,0.7-0.3,1.5-0.1,2.3c0.1,0.9,0.5,1.7,1.1,2.5
								c0.6,0.8,1.4,1.4,2.3,1.7c1.2,0.4,2.5,0.7,3.7,0.7c1.7,0,3.5-0.1,5.2-0.5C172.8-556.7,174.5-557.2,176.1-557.9z"/>
						</g>
					</g>
				</g>
			</g>
		</g>
	</g>
</pattern>
<g id="Layer_2_00000001651148433924322460000011573332443384875418_">
</g>
<g id="Layer_3">
</g>
<g id="Layer_4">
</g>
<g id="Layer_5">
</g>
<g>
	<path class="st3" d="M335.9,116.4c139-8.7,284.7,36.4,263.3,101.7s114.5-23.2,168.7,0.3c38.6,16.8,23.2,67.8,41.9,88.4
		c42.8,47.2,86.6-12.2,141.2,23.4c54.5,35.6-28,367.1-84.9,368.9l-703-1.4c0,0-152.2-59.8-59-151.7c54.8-53.9,17.5-81.5,10.7-103.1
		c-7.8-24.8-26-68.1,53.2-99.9s58.7-101,56.8-115.3C222.8,213.6,197,125,335.9,116.4L335.9,116.4z"/>
	<g>
		
			<linearGradient id="SVGID_1_" gradientUnits="userSpaceOnUse" x1="34.4445" y1="-306.2128" x2="283.8032" y2="-463.6875" gradientTransform="matrix(1 0 0 -1 0 204)">
			<stop  offset="0.1424" style="stop-color:#32D314"/>
			<stop  offset="1" style="stop-color:#269E0F"/>
		</linearGradient>
		<path class="st4" d="M196.5,675c-0.1,0-0.2,0-0.3,0c-0.5,0-1-0.4-1.2-0.9c-10.5-39.4-32.2-81.3-56.1-115.5
			c-0.8,1.3-3.5,5.4-7.8,6.5c-5.1,1.3-10.4-2.2-10.4-2.2s2.9-5.6,8-7c3.8-1,7.8,0.8,9.5,1.7c-13.8-19.6-28.2-36.7-41.7-49.2
			c-0.9,1.5-3.6,5.3-7.7,6.3c-5.1,1.3-10.4-2.2-10.4-2.2s2.9-5.7,8-7c3-0.8,6,0.1,8,1c-11.5-10.3-22.1-17.3-30.9-19.6
			c-0.7-0.2-1.1-0.9-0.9-1.5c0.2-0.7,0.9-1.1,1.5-0.9c1.9,0.5,3.8,1.2,5.8,2.1c-1.5-1.6-3.1-3.9-3.4-6.7c-0.6-5.2,3.6-10,3.6-10
			s5.2,3.6,5.8,8.8c0.5,4-1.9,7.7-3,9.2c12.9,6.6,28.4,20.4,44.2,38.7c-1.1-1.9-2.5-5.1-1.9-8.5c0.9-5.2,6.3-8.5,6.3-8.5s4,5,3,10.1
			c-0.8,4.5-5,7.7-6.1,8.4c32.1,37.7,65,93.6,78.8,145.2C197.5,674.1,197.1,674.8,196.5,675z"/>
	</g>
	<g>
		
			<linearGradient id="SVGID_00000021801125426788405070000007466098543098292127_" gradientUnits="userSpaceOnUse" x1="-383.8771" y1="-254.7859" x2="-134.5184" y2="-412.2606" gradientTransform="matrix(-1 0 0 -1 657.0438 204)">
			<stop  offset="0.1424" style="stop-color:#32D314"/>
			<stop  offset="1" style="stop-color:#269E0F"/>
		</linearGradient>
		<path style="fill:url(#SVGID_00000021801125426788405070000007466098543098292127_);" d="M813.9,664.6c0.1,0,0.2,0,0.3,0
			c0.5,0,1-0.4,1.2-0.9c10.5-39.4,32.2-81.3,56.1-115.5c0.8,1.3,3.5,5.4,7.8,6.5c5.1,1.3,10.4-2.2,10.4-2.2s-2.9-5.6-8-7
			c-3.8-1-7.8,0.8-9.5,1.7c13.8-19.6,28.2-36.7,41.7-49.2c0.9,1.5,3.6,5.3,7.7,6.3c5.1,1.3,10.4-2.2,10.4-2.2s-2.9-5.7-8-7
			c-3-0.8-6,0.1-8,1c11.5-10.3,22.1-17.3,30.9-19.6c0.7-0.2,1.1-0.9,0.9-1.5c-0.2-0.7-0.9-1.1-1.5-0.9c-1.9,0.5-3.8,1.2-5.8,2.1
			c1.5-1.6,3.1-3.9,3.4-6.7c0.6-5.2-3.6-10-3.6-10s-5.2,3.6-5.8,8.8c-0.5,4,1.9,7.7,3,9.2c-12.9,6.6-28.4,20.4-44.2,38.7
			c1.1-1.9,2.5-5.1,1.9-8.5c-0.9-5.2-6.3-8.5-6.3-8.5s-4,5-3,10.1c0.8,4.5,5,7.7,6.1,8.4c-32.1,37.7-65,93.6-78.8,145.2
			C812.8,663.7,813.2,664.4,813.9,664.6z"/>
	</g>
	<g>
		<path class="st6" d="M93.7,601c1.6-6.9,7.6-9.8,14.1-8.7c3.1,0.5,6.1,1.2,9.1,2c4.1,1,8.1,1.2,12.3,0.9c6.9-0.5,13.3,1.2,18.8,5.7
			c3.4,2.8,6.4,6,9.5,9.1c1.8,1.8,3.7,3.5,6,4.8c1.7,0.9,3.5,1.5,5.5,0.9c3.6-1,6.9,0,10.3,0.9c4.5,2.2,8.5,5.1,11.8,8.8
			c2.8,3.2,5.2,6.8,7.4,10.6c2.4,4.2,4.9,8.4,8,12.2c2.8,3.6,6.3,6,10.7,7.1c0.9,0.2,1.7,0.2,2.6,0.2c4,0,7,1.8,9.3,4.9
			c4.7,6.3,7,13.5,9.1,20.9c2.6,9.4,4.6,19,6.5,28.6c0.4,2.2,0.2,2.7-2,3.1c-1.2,0.2-2.5,0.3-3.6,1c-2.9,0.1-5.6,1-8.4,1.5
			c-6.5,1.3-13,2.5-19.5,3.3c-0.3,0-0.6,0.3-0.8,0.4c-3.2,0-6.4,0-9.6,0c-2.1-1.1-3.1-2.8-3.4-5.1c-0.5-3.5-2.7-5.5-6-6.4
			c-0.8-0.2-1.7-0.4-2.6-0.5c-4.7-0.8-9.3-1.7-13.6-3.7c-6.1-2.9-10.5-7.4-13.4-13.4c-1.6-3.4-2.7-7-3.5-10.7c-0.8-4-3.2-6.5-7-7.8
			c-2.1-0.8-4.3-1.2-6.4-1.8c-6.7-1.9-12.9-4.6-18.2-9.2c-3.5-3-6.2-6.6-6.7-11.5c-0.3-2.3-0.8-4.6-1.2-6.8
			c-1.4-6.9-4.6-12.7-10.7-16.6c-2.1-1.3-4-2.9-5.9-4.5c-4.5-3.9-7.5-8.6-8.4-14.6C93.7,605.6,93.5,601.7,93.7,601z M153.3,626.7
			c-1,0-1.7-0.7-2.5-1.3c-12.3-8.4-25.1-15.8-38.5-22.4c-2.2-1.1-4.5-2.1-6.7-3.1c-0.4-0.2-0.8-0.2-1.1,0.2c-0.2,0.4,0,0.8,0.4,1
			c0.6,0.3,1.1,0.6,1.7,0.9c5.9,2.6,11.5,5.5,17.1,8.6c3.6,1.9,7.2,3.8,10.7,6.2c-0.8,0.2-1.4,0.5-1.9,0.6c-2.5,0.5-5,1-7.5,1.5
			c-0.6,0.1-1.3,0.2-1.2,0.9c0.1,0.8,0.8,0.6,1.3,0.5c0.5,0,0.9-0.2,1.4-0.3c3-0.6,6-1.1,8.9-1.7c1-0.2,1.6,0,2.4,0.5
			c6.1,3.6,11.8,7.5,17.6,11.6c8,5.7,15.6,11.9,23,18.3c1.7,1.5,3.2,3.3,4.9,5.1c-0.7,0.2-1.3,0.5-2,0.6c-3.8,1.1-7.5,2.1-11.3,3.2
			c-0.8,0.2-1.7,0.2-2.2,1.3c0.9,0.5,1.8,0.3,2.6,0.1c4.2-1.2,8.5-2.3,12.6-3.6c1.5-0.5,2.5-0.2,3.6,0.9c3.9,4.1,8,8,11.8,12.2
			c3.4,3.8,6.8,7.6,10,11.6c5.8,7,11.2,14.4,15.8,22.2c0.4,0.6,0.8,1.8,1.6,1.3s0-1.4-0.4-2.1c-2.8-4.8-6-9.4-9.3-13.9
			c-7.6-10.3-16.1-19.8-25-28.9c-1.5-1.6-3.3-2.8-4.8-4.3c-3.7-3.8-7.8-7.3-11.9-10.8c-5.7-4.9-11.7-9.4-17.7-13.8
			c-1.1-0.8-1.6-1.6-1.8-2.9c-0.1-1.6-0.6-3.1-0.9-4.7c-0.5-2.8-1-5.6-1.5-8.5c-0.1-0.6-0.2-1.3-0.9-1.2s-0.6,0.9-0.5,1.4
			c0.2,1.6,0.5,3.1,0.8,4.7C152.5,621.3,153.4,623.9,153.3,626.7L153.3,626.7z"/>
		<path class="st7" d="M153.3,626.6c0-2.7-1.2-5.3-1.6-8c-0.2-1.6-0.6-3.2-0.8-4.8c-0.1-0.5-0.1-1.3,0.7-1.4c0.7-0.1,1,0.7,1.1,1.3
			c0.5,2.8,1,5.6,1.5,8.5c0.3,1.6,0.7,3.1,0.9,4.7c0.1,1.3,0.7,2.1,1.8,2.9c6.1,4.4,12,9,17.7,13.8c4.1,3.5,8.1,6.9,11.9,10.8
			c1.5,1.5,3.3,2.8,4.8,4.3c8.9,9.2,17.4,18.7,25,28.9c3.3,4.5,6.5,9.1,9.3,13.9c0.4,0.7,1.2,1.6,0.4,2.1c-0.9,0.6-1.3-0.6-1.6-1.3
			c-4.6-7.8-10-15.2-15.8-22.2c-3.2-3.9-6.9-7.5-10.3-11.3c-3.8-4.2-7.8-8.4-11.7-12.5c-1.1-1.1-1.8-1.1-3.4-0.9
			c-4.2,1.3-8.4,2.4-12.6,3.6c-0.8,0.2-2.2,0.5-3.1,0c0.4-1.1,1.8-1.5,2.6-1.7c3.7-1.1,7.4-1.8,11.2-2.9c0.7-0.2,0.9-0.5,1.6-0.7
			c-1.7-1.8-3-3.1-4.8-4.6c-7.5-6.4-14.6-12.8-22.6-18.5c-5.7-4.1-11.6-8.1-17.7-11.6c-0.8-0.5-1.2-0.9-2.2-0.7
			c-2.9,0.7-4.8,1.2-7.8,1.7c-0.5,0.1-2.4,0.4-2.9,0.5c-0.5,0-1.4,0.1-1.4-0.7c0-0.7,1.2-1,1.7-1.1c2.5-0.5,5-1.1,7.5-1.3
			c0.6-0.4,1-0.4,1.7-0.6c-3.6-2.4-7.4-4-10.9-5.9c-5.6-3.1-11.1-6-16.9-8.6c-0.6-0.3-1.6-1.1-2.2-1.4c-0.4-0.2-0.4-1,0-1.1
			c0.5-0.2,1-0.1,1.4,0.1c2.2,1,4.5,2,6.7,3.1c13.4,6.5,26.2,14,38.5,22.4C151.5,626,152.2,626.6,153.3,626.6c0,0.1,0.1,0.2,0.2,0.2
			C153.4,626.8,153.3,626.7,153.3,626.6z"/>
	</g>
	<g>
		<g>
			
				<linearGradient id="SVGID_00000178194291742598319690000002925578585344826509_" gradientUnits="userSpaceOnUse" x1="897.9345" y1="-109.5172" x2="605.2093" y2="-772.2655" gradientTransform="matrix(1 0 0 -1 0 204)">
				<stop  offset="0.1424" style="stop-color:#7CE369"/>
				<stop  offset="1" style="stop-color:#51B13F"/>
			</linearGradient>
			<path style="fill:url(#SVGID_00000178194291742598319690000002925578585344826509_);" d="M848.2,599.1c-1.2,2.1-3,3.7-4.3,5.7
				c-3.2,4.8-5.7,10-8.2,15.1c-2.2,4.4-4.4,8.8-7.5,12.7c-3.3,4.2-7.3,7-12.6,7.9c-2.2,0.4-4.5,0.5-6.6,1.9c-2.2,1.5-4,3.5-5.3,5.7
				c-2.4,4-4,8.3-5.3,12.8c-1.9,6.3-3,12.8-4.1,19.3c-0.7,3.8-1.1,7.7-1.7,11.5c-0.7,4.6-0.8,9.3-1.8,13.9c-0.2,0.9-0.1,1.9-0.1,2.9
				c-1.8-0.2-3.5,0.3-5.2,0.5c-4.3,0.5-8.6,0.7-12.9,0.7c-6.6-0.1-13.3,0-19.9-0.5c-6.6-0.4-13.2-0.9-19.8-1.7
				c-3.7-0.4-7.5-0.9-11.2-1.3c-0.9-0.1-1.4-0.5-1.7-1.4c-6-18.8-13.4-37.1-19.3-55.9c-2-6.3-3.6-12.8-4.3-19.4
				c-0.3-3.3-0.3-6.5,0.3-9.8c1.1-6.1,4.4-10.9,9.8-13.8c11.4-6,17-15.8,19.4-27.9c1.3-6.7,1.7-13.5,2-20.3
				c0.3-8.8,0.3-17.6,1.4-26.3c1.6-13.1,5.2-25.5,12.9-36.4c4.4-6.2,9.8-11.2,17.1-13.8c0.5-0.2,1-0.4,1.6-0.5
				c4.7-1.1,7.9-4.1,10.2-8.1c2.7-4.5,4.2-9.5,5.7-14.4c2.3-7.9,4.3-15.9,7.1-23.6c5.7-15.4,16.4-25.9,31.2-32.4
				c8.3-3.6,15.3-8.9,21.7-15.1c4.3-4.2,8.8-8.4,13.8-11.9c3.4-2.4,7-4.5,11.2-5.3c10.7-2,21.6,3.6,26.1,13.5
				c5.5,12,5.8,24.2,1.8,36.7c-1.9,5.9-4.4,11.7-7.2,17.2c-4.6,8.8-6.4,18-5.4,27.8c0.7,6.3,2.4,12.4,4.4,18.4
				c1.3,3.9,2.9,7.6,4.1,11.5c2.1,6.5,1.5,13.1-0.3,19.6c-2.9,10.6-8.4,19.8-15,28.4c-4.5,5.8-9.7,11.1-15.1,16.1
				c-3.7,3.4-7.2,7.1-9.5,11.6c-1.9,3.7-2.3,7.5-1.5,11.4c1.1,5.1,2.5,10.1,3.8,15.1C848,598,848.1,598.6,848.2,599.1z M801.3,486.6
				c-0.7-0.4-0.7-0.8-0.8-1.2c-2.9-8.5-5.7-16.9-8.6-25.4c-0.3-0.7-0.4-1.6-0.9-2.2c-0.4-0.5-1-0.9-1.7-0.5
				c-0.6,0.3-0.8,0.8-0.7,1.4c0.1,0.7,0.4,1.4,0.6,2.1c3.1,9.2,6.2,18.4,9.4,27.6c0.5,1.5,0.6,2.9-0.3,4.3c-0.8,1.5-1.4,3-2.1,4.6
				c-3.8,7.9-7.2,16-10.6,24.1c-4.3,10.2-8.2,20.6-11.9,31.1c-3.4,9.9-6.7,20-9.6,30.1c-3.1,10.9-6.1,21.8-8.4,32.9
				c-0.2,1.2-0.3,2.4-1.1,3.5c-0.5-0.4-0.6-0.9-0.7-1.3c-2.5-7.5-5.1-15-7.6-22.4c-0.2-0.6-0.4-1.2-0.6-1.8
				c-0.3-0.7-0.8-1.1-1.5-0.8s-1.3,0.8-1,1.7c0.1,0.5,0.3,1.1,0.5,1.6c3.1,9.1,6.2,18.1,9.2,27.2c0.4,1.1,0.7,2.1,0.5,3.3
				c-1,5.5-2.2,11.1-3.1,16.6c-1,5.6-1.9,11.3-2.6,17c-0.6,4.9-1.2,9.8-1.6,14.7c-0.3,4-0.9,7.9-0.9,11.9c0,1-0.2,1.9-0.3,2.8
				c-0.2,2.5-0.1,5.1-0.1,7.7c0,0.1,0,0.2,0,0.2c0.1,0.8,0.5,1.4,1.3,1.5s1.3-0.6,1.4-1.4c0.1-0.7,0.1-1.4,0.1-2.2
				c-0.3-4.6,0.4-9.2,0.6-13.9c0.2-4.2,1-8.4,1.3-12.6c0.3-4.5,1-9,1.6-13.5c0.8-5.4,1.7-10.8,2.6-16.2c1.7-10.1,3.9-20.1,6.2-30.1
				c3-13.1,6.8-26.1,10.7-38.9c0.3-1.1,0.8-1.9,2.2-2.2c6-1.3,11.9-2.8,17.9-4.2c4.8-1.1,9.6-2.3,14.4-3.4c1-0.2,1.9-0.7,1.8-1.8
				c0-0.9-1-1.2-2.3-0.9c-0.2,0-0.4,0.2-0.7,0.2c-9.4,2.2-18.9,4.5-28.4,6.7c-0.9,0.2-1.9,0.6-2.9,0.3c-0.2-0.6,0-0.9,0.1-1.3
				c1.3-3.8,2.6-7.6,3.9-11.3c4.7-13.5,10-26.7,15.6-39.9c4.1-9.5,8.5-18.9,13.1-28.3c5-10.2,10.4-20.2,15.9-30.1
				c0.8-1.4,1.9-2.1,3.3-2.5c7.2-2.2,14.5-4.5,21.7-6.8c2-0.6,2.8-1.3,2.3-2.1c-0.7-1.3-1.9-0.8-3-0.5c-5.8,1.8-11.6,3.6-17.3,5.4
				c-1.1,0.3-2.1,0.9-3.5,0.6c0.2-0.5,0.3-0.8,0.4-1c5.2-8.7,10.4-17.4,16-25.9c6.8-10.4,13.7-20.6,21.2-30.4
				c0.6-0.8,1.3-1.6,1.6-2.7c0.2-0.5,0-1-0.4-1.3s-0.9-0.4-1.3-0.1c-0.6,0.5-1.2,1.1-1.7,1.7c-5.7,7.7-11.2,15.5-16.6,23.5
				c-5,7.5-9.9,15.1-14.6,22.8c-4,6.5-7.8,13-11.5,19.6c-2.1,3.9-4.3,7.8-6.4,11.8c-2.9,5.4-5.8,10.9-8.5,16.4
				C802.6,483.9,802.2,485.3,801.3,486.6z"/>
			<path class="st9" d="M800.9,486.3c0.9-1.3,1.2-2.7,1.9-4c2.5-5.5,5.6-10.9,8.5-16.4c2.1-3.9,4.3-7.9,6.4-11.8
				c3.6-6.7,7.5-13.2,11.5-19.6c4.7-7.7,9.5-15.3,14.6-22.8c5.3-7.9,10.8-15.8,16.6-23.5c0.5-0.6,1.1-1.2,1.7-1.7
				c0.4-0.3,1.5-0.6,1.9-0.2c0.4,0.3,0.5,0.8,0.3,1.3c-0.5,1.4-1.2,2.5-1.8,3.4c-7.5,9.9-14,20.2-20.8,30.5
				c-4.6,7-9.5,14.1-13.9,21.3c-0.9,1.5-1.6,2.4-2.5,3.9c-0.1,0.6-0.3,1-0.3,1.3c1.3,0.2,1.9-0.4,3-0.7c5.8-1.8,11.6-3.6,17.3-5.4
				c1.1-0.3,2.6-0.7,3.4,0.6c0.5,0.8-0.5,1.6-2.6,2.2c-7.2,2.3-14.5,4.8-21.7,7.1c-1.4,0.4-2.4,1.5-3.2,2.9
				c-5.5,9.9-10.7,19.3-15.7,29.5c-4.4,9.5-9,18.8-13.1,28.4c-5.2,13.3-10.6,26.5-15.5,39.7c-1.3,3.8-2.5,7.2-3.8,11
				c-0.1,0.4-0.3,0.9-0.1,1.5c0.9,0.3,1.3-0.2,2.3-0.4c9.5-2.2,18.9-4.5,28.4-6.7c0.2-0.1,0.4-0.2,0.7-0.2c1.4-0.3,2.9,0.1,2.9,0.9
				c0,1-0.8,1.9-1.8,2.1c-4.7,1.4-9,1.9-13.8,3.1c-6,1.4-13,3.3-19,4.6c-1.4,0.7-2,0.7-2.3,1.9c-3.9,12.9-7.7,25.8-10.7,38.9
				c-2.3,10-4.5,20-6.2,30.1c-0.9,5.4-1.8,10.8-2.6,16.2c-0.3,4.6-1.3,9-1.6,13.5c-0.3,4.2-1.1,8.4-1.3,12.6
				c-0.2,4.6-0.9,9.2-0.6,13.9c0,0.7,0.1,1.5-0.1,2.2c-0.1,0.7-0.5,1.6-1.3,1.6c-0.8-0.1-1.3-0.9-1.4-1.7c0-0.1-0.1-0.4-0.1-0.4
				c0-2.6-0.1-4.8,0-7.4c0.1-0.9,0.4-2,0.4-2.9c0-4,0.6-7.9,0.9-11.9c0.4-4.9,1.1-9.8,1.7-14.7c0.7-5.7,1.6-11.3,2.6-17
				c0.9-5.6,2-11.1,3.1-16.6c0.2-1.2-0.2-2.2-0.5-3.3c-3.1-9.1-6.3-18-9.3-27.1c-0.2-0.5-0.4-1.2-0.5-1.7c-0.2-0.9,0.4-1.3,1.1-1.6
				s1.2,0.1,1.5,0.8c0.2,0.6,0.4,1.2,0.6,1.8c2.5,7.5,5.1,15,7.6,22.4c0.2,0.5,0.3,0.9,0.7,1.3c0.8-1.1,0.9-2.3,1.1-3.5
				c2.3-11.1,5.3-22,8.4-32.9c2.9-10.1,6.2-20.1,9.6-30.1c3.6-10.5,7.6-20.8,11.9-31.1c3.4-8.1,6.8-16.2,10.6-24.1
				c0.7-1.5,1.3-3.1,2.1-4.6s0.8-2.8,0.3-4.3c-3.2-9.2-6.3-18.4-9.4-27.6c-0.2-0.7-0.5-1.4-0.6-2.1c-0.1-0.6,0.1-1.1,0.7-1.4
				c0.7-0.4,1.3-0.4,1.8,0.1c0.5,0.6,0.7,1.9,1,2.6c2.9,8.5,5.8,16.3,8.6,24.8C800.5,485.2,800.7,485.9,800.9,486.3z"/>
		</g>
	</g>
	<g>
		<g>
			
				<linearGradient id="SVGID_00000067216726977714164280000008268013068843991184_" gradientUnits="userSpaceOnUse" x1="466.8903" y1="-112.5854" x2="174.165" y2="-775.3336" gradientTransform="matrix(-1 0 0 -1 591.1418 204)">
				<stop  offset="0.1424" style="stop-color:#7CE369"/>
				<stop  offset="1" style="stop-color:#51B13F"/>
			</linearGradient>
			<path style="fill:url(#SVGID_00000067216726977714164280000008268013068843991184_);" d="M178,585.2c0.8-3.9,0.4-7.7-1.5-11.4
				c-2.3-4.5-5.8-8.2-9.5-11.6c-5.4-5-10.6-10.3-15.1-16.1c-6.6-8.6-12.1-17.8-15-28.4c-1.8-6.5-2.4-13.1-0.3-19.6
				c1.2-3.9,2.8-7.6,4.1-11.5c2-6,3.7-12.1,4.4-18.4c1-9.8-0.8-19-5.4-27.8c-2.8-5.5-5.3-11.3-7.2-17.2c-4-12.5-3.7-24.7,1.8-36.7
				c4.5-9.9,15.4-15.5,26.1-13.5c4.2,0.8,7.8,2.9,11.2,5.3c5,3.5,9.5,7.7,13.8,11.9c6.4,6.2,13.4,11.5,21.7,15.1
				c14.8,6.5,25.5,17,31.2,32.4c2.8,7.7,4.8,15.7,7.1,23.6c1.5,4.9,3,9.9,5.7,14.4c2.3,4,5.5,7,10.2,8.1c0.6,0.1,1.1,0.3,1.6,0.5
				c7.3,2.6,12.7,7.6,17.1,13.8c7.7,10.9,11.3,23.3,12.9,36.4c1.1,8.7,1.1,17.5,1.4,26.3c0.3,6.8,0.7,13.6,2,20.3
				c2.4,12.1,8,21.9,19.4,27.9c5.4,2.9,8.7,7.7,9.8,13.8c0.6,3.3,0.6,6.5,0.3,9.8c-0.7,6.6-2.3,13.1-4.3,19.4
				c-5.9,18.8-13.3,37.1-19.3,55.9c-0.3,0.9-0.8,1.3-1.7,1.4c-3.7,0.4-7.5,0.9-11.2,1.3c-6.6,0.8-13.2,1.3-19.8,1.7
				c-6.6,0.5-13.3,0.4-19.9,0.5c-4.3,0-8.6-0.2-12.9-0.7c-1.7-0.2-3.4-0.7-5.2-0.5c0-1,0.1-2-0.1-2.9c-1-4.6-1.1-9.3-1.8-13.9
				c-0.6-3.8-1-7.7-1.7-11.5c-1.1-6.5-2.2-13-4.1-19.3c-1.3-4.5-2.9-8.8-5.3-12.8c-1.3-2.2-3.1-4.2-5.3-5.7
				c-2.1-1.4-4.4-1.5-6.6-1.9c-5.3-0.9-9.3-3.7-12.6-7.9c-3.1-3.9-5.3-8.3-7.5-12.7c-2.5-5.1-5-10.3-8.2-15.1
				C177,605.9,176.9,590.3,178,585.2z M219.3,485.5c-2.7-5.5-5.6-11-8.5-16.4c-2.1-4-4.3-7.9-6.4-11.8c-3.7-6.6-7.5-13.1-11.5-19.6
				c-4.7-7.7-9.6-15.3-14.6-22.8c-5.4-8-10.9-15.8-16.6-23.5c-0.5-0.6-1.1-1.2-1.7-1.7c-0.4-0.3-0.9-0.2-1.3,0.1s-0.6,0.8-0.4,1.3
				c0.3,1.1,1,1.9,1.6,2.7c7.5,9.8,14.4,20,21.2,30.4c5.6,8.5,10.8,17.2,16,25.9c0.1,0.2,0.2,0.5,0.4,1c-1.4,0.3-2.4-0.3-3.5-0.6
				c-5.7-1.8-11.5-3.6-17.3-5.4c-1.1-0.3-2.3-0.8-3,0.5c-0.5,0.8,0.3,1.5,2.3,2.1c7.2,2.3,14.5,4.6,21.7,6.8
				c1.4,0.4,2.5,1.1,3.3,2.5c5.5,9.9,10.9,19.9,15.9,30.1c4.6,9.4,9,18.8,13.1,28.3c5.6,13.2,10.9,26.4,15.6,39.9
				c1.3,3.7,2.6,7.5,3.9,11.3c0.1,0.4,0.3,0.7,0.1,1.3c-1,0.3-2-0.1-2.9-0.3c-9.5-2.2-19-4.5-28.4-6.7c-0.3,0-0.5-0.2-0.7-0.2
				c-1.3-0.3-2.3,0-2.3,0.9c-0.1,1.1,0.8,1.6,1.8,1.8c4.8,1.1,9.6,2.3,14.4,3.4c6,1.4,11.9,2.9,17.9,4.2c1.4,0.3,2.8,0.8,3.1,1.9
				c3.9,12.8,7.3,26,10.3,39.1c2.3,10,4.5,20.2,6.2,30.3c0.9,5.4,2,10.8,2.8,16.2c0.6,4.5,1.2,9.1,1.5,13.6
				c0.3,4.2,1.9,8.5,1.4,12.5c0.2,4.7,1.1,9.5,0.8,14.1c0,0.8-0.3,1.1-0.2,1.8c0.1,0.8,0,1.8,0.8,1.7s1.2-0.7,1.3-1.5
				c0,0,0-0.1,0-0.2c0-2.6,0.1-5.2-0.1-7.7c-0.1-0.9-0.3-1.8-0.3-2.8c0-4-0.6-7.9-0.9-11.9c-0.4-4.9-1-9.8-1.6-14.7
				c-0.7-5.7-1.6-11.4-2.6-17c-0.9-5.5-2.1-11.1-3.1-16.6c-0.2-1.2,0.1-2.2,0.5-3.3c3-9.1,6.1-18.1,9.2-27.2
				c0.2-0.5,0.4-1.1,0.5-1.6c0.3-0.9,0-1-0.7-1.3s-0.8-0.2-1.1,0.5c-0.2,0.6-0.6,1.1-0.8,1.7c-2.5,7.4-5,14.9-7.5,22.4
				c-0.1,0.4-0.4,1.9-1.1,1.9c-0.8-1.1-1.1-3-1.3-4.2c-2.3-11.1-5.3-22-8.4-32.9c-2.9-10.1-6.2-20.2-9.6-30.1
				c-3.7-10.5-7.6-20.9-11.9-31.1c-3.4-8.1-6.8-16.2-10.6-24.1c-0.7-1.6-1.3-3.1-2.1-4.6c-0.9-1.4-0.8-2.8-0.3-4.3
				c3.2-9.2,6.3-18.4,9.4-27.6c0.2-0.7,0.5-1.4,0.6-2.1c0.1-0.6-0.1-1.1-0.7-1.4c-0.7-0.4-1.3,0-1.7,0.5c-0.5,0.6-0.6,1.5-0.9,2.2
				c-2.9,8.5-5.7,16.9-8.6,25.4c-0.1,0.4-0.1,0.8-0.8,1.2C220,488.4,219.6,487,219.3,485.5z"/>
			<path class="st9" d="M221.7,488c2.8-8.5,5.7-16.3,8.6-24.8c0.3-0.7,0.5-2,1-2.6c0.5-0.5,1.1-0.5,1.8-0.1c0.6,0.3,0.8,0.8,0.7,1.4
				c-0.1,0.7-0.4,1.4-0.6,2.1c-3.1,9.2-6.2,18.4-9.4,27.6c-0.5,1.5-0.5,2.8,0.3,4.3s1.4,3.1,2.1,4.6c3.8,7.9,7.2,16,10.6,24.1
				c4.3,10.3,8.3,20.6,11.9,31.1c3.4,10,6.7,20,9.6,30.1c3.1,10.9,6.1,21.8,8.4,32.9c0.2,1.2,0.3,2.4,1.1,3.5
				c0.4-0.4,0.5-0.8,0.7-1.3c2.5-7.4,5.1-14.9,7.6-22.4c0.2-0.6,0.4-1.2,0.6-1.8c0.3-0.7,0.8-1.1,1.5-0.8s1.3,0.7,1.1,1.6
				c-0.1,0.5-0.3,1.2-0.5,1.7c-3,9.1-6.2,18-9.3,27.1c-0.3,1.1-0.7,2.1-0.5,3.3c1.1,5.5,2.2,11,3.1,16.6c1,5.7,1.9,11.3,2.6,17
				c0.6,4.9,1.3,9.8,1.7,14.7c0.3,4,0.9,7.9,0.9,11.9c0,0.9,0.3,2,0.4,2.9c0.1,2.6,0,4.8,0,7.4c0,0-0.1,0.3-0.1,0.4
				c-0.1,0.8-0.6,1.6-1.4,1.7c-0.8,0-1.2-0.9-1.3-1.6c-0.2-0.7-0.1-1.5-0.1-2.2c0.3-4.7-0.4-9.3-0.6-13.9c-0.2-4.2-1-8.4-1.3-12.6
				c-0.3-4.5-1.3-8.9-1.6-13.5c-0.8-5.4-1.7-10.8-2.6-16.2c-1.7-10.1-3.9-20.1-6.2-30.1c-3-13.1-6.8-26-10.7-38.9
				c-0.3-1.2-0.9-1.2-2.3-1.9c-6-1.3-13-3.2-19-4.6c-4.8-1.2-9.1-1.7-13.8-3.1c-1-0.2-1.8-1.1-1.8-2.1c0-0.8,1.5-1.2,2.9-0.9
				c0.3,0,0.5,0.1,0.7,0.2c9.5,2.2,18.9,4.5,28.4,6.7c1,0.2,1.4,0.7,2.3,0.4c0.2-0.6,0-1.1-0.1-1.5c-1.3-3.8-2.5-7.2-3.8-11
				c-4.9-13.2-10.3-26.4-15.5-39.7c-4.1-9.6-8.7-18.9-13.1-28.4c-5-10.2-10.2-19.6-15.7-29.5c-0.8-1.4-1.8-2.5-3.2-2.9
				c-7.2-2.3-14.5-4.8-21.7-7.1c-2.1-0.6-3.1-1.4-2.6-2.2c0.8-1.3,2.3-0.9,3.4-0.6c5.7,1.8,11.5,3.6,17.3,5.4c1.1,0.3,1.7,0.9,3,0.7
				c0-0.3-0.2-0.7-0.3-1.3c-0.9-1.5-1.6-2.4-2.5-3.9c-4.4-7.2-9.3-14.3-13.9-21.3c-6.8-10.3-13.3-20.6-20.8-30.5
				c-0.6-0.9-1.3-2-1.8-3.4c-0.2-0.5-0.1-1,0.3-1.3c0.4-0.4,1.5-0.1,1.9,0.2c0.6,0.5,1.2,1.1,1.7,1.7c5.8,7.7,11.3,15.6,16.6,23.5
				c5.1,7.5,9.9,15.1,14.6,22.8c4,6.4,7.9,12.9,11.5,19.6c2.1,3.9,4.3,7.9,6.4,11.8c2.9,5.5,6,10.9,8.5,16.4c0.7,1.3,1,2.7,1.9,4
				C221.5,489,221.7,488.3,221.7,488z"/>
		</g>
	</g>
	<g>
		<polygon class="st6" points="782.9,697.5 874.7,579.1 926.9,565.3 933.6,572.7 803.9,701.5 		"/>
		<path class="st6" d="M941.7,571.9c-0.3,0.2-0.4,0.5-0.4,0.8c-0.1,5.9-2.9,10.7-6.5,15.1c-2.2,2.7-4.7,5-7.4,7.1
			c-7.2,5.4-10.7,12.7-11.6,21.5c-0.3,3.1-0.6,6.2-0.9,9.3c-0.5,4.6-2.9,8.2-5.9,11.5c-5.6,6-12.6,10-20.2,12.9
			c-2.7,1-5.4,1.9-8.1,3c-4.6,1.9-7,5.3-7.5,10.2c-0.5,4.5-1.6,8.9-3.3,13.2c-3.6,8.8-9.9,14.7-18.6,18.3c-3.6,1.5-7.4,2.5-11.2,3.4
			c-1.6,0.4-3.2,1-4.7,1.7c-2.7,1.4-4,3.7-4.3,6.5c-0.6,6-2.4,6.7-7.7,7.4c-3.2,0.4-6.4,0.3-9.6,0c-6.5-0.5-13-1.1-19.5-1.8
			c-6-0.7-12-1.6-18-2.4c-0.5-0.1-0.9-0.3-0.9-0.9c0-1-0.1-1.9,0.1-2.9c0.9-4.6,1.1-9.3,1.8-13.9c0.6-3.8,1-7.7,1.7-11.5
			c1.1-6.5,2.2-13,4.1-19.3c1.3-4.5,2.9-8.8,5.3-12.8c1.3-2.2,3.1-4.2,5.3-5.7c2-1.4,4.3-1.5,6.6-1.9c5.3-0.9,9.4-3.7,12.6-7.9
			c3.1-3.9,5.4-8.3,7.5-12.7c2.5-5.2,5-10.3,8.2-15.1c1.3-2,3.2-3.6,4.3-5.7c1.6-1.3,3.1-2.7,4.7-4c3.7-3,7.8-5,12.5-5.7
			c1.3-0.2,2.5-0.3,3.8,0c2.8,0.6,5.2-0.1,7.5-1.7c2.5-1.7,4.4-3.9,6.4-6.1c3.1-3.6,6-7.2,9.3-10.6c4.8-5,10.9-7.4,17.5-8.7
			c1.8-0.4,3.6-0.5,5.5-0.4c4.7,0.2,9.2-0.7,13.6-2.3c3.8-1.3,7.5-2.6,11.5-3.4c6.1-1.2,11.5,0.9,14.5,5.6c1,1.6,1.5,3.4,2.1,5.2
			C941.7,568.7,941.7,570.3,941.7,571.9z M873.7,601.2c-0.3-0.8,0.2-1.5,0.3-2.3c0.3-4.5,0.7-9,1.2-13.6c0.1-0.7,0-1.2-0.6-1.3
			c-0.7-0.1-0.9,0.5-1,1.1c-0.5,4.9-1.2,9.8-1.4,14.7c-0.1,2.5-1,4.2-2.9,5.7c-4.4,3.5-8.5,7.3-12.5,11.2
			c-7.5,7.3-15,14.6-21.7,22.6c-2.9,3.5-6,6.8-8.8,10.4c-3.7,4.7-7.3,9.4-10.8,14.4c-6.9,9.8-13.3,19.9-18.6,30.7
			c-0.2,0.4-0.4,0.9-0.6,1.3c-0.1,0.5-0.2,1,0.3,1.3c0.7,0.4,1-0.2,1.3-0.7c0.1-0.2,0.2-0.4,0.3-0.6c1.7-3.3,3.3-6.6,5.1-9.8
			c4.7-8.3,10-16.3,15.6-24.1c6.2-8.5,12.9-16.6,19.8-24.6c0.6-0.7,1.1-0.9,2.1-0.7c5.7,1.2,11.4,2.3,17.1,3.3
			c0.7,0.1,1.8,0.6,2-0.4s-0.9-1.1-1.7-1.3c-4.3-0.8-8.6-1.6-12.9-2.5c-1.3-0.3-2.7-0.2-3.9-1.1c0.2-0.3,0.4-0.6,0.6-0.9
			c2.8-3.3,5.9-6.3,8.9-9.4c4.2-4.4,8.7-8.5,13.2-12.6c4.9-4.4,9.9-8.7,15.1-12.8c4-3.2,8-6.4,12.2-9.3c0.6-0.4,1.2-0.9,1.9-0.8
			c2.8,0.3,5.7,0.6,8.5,1.1c1.7,0.2,3.3,0.2,5,0.6c0.4,0.1,1,0,1.1-0.6c0.1-0.7-0.4-1-0.9-1.2c-0.2-0.1-0.5-0.1-0.7-0.1
			c-3.2-0.3-6.5-0.7-9.7-1c-0.5,0-1-0.1-1.2-0.6c0-0.4,0.3-0.6,0.5-0.7c6.8-4.7,13.6-9.3,20.6-13.5c3.7-2.2,7.4-4.4,11.2-6.5
			c0.5-0.3,1.2-0.5,0.8-1.2c-0.4-0.8-1.1-0.5-1.7-0.3c-0.2,0.1-0.4,0.2-0.6,0.3c-5.4,3.2-10.9,6.3-16.2,9.7
			c-6.9,4.5-13.7,9-20.4,13.9c-4.9,3.6-9.7,7.2-14.3,11.2C874.9,600.9,874.5,601.4,873.7,601.2z"/>
		<path class="st7" d="M873.7,601.1c0.7,0.1,1.1-0.8,1.6-1.2c4.6-4,9.4-7.2,14.3-10.8c6.6-4.9,13.4-9.7,20.3-14.2
			c5.3-3.4,11-6.4,16.4-9.6c0.2-0.1,0.5-0.2,0.7-0.3c0.6-0.2,1.2-0.3,1.6,0.5c0.3,0.7-0.4,0.9-0.8,1.2c-3.7,2.2-7.5,4.3-11.2,6.5
			c-7.1,4.2-13.9,8.8-20.6,13.5c-0.3,0.2-0.5,0.4-0.5,0.7c0.2,0.5,0.7,0.3,1.2,0.4c3.2,0.3,6.4,0.8,9.6,1.1c0.2,0,0.9,0,1.1,0.1
			c0.6,0.2,0.8,0.5,0.6,1.2c-0.1,0.6-0.7,0.7-1.1,0.6c-1.6-0.4-3.3-0.4-5-0.6c-2.8-0.4-5.7-0.7-8.5-1.1c-0.8-0.1-1.3,0.4-1.9,0.8
			c-4.2,2.9-8.1,6.1-12.2,9.3c-5.2,4.1-10.2,8.4-15.1,12.8c-4.5,4.1-9,8.2-13.2,12.6c-3,3.1-6.1,6.1-8.9,9.4
			c-0.2,0.2-0.4,0.5-0.6,0.9c1.5,0.4,2.5,0.7,3.8,1c4.3,0.9,8.6,1.6,12.9,2.5c0.7,0.1,2,0.3,1.8,1.4s-1.3,0.6-2,0.4
			c-5.7-1.1-11.4-2.2-17.1-3.3c-1-0.2-1.5,0-2.1,0.7c-6.9,8-13.6,16-19.8,24.6c-5.6,7.8-10.9,15.8-15.6,24.1
			c-1.8,3.2-3.5,6.5-5.1,9.8c-0.1,0.2-0.2,0.4-0.3,0.6c-0.3,0.5-1,0.8-1.3,0.7c-0.5-0.3-0.7-0.7-0.7-0.7c0.1-0.5,0.5-1.8,0.5-1.8
			c5.2-10.8,11.9-21.6,18.8-31.4c3.4-4.9,7.2-9.2,10.9-14c2.8-3.6,5.9-6.9,8.8-10.4c6.8-8,14.2-15.3,21.7-22.6
			c4-3.9,8.1-8.1,12.5-11.6c1.8-1.5,2.3-2.5,2.4-5.1c0.2-4.9,0.9-10.2,1.4-15.1c0.1-0.6,0.6-1.4,1.3-1.3s0.9,1,0.8,1.7
			c-0.4,4.5-0.8,9-1.2,13.6C874,599.6,873.4,600.3,873.7,601.1z"/>
	</g>
	<path class="st6" d="M142.8,624.6"/>
	<path class="st11" d="M921.6,726.1H132.5v-2.8c0-8.8,7.2-16,16-16h757c8.8,0,16,7.2,16,16L921.6,726.1L921.6,726.1z"/>
	
		<linearGradient id="SVGID_00000047018340092684903590000004395817471479585156_" gradientUnits="userSpaceOnUse" x1="530.1533" y1="435.9576" x2="537.1093" y2="-1013.4671" gradientTransform="matrix(1 0 0 -1 0 204)">
		<stop  offset="0.1424" style="stop-color:#D7D7D7"/>
		<stop  offset="1" style="stop-color:#B3B3B3"/>
	</linearGradient>
	<path style="fill:url(#SVGID_00000047018340092684903590000004395817471479585156_);" d="M295,692.7V71.4c0-8.6,7-15.6,15.6-15.6
		h445c8.6,0,15.6,7,15.6,15.6v621.3c0,8.6-7,15.6-15.6,15.6h-445C302,708.3,295,701.3,295,692.7z"/>
	<path class="st13" d="M306.9,657.8V78.2c0-5.8,4.7-10.5,10.5-10.5h431.3c5.8,0,10.5,4.7,10.5,10.5v579.6c0,5.8-4.7,10.5-10.5,10.5
		H317.4C311.6,668.3,306.9,663.6,306.9,657.8z"/>
	<g>
		<path class="st14" d="M751.2,77.6v579.8c0,1.1-0.9,2-2,2c-143.2,0-286.3,0-429.5,0c-4.5,0-3.8,0.5-3.8-4.5
			c-2.1-191.9-0.7-383.9,0-575.8c0-4.6-0.5-4.1,3.8-4.1c143,0,286.1,0,429.1,0C750.1,75.2,751.2,76.3,751.2,77.6z"/>
	</g>
	<rect x="340.4" y="101.2" class="st15" width="385.3" height="533.6"/>
	<g>
		<rect x="340.4" y="99.2" class="st16" width="385.3" height="30.4"/>
	</g>
	<g>
		
			<rect x="683.2" y="106.1" transform="matrix(0.7071 -0.7071 0.7071 0.7071 119.6518 517.9894)" class="st15" width="3.8" height="16.9"/>
	</g>
	<g>
		
			<rect x="676.7" y="112.6" transform="matrix(0.7071 -0.7071 0.7071 0.7071 119.7147 518.0151)" class="st15" width="16.9" height="3.8"/>
	</g>
	<g>
		<path class="st15" d="M699.4,106.5v15.4h15.4v-15.4H699.4z M711.9,118.9h-9.5v-9.5h9.5V118.9z"/>
	</g>
	<rect x="376" y="110.5" class="st15" width="255.2" height="10.4"/>
	<g>
		<g>
			<g class="st17">
				<g>
					<rect x="464.7" y="220.4" class="st18" width="117.9" height="4.4"/>
				</g>
				<g>
					<rect x="464.7" y="233.6" class="st18" width="227.9" height="4.4"/>
				</g>
				<g>
					<rect x="464.7" y="246.7" class="st18" width="227.9" height="4.4"/>
				</g>
				<g>
					<rect x="464.7" y="259.9" class="st18" width="227.9" height="4.4"/>
				</g>
				<g>
					<rect x="464.7" y="273.1" class="st18" width="161.9" height="4.4"/>
				</g>
			</g>
			<g>
				<g>
					<path class="st19" d="M428.6,277.5h-57.2v-57.2h57.2V277.5z M375.8,273.1h48.4v-48.4h-48.4V273.1z"/>
				</g>
				<g>
					<polygon class="st16" points="399.4,262 381.1,238.5 388.1,233 400.5,249.1 433.3,219.3 439.2,225.8 					"/>
				</g>
			</g>
		</g>
	</g>
	<g>
		<g>
			<g class="st20">
				<g>
					<rect x="464.7" y="322.3" class="st18" width="117.9" height="4.4"/>
				</g>
				<g>
					<rect x="464.7" y="335.5" class="st18" width="227.9" height="4.4"/>
				</g>
				<g>
					<rect x="464.7" y="348.7" class="st18" width="227.9" height="4.4"/>
				</g>
				<g>
					<rect x="464.7" y="361.9" class="st18" width="227.9" height="4.4"/>
				</g>
				<g>
					<rect x="464.7" y="375.1" class="st18" width="161.9" height="4.4"/>
				</g>
			</g>
			<g>
				<g>
					<path class="st19" d="M428.6,379.5h-57.2v-57.2h57.2V379.5z M375.8,375.1h48.4v-48.4h-48.4V375.1z"/>
				</g>
				<g>
					<polygon class="st16" points="399.4,364 381.1,340.4 388.1,335 400.5,351.1 433.3,321.3 439.2,327.8 					"/>
				</g>
			</g>
		</g>
	</g>
	<g>
		<g>
			<g class="st21">
				<g>
					<rect x="464.7" y="424.3" class="st18" width="117.9" height="4.4"/>
				</g>
				<g>
					<rect x="464.7" y="437.5" class="st18" width="227.9" height="4.4"/>
				</g>
				<g>
					<rect x="464.7" y="450.7" class="st18" width="227.9" height="4.4"/>
				</g>
				<g>
					<rect x="464.7" y="463.9" class="st18" width="227.9" height="4.4"/>
				</g>
				<g>
					<rect x="464.7" y="477.1" class="st18" width="161.9" height="4.4"/>
				</g>
			</g>
			<g>
				<g>
					<path class="st19" d="M428.6,481.5h-57.2v-57.2h57.2V481.5z M375.8,477.1h48.4v-48.4h-48.4V477.1z"/>
				</g>
				<g>
					<polygon class="st16" points="399.4,466 381.1,442.4 388.1,437 400.5,453.1 433.3,423.3 439.2,429.8 					"/>
				</g>
			</g>
		</g>
	</g>
	<g>
		<g>
			<g>
				<g class="st22">
					<rect x="464.7" y="526.3" class="st18" width="117.9" height="4.4"/>
				</g>
				<g class="st22">
					<rect x="464.7" y="539.5" class="st18" width="227.9" height="4.4"/>
				</g>
				<g class="st22">
					<rect x="464.7" y="552.7" class="st18" width="227.9" height="4.4"/>
				</g>
				<g class="st22">
					<rect x="464.7" y="565.9" class="st18" width="227.9" height="4.4"/>
				</g>
				<g class="st22">
					<rect x="464.7" y="579.1" class="st18" width="161.9" height="4.4"/>
				</g>
			</g>
			<g>
				<g>
					<path class="st19" d="M428.6,583.5h-57.2v-57.2h57.2V583.5z M375.8,579.1h48.4v-48.4h-48.4V579.1z"/>
				</g>
				<g>
					<polygon class="st16" points="399.4,568 381.1,544.4 388.1,539 400.5,555 433.3,525.2 439.2,531.8 					"/>
				</g>
			</g>
		</g>
	</g>
	<rect x="521.9" y="172.7" class="st23" width="27" height="3.3"/>
	<path class="st1" d="M386.9,115.2l-1,3.3h-0.7l-0.7-2.4l-0.7,2.4h-0.7l-1-3.3h0.7l0.7,2.7l0.7-2.7h0.7l0.7,2.6l0.7-2.6H386.9z"/>
	<path class="st1" d="M391.8,115.2l-1,3.3h-0.7l-0.7-2.4l-0.7,2.4H388l-1-3.3h0.7l0.7,2.7l0.7-2.7h0.7l0.7,2.6l0.7-2.6H391.8z"/>
	<path class="st1" d="M396.8,115.2l-1,3.3H395l-0.7-2.4l-0.7,2.4H393l-1-3.3h0.7l0.7,2.7l0.7-2.7h0.7l0.7,2.6l0.7-2.6H396.8z"/>
	<path class="st1" d="M397.3,118.4c-0.1-0.1-0.1-0.2-0.1-0.3c0-0.1,0-0.2,0.1-0.3s0.2-0.1,0.3-0.1c0.1,0,0.2,0,0.3,0.1
		s0.1,0.2,0.1,0.3c0,0.1,0,0.2-0.1,0.3s-0.2,0.1-0.3,0.1C397.4,118.6,397.3,118.5,397.3,118.4z"/>
	<path class="st1" d="M398.8,114.6c-0.1-0.1-0.1-0.2-0.1-0.3s0-0.2,0.1-0.3s0.2-0.1,0.3-0.1c0.1,0,0.2,0,0.3,0.1s0.1,0.2,0.1,0.3
		s0,0.2-0.1,0.3s-0.2,0.1-0.3,0.1C399,114.8,398.9,114.7,398.8,114.6z M399.4,115.2v3.3h-0.7v-3.3H399.4z"/>
	<path class="st1" d="M400.3,116c0.1-0.3,0.3-0.5,0.6-0.6c0.2-0.1,0.5-0.2,0.8-0.2c0.4,0,0.7,0.1,1,0.3c0.3,0.2,0.4,0.5,0.5,0.8
		h-0.7c-0.1-0.2-0.2-0.3-0.3-0.4c-0.1-0.1-0.3-0.1-0.5-0.1c-0.3,0-0.5,0.1-0.7,0.3c-0.2,0.2-0.2,0.5-0.2,0.8c0,0.4,0.1,0.6,0.2,0.8
		c0.2,0.2,0.4,0.3,0.7,0.3c0.4,0,0.7-0.2,0.8-0.5h0.7c-0.1,0.3-0.3,0.6-0.5,0.8s-0.6,0.3-1,0.3c-0.3,0-0.6-0.1-0.8-0.2
		c-0.2-0.1-0.4-0.3-0.6-0.6c-0.1-0.3-0.2-0.6-0.2-0.9S400.2,116.2,400.3,116z"/>
	<path class="st1" d="M406.9,117.1h-2.5c0,0.3,0.1,0.5,0.3,0.6s0.4,0.2,0.6,0.2c0.4,0,0.6-0.2,0.8-0.5h0.7c-0.1,0.3-0.3,0.6-0.5,0.7
		c-0.3,0.2-0.6,0.3-1,0.3c-0.3,0-0.6-0.1-0.8-0.2c-0.2-0.1-0.4-0.3-0.6-0.6c-0.1-0.3-0.2-0.6-0.2-0.9s0.1-0.6,0.2-0.9
		s0.3-0.5,0.6-0.6c0.2-0.1,0.5-0.2,0.9-0.2c0.3,0,0.6,0.1,0.8,0.2c0.2,0.1,0.4,0.3,0.6,0.6c0.1,0.2,0.2,0.5,0.2,0.8
		S406.9,117,406.9,117.1z M406.2,116.6c0-0.3-0.1-0.5-0.3-0.6c-0.2-0.2-0.4-0.2-0.7-0.2c-0.2,0-0.4,0.1-0.6,0.2s-0.3,0.4-0.3,0.6
		H406.2z"/>
	<path class="st1" d="M409.6,115.3c0.2,0.1,0.4,0.2,0.5,0.4v-0.5h0.7v3.4c0,0.3-0.1,0.6-0.2,0.8c-0.1,0.2-0.3,0.4-0.6,0.6
		s-0.5,0.2-0.9,0.2s-0.8-0.1-1.1-0.3c-0.3-0.2-0.5-0.5-0.5-0.9h0.7c0.1,0.2,0.2,0.3,0.3,0.4c0.2,0.1,0.4,0.2,0.6,0.2
		c0.3,0,0.5-0.1,0.7-0.3s0.3-0.4,0.3-0.7V118c-0.1,0.2-0.3,0.3-0.5,0.4s-0.4,0.2-0.7,0.2c-0.3,0-0.6-0.1-0.8-0.2
		c-0.2-0.1-0.4-0.3-0.6-0.6c-0.1-0.3-0.2-0.6-0.2-0.9s0.1-0.6,0.2-0.9s0.3-0.5,0.6-0.6c0.2-0.1,0.5-0.2,0.8-0.2
		C409.2,115.2,409.4,115.2,409.6,115.3z M410,116.3c-0.1-0.2-0.2-0.3-0.4-0.4c-0.2-0.1-0.3-0.1-0.5-0.1s-0.3,0-0.5,0.1
		s-0.3,0.2-0.4,0.4s-0.1,0.4-0.1,0.6s0,0.4,0.1,0.6s0.2,0.3,0.4,0.4c0.2,0.1,0.3,0.1,0.5,0.1s0.3,0,0.5-0.1s0.3-0.2,0.4-0.4
		s0.1-0.4,0.1-0.6C410.1,116.6,410.1,116.4,410,116.3z"/>
	<path class="st1" d="M411.7,116c0.1-0.3,0.3-0.5,0.6-0.6c0.2-0.1,0.5-0.2,0.8-0.2s0.5,0.1,0.7,0.2s0.3,0.2,0.5,0.4v-0.5h0.7v3.3
		h-0.7V118c-0.1,0.2-0.3,0.3-0.5,0.4s-0.4,0.2-0.7,0.2c-0.3,0-0.5-0.1-0.8-0.2c-0.2-0.1-0.4-0.3-0.6-0.6c-0.1-0.3-0.2-0.6-0.2-0.9
		S411.5,116.2,411.7,116z M414,116.3c-0.1-0.2-0.2-0.3-0.4-0.4c-0.2-0.1-0.3-0.1-0.5-0.1s-0.3,0-0.5,0.1s-0.3,0.2-0.4,0.4
		c-0.1,0.2-0.1,0.4-0.1,0.6s0,0.4,0.1,0.6s0.2,0.3,0.4,0.4c0.2,0.1,0.3,0.1,0.5,0.1s0.3,0,0.5-0.1s0.3-0.2,0.4-0.4
		c0.1-0.2,0.1-0.4,0.1-0.6C414.2,116.6,414.1,116.4,414,116.3z"/>
	<path class="st1" d="M416.6,115.8v1.8c0,0.1,0,0.2,0.1,0.3c0.1,0.1,0.2,0.1,0.3,0.1h0.4v0.6h-0.5c-0.3,0-0.5-0.1-0.7-0.2
		s-0.2-0.4-0.2-0.7v-1.8h-0.4v-0.6h0.4v-0.8h0.7v0.8h0.8v0.6h-0.9L416.6,115.8L416.6,115.8z"/>
	<path class="st1" d="M421,117.1h-2.5c0,0.3,0.1,0.5,0.3,0.6c0.2,0.2,0.4,0.2,0.6,0.2c0.4,0,0.6-0.2,0.8-0.5h0.7
		c-0.1,0.3-0.3,0.6-0.5,0.7c-0.3,0.2-0.6,0.3-1,0.3c-0.3,0-0.6-0.1-0.8-0.2c-0.2-0.1-0.4-0.3-0.6-0.6c-0.1-0.3-0.2-0.6-0.2-0.9
		s0.1-0.6,0.2-0.9s0.3-0.5,0.6-0.6c0.2-0.1,0.5-0.2,0.9-0.2c0.3,0,0.6,0.1,0.8,0.2c0.2,0.1,0.4,0.3,0.6,0.6s0.2,0.5,0.2,0.8
		C421,116.9,421,117,421,117.1z M420.3,116.6c0-0.3-0.1-0.5-0.3-0.6c-0.2-0.2-0.4-0.2-0.7-0.2c-0.2,0-0.4,0.1-0.6,0.2
		s-0.3,0.4-0.3,0.6H420.3z"/>
	<path class="st1" d="M421.7,118.4c-0.1-0.1-0.1-0.2-0.1-0.3c0-0.1,0-0.2,0.1-0.3s0.2-0.1,0.3-0.1c0.1,0,0.2,0,0.3,0.1
		s0.1,0.2,0.1,0.3c0,0.1,0,0.2-0.1,0.3s-0.2,0.1-0.3,0.1C421.8,118.6,421.7,118.5,421.7,118.4z"/>
	<path class="st1" d="M424.2,115.3c0.2-0.1,0.4-0.1,0.6-0.1v0.7h-0.2c-0.3,0-0.5,0.1-0.6,0.2s-0.2,0.4-0.2,0.7v1.7h-0.7v-3.3h0.7
		v0.5C423.9,115.5,424.1,115.4,424.2,115.3z"/>
	<path class="st1" d="M428.4,117.1h-2.5c0,0.3,0.1,0.5,0.3,0.6s0.4,0.2,0.6,0.2c0.4,0,0.6-0.2,0.8-0.5h0.7c-0.1,0.3-0.3,0.6-0.5,0.7
		c-0.3,0.2-0.6,0.3-1,0.3c-0.3,0-0.6-0.1-0.8-0.2c-0.2-0.1-0.4-0.3-0.6-0.6c-0.1-0.3-0.2-0.6-0.2-0.9s0.1-0.6,0.2-0.9
		s0.3-0.5,0.6-0.6c0.2-0.1,0.5-0.2,0.9-0.2c0.3,0,0.6,0.1,0.8,0.2c0.2,0.1,0.4,0.3,0.6,0.6c0.1,0.2,0.2,0.5,0.2,0.8
		S428.5,117,428.4,117.1z M427.8,116.6c0-0.3-0.1-0.5-0.3-0.6c-0.2-0.2-0.4-0.2-0.7-0.2c-0.2,0-0.4,0.1-0.6,0.2s-0.3,0.4-0.3,0.6
		H427.8z"/>
	<path class="st1" d="M431.2,115.3c0.2,0.1,0.4,0.2,0.5,0.4v-0.5h0.7v3.4c0,0.3-0.1,0.6-0.2,0.8c-0.1,0.2-0.3,0.4-0.6,0.6
		c-0.2,0.1-0.5,0.2-0.9,0.2s-0.8-0.1-1.1-0.3s-0.5-0.5-0.5-0.9h0.7c0.1,0.2,0.2,0.3,0.3,0.4c0.2,0.1,0.4,0.2,0.6,0.2
		c0.3,0,0.5-0.1,0.7-0.3s0.3-0.4,0.3-0.7V118c-0.1,0.2-0.3,0.3-0.5,0.4s-0.4,0.2-0.7,0.2c-0.3,0-0.6-0.1-0.8-0.2
		c-0.2-0.1-0.4-0.3-0.6-0.6c-0.1-0.3-0.2-0.6-0.2-0.9s0.1-0.6,0.2-0.9s0.3-0.5,0.6-0.6c0.2-0.1,0.5-0.2,0.8-0.2
		C430.7,115.2,431,115.2,431.2,115.3z M431.5,116.3c-0.1-0.2-0.2-0.3-0.4-0.4c-0.2-0.1-0.3-0.1-0.5-0.1s-0.3,0-0.5,0.1
		s-0.3,0.2-0.4,0.4c-0.1,0.2-0.1,0.4-0.1,0.6s0,0.4,0.1,0.6s0.2,0.3,0.4,0.4c0.2,0.1,0.3,0.1,0.5,0.1s0.3,0,0.5-0.1s0.3-0.2,0.4-0.4
		c0.1-0.2,0.1-0.4,0.1-0.6C431.6,116.6,431.6,116.4,431.5,116.3z"/>
	<path class="st1" d="M433.2,114.6c-0.1-0.1-0.1-0.2-0.1-0.3s0-0.2,0.1-0.3s0.2-0.1,0.3-0.1c0.1,0,0.2,0,0.3,0.1s0.1,0.2,0.1,0.3
		s0,0.2-0.1,0.3s-0.2,0.1-0.3,0.1C433.4,114.8,433.3,114.7,433.2,114.6z M433.9,115.2v3.3h-0.7v-3.3H433.9z"/>
	<path class="st1" d="M435.3,118.4c-0.2-0.1-0.4-0.2-0.5-0.4s-0.2-0.3-0.2-0.5h0.7c0,0.1,0.1,0.3,0.2,0.4s0.3,0.1,0.5,0.1
		s0.3,0,0.4-0.1s0.2-0.2,0.2-0.3c0-0.1-0.1-0.2-0.2-0.3c-0.1-0.1-0.3-0.1-0.6-0.2c-0.2-0.1-0.4-0.1-0.6-0.2s-0.3-0.2-0.4-0.3
		s-0.2-0.3-0.2-0.5s0.1-0.3,0.2-0.5c0.1-0.1,0.3-0.3,0.4-0.3c0.2-0.1,0.4-0.1,0.7-0.1c0.4,0,0.7,0.1,0.9,0.3
		c0.2,0.2,0.4,0.4,0.4,0.8h-0.7c0-0.1-0.1-0.3-0.2-0.4s-0.3-0.1-0.4-0.1c-0.2,0-0.3,0-0.4,0.1s-0.1,0.2-0.1,0.3c0,0.1,0,0.2,0.1,0.2
		c0.1,0.1,0.1,0.1,0.2,0.1s0.2,0.1,0.4,0.1c0.2,0.1,0.4,0.1,0.6,0.2s0.3,0.2,0.4,0.3s0.2,0.3,0.2,0.5s-0.1,0.4-0.2,0.5
		s-0.3,0.3-0.4,0.3c-0.2,0.1-0.4,0.1-0.7,0.1C435.7,118.6,435.5,118.5,435.3,118.4z"/>
	<path class="st1" d="M438.8,115.8v1.8c0,0.1,0,0.2,0.1,0.3c0.1,0.1,0.2,0.1,0.3,0.1h0.4v0.6h-0.5c-0.3,0-0.5-0.1-0.7-0.2
		s-0.2-0.4-0.2-0.7v-1.8h-0.4v-0.6h0.4v-0.8h0.7v0.8h0.8v0.6h-0.9L438.8,115.8L438.8,115.8z"/>
	<path class="st1" d="M441.3,115.3c0.2-0.1,0.4-0.1,0.6-0.1v0.7h-0.2c-0.3,0-0.5,0.1-0.6,0.2s-0.2,0.4-0.2,0.7v1.7h-0.7v-3.3h0.7
		v0.5C441,115.5,441.2,115.4,441.3,115.3z"/>
	<path class="st1" d="M442.5,116c0.1-0.3,0.3-0.5,0.6-0.6c0.2-0.1,0.5-0.2,0.8-0.2s0.5,0.1,0.7,0.2s0.3,0.2,0.5,0.4v-0.5h0.7v3.3
		H445V118c-0.1,0.2-0.3,0.3-0.5,0.4s-0.4,0.2-0.7,0.2c-0.3,0-0.5-0.1-0.8-0.2c-0.2-0.1-0.4-0.3-0.6-0.6c-0.1-0.3-0.2-0.6-0.2-0.9
		S442.4,116.2,442.5,116z M444.9,116.3c-0.1-0.2-0.2-0.3-0.4-0.4c-0.2-0.1-0.3-0.1-0.5-0.1s-0.3,0-0.5,0.1s-0.3,0.2-0.4,0.4
		c-0.1,0.2-0.1,0.4-0.1,0.6s0,0.4,0.1,0.6s0.2,0.3,0.4,0.4c0.2,0.1,0.3,0.1,0.5,0.1s0.3,0,0.5-0.1s0.3-0.2,0.4-0.4
		c0.1-0.2,0.1-0.4,0.1-0.6C445,116.6,445,116.4,444.9,116.3z"/>
	<path class="st1" d="M447.4,115.8v1.8c0,0.1,0,0.2,0.1,0.3c0.1,0.1,0.2,0.1,0.3,0.1h0.4v0.6h-0.5c-0.3,0-0.5-0.1-0.7-0.2
		s-0.2-0.4-0.2-0.7v-1.8h-0.4v-0.6h0.4v-0.8h0.7v0.8h0.8v0.6h-0.9L447.4,115.8L447.4,115.8z"/>
	<path class="st1" d="M448.9,114.6c-0.1-0.1-0.1-0.2-0.1-0.3s0-0.2,0.1-0.3s0.2-0.1,0.3-0.1c0.1,0,0.2,0,0.3,0.1s0.1,0.2,0.1,0.3
		s0,0.2-0.1,0.3s-0.2,0.1-0.3,0.1C449.1,114.8,449,114.7,448.9,114.6z M449.5,115.2v3.3h-0.7v-3.3H449.5z"/>
	<path class="st1" d="M451,118.4c-0.3-0.1-0.5-0.3-0.6-0.6c-0.1-0.3-0.2-0.6-0.2-0.9s0.1-0.6,0.2-0.9s0.3-0.5,0.6-0.6
		c0.3-0.1,0.5-0.2,0.9-0.2c0.3,0,0.6,0.1,0.9,0.2s0.5,0.3,0.6,0.6c0.1,0.3,0.2,0.6,0.2,0.9s-0.1,0.6-0.2,0.9
		c-0.2,0.3-0.4,0.5-0.6,0.6c-0.3,0.1-0.6,0.2-0.9,0.2C451.5,118.6,451.3,118.5,451,118.4z M452.3,117.8c0.2-0.1,0.3-0.2,0.4-0.4
		s0.1-0.4,0.1-0.6s0-0.4-0.1-0.6s-0.2-0.3-0.4-0.4s-0.3-0.1-0.5-0.1s-0.3,0-0.5,0.1s-0.3,0.2-0.4,0.4s-0.1,0.4-0.1,0.6
		c0,0.4,0.1,0.6,0.3,0.8c0.2,0.2,0.4,0.3,0.7,0.3C452,118,452.2,117.9,452.3,117.8z"/>
	<path class="st1" d="M456.6,115.3c0.2,0.1,0.4,0.3,0.5,0.5s0.2,0.5,0.2,0.8v2h-0.7v-1.8c0-0.3-0.1-0.5-0.2-0.7s-0.4-0.2-0.6-0.2
		s-0.5,0.1-0.6,0.2c-0.1,0.2-0.2,0.4-0.2,0.7v1.8h-0.7v-3.3h0.7v0.4c0.1-0.1,0.3-0.2,0.4-0.3s0.4-0.1,0.6-0.1
		C456.2,115.2,456.4,115.2,456.6,115.3z"/>
	<path class="st15" d="M361.2,117.1c1-1.2,1.6-2.7,1.6-4.3c0-3.7-3-6.8-6.8-6.8s-6.8,3-6.8,6.8c0,3.7,3,6.8,6.8,6.8
		c1.4,0,2.6-0.4,3.7-1.1l5.4,6.2l1.5-1.3L361.2,117.1z M351.2,112.7c0-2.6,2.1-4.8,4.8-4.8c2.6,0,4.8,2.1,4.8,4.8
		c0,2.6-2.2,4.8-4.8,4.8C353.4,117.5,351.2,115.4,351.2,112.7z"/>
	<path class="st24" d="M246.6,681.9c0,0-1.6,9-2.4,18c-0.3,3.5,2.4,6.5,5.9,6.7c11.9,0.5,37.4,1.5,46.5,1.1c1.4-0.1,2.3-1.5,1.8-2.7
		l0,0c-0.4-1.1-1.2-1.9-2.3-2.4L254,683.1L246.6,681.9z"/>
	<path class="st25" d="M245.3,676.6l1.3,10.8c0,0,7.4,3.4,12.4-0.4l-3.1-12L245.3,676.6z"/>
	<path class="st1" d="M246.2,473.3c-0.6,2.8-3,140.9,11.8,202.8c0.2,1-0.3,2.1-1.2,2.4c-2.3,0.9-6.7,2.3-12,2.4
		c-1.6,0.1-3.1-1-3.6-2.6c-4.2-14.4-24.4-86.3-27.1-155c-2.9-76.8,0-2.6,0-2.6l1.7-47.5L246.2,473.3z"/>
	<path class="st24" d="M198.2,686.6c0,0-2.5,4.6-5,16.7c-0.4,2.2,1.1,4.3,3.3,4.5c3.9,0.4,10,0.9,14.8,0.9c2.2,0,4-2,3.7-4.2
		c-0.5-4.4-2.2-11.7-7.4-17.3L198.2,686.6z"/>
	<path class="st25" d="M195.9,672.7l3,16.3c0,0,3,2.2,8.8,0.6l-1.4-17.6L195.9,672.7z"/>
	<path class="st1" d="M187.8,477.6c-12.1,72.8,2.6,180,7.6,201c0.3,1.3,1.3,2.3,2.6,2.5c2.2,0.4,5.9,0.7,9.4-0.4
		c1.2-0.4,2.1-1.5,2.2-2.8c0.7-17-0.5-121.1,10.7-162.2c0.6-2.1,1.8-3.9,3.6-5.2l21.8-15.5l1.7-25.1L187.8,477.6z"/>
	
		<linearGradient id="SVGID_00000135679608508450970930000011879489175535084206_" gradientUnits="userSpaceOnUse" x1="301.0569" y1="-91.824" x2="148.0174" y2="-308.9265" gradientTransform="matrix(1 0 0 -1 0 204)">
		<stop  offset="0" style="stop-color:#53D8FF"/>
		<stop  offset="1" style="stop-color:#81CBFC"/>
	</linearGradient>
	<path style="fill:url(#SVGID_00000135679608508450970930000011879489175535084206_);" d="M272.6,379.7c0,0-0.1,0-0.1,0.1H272
		c0,0.1-0.5,0.2-0.5,0.3l0,0l0.4,0.1c0,0.1,0.2,0.3,0.2,0.5l0.1,0.1c-0.5,3-3.3,11.3-6.3,22c0,0.1,0,0.2-0.1,0.3
		c-6.8,24-16.6,60.1-19.6,76.9c0,0-5.2,2.6-13.4,3.9l0,0c-11.8,2.6-29.6,4.9-46.1,0.6c0,0-8.9-72.6,1.9-135.5c0,0,28.3-7,58.8-9
		c0.2,0,0.3,0.5,0.5,0.5c2.5-0.1,4.9,0.3,7.4,0.3h2c0.3,0,0.5,0,0.8,0l0,0c1.3,0,3.5,0.4,6.2,1.6c0.1,0,0.2-0.2,0.2-0.2V342
		c0,0,0.5,0.2,0.7,0.3c0.3,0.1,0.6,0.3,0.9,0.4c0.1,0,0.1,0.1,0.2,0.1h0.1c0.2,0.1,0.4,0.2,0.6,0.3c0,0,0.1,0,0.1,0.1
		c0.3,0.1,0.5,0.3,0.8,0.4c0,0-0.2,0-0.1,0.1c0.3,0.2,0.7,0.3,1,0.5c0.3,0.1,0.5,0.3,0.5,0.5v-0.3c0.1,0.1,0.3,0.2,0.5,0.3l0,0
		c1.6,1,3.3,2.1,4.8,3.4l0,0c0,0,0,0.1,0.1,0.1C281.7,359.6,284.9,378.2,272.6,379.7z"/>
	<g>
		
			<linearGradient id="SVGID_00000106140948423172287590000008346445894335091334_" gradientUnits="userSpaceOnUse" x1="335.314" y1="-216.4869" x2="209.1472" y2="-112.8016" gradientTransform="matrix(1 0 0 -1 0 204)">
			<stop  offset="0" style="stop-color:#53D8FF"/>
			<stop  offset="1" style="stop-color:#81CBFC"/>
		</linearGradient>
		<path style="fill:url(#SVGID_00000106140948423172287590000008346445894335091334_);" d="M305.9,379.5
			c-7.6-7.6-13.3-16.1-18.5-22.9c-15.1-19.9-31.8-16.5-31.8-16.5l10.2,43.9c4.5,7.1,9.3,12.9,14.4,17.6c3-2.3,5.9-4.7,8.7-7.4
			C294.6,389.4,300.5,384.6,305.9,379.5z"/>
		<path class="st25" d="M342.9,398.4c-16.3-2-27.9-9.9-37-19c-5.4,5.2-11.3,9.9-16.9,14.8c-2.7,2.7-5.7,5.1-8.7,7.4
			c20.8,19.2,45.3,19.6,63,16.3c14-2.6,23.6-7.7,23.6-7.7c25.7-7.5,23.4-18.5,23.4-18.5l-11.2,2.7c-12.3,3.7-22.9,4.9-32.1,4.4
			L342.9,398.4z M344.4,400.7c0-0.1,0-0.3-0.1-0.4C344.4,400.5,344.4,400.6,344.4,400.7z M344.8,406.2L344.8,406.2L344.8,406.2z"/>
	</g>
	<path class="st25" d="M415.6,413.1c-0.1-2.3-1.2-4.4-3-5.7l-17.8-13.2c0,0,0.4-2.6,5.3-3.2c5-0.6,5.2-5.9,5.2-5.9
		s-6.9,1.2-17.1,3.3c-5.8,1.2-9.9,5-12.3,7.9l3.4,8.1c11.3,6.9,23.6,10.8,36.5,12.6L415.6,413.1z"/>
	
		<linearGradient id="SVGID_00000005975506328198407710000000135627779600304773_" gradientUnits="userSpaceOnUse" x1="-1347.9779" y1="-135.9" x2="-1347.5956" y2="-135.9" gradientTransform="matrix(1 0 0 -1 1606.0297 204)">
		<stop  offset="0" style="stop-color:#2B3582"/>
		<stop  offset="1" style="stop-color:#150E42"/>
	</linearGradient>
	<path style="fill:url(#SVGID_00000005975506328198407710000000135627779600304773_);" d="M258.4,339.9c-0.1,0-0.2,0-0.3,0
		c0,0,0,0-0.1,0H258.4z"/>
	
		<linearGradient id="SVGID_00000134950838861207021900000015730571534825252783_" gradientUnits="userSpaceOnUse" x1="-1341.4297" y1="-135.5" x2="-1341.4297" y2="-135.5" gradientTransform="matrix(1 0 0 -1 1606.0297 204)">
		<stop  offset="0" style="stop-color:#53EAC9"/>
		<stop  offset="0.9964" style="stop-color:#45AED8"/>
	</linearGradient>
	<path style="fill:url(#SVGID_00000134950838861207021900000015730571534825252783_);" d="M264.6,339.5L264.6,339.5L264.6,339.5
		L264.6,339.5z"/>
	
		<linearGradient id="SVGID_00000155145664530691999920000004144302998786338960_" gradientUnits="userSpaceOnUse" x1="201.2594" y1="-134.0538" x2="147.1165" y2="-246.377" gradientTransform="matrix(1 0 0 -1 0 204)">
		<stop  offset="0" style="stop-color:#53D8FF"/>
		<stop  offset="1" style="stop-color:#81CBFC"/>
	</linearGradient>
	<path style="fill:url(#SVGID_00000155145664530691999920000004144302998786338960_);" d="M202.5,384.1l-13.9-35
		c0,0-33.8,23-39.3,52.1c6.4,0.5,18,2.1,29.4,7.9C181.2,395.2,202.5,384.1,202.5,384.1z"/>
	<path class="st25" d="M228.1,310.2l-11.5,33.3c-0.2,0.6,0,1.2,0.5,1.4c3.1,1.7,14.4,6.7,28.1-1.9c1.4-0.9,2.4-2.4,2.6-4l3.7-28.8
		H228.1z"/>
	
		<linearGradient id="SVGID_00000036949266743105218280000017789495685228657298_" gradientUnits="userSpaceOnUse" x1="-1360.1777" y1="-189.5748" x2="-1296.4423" y2="-143.7065" gradientTransform="matrix(1 0 0 -1 1606.0297 204)">
		<stop  offset="0" style="stop-color:#9CFFFB"/>
		<stop  offset="1" style="stop-color:#9BFFFA"/>
	</linearGradient>
	<polygon style="fill:url(#SVGID_00000036949266743105218280000017789495685228657298_);" points="248.3,383.4 248.3,388.3 
		266.4,387.2 266.4,381.8 	"/>
	<g>
		<path class="st25" d="M232.1,416c0,0-37.9,21.4-50.7,3.1c-2.7-3.8-3.3-7.6-2.6-11.2c-11.4-5.7-23-7.4-29.4-7.9
			c-1.7,8.8-0.8,18.1,4.4,27.5c22.4,41,83.4-2.3,83.4-2.3L232.1,416z"/>
		<g>
			<path class="st32" d="M227.5,443.1l20.7-72.3c0.2-0.8,0.9-1.4,1.8-1.5c3.8-0.4,14.6-1.7,27.2-2.7c15.1-1.3,32.7-2.3,43.2-1.4
				c1.5,0.1,2.4,1.7,1.7,3c-6,12.1-30.5,61.2-42.8,77.2c-0.4,0.5-1,0.8-1.7,0.8l-48-0.4C228.2,445.8,227.2,444.5,227.5,443.1z"/>
			<path class="st33" d="M279.3,360.3l15-2.5c0.8-0.1,1.5,0.6,1.2,1.4l-1.5,4.5c-0.1,0.4-0.5,0.7-0.9,0.7l-14.4,1.9
				c-0.7,0.1-1.4-0.6-1.2-1.3l0.9-3.9C278.6,360.7,278.9,360.4,279.3,360.3z"/>
			<path class="st33" d="M268.1,373l1.2-6.4c0.1-0.6,0.7-1.1,1.3-1.2l30.3-3.1c1-0.1,1.8,0.8,1.6,1.8l-1.9,8
				c-0.2,0.6-0.7,1.1-1.4,1.1l-29.6,1.5C268.7,374.8,267.9,374,268.1,373z"/>
			<path class="st25" d="M232.5,425.7c0,0-2.9-11.9-1.7-16.1s3.4-9.6,10.9-8.4s16.4,4.4,16.4,4.4s-0.4,5.5-6.2,3.7l3.5,2.7
				c0,0-0.5,4.4-5.3,2l3.3,3.6c0,0-2.1,3.6-5.6,1.3C244.3,416.7,242.6,427.1,232.5,425.7z"/>
		</g>
	</g>
	<g>
		
			<linearGradient id="SVGID_00000021103767296371585750000012643776005433436841_" gradientUnits="userSpaceOnUse" x1="2837.3962" y1="1391.9355" x2="2895.6799" y2="1406.1208" gradientTransform="matrix(0.8757 -0.4828 -0.4828 -0.8757 1198.038 348.152)">
			<stop  offset="0" style="stop-color:#F9B776"/>
			<stop  offset="1" style="stop-color:#F47960"/>
		</linearGradient>
		<path style="fill:url(#SVGID_00000021103767296371585750000012643776005433436841_);" d="M257.9,271.7c0.2,0.4,4.4,24.3,7,39.1
			c1.1,6.1-3.4,11.8-9.6,12.1l-5.7,0.3c-10.4,0.6-19.6-6.8-21.2-17.1l-4.1-26.8C224.4,279.3,252.5,262,257.9,271.7z"/>
		<path class="st35" d="M218.3,279.4c-2.2-2.7-4.1-7.1,0.6-11.7c4.7-4.7,10-3.5,13.4-1.9c1.5,0.7,3.3,0.4,4.4-0.9
			c0.5-0.6,1.2-0.9,2.2-0.8c2,0.2,3.7-1.1,3.9-3c0.4-3.4,2.2-7.3,8.1-8.5c10.9-2.1,16.3,8.8,16.1,16.5c-0.2,7.7-12.1,9.3-18.9,8
			c-5-0.9-9.3,3.4-11.2,5.8c-0.7,0.9-1,2-0.7,3.1l1.7,7.4c-1.2,2.3-2.4,4.7-4,6.6c-1.2,1.4-2.5,2.2-3.9,2.5c-2-3.8-7.7-4.4-10.4-4.5
			c-1,0-2-0.5-2.6-1.2c-2-2.3-5.1-7.4,0.9-12.4C219.3,283.2,219.5,280.9,218.3,279.4z"/>
		
			<linearGradient id="SVGID_00000011003650766528791840000003328289975549585565_" gradientUnits="userSpaceOnUse" x1="2835.333" y1="1400.353" x2="2893.6167" y2="1414.5383" gradientTransform="matrix(0.8757 -0.4828 -0.4828 -0.8757 1198.038 348.152)">
			<stop  offset="0" style="stop-color:#F9B776"/>
			<stop  offset="1" style="stop-color:#F47960"/>
		</linearGradient>
		<path style="fill:url(#SVGID_00000011003650766528791840000003328289975549585565_);" d="M231.9,310.4c0,0-0.2-13.4-5.6-14.6
			c-5.4-1.3-11.2,2.7-6.6,10.7C225.4,316.4,231.9,310.4,231.9,310.4z"/>
	</g>
	<g>
		<g>
			<g>
				<path class="st37" d="M253.3,317.8c-15,3.4-26.1-11-26.2-11.2l0.9-0.7c0.1,0.1,10.8,13.9,25,10.7L253.3,317.8z"/>
			</g>
			<path class="st37" d="M250.8,318.8h3.6c0.6,0,1.2-0.5,1.2-1.2l0,0c0-0.6-0.5-1.2-1.2-1.2h-3.6c-0.6,0-1.2,0.5-1.2,1.2l0,0
				C249.7,318.2,250.2,318.8,250.8,318.8z"/>
		</g>
		<g>
			<path class="st38" d="M225.3,291c0,0,2.9-24,17.1-27.8c0,0-4.3-1.5-8.3,1.1c-4.1,2.6-13.9,15.2-12.3,27.7
				C224.8,292.6,225.3,291,225.3,291z"/>
			<path class="st38" d="M222.8,289.7c-8.2,2.5-6.1,13-6.1,13c0.2,7.7,2.8,11.3,5.8,12.9c2.1,1,4.6,0.9,6.5-0.3
				c2-1.3,3.1-3.4,3.1-5.8c-0.1-2.1-0.1-4.1,0-4.8C232.3,302.9,231,287.1,222.8,289.7z"/>
		</g>
		<path class="st37" d="M223.8,292.3c-1.8-0.1-3.4,1-3.9,2.7c-3.9,12.1,3,19,6.1,18.9c3.2-0.2,1.6-15.4,0.5-19.3
			C226,292.9,224.9,292.4,223.8,292.3z"/>
	</g>
	<path class="st24" d="M461.9,168.4l-4-7.1h-1.7v7.1h-3.6v-18.1h6.8c1.4,0,2.6,0.2,3.6,0.7s1.7,1.2,2.2,2s0.7,1.8,0.7,2.8
		c0,1.2-0.3,2.3-1,3.2s-1.7,1.6-3.1,2l4.3,7.4L461.9,168.4L461.9,168.4z M456.2,158.6h3c1,0,1.7-0.2,2.2-0.7s0.7-1.1,0.7-2
		c0-0.8-0.2-1.5-0.7-1.9c-0.5-0.5-1.2-0.7-2.2-0.7h-3V158.6z"/>
	<path class="st24" d="M482.5,162.3H472c0.1,1,0.5,1.9,1.1,2.4c0.6,0.6,1.4,0.9,2.4,0.9c1.4,0,2.3-0.6,2.9-1.7h3.9
		c-0.4,1.4-1.2,2.5-2.4,3.4c-1.2,0.9-2.6,1.3-4.3,1.3c-1.4,0-2.6-0.3-3.7-0.9c-1.1-0.6-2-1.5-2.6-2.6s-0.9-2.4-0.9-3.9
		s0.3-2.8,0.9-3.9c0.6-1.1,1.5-2,2.5-2.6c1.1-0.6,2.3-0.9,3.8-0.9c1.4,0,2.6,0.3,3.7,0.9c1.1,0.6,1.9,1.4,2.5,2.5s0.9,2.3,0.9,3.7
		C482.6,161.4,482.6,161.9,482.5,162.3z M478.8,159.9c0-0.9-0.4-1.7-1-2.2c-0.7-0.6-1.5-0.8-2.4-0.8s-1.7,0.3-2.3,0.8
		s-1,1.3-1.1,2.3h6.8V159.9z"/>
	<path class="st24" d="M493.7,154.4c0.8,0.4,1.5,1,1.9,1.7V154h3.7v14.5c0,1.3-0.3,2.5-0.8,3.6s-1.3,1.9-2.4,2.5s-2.4,0.9-3.9,0.9
		c-2,0-3.7-0.5-5-1.4s-2-2.3-2.2-3.9h3.6c0.2,0.7,0.6,1.2,1.2,1.6c0.6,0.4,1.4,0.6,2.3,0.6c1.1,0,1.9-0.3,2.6-0.9
		c0.7-0.6,1-1.6,1-2.9v-2.2c-0.5,0.7-1.1,1.2-1.9,1.7s-1.8,0.7-2.8,0.7c-1.2,0-2.3-0.3-3.3-0.9c-1-0.6-1.8-1.5-2.4-2.6
		s-0.9-2.4-0.9-3.9s0.3-2.7,0.9-3.9c0.6-1.1,1.4-2,2.4-2.6s2.1-0.9,3.3-0.9C492,153.8,492.9,154,493.7,154.4z M495.1,158.9
		c-0.3-0.6-0.8-1.1-1.4-1.5c-0.6-0.3-1.2-0.5-1.9-0.5s-1.3,0.2-1.9,0.5s-1,0.8-1.4,1.4c-0.4,0.6-0.5,1.4-0.5,2.2
		c0,0.9,0.2,1.6,0.5,2.3c0.4,0.6,0.8,1.1,1.4,1.5c0.6,0.3,1.2,0.5,1.9,0.5c0.7,0,1.3-0.2,1.9-0.5s1.1-0.8,1.4-1.5s0.5-1.4,0.5-2.3
		S495.5,159.6,495.1,158.9z"/>
	<path class="st24" d="M503.1,151.7c-0.4-0.4-0.6-0.9-0.6-1.5s0.2-1.1,0.6-1.5s1-0.6,1.6-0.6s1.2,0.2,1.6,0.6
		c0.4,0.4,0.6,0.9,0.6,1.5s-0.2,1.1-0.6,1.5s-1,0.6-1.6,0.6S503.5,152.1,503.1,151.7z M506.5,154v14.4h-3.6V154H506.5z"/>
	<path class="st24" d="M512.4,168c-0.9-0.4-1.7-1-2.2-1.7s-0.8-1.5-0.9-2.4h3.7c0.1,0.6,0.3,1,0.8,1.4s1.1,0.5,1.8,0.5
		s1.2-0.1,1.6-0.4c0.4-0.3,0.6-0.6,0.6-1.1s-0.2-0.8-0.7-1.1c-0.5-0.2-1.2-0.5-2.3-0.8s-2-0.5-2.6-0.8c-0.7-0.3-1.3-0.7-1.8-1.3
		s-0.7-1.3-0.7-2.3c0-0.8,0.2-1.5,0.7-2.2s1.1-1.2,2-1.6c0.9-0.4,1.9-0.6,3-0.6c1.7,0,3.1,0.4,4.1,1.3c1,0.9,1.6,2,1.7,3.5h-3.5
		c-0.1-0.6-0.3-1-0.7-1.4s-1-0.5-1.7-0.5s-1.2,0.1-1.5,0.4c-0.4,0.2-0.5,0.6-0.5,1c0,0.5,0.2,0.9,0.7,1.1c0.5,0.3,1.2,0.5,2.3,0.8
		c1,0.3,1.9,0.5,2.6,0.8c0.7,0.3,1.3,0.7,1.8,1.3s0.7,1.3,0.8,2.3c0,0.8-0.2,1.6-0.7,2.2c-0.5,0.7-1.1,1.2-2,1.5
		c-0.9,0.4-1.9,0.6-3,0.6C514.4,168.6,513.4,168.4,512.4,168z"/>
	<path class="st24" d="M528.5,157v7c0,0.5,0.1,0.8,0.4,1.1c0.2,0.2,0.6,0.3,1.2,0.3h1.7v3.1h-2.3c-3.1,0-4.6-1.5-4.6-4.5v-7h-1.7v-3
		h1.7v-3.6h3.7v3.6h3.2v3L528.5,157L528.5,157z"/>
	<path class="st24" d="M539.8,154.4c0.8-0.4,1.6-0.7,2.6-0.7v3.8h-1c-1.1,0-2,0.3-2.6,0.8s-0.9,1.5-0.9,2.8v7.2h-3.6V154h3.6v2.2
		C538.5,155.5,539.1,154.9,539.8,154.4z"/>
	<path class="st24" d="M544.8,157.3c0.6-1.1,1.4-2,2.4-2.6s2.1-0.9,3.3-0.9c1.1,0,2,0.2,2.8,0.6c0.8,0.4,1.5,1,1.9,1.6v-2h3.7v14.4
		h-3.7v-2.1c-0.5,0.7-1.1,1.2-1.9,1.7c-0.8,0.4-1.8,0.7-2.8,0.7c-1.2,0-2.3-0.3-3.3-0.9s-1.8-1.5-2.4-2.6c-0.6-1.1-0.9-2.4-0.9-3.9
		C543.9,159.7,544.2,158.4,544.8,157.3z M554.7,158.9c-0.3-0.6-0.8-1.1-1.4-1.5c-0.6-0.3-1.2-0.5-1.9-0.5s-1.3,0.2-1.9,0.5
		c-0.6,0.3-1,0.8-1.4,1.4c-0.4,0.6-0.5,1.4-0.5,2.2c0,0.9,0.2,1.6,0.5,2.3c0.4,0.6,0.8,1.1,1.4,1.5c0.6,0.3,1.2,0.5,1.9,0.5
		s1.3-0.2,1.9-0.5c0.6-0.3,1.1-0.8,1.4-1.5s0.5-1.4,0.5-2.3S555.1,159.6,554.7,158.9z"/>
	<path class="st24" d="M566.7,157v7c0,0.5,0.1,0.8,0.4,1.1c0.2,0.2,0.6,0.3,1.2,0.3h1.7v3.1h-2.3c-3.1,0-4.6-1.5-4.6-4.5v-7h-1.7v-3
		h1.7v-3.6h3.7v3.6h3.2v3L566.7,157L566.7,157z"/>
	<path class="st24" d="M572.8,151.7c-0.4-0.4-0.6-0.9-0.6-1.5s0.2-1.1,0.6-1.5c0.4-0.4,1-0.6,1.6-0.6s1.2,0.2,1.6,0.6
		c0.4,0.4,0.6,0.9,0.6,1.5s-0.2,1.1-0.6,1.5c-0.4,0.4-1,0.6-1.6,0.6S573.3,152.1,572.8,151.7z M576.2,154v14.4h-3.6V154H576.2z"/>
	<path class="st24" d="M582.5,167.7c-1.1-0.6-2-1.5-2.6-2.6s-0.9-2.4-0.9-3.9s0.3-2.8,1-3.9c0.6-1.1,1.5-2,2.7-2.6
		c1.1-0.6,2.4-0.9,3.8-0.9s2.6,0.3,3.8,0.9c1.1,0.6,2,1.5,2.7,2.6s1,2.4,1,3.9s-0.3,2.8-1,3.9c-0.7,1.1-1.6,2-2.7,2.6
		c-1.1,0.6-2.4,0.9-3.8,0.9C584.8,168.6,583.6,168.3,582.5,167.7z M588.1,165c0.6-0.3,1-0.8,1.4-1.4c0.3-0.6,0.5-1.4,0.5-2.3
		c0-1.4-0.4-2.4-1.1-3.2c-0.7-0.7-1.6-1.1-2.6-1.1s-1.9,0.4-2.6,1.1c-0.7,0.7-1.1,1.8-1.1,3.2s0.3,2.4,1,3.2
		c0.7,0.7,1.5,1.1,2.6,1.1C586.9,165.5,587.5,165.3,588.1,165z"/>
	<path class="st24" d="M608.5,155.4c1.1,1.1,1.6,2.6,1.6,4.5v8.5h-3.6v-8c0-1.1-0.3-2-0.9-2.6c-0.6-0.6-1.4-0.9-2.3-0.9
		c-1,0-1.8,0.3-2.4,0.9s-0.9,1.5-0.9,2.6v8h-3.6V154h3.6v1.8c0.5-0.6,1.1-1.1,1.9-1.5c0.8-0.4,1.6-0.5,2.5-0.5
		C606.1,153.8,607.5,154.3,608.5,155.4z"/>
	
		<pattern  id="SVGID_00000029026764523035082420000012762306545549298351_" xlink:href="#SVGID_0000011621021055937442706" patternTransform="matrix(1.0285 0 0 1.0055 -4520.1313 33374.9883)">
	</pattern>
	
		<rect style="opacity:1.000000e-02;fill:url(#SVGID_00000029026764523035082420000012762306545549298351_);" width="1080" height="785.9"/>
</g>
</svg>
