<svg width="216" height="86" viewBox="0 0 216 86" fill="none" xmlns="http://www.w3.org/2000/svg">
<rect width="216" height="86" fill="white"/>
<path d="M41.9074 47.0427L41.2151 45.0515L40.6743 43.5086L38.0568 35.9855H32.1623L29.6634 43.5086L29.1426 45.0844L28.4897 47.0492L28.1338 48.1306L26.6963 52.4295H30.8107L32.0832 48.6382H38.3733L39.7185 52.4295H43.7799L42.2636 48.0645L41.9074 47.0427ZM35.1359 39.5393L37.1204 45.1305H33.2566L35.1359 39.5393Z" fill="#2977DD"/>
<path d="M14.3144 47.2601V35.9721H10.0683C10.1144 35.926 9.79793 45.0051 10.2331 48.2886C10.6616 51.5261 14.4859 52.4425 14.4859 52.4425H25.7675V48.948C25.7675 48.948 18.0134 48.9347 16.2068 48.9347C14.6903 48.9283 14.3144 47.2601 14.3144 47.2601Z" fill="#2977DD"/>
<path d="M90.1328 41.6555H89.9284L86.2032 35.9983H81.8779L87.858 46.0203V52.416H92.3218V45.407L98.4472 35.9983H93.7064L90.1328 41.6555Z" fill="#2977DD"/>
<path d="M126.429 35.9458L120.145 46.6206L113.717 35.9458H108.633V52.436H112.589V41.8404L118.958 52.436H120.936L127.424 41.8404V52.436H131.657V35.9458H126.429Z" fill="#FF6E00"/>
<path d="M147.89 47.0424L147.199 45.0512L146.665 43.5215L144.047 35.9918H138.153L135.654 43.5149L135.132 45.0775L134.48 47.0424L134.19 47.9193L132.686 52.4425H136.801L138.073 48.6445H144.351L145.702 52.4425H149.764L148.3 48.2225L147.89 47.0424ZM141.126 39.5457L143.112 45.1303H139.253L141.126 39.5457Z" fill="#FF6E00"/>
<path d="M184.782 35.9722H169.34C169.314 35.9722 169.295 35.992 169.295 36.0183V52.3965C169.295 52.4228 169.314 52.4426 169.34 52.4426H184.782C184.808 52.4426 184.827 52.4228 184.827 52.3965V49.0866C184.827 49.0602 184.808 49.0403 184.782 49.0403H173.482C173.455 49.0403 173.435 49.0206 173.435 48.9942V46.0074C173.435 45.981 173.455 45.9612 173.482 45.9612L180.952 45.9678L180.919 42.3547H173.482C173.455 42.3547 173.435 42.3348 173.435 42.3084V39.3546C173.435 39.3283 173.455 39.3085 173.482 39.3085H184.782C184.808 39.3085 184.827 39.2887 184.827 39.2623V36.0249C184.827 35.992 184.808 35.9722 184.782 35.9722Z" fill="#FF6E00"/>
<path d="M204.007 40.9962C204.007 40.9962 204.593 35.9457 197.823 35.9457H186.667V39.2951H197.77C197.77 39.2951 199.589 39.1699 199.589 40.9765C199.589 40.9765 199.623 42.4534 197.77 42.4534H186.667V52.5084H190.827V45.9083H192.343L198.831 52.4754L203.994 52.4623L197.75 45.9017C197.75 45.9083 204.007 46.0864 204.007 40.9962Z" fill="#FF6E00"/>
<path d="M76.6552 35.9984H64.0751V39.3347H74.3607C74.374 39.3149 74.3872 39.2951 74.4004 39.2753C74.4795 39.1039 74.6442 38.9984 74.8357 38.9984C74.9145 38.9984 74.9936 39.0182 75.0663 39.0578C75.2116 39.1369 75.3827 39.1369 75.528 39.0578C75.6003 39.0182 75.6794 38.9984 75.7585 38.9984C75.9432 38.9984 76.1147 39.1039 76.1938 39.2753C76.2665 39.4204 76.405 39.5259 76.5629 39.5457C76.8002 39.5787 76.9785 39.7764 76.9785 40.0204C76.9785 40.0534 76.9785 40.0798 76.972 40.1126C76.9652 40.139 76.9652 40.172 76.9652 40.2051C76.9652 40.3369 77.0179 40.4622 77.117 40.5544C77.3081 40.739 77.3146 41.0425 77.1367 41.2336C77.1299 41.2402 77.1234 41.2468 77.117 41.2535C76.9982 41.3654 76.9455 41.5303 76.972 41.6952C76.9785 41.728 76.9785 41.7545 76.9785 41.7874C76.9785 42.0247 76.8002 42.2292 76.5629 42.2622C76.3982 42.282 76.2597 42.3875 76.1938 42.5326C76.1147 42.6974 75.9497 42.8095 75.7585 42.8095C75.6794 42.8095 75.6003 42.7897 75.528 42.75C75.3827 42.6709 75.2116 42.6709 75.0663 42.75C74.8357 42.8753 74.5519 42.7962 74.4269 42.5721C74.4269 42.5654 74.4201 42.559 74.4201 42.5524H64.0354L63.9434 52.4161H68.2818V46.0468H76.5761C76.8202 46.0402 81.4687 45.928 81.4687 40.805C81.4619 40.5611 81.3105 35.9984 76.6552 35.9984Z" fill="#2977DD"/>
<path d="M58.2659 35.9984H45.6858V39.3347H55.9714C55.9846 39.3149 55.9979 39.2951 56.0043 39.2753C56.0834 39.1105 56.2549 38.9984 56.4396 38.9984C56.5187 38.9984 56.5978 39.0182 56.6705 39.0578C56.7428 39.0973 56.8219 39.1171 56.901 39.1171C56.9801 39.1171 57.0596 39.0973 57.1319 39.0578C57.2045 39.0182 57.2837 38.9984 57.3628 38.9984C57.5471 38.9984 57.7186 39.1039 57.7977 39.2753C57.8639 39.4204 58.0089 39.5259 58.1671 39.5457C58.4306 39.5787 58.6153 39.816 58.5824 40.0731C58.5824 40.0863 58.5759 40.0996 58.5759 40.1062C58.5694 40.1325 58.5694 40.1655 58.5694 40.1918C58.5694 40.3237 58.6221 40.449 58.7209 40.5413C58.912 40.7259 58.9253 41.0292 58.7406 41.2204C58.7341 41.227 58.7277 41.2336 58.7209 41.2402C58.6024 41.3522 58.5494 41.5172 58.5759 41.6819C58.6285 41.939 58.4571 42.1897 58.2 42.2424C58.1868 42.2424 58.1736 42.249 58.1671 42.249C58.0021 42.2688 57.8639 42.3743 57.7977 42.5193C57.6857 42.7566 57.4022 42.8622 57.1648 42.75C57.1584 42.7436 57.1451 42.7436 57.1387 42.7369C57.066 42.6974 56.9866 42.6776 56.9078 42.6776C56.8287 42.6776 56.7496 42.6974 56.6769 42.7369C56.4461 42.8622 56.1626 42.7831 56.0308 42.5524C56.0308 42.5456 56.024 42.5391 56.024 42.5391H45.6461L45.5537 52.4028H49.8857V46.0335H58.1803C58.4241 46.0271 63.0726 45.9149 63.0726 40.7919C63.0726 40.5611 62.9276 35.9984 58.2659 35.9984Z" fill="#2977DD"/>
<path d="M168.08 36.0117H162.502L154.945 42.6052V36.0051H151.01L150.916 52.4096H154.997V45.704L162.66 52.4096H168.219L159.475 44.1084L168.08 36.0117Z" fill="#FF6E00"/>
<path d="M207.293 33.1151C207.569 33.195 207.74 33.3909 207.866 33.6273C208.015 33.9064 208.15 34.1921 208.291 34.4756C208.361 34.6157 208.429 34.7569 208.497 34.898C208.505 34.9134 208.512 34.9287 208.521 34.9517C208.501 34.9528 208.485 34.9539 208.469 34.9539C208.15 34.9539 207.829 34.9539 207.51 34.955C207.472 34.955 207.453 34.9451 207.435 34.909C207.269 34.5631 207.1 34.2173 206.93 33.8736C206.902 33.8177 206.864 33.7652 206.828 33.7138C206.73 33.5737 206.594 33.4916 206.427 33.4773C206.296 33.4664 206.165 33.4752 206.027 33.4752C206.027 33.9633 206.027 34.457 206.027 34.9517C205.689 34.9517 205.359 34.9517 205.023 34.9517C205.023 33.6415 205.023 32.3347 205.023 31.0234C205.039 31.0223 205.053 31.0201 205.065 31.0201C205.616 31.0212 206.166 31.0179 206.715 31.0245C206.981 31.0278 207.245 31.0672 207.491 31.1788C207.818 31.3266 207.984 31.5893 208.019 31.945C208.038 32.1431 208.027 32.3391 207.96 32.5273C207.866 32.7889 207.675 32.9542 207.429 33.0614C207.388 33.0811 207.343 33.0954 207.293 33.1151ZM206.03 31.7546C206.03 32.096 206.03 32.4299 206.03 32.767C206.178 32.767 206.324 32.7692 206.468 32.7659C206.528 32.7648 206.589 32.7571 206.651 32.7484C206.845 32.7199 206.973 32.6116 207.01 32.4321C207.027 32.3445 207.027 32.2526 207.022 32.1628C207.014 31.9614 206.896 31.8268 206.701 31.7852C206.48 31.7359 206.256 31.7655 206.03 31.7546Z" fill="#2977DD"/>
<path fill-rule="evenodd" clip-rule="evenodd" d="M206.628 36.558C208.56 36.558 210.126 34.9921 210.126 33.0604C210.126 31.1287 208.56 29.5628 206.628 29.5628C204.696 29.5628 203.13 31.1287 203.13 33.0604C203.13 34.9921 204.696 36.558 206.628 36.558ZM206.628 37.4324C209.042 37.4324 211 35.475 211 33.0604C211 30.6458 209.042 28.6884 206.628 28.6884C204.214 28.6884 202.256 30.6458 202.256 33.0604C202.256 35.475 204.214 37.4324 206.628 37.4324Z" fill="#2977DD"/>
</svg>
