<svg id="Layer_1" data-name="Layer 1" xmlns="http://www.w3.org/2000/svg" xmlns:xlink="http://www.w3.org/1999/xlink" viewBox="0 0 150 150">
  <defs>
    <linearGradient id="linear-gradient" x1="-1624.51" y1="511.99" x2="-1488.7" y2="511.99" gradientTransform="translate(-1481.6 586.99) rotate(180)" gradientUnits="userSpaceOnUse">
      <stop offset="0" stop-color="#28912e"/>
      <stop offset="1" stop-color="#8ad314"/>
    </linearGradient>
    <linearGradient id="linear-gradient-2" x1="102.89" y1="134.8" x2="52.94" y2="27.68" gradientTransform="matrix(1, 0, 0, 1, 0, 0)" xlink:href="#linear-gradient"/>
  </defs>
  <g>
    <g style="opacity: 0.21">
      <circle cx="75" cy="75" r="67.9" style="fill: url(#linear-gradient)"/>
    </g>
    <circle cx="75" cy="75" r="58.85" style="fill: url(#linear-gradient-2)"/>
  </g>
  <g>
    <path d="M85.74,66.42a2.21,2.21,0,0,0,0-4.41H64.26a2.21,2.21,0,0,0,0,4.41H70.7c4.06,0,5.7,2.09,6.23,4.41H64.26a2.21,2.21,0,0,0,0,4.41H76.91c-.54,2.31-2.15,4.4-6.21,4.4H64.26a2.15,2.15,0,0,0-2,1.51A2.24,2.24,0,0,0,63,83.61L80.16,96.84a2.1,2.1,0,0,0,3-.45,2.23,2.23,0,0,0-.43-3.08l-12-9.26a9.57,9.57,0,0,0,7-2.2,10.09,10.09,0,0,0,3.53-6.61h4.47a2.21,2.21,0,0,0,0-4.41H81.27a11.4,11.4,0,0,0-1.65-4.41Z" style="fill: #fff"/>
    <path d="M75.81,106.89a29.15,29.15,0,1,0,0-58.29,3.59,3.59,0,0,1-.87-.13v4.29a2.15,2.15,0,0,1-.55,1.43,2.15,2.15,0,0,1-2.83.31l-9.92-7.11a2.13,2.13,0,0,1,0-3.48l9.92-7.11h0a2.15,2.15,0,0,1,2.83.31,2.17,2.17,0,0,1,.55,1.43v3.21a3.59,3.59,0,0,1,.87-.13A36.12,36.12,0,1,1,40.45,85a3.45,3.45,0,0,1,.42-2.71,3.5,3.5,0,0,1,2.25-1.57,3.51,3.51,0,0,1,4.15,2.89,29.23,29.23,0,0,0,28.54,23.27ZM43,76.07h0a3.62,3.62,0,0,0,.57,0A3.49,3.49,0,0,0,46.68,71a3.49,3.49,0,0,0-5.93-.43A3.49,3.49,0,0,0,43.06,76ZM52.78,50h0a3.49,3.49,0,0,0,4.45,5.37,3.48,3.48,0,0,0,.46-4.91,3.46,3.46,0,0,0-2.34-1.29,3.5,3.5,0,0,0-2.57.76ZM50.49,63.27a3.48,3.48,0,0,0-1.85-5A3.48,3.48,0,1,0,47.46,65a3.46,3.46,0,0,0,1.75-.48,3.52,3.52,0,0,0,1.28-1.29Z" style="fill: #fff"/>
  </g>
</svg>
