<svg id="Layer_1" data-name="Layer 1" xmlns="http://www.w3.org/2000/svg" xmlns:xlink="http://www.w3.org/1999/xlink" viewBox="0 0 150 150">
  <defs>
    <linearGradient id="linear-gradient" x1="-944.51" y1="511.99" x2="-808.7" y2="511.99" gradientTransform="translate(-801.6 586.99) rotate(180)" gradientUnits="userSpaceOnUse">
      <stop offset="0" stop-color="#28912e"/>
      <stop offset="1" stop-color="#8ad314"/>
    </linearGradient>
    <linearGradient id="linear-gradient-2" x1="102.89" y1="134.8" x2="52.94" y2="27.68" gradientTransform="matrix(1, 0, 0, 1, 0, 0)" xlink:href="#linear-gradient"/>
  </defs>
  <g>
    <g style="opacity: 0.21">
      <circle cx="75" cy="75" r="67.9" style="fill: url(#linear-gradient)"/>
    </g>
    <circle cx="75" cy="75" r="58.85" style="fill: url(#linear-gradient-2)"/>
  </g>
  <g>
    <path d="M97.66,46.75a5.58,5.58,0,1,1-5.58-5.57,5.58,5.58,0,0,1,5.58,5.57" style="fill: #fff"/>
    <path d="M63.49,46.75a5.58,5.58,0,1,1-5.57-5.57,5.57,5.57,0,0,1,5.57,5.57" style="fill: #fff"/>
    <path d="M80.58,46.75A5.58,5.58,0,1,1,75,41.18a5.58,5.58,0,0,1,5.58,5.57" style="fill: #fff"/>
    <path d="M102,77.34H96.66l.64-11.29c1-.14,1.93-.29,2.86-.5a1.33,1.33,0,0,0,1-1.43L100.52,59a6.26,6.26,0,0,0-4.79-5.36l-2.5,6.22-.58-4.5H93c.22,0,.36-.14.36-.43V53.68a.33.33,0,0,0-.36-.35H91a.34.34,0,0,0-.36.35V54.9a.41.41,0,0,0,.36.43h.43l-.57,4.5-2.43-6.14a7.12,7.12,0,0,0-2.93,1.57,9.19,9.19,0,0,1,1.07,3.36l.64,5.14a4.42,4.42,0,0,1-.35,2.36l.64,11.29H79.58l.64-11.29c1-.14,1.93-.28,2.86-.5a1.33,1.33,0,0,0,1-1.43l-.65-5.14a6.25,6.25,0,0,0-4.78-5.37L76.14,59.9l-.57-4.5h.36a.34.34,0,0,0,.36-.36V53.83a.34.34,0,0,0-.36-.36h-2a.34.34,0,0,0-.36.36V55a.34.34,0,0,0,.36.36h.36l-.58,4.5-2.35-6.22a6.24,6.24,0,0,0-4.79,5.37l-.65,5.14a1.33,1.33,0,0,0,1,1.43c.93.22,1.93.36,2.86.5l.65,11.29H62.49l.65-11.22a5.09,5.09,0,0,1-.36-2.36l.64-5.14a8.79,8.79,0,0,1,1.07-3.36,6,6,0,0,0-2.93-1.57L59.06,60l-.5-4.57h.36a.41.41,0,0,0,.43-.43V53.76c0-.22-.15-.36-.43-.36h-2a.34.34,0,0,0-.36.36V55a.4.4,0,0,0,.36.43h.35l-.57,4.5-2.43-6.22a6.36,6.36,0,0,0-4.79,5.37l-.64,5.14a1.33,1.33,0,0,0,1,1.43c.93.22,1.93.36,2.86.5l.64,11.29H48.05a2.38,2.38,0,0,0-2.35,2.36,29.3,29.3,0,1,0,58.6,0A2.4,2.4,0,0,0,102,77.34ZM52.34,89.28a26.12,26.12,0,0,1-1.85-7.15H63.42c.07,2.43.29,4.86.57,7.15ZM55.06,94h9.79a37.24,37.24,0,0,0,3,9.22A24.29,24.29,0,0,1,55.06,94ZM75,104.29c-1.5,0-3.86-3.57-5.36-10.29H80.36C78.86,100.79,76.5,104.29,75,104.29Zm6.22-15H68.78a70.58,70.58,0,0,1-.57-7.15H81.72a53.72,53.72,0,0,1-.5,7.15Zm1,13.94a35.65,35.65,0,0,0,3-9.22H95a24.8,24.8,0,0,1-12.79,9.22ZM97.66,89.28H85.94c.28-2.29.5-4.72.57-7.15H99.45a24.07,24.07,0,0,1-1.79,7.15Z" style="fill: #fff"/>
  </g>
</svg>
