<svg id="Layer_1" data-name="Layer 1" xmlns="http://www.w3.org/2000/svg" xmlns:xlink="http://www.w3.org/1999/xlink" viewBox="0 0 150 150">
  <defs>
    <linearGradient id="linear-gradient" x1="-1964.51" y1="511.99" x2="-1828.7" y2="511.99" gradientTransform="translate(-1821.6 586.99) rotate(180)" gradientUnits="userSpaceOnUse">
      <stop offset="0" stop-color="#28912e"/>
      <stop offset="1" stop-color="#8ad314"/>
    </linearGradient>
    <linearGradient id="linear-gradient-2" x1="102.89" y1="134.8" x2="52.94" y2="27.68" gradientTransform="matrix(1, 0, 0, 1, 0, 0)" xlink:href="#linear-gradient"/>
    <linearGradient id="linear-gradient-3" x1="47.56" y1="76.71" x2="108.3" y2="76.71" gradientTransform="matrix(1, 0, 0, 1, 0, 0)" xlink:href="#linear-gradient"/>
    <linearGradient id="linear-gradient-4" x1="62.57" y1="93.56" x2="66.95" y2="93.56" gradientTransform="matrix(1, 0, 0, 1, 0, 0)" xlink:href="#linear-gradient"/>
    <linearGradient id="linear-gradient-5" x1="79.45" y1="76.02" x2="83.84" y2="76.02" gradientTransform="matrix(1, 0, 0, 1, 0, 0)" xlink:href="#linear-gradient"/>
    <linearGradient id="linear-gradient-6" x1="66.85" y1="67.56" x2="71.23" y2="67.56" gradientTransform="matrix(1, 0, 0, 1, 0, 0)" xlink:href="#linear-gradient"/>
    <linearGradient id="linear-gradient-7" x1="59.25" y1="54.23" x2="63.66" y2="54.23" gradientTransform="matrix(1, 0, 0, 1, 0, 0)" xlink:href="#linear-gradient"/>
    <linearGradient id="linear-gradient-8" x1="45.79" y1="75.16" x2="50.18" y2="75.16" gradientTransform="matrix(1, 0, 0, 1, 0, 0)" xlink:href="#linear-gradient"/>
    <linearGradient id="linear-gradient-9" x1="106.05" y1="58.52" x2="110.44" y2="58.52" gradientTransform="matrix(1, 0, 0, 1, 0, 0)" xlink:href="#linear-gradient"/>
  </defs>
  <g>
    <g style="opacity: 0.21">
      <circle cx="75" cy="75" r="67.9" style="fill: url(#linear-gradient)"/>
    </g>
    <circle cx="75" cy="75" r="58.85" style="fill: url(#linear-gradient-2)"/>
  </g>
  <g>
    <g id="Group_39250" data-name="Group 39250">
      <g id="_822HZj" data-name=" 822HZj">
        <g id="Group">
          <path id="Vector" d="M45.1,74.65c-1.15.22-2.23.64-3.35,0s-2-1.66-1.89-2.6c-.28.07-.62.24-.66-.26s.17-.7.61-.68a1.11,1.11,0,0,0,.9-.41,1.39,1.39,0,0,1,1.44-.4,4.23,4.23,0,0,0,2.85,0,1,1,0,0,1,1,.12.84.84,0,0,0,1,0,.34.34,0,0,0,.19-.41,24.24,24.24,0,0,0-.87-3.35.77.77,0,0,0-.48-.51c-.88-.39-1-.57-.89-1.56A5.62,5.62,0,0,1,45,64c.11-.52-.06-.77-.59-.83a1.13,1.13,0,0,1-1-1.22,1.16,1.16,0,0,1,.23-.59,21,21,0,0,1,2-2.31c.34-.39.76-.28,1.15.27a.68.68,0,0,0,.87.32c.4-.11.83-.12,1.24-.19a2.08,2.08,0,0,0,1.64-1.2,4,4,0,0,1,1-1.19,7.22,7.22,0,0,0,2.53-3.43c.09-.33.41-.47.69-.61a1.94,1.94,0,0,0,1-1.19,2.75,2.75,0,0,1,1-1.37,1.55,1.55,0,0,0,.65-1.25v-.74c0-1.11.17-1.34,1.19-1.66a2.07,2.07,0,0,0,.42-.14.41.41,0,0,0,.23-.53.42.42,0,0,0-.17-.2,3.45,3.45,0,0,0-.54-.28c-.17-.09-.45-.15-.5-.3-.38-1.09-1.44-1.09-2.22-1.52a1.23,1.23,0,0,1-.8-1.2,14.89,14.89,0,0,0-.21-3.13.87.87,0,0,1,.44-1,4.42,4.42,0,0,0,1-.88.47.47,0,0,0,0-.66l0,0a11.45,11.45,0,0,0-2.1-1.83,2.55,2.55,0,0,0-.75-.34.79.79,0,0,1-.54-1,.87.87,0,0,1,.14-.27A7.07,7.07,0,0,1,54.49,32a.67.67,0,0,1,.5-.17c1,.26,1.71-.48,2.54-.78a3.18,3.18,0,0,1,3,.74,6.5,6.5,0,0,0,1.6,1.45,2.86,2.86,0,0,1,1.1,1.16,1.44,1.44,0,0,0,1.06.82,1.13,1.13,0,0,1,.69.41c.51.63.81.69,1.45.18A6.26,6.26,0,0,1,70,34.67a2.3,2.3,0,0,1,1.7.68,1.25,1.25,0,0,1,.42,1.41,4.11,4.11,0,0,1-1.52,2.61.86.86,0,0,0-.29.6.73.73,0,0,1-.77.68h0c-.43,0-.66.16-.52.66a.62.62,0,0,1,0,.5c-.3.46-.12.77.31.94s.56.61.71,1a3.78,3.78,0,0,1,.34,1.13c0,.48-.57.45-.86.69-.69.6-.79.57-1.24-.18-.06-.1-.1-.22-.24-.2a.47.47,0,0,0-.34.26.6.6,0,0,0,0,.49,9.59,9.59,0,0,1,.74,2.74c0,.31.1.59.51.38a.37.37,0,0,1,.49.15h0a3,3,0,0,0,1.19,1,21.65,21.65,0,0,1,2,1.54,4.83,4.83,0,0,0,1,.54c.37.14.46.37.1.65A5.53,5.53,0,0,0,71.89,56a1,1,0,0,0,.46,1.34l.16.06a10.74,10.74,0,0,1,3,1.83,4.27,4.27,0,0,0,1.86.79,4.11,4.11,0,0,1,1.61.82c.39.37.89.24,1.36.2s.94-.17,1.41-.2a1.93,1.93,0,0,1,1.88.92,1.24,1.24,0,0,0,.69.54c1.16.38,2.32.76,3.49,1.11a2.76,2.76,0,0,0,.86.07,10.16,10.16,0,0,1,2.13.18c1,.18,1.28-.14,1.18-1.2a12.46,12.46,0,0,1,0-3.17,1.28,1.28,0,0,1,1.5-.84.69.69,0,0,1,.33.78A4.15,4.15,0,0,0,94,60.76c.19.91.47,1.16,1.37,1.23a12.52,12.52,0,0,0,2.29-.12c.87-.08,1.74-.16,2.62-.19a13.15,13.15,0,0,0,1.53-.38c.27,0,.26-.3.22-.5a1.41,1.41,0,0,0-.93-1.23c-.27-.09-.52-.19-.46-.58s.3-.39.6-.42a2.72,2.72,0,0,0,2.07-1.08c.24-.37.71-.57.94-1A3.46,3.46,0,0,1,106,55a2.68,2.68,0,0,0,1-1.11c.55-.82.92-.92,1.75-.5a1,1,0,0,0,1.4-.19l.06-.09a5.84,5.84,0,0,1,.59-.51c.23-.18.49-.4.78-.13s.62.42.39.89c-.1.18,0,.25.17.32.67.28.79.51.49,1.15s-.07.57.38.57a5.29,5.29,0,0,1,1.19.13.82.82,0,0,1,.44,1.42,1.26,1.26,0,0,0-.22,1.77l0,0c.08.13.28.28.09.45s-.36.06-.5-.07c-.48-.48-.92-.31-1.43,0a20.56,20.56,0,0,0-2.68,2.43c-.22.19-.15.5-.11.76a3.48,3.48,0,0,1-.66,3,.74.74,0,0,0-.12.7,4,4,0,0,1-.36,2.27c-.12.36-.29.7-.38,1.07a.71.71,0,0,1-.79.62h0c-.39,0-.9-.2-1.16.07s.1.77.13,1.18a2.56,2.56,0,0,1-.16,1.34,3.65,3.65,0,0,0-.37,1.87,16.45,16.45,0,0,1,0,1.72.6.6,0,0,1-.49.66.71.71,0,0,1-.76-.45,1.09,1.09,0,0,1-.14-.43,42.46,42.46,0,0,0-1-4.15,1.7,1.7,0,0,0-.1-.32.29.29,0,0,0-.3-.29c-.18,0-.26.13-.31.27a4.06,4.06,0,0,0-.35,1.49c0,.26,0,.51-.32.61s-.38-.14-.5-.33a2,2,0,0,0-.34-.37,1.79,1.79,0,0,1-.31-2.51,1.73,1.73,0,0,1,.58-.49A3.09,3.09,0,0,0,103,68.26c.33-.88.12-1.2-.75-1.21H97.82c-.73,0-1-.32-1-1.09a2.61,2.61,0,0,0-.47-1.6c-.42.47-.73.45-1.24-.14-.27-.3-.46-.66-.9-.25-.11.1-.3,0-.4-.1-.37-.4-.53-.13-.72.19-.63,1.08-.53,1.48.55,2.07a3.29,3.29,0,0,1,.81.57c.32.31.28.61-.13.7a3.23,3.23,0,0,0-1.49,1.19.5.5,0,0,0-.06.7l.06.06a2.57,2.57,0,0,0,.86.6c.66.25.77.56.47,1.22a1,1,0,0,0-.08,1,7.14,7.14,0,0,1,1.13,3.47A8.59,8.59,0,0,0,95.53,77c.1.5-.12.77-.61.76a1.1,1.1,0,0,0-.66.21c-.16.1-.37.26-.5.15-.48-.41-.67,0-1,.27a4.35,4.35,0,0,1-1.51.78c-.88.35-1.07.66-.87,1.6a2.88,2.88,0,0,1-1.18,2.71,4.41,4.41,0,0,1-1.93,1,.63.63,0,0,1-.58-.08c-.34-.25-.51-.06-.68.25a14.77,14.77,0,0,1-3.55,4.64,5,5,0,0,0-1.12,1.25A3.15,3.15,0,0,1,80,91.7a3.28,3.28,0,0,0-1,.75,1.34,1.34,0,0,0-.4,1.07.72.72,0,0,1-.49.8,3.54,3.54,0,0,1-2,.56.82.82,0,0,0-.63.4,5.46,5.46,0,0,0-.47.77c-.23.49-.5.77-1.06.45a.66.66,0,0,0-.77.14,2.36,2.36,0,0,0-1,2.16,15.32,15.32,0,0,1,0,1.66,3.5,3.5,0,0,0,.27,1.5c.12.27.2.55-.06.79a.21.21,0,0,0-.09.28.2.2,0,0,0,.09.09c.42.3.32.73.27,1.15a9.35,9.35,0,0,1-.93,2.61,4.87,4.87,0,0,0-.48,2.76c.09.75,0,1.52.12,2.28,0,.34,0,.72-.42.74-1.08.07-1.5.93-2,1.7-.2.33-.47.7-.19,1.16.1.16,0,.23-.17.28-.33.12-.65.26-1,.35a1.59,1.59,0,0,0-1.42,1.4A2,2,0,0,1,63.81,119a1.62,1.62,0,0,1-.42-.15,6.12,6.12,0,0,1-3-4.21,19.25,19.25,0,0,0-2.85-7.06,9.06,9.06,0,0,1-1.55-3.8,17.26,17.26,0,0,0-2-5.71,13.78,13.78,0,0,1-1.77-6,16.57,16.57,0,0,0-.82-3.61,1.21,1.21,0,0,1,0-1.08.27.27,0,0,0,0-.37l0,0a.52.52,0,0,1-.25-.42,7.87,7.87,0,0,1,.3-3.94,1.32,1.32,0,0,0,0-1.25,1.86,1.86,0,0,1-.06-2c.08-.12.11-.25,0-.35a1.54,1.54,0,0,1-.48-1.28c0-.17,0-.4-.22-.42s-.2.24-.22.38c-.08.43-.12.86-.18,1.3A2.05,2.05,0,0,1,49,80.84a14.1,14.1,0,0,1-2.53.9A1.87,1.87,0,0,1,44.63,81a37.81,37.81,0,0,1-3.52-4.37.46.46,0,0,1,0-.62c.16-.2.31-.07.48,0a2,2,0,0,0,1.33,0A3.57,3.57,0,0,0,45.1,74.65Z" style="fill: #fff"/>
        </g>
      </g>
      <path id="Vector_2" data-name="Vector 2" d="M108.3,61.26C97.15,58,86.51,59.1,77.06,64.38a19.32,19.32,0,0,0-1.55-1.82c-3.35-3.39-7.94-5.22-14-5.57v.25l-.06.24L61.28,57c-10,2.55-14.31,9-13.66,20.15h.49C47.48,66.21,51.7,60,61.39,57.49,67,59.06,69.32,63,68.78,70.21c-8.55-2.33-15.68.27-21.21,7.72l.38.3v.16c7.87,1.62,13.42,7.69,16.49,18l.19-.06.35.09c1.19-5.42,3-9.48,5.54-12.31A14.42,14.42,0,0,1,81.6,79.24v-.45h0l.21.12a33.38,33.38,0,0,1,10.4-11.84,27.59,27.59,0,0,1,15.91-5.31h.06v-.07ZM63.45,57.68c5.85.71,10.2,3,13.19,6.94A44.94,44.94,0,0,0,69.3,69.9C69.7,63.47,67.88,59.61,63.45,57.68ZM48.2,77.93c5.28-6.94,12-9.4,20.13-7.32C63.41,75,61.59,81.34,62.65,90.4,59.37,83.48,54.53,79.3,48.2,77.93ZM64.65,95.55c-.4-1.26-.83-2.45-1.3-3.57-1.48-9.92.29-16.67,5.56-21.21H69V70.6h0l.06.07A44.57,44.57,0,0,1,76.93,65c2.39,3.38,3.85,7.93,4.42,13.71C72.79,79,67.32,84.53,64.65,95.55ZM91.94,66.64A34,34,0,0,0,81.76,78c-.63-5.53-2.08-9.89-4.4-13.18a38.78,38.78,0,0,1,29.15-3.49A28.54,28.54,0,0,0,91.94,66.64Z" style="opacity: 0.32;fill: url(#linear-gradient-3)"/>
      <g id="FTvcmO">
        <g id="Group_2" data-name="Group 2">
          <path id="Vector_3" data-name="Vector 3" d="M62.57,92.6a2.25,2.25,0,0,1,1.73-2.21,2.1,2.1,0,0,1,1.94.55,2.35,2.35,0,0,1,.7,1.42,3.21,3.21,0,0,1-.09,1.07,5.84,5.84,0,0,1-.62,1.43,10.29,10.29,0,0,1-1.33,1.81l-.1.12h-.08c-.08,0-.28-.31-.41-.47a12.16,12.16,0,0,1-.89-1.24,6.69,6.69,0,0,1-.7-1.48A3.37,3.37,0,0,1,62.57,92.6ZM64.76,94a1.4,1.4,0,1,0-1.34-1.46v.07A1.38,1.38,0,0,0,64.76,94Z" style="fill: url(#linear-gradient-4)"/>
        </g>
      </g>
      <g id="FTvcmO-2">
        <g id="Group_3" data-name="Group 3">
          <path id="Vector_4" data-name="Vector 4" d="M79.45,75.06a2.27,2.27,0,0,1,1.74-2.21,2.08,2.08,0,0,1,1.93.55,2.28,2.28,0,0,1,.71,1.42,3,3,0,0,1-.1,1.07,5.81,5.81,0,0,1-.61,1.43,11.24,11.24,0,0,1-1.33,1.81l-.11.12h-.07c-.07,0-.28-.31-.41-.48a10.68,10.68,0,0,1-.89-1.23,6.27,6.27,0,0,1-.7-1.48A3.08,3.08,0,0,1,79.45,75.06Zm2.2,1.4A1.4,1.4,0,1,0,80.31,75v.07a1.36,1.36,0,0,0,1.33,1.39Z" style="fill: url(#linear-gradient-5)"/>
        </g>
      </g>
      <g id="FTvcmO-3">
        <g id="Group_4" data-name="Group 4">
          <path id="Vector_5" data-name="Vector 5" d="M66.85,66.6a2.25,2.25,0,0,1,1.73-2.21,2.1,2.1,0,0,1,1.94.55,2.35,2.35,0,0,1,.7,1.42,3.21,3.21,0,0,1-.09,1.07,5.84,5.84,0,0,1-.62,1.43,10.29,10.29,0,0,1-1.33,1.81l-.1.12H69c-.08,0-.28-.31-.41-.47a12.16,12.16,0,0,1-.89-1.24A6.69,6.69,0,0,1,67,67.6,3.37,3.37,0,0,1,66.85,66.6ZM69,68a1.4,1.4,0,1,0-1.34-1.46v.07A1.38,1.38,0,0,0,69,68Z" style="fill: url(#linear-gradient-6)"/>
        </g>
      </g>
      <g id="FTvcmO-4">
        <g id="Group_5" data-name="Group 5">
          <path id="Vector_6" data-name="Vector 6" d="M59.25,53.27A2.24,2.24,0,0,1,61,51.06a2.05,2.05,0,0,1,1.94.55,2.35,2.35,0,0,1,.7,1.42,2.7,2.7,0,0,1-.09,1.06,5.75,5.75,0,0,1-.62,1.44,11.18,11.18,0,0,1-1.32,1.81l-.11.12h-.08L61,57a12,12,0,0,1-.89-1.23,7.17,7.17,0,0,1-.7-1.48A3.2,3.2,0,0,1,59.25,53.27Zm2.19,1.4a1.4,1.4,0,1,0-1.34-1.46v.07a1.36,1.36,0,0,0,1.33,1.39Z" style="fill: url(#linear-gradient-7)"/>
        </g>
      </g>
      <g id="FTvcmO-5">
        <g id="Group_6" data-name="Group 6">
          <path id="Vector_7" data-name="Vector 7" d="M45.79,74.19A2.25,2.25,0,0,1,47.53,72a2.1,2.1,0,0,1,1.94.54,2.37,2.37,0,0,1,.7,1.43,3,3,0,0,1-.09,1,5.75,5.75,0,0,1-.62,1.44,11.24,11.24,0,0,1-1.33,1.81l-.1.12H48l-.41-.48a12,12,0,0,1-.89-1.23,7,7,0,0,1-.7-1.49A3.65,3.65,0,0,1,45.79,74.19Zm2.2,1.4a1.4,1.4,0,1,0-1.34-1.46v.07A1.36,1.36,0,0,0,48,75.59h0Z" style="fill: url(#linear-gradient-8)"/>
        </g>
      </g>
      <g id="FTvcmO-6">
        <g id="Group_7" data-name="Group 7">
          <path id="Vector_8" data-name="Vector 8" d="M106.05,57.56a2.25,2.25,0,0,1,1.74-2.21,2.08,2.08,0,0,1,1.93.55,2.22,2.22,0,0,1,.7,1.42,2.76,2.76,0,0,1-.09,1.07,5.34,5.34,0,0,1-.62,1.43,10.23,10.23,0,0,1-1.32,1.81l-.11.12h-.07l-.42-.47A12.69,12.69,0,0,1,106.9,60a7.17,7.17,0,0,1-.7-1.48A3.85,3.85,0,0,1,106.05,57.56Zm2.2,1.4a1.4,1.4,0,1,0-1.35-1.45v.07A1.37,1.37,0,0,0,108.22,59h0Z" style="fill: url(#linear-gradient-9)"/>
        </g>
      </g>
    </g>
    <circle cx="47.99" cy="74.19" r="1.62" style="fill: #fff"/>
    <circle cx="69.04" cy="66.61" r="1.62" style="fill: #fff"/>
    <circle cx="61.44" cy="53.27" r="1.62" style="fill: #fff"/>
    <circle cx="81.65" cy="75.06" r="1.62" style="fill: #fff"/>
    <circle cx="64.76" cy="92.61" r="1.62" style="fill: #fff"/>
    <circle cx="108.24" cy="57.57" r="1.62" style="fill: #fff"/>
  </g>
</svg>
