<svg width="16" height="18" viewBox="0 0 16 18" fill="none" xmlns="http://www.w3.org/2000/svg">
<g id="Places">
<path id="Trazado 114" fill-rule="evenodd" clip-rule="evenodd" d="M7.55501 9.52C7.92171 9.52066 8.28494 9.44892 8.62386 9.30889C8.96278 9.16886 9.27071 8.96331 9.53001 8.70401C9.78931 8.44471 9.99487 8.13677 10.1349 7.79785C10.2749 7.45893 10.3467 7.09571 10.346 6.729C10.3513 5.97785 10.062 5.25452 9.54031 4.7141C9.01858 4.17368 8.30588 3.85917 7.55501 3.838C7.18822 3.83721 6.82489 3.90886 6.48585 4.04882C6.14682 4.18879 5.83876 4.39433 5.57936 4.65364C5.31995 4.91296 5.11431 5.22094 4.97422 5.55992C4.83413 5.8989 4.76235 6.26221 4.76301 6.629C4.77498 7.37512 5.07002 8.08881 5.5884 8.62557C6.10678 9.16233 6.80976 9.48205 7.55501 9.52ZM2.86901 1.944C4.11168 0.70133 5.79711 0.00320433 7.55451 0.00320435C9.31191 0.00320436 10.9973 0.70133 12.24 1.944C13.4827 3.18667 14.1808 4.8721 14.1808 6.6295C14.1808 8.38691 13.5 9.5 12.24 11.315L7.55501 18L2.86901 11.315C2 10 0.999756 8.3731 0.999756 6.6295C0.999756 4.88591 1.66883 3.20879 2.86901 1.944Z" fill="#32D314"/>
</g>
</svg>
