<svg id="Layer_1" data-name="Layer 1" xmlns="http://www.w3.org/2000/svg" viewBox="0 0 2209.57 519.85"><defs><style>.cls-1{fill:#fff;}.cls-2{fill:#2cd717;}</style></defs><title>PU logo with Text</title><path class="cls-1" d="M306.44,168.42q-15.54-27.33-46.61-42.86t-76-15.55H35.33V388.82q0,31.56,12.75,53.53a81.41,81.41,0,0,0,34.7,32.89,100.69,100.69,0,0,0,19.81,7.32A118.27,118.27,0,0,0,126.91,486V351.13h56.87q27.06,0,48.93-5.73a129.5,129.5,0,0,0,28.22-10.87Q292,317.92,307,290.85t15-59.75Q322,195.75,306.44,168.42ZM226.78,280.14H182.33V257.47l-19.18,19.19-4.77,4.77L126.94,250h0l24-23.94H128.23V181.58h98.55Z"/><path class="cls-1" d="M567.21,384.34q-17,18-48.82,18a104.52,104.52,0,0,1-10.61-.51q-21.27-2.29-34.35-14.18c-1.16-1.06-2.26-2.16-3.32-3.31q-16.47-18-16.46-51.48V109.93H362.89v222.4c0,3.29.07,6.54.2,9.73q1.8,43.6,20,74.91,20.16,34.75,54.93,52a159.33,159.33,0,0,0,34.28,12.29,166.6,166.6,0,0,0,33.48-12.11,136.1,136.1,0,0,0,57.05-52q19.59-31.86,21.11-76.83Q582.24,368.36,567.21,384.34Z"/><path class="cls-2" d="M711.55,151.77l-36.61-12.71V332.33q0,49.88-21.23,84.38a136,136,0,0,1-57,52q-35.87,17.52-79.93,17.51c-3,0-6-.07-9-.19a187.3,187.3,0,0,1-35.5-4.76,167.42,167.42,0,0,0,33.5-12.12,136.1,136.1,0,0,0,57.05-52q19.59-31.86,21.11-76.83c.15-2.42.22-4.91.22-7.45V139.17l-36.26,12.6L629.78,29.6Z"/><polygon class="cls-1" points="126.95 249.98 126.95 250 126.94 249.99 126.95 249.98"/><path class="cls-1" d="M945.12,153.1a49.47,49.47,0,0,1-3.19,17.64,38.15,38.15,0,0,1-10.37,15q-7.17,6.48-18.64,10.32t-28,3.83h-7v32.7a19.27,19.27,0,0,0,.9,6.44,8.77,8.77,0,0,0,2.39,3.69,7.87,7.87,0,0,0,3.49,1.64,20.85,20.85,0,0,0,4.09.4h12.46v10.87H826.68V244.72h8.57a18.42,18.42,0,0,0,4.19-.45,6.82,6.82,0,0,0,3.34-1.84,9.55,9.55,0,0,0,2.2-4,24.33,24.33,0,0,0,.79-7V133a21.46,21.46,0,0,0-.79-6.53,8.43,8.43,0,0,0-2.25-3.74,7.31,7.31,0,0,0-3.34-1.74,17.56,17.56,0,0,0-4.09-.45h-8.62V109.83h62.71a90.08,90.08,0,0,1,24.62,3,48.29,48.29,0,0,1,17.4,8.62,35,35,0,0,1,10.37,13.6A45.73,45.73,0,0,1,945.12,153.1ZM877.92,188h5a38.64,38.64,0,0,0,12.86-1.89,19.27,19.27,0,0,0,8.62-6,26,26,0,0,0,4.89-10.57,67.6,67.6,0,0,0,1.49-15.6,65.81,65.81,0,0,0-1.34-14.21,26,26,0,0,0-4.29-10,17.62,17.62,0,0,0-7.68-5.88,30.26,30.26,0,0,0-11.61-2h-8Z"/><path class="cls-1" d="M1023.58,255.59H955.39V244.72h.6a38.93,38.93,0,0,0,6.38-.5,11.57,11.57,0,0,0,5-2,9.7,9.7,0,0,0,3.24-4.44,21.33,21.33,0,0,0,1.15-7.68V170.84a20.3,20.3,0,0,0-1-7.22,9.34,9.34,0,0,0-3-4.24,10,10,0,0,0-4.64-1.94A36.37,36.37,0,0,0,957,157h-.6V146.12h41.28l4.09,15.95h1a46.36,46.36,0,0,1,4.39-8,22.45,22.45,0,0,1,5.73-5.73,24.31,24.31,0,0,1,7.88-3.44,44.74,44.74,0,0,1,10.81-1.14q12.08,0,17.75,4.23t5.69,12.32q0,9.36-6.78,14.55t-19.15,5.19a53.47,53.47,0,0,0-.45-7.38,15.08,15.08,0,0,0-1.59-5.29,7.91,7.91,0,0,0-3.09-3.19,9.69,9.69,0,0,0-4.84-1.09,10.63,10.63,0,0,0-6.18,1.79,15.76,15.76,0,0,0-4.38,4.64,27.92,27.92,0,0,0-3,6.43,57.39,57.39,0,0,0-1.79,7.23,64.4,64.4,0,0,0-.85,6.92c-.13,2.2-.2,4.09-.2,5.69v35.29a20,20,0,0,0,1.1,7.23,9.25,9.25,0,0,0,3,4.14,10.62,10.62,0,0,0,4.54,1.84,33.23,33.23,0,0,0,5.63.45h6.58Z"/><path class="cls-1" d="M1173.63,200.45q0,28.82-13.51,43t-39.73,14.16a64.61,64.61,0,0,1-22-3.54,43.34,43.34,0,0,1-16.6-10.62,46.94,46.94,0,0,1-10.46-17.84,78.45,78.45,0,0,1-3.64-25.13q0-28.8,13.51-42.87t39.83-14a64.52,64.52,0,0,1,22,3.49,42.52,42.52,0,0,1,16.55,10.56,46.93,46.93,0,0,1,10.47,17.8A78.1,78.1,0,0,1,1173.63,200.45Zm-74.28,0a140.94,140.94,0,0,0,1.15,19.15,50.05,50.05,0,0,0,3.69,13.85,20.12,20.12,0,0,0,6.59,8.48,17.09,17.09,0,0,0,10,2.84,16.84,16.84,0,0,0,9.91-2.84,20.19,20.19,0,0,0,6.59-8.43,49.28,49.28,0,0,0,3.64-13.85A146,146,0,0,0,1142,200.5a138.28,138.28,0,0,0-1.15-19.19,48.27,48.27,0,0,0-3.69-13.71,19.28,19.28,0,0,0-6.62-8.22,19.48,19.48,0,0,0-19.94,0,19,19,0,0,0-6.58,8.22,49.28,49.28,0,0,0-3.59,13.71A147.49,147.49,0,0,0,1099.35,200.45Z"/><path class="cls-1" d="M1187.08,255.59V244.72h4.49a27.75,27.75,0,0,0,4.73-.45,12.54,12.54,0,0,0,4.69-1.84,11.12,11.12,0,0,0,3.59-4,14.26,14.26,0,0,0,1.45-7V160.08h-18.15v-14H1206V138.5a54.36,54.36,0,0,1,2.44-16.9,31.24,31.24,0,0,1,7.58-12.56,33,33,0,0,1,13-7.82,57.5,57.5,0,0,1,18.64-2.7,98.41,98.41,0,0,1,16.45,1.15,36.27,36.27,0,0,1,10.47,3.19,13.65,13.65,0,0,1,5.53,4.74,11,11,0,0,1,1.64,5.88,10.56,10.56,0,0,1-6.23,10.07q-6.21,3.18-18.89,3.19a31.21,31.21,0,0,0-.5-5.38,20.36,20.36,0,0,0-1.69-5.39,12.27,12.27,0,0,0-3.14-4.14,7.22,7.22,0,0,0-4.84-1.64,7,7,0,0,0-4.29,1.34,9.63,9.63,0,0,0-2.94,4.29,30.56,30.56,0,0,0-1.64,7.63,112.39,112.39,0,0,0-.5,11.46v11.17h28.12v14h-28.12v71.38a14.49,14.49,0,0,0,1.45,7,11,11,0,0,0,3.59,4,12.56,12.56,0,0,0,4.68,1.84,29,29,0,0,0,4.74.45h9.57v10.87Z"/><path class="cls-1" d="M1328.85,257.58a63.93,63.93,0,0,1-22.88-3.79,43.48,43.48,0,0,1-16.6-11,46.81,46.81,0,0,1-10.07-17.59,77,77,0,0,1-3.39-23.78,85,85,0,0,1,3.39-25.22,48.58,48.58,0,0,1,9.87-18.15,40.38,40.38,0,0,1,15.91-10.91,65,65,0,0,1,41.42-.5,39.52,39.52,0,0,1,15,9.32,40.62,40.62,0,0,1,9.47,15.35,62.9,62.9,0,0,1,3.29,21.34v10.46h-66.89a80.12,80.12,0,0,0,2.24,17.65,36.7,36.7,0,0,0,5.39,12.16,21.34,21.34,0,0,0,8.37,7.08,26.6,26.6,0,0,0,11.32,2.3,37,37,0,0,0,9.77-1.25,31.43,31.43,0,0,0,8.12-3.49,29.18,29.18,0,0,0,6.38-5.28,30.91,30.91,0,0,0,4.54-6.53q5.49,3,5.48,10a15.71,15.71,0,0,1-2.39,8.32,21,21,0,0,1-7.38,6.93,44.17,44.17,0,0,1-12.51,4.78A78.16,78.16,0,0,1,1328.85,257.58ZM1327,156.79q-8.58,0-13.61,8.47t-5.57,24.82h35.29a95.66,95.66,0,0,0-.9-14,38.78,38.78,0,0,0-2.84-10.47,16.52,16.52,0,0,0-5-6.58,11.93,11.93,0,0,0-7.37-2.29Z"/><path class="cls-1" d="M1430,257.58a85.63,85.63,0,0,1-18.89-1.8,39.91,39.91,0,0,1-12.76-5,20.1,20.1,0,0,1-7.18-7.58,20.63,20.63,0,0,1-2.24-9.47,14.82,14.82,0,0,1,1.94-8,14.13,14.13,0,0,1,4.89-4.74,18.34,18.34,0,0,1,6.23-2.24,35.52,35.52,0,0,1,6-.55,38.33,38.33,0,0,0,1.6,11.46,25.76,25.76,0,0,0,4.48,8.63,19.64,19.64,0,0,0,6.93,5.43,21,21,0,0,0,9,1.9,33.83,33.83,0,0,0,9.13-1.1,17.87,17.87,0,0,0,6.28-3,12.37,12.37,0,0,0,4.83-9.82,13.92,13.92,0,0,0-1.24-6,14.41,14.41,0,0,0-4.14-5,36.29,36.29,0,0,0-7.73-4.58q-4.83-2.25-12-4.74a117.48,117.48,0,0,1-14.61-6.13,45.58,45.58,0,0,1-10.67-7.38,28.06,28.06,0,0,1-6.57-9.47,31.31,31.31,0,0,1-2.25-12.21,30.86,30.86,0,0,1,3.14-14.26,27.72,27.72,0,0,1,8.93-10.12,41.19,41.19,0,0,1,13.85-6,74.72,74.72,0,0,1,18-2,70.51,70.51,0,0,1,16.45,1.64,37.34,37.34,0,0,1,11.07,4.34,18.36,18.36,0,0,1,6.28,6.08,13.37,13.37,0,0,1,2,6.88q0,6.87-4.83,10.47t-16,3.59q0-10.17-4.53-15.81T1432,155.37a24.63,24.63,0,0,0-6.33.8,16.21,16.21,0,0,0-5.29,2.39,12.43,12.43,0,0,0-3.59,3.94,11.09,11.09,0,0,0-1.34,5.53,13.54,13.54,0,0,0,1.24,5.88,14,14,0,0,0,4.39,4.94,45.82,45.82,0,0,0,8.52,4.74q5.39,2.39,13.76,5.28a91.8,91.8,0,0,1,12.51,5.43,43.85,43.85,0,0,1,9.87,7,28.61,28.61,0,0,1,6.44,9,27.64,27.64,0,0,1,2.29,11.52,37.17,37.17,0,0,1-2.94,15.15,29.58,29.58,0,0,1-8.63,11.27,39.91,39.91,0,0,1-14,7A67.19,67.19,0,0,1,1430,257.58Z"/><path class="cls-1" d="M1529.64,257.58a85.63,85.63,0,0,1-18.89-1.8,39.91,39.91,0,0,1-12.76-5,20,20,0,0,1-7.18-7.58,20.51,20.51,0,0,1-2.25-9.47,14.74,14.74,0,0,1,2-8,14.19,14.19,0,0,1,4.88-4.74,18.34,18.34,0,0,1,6.23-2.24,35.52,35.52,0,0,1,6-.55,38.65,38.65,0,0,0,1.59,11.46,25.6,25.6,0,0,0,4.49,8.63,19.64,19.64,0,0,0,6.93,5.43,21,21,0,0,0,9,1.9,33.75,33.75,0,0,0,9.12-1.1,17.87,17.87,0,0,0,6.28-3,12.49,12.49,0,0,0,3.64-4.49,12.18,12.18,0,0,0,1.2-5.33,13.78,13.78,0,0,0-1.25-6,14.41,14.41,0,0,0-4.14-5,36.22,36.22,0,0,0-7.72-4.58q-4.85-2.25-12-4.74a117.48,117.48,0,0,1-14.61-6.13,45.29,45.29,0,0,1-10.67-7.38,28.23,28.23,0,0,1-6.58-9.47,31.49,31.49,0,0,1-2.24-12.21,30.73,30.73,0,0,1,3.14-14.26,27.77,27.77,0,0,1,8.92-10.12,41.24,41.24,0,0,1,13.86-6,74.22,74.22,0,0,1,18-2,70.37,70.37,0,0,1,16.44,1.64,37.34,37.34,0,0,1,11.07,4.34,18.18,18.18,0,0,1,6.28,6.08,13.4,13.4,0,0,1,2,6.88q0,6.87-4.84,10.47t-16,3.59q0-10.17-4.54-15.81t-13.41-5.63a24.63,24.63,0,0,0-6.33.8,16.07,16.07,0,0,0-5.28,2.39,12.31,12.31,0,0,0-3.59,3.94,10.89,10.89,0,0,0-1.34,5.53,13.54,13.54,0,0,0,1.24,5.88,14,14,0,0,0,4.39,4.94,45.5,45.5,0,0,0,8.52,4.74q5.4,2.39,13.76,5.28a91.8,91.8,0,0,1,12.51,5.43,44.17,44.17,0,0,1,9.87,7,28.58,28.58,0,0,1,6.43,9,27.33,27.33,0,0,1,2.29,11.52,37.17,37.17,0,0,1-2.94,15.15,29.46,29.46,0,0,1-8.62,11.27,40,40,0,0,1-14,7A67.33,67.33,0,0,1,1529.64,257.58Z"/><path class="cls-1" d="M1588,244.72a27.93,27.93,0,0,0,4.84-.45,12.5,12.5,0,0,0,4.68-1.84,11,11,0,0,0,3.59-4,14.26,14.26,0,0,0,1.45-7v-62a12.65,12.65,0,0,0-1.45-6.53,10.66,10.66,0,0,0-3.64-3.79,12.7,12.7,0,0,0-4.73-1.75A31.25,31.25,0,0,0,1588,157h-2.39V146.12h48v85.34a14.5,14.5,0,0,0,1.44,7,11,11,0,0,0,3.59,4,12.67,12.67,0,0,0,4.74,1.84,29.52,29.52,0,0,0,4.78.45h2.39v10.87h-64.9v-10.9ZM1599.63,113a15.36,15.36,0,0,1,1.34-6.68,12.25,12.25,0,0,1,3.69-4.54,16.29,16.29,0,0,1,5.49-2.59,27.11,27.11,0,0,1,13.51,0,16.64,16.64,0,0,1,5.58,2.59,12.85,12.85,0,0,1,3.84,4.54,14.3,14.3,0,0,1,1.44,6.68,14.05,14.05,0,0,1-1.44,6.58,13.41,13.41,0,0,1-3.84,4.59,17.06,17.06,0,0,1-5.58,2.69,26.22,26.22,0,0,1-13.51,0,16.63,16.63,0,0,1-5.49-2.69,12.68,12.68,0,0,1-3.69-4.59,15.24,15.24,0,0,1-1.34-6.58Z"/><path class="cls-1" d="M1769.51,200.45q0,28.82-13.51,43t-39.73,14.16a64.36,64.36,0,0,1-22-3.54,43.15,43.15,0,0,1-16.6-10.62,47,47,0,0,1-10.47-17.84,78.45,78.45,0,0,1-3.64-25.13q0-28.8,13.51-42.87t39.83-14a64.52,64.52,0,0,1,22,3.49,42.52,42.52,0,0,1,16.55,10.56,46.8,46.8,0,0,1,10.47,17.8Q1769.52,186.11,1769.51,200.45Zm-74.27,0a142.57,142.57,0,0,0,1.14,19.15,50.76,50.76,0,0,0,3.69,13.85,20.22,20.22,0,0,0,6.63,8.43,17.16,17.16,0,0,0,10,2.84,16.85,16.85,0,0,0,9.92-2.84,20.17,20.17,0,0,0,6.58-8.43,48.61,48.61,0,0,0,3.64-13.85,146,146,0,0,0,1.1-19.15,139.84,139.84,0,0,0-1.15-19.19,48.27,48.27,0,0,0-3.69-13.71,17.81,17.81,0,0,0-33.15,0,50,50,0,0,0-3.59,13.71A148.18,148.18,0,0,0,1695.24,200.45Z"/><path class="cls-1" d="M1864.62,255.59v-67.2a70.61,70.61,0,0,0-.85-11.71,26.24,26.24,0,0,0-2.79-8.63,13.7,13.7,0,0,0-5.08-5.33,14.82,14.82,0,0,0-7.63-1.85,13.48,13.48,0,0,0-8.47,2.6,18.42,18.42,0,0,0-5.44,6.92,37.22,37.22,0,0,0-2.94,10.07,79,79,0,0,0-.89,12v39a18.72,18.72,0,0,0,1,6.88,9.5,9.5,0,0,0,2.94,4,10.35,10.35,0,0,0,4.64,1.89,39.34,39.34,0,0,0,6.13.45h.6v10.87h-62.71V244.72h.4a42.5,42.5,0,0,0,6.38-.45,12,12,0,0,0,5-1.94,9.72,9.72,0,0,0,3.34-4.29,18.8,18.8,0,0,0,1.2-7.38V170.25a18.48,18.48,0,0,0-1-6.88,9,9,0,0,0-3-4,10.26,10.26,0,0,0-4.63-1.89,36.49,36.49,0,0,0-6.09-.45h-.6V146.12H1827l2.7,14.55h1a37.83,37.83,0,0,1,6.54-9.17,26.1,26.1,0,0,1,7.32-5.18,26.94,26.94,0,0,1,8.23-2.3,79.5,79.5,0,0,1,9.12-.49,40.86,40.86,0,0,1,14.16,2.29,26.16,26.16,0,0,1,10.61,7.08,31.78,31.78,0,0,1,6.63,12.21,60.45,60.45,0,0,1,2.3,17.8v47.35a28.05,28.05,0,0,0,.84,7.63,9.19,9.19,0,0,0,2.55,4.34,8.91,8.91,0,0,0,4.28,2,33.56,33.56,0,0,0,6.08.5h.6V255.6Z"/><path class="cls-1" d="M1974.29,156a11.38,11.38,0,0,0-10.77,6.23,22.06,22.06,0,0,0-2.24,7,55.28,55.28,0,0,0-.65,8.82q-13.74,0-20.69-3.09T1933,164.38a14.45,14.45,0,0,1,3.34-9.57,24.28,24.28,0,0,1,9.07-6.48,53.46,53.46,0,0,1,13.36-3.64,109.82,109.82,0,0,1,16.3-1.14,84.15,84.15,0,0,1,18.8,1.84,34.25,34.25,0,0,1,13.36,5.93,25.08,25.08,0,0,1,8,10.72,42.78,42.78,0,0,1,2.69,16.2v52a32.24,32.24,0,0,0,.65,7,10.41,10.41,0,0,0,2,4.44,7.58,7.58,0,0,0,3.78,2.34,21,21,0,0,0,5.79.7h.79v10.87h-38l-4.16-14.06H1987q-3.39,4.08-6.38,7.13a30.89,30.89,0,0,1-6.38,5,26.31,26.31,0,0,1-7.63,2.94,47.28,47.28,0,0,1-10,.95,39.19,39.19,0,0,1-12.61-2,27.48,27.48,0,0,1-10.17-6.14,29,29,0,0,1-6.83-10.36,39.7,39.7,0,0,1-2.49-14.71q0-16.65,11.41-24.62t34.35-8.68l16.75-.6V179.22c0-3.39-.14-6.52-.4-9.37a25,25,0,0,0-1.7-7.38,10.31,10.31,0,0,0-3.83-4.79A11.9,11.9,0,0,0,1974.29,156Zm-18.15,69.19q0,8.77,2.79,13.16t8.78,4.38a16.89,16.89,0,0,0,7.92-1.84,17.81,17.81,0,0,0,6.08-5.23,24.52,24.52,0,0,0,3.89-8.23A39.93,39.93,0,0,0,1987,216.6V201.25l-9.17.6a32.78,32.78,0,0,0-10.27,1.94,16.65,16.65,0,0,0-6.68,4.54,17.49,17.49,0,0,0-3.59,7.08A38.7,38.7,0,0,0,1956.14,225.18Z"/><path class="cls-1" d="M2043.48,244.72a27.91,27.91,0,0,0,4.83-.45,12.54,12.54,0,0,0,4.69-1.84,11.12,11.12,0,0,0,3.59-4,14.39,14.39,0,0,0,1.44-7V123.69a12.76,12.76,0,0,0-1.44-6.53,10.74,10.74,0,0,0-3.64-3.79,12.58,12.58,0,0,0-4.74-1.75,31.12,31.12,0,0,0-4.73-.39h-2.4V100.46h48v131a14.5,14.5,0,0,0,1.44,7,11.22,11.22,0,0,0,3.59,4,12.67,12.67,0,0,0,4.74,1.84,29.52,29.52,0,0,0,4.78.45h2.4v10.87h-65v-10.9Z"/><path class="cls-1" d="M972.64,347.93h-8.78a16.87,16.87,0,0,0-4,.45,7,7,0,0,0-3.33,1.84,9.26,9.26,0,0,0-2.25,4,25,25,0,0,0-.79,7v79.71a54.1,54.1,0,0,1-3,18.44,34,34,0,0,1-9.17,13.86,41.66,41.66,0,0,1-15.9,8.72,77.38,77.38,0,0,1-23,3,102.1,102.1,0,0,1-23.88-2.55,47,47,0,0,1-17.76-8.11,36,36,0,0,1-11.12-14.36q-3.87-8.88-3.88-21.43V360.43a20,20,0,0,0-.85-6.53,8.69,8.69,0,0,0-2.29-3.74,7.39,7.39,0,0,0-3.29-1.74,16.32,16.32,0,0,0-3.94-.45h-8.73V337.2h70.39v10.73h-8.58a16.93,16.93,0,0,0-4,.45,7,7,0,0,0-3.33,1.84,9.26,9.26,0,0,0-2.25,4,25,25,0,0,0-.79,7v78.86a42.25,42.25,0,0,0,2.14,14.41,22.84,22.84,0,0,0,6.13,9.37,23.7,23.7,0,0,0,9.57,5.08,47.15,47.15,0,0,0,12.56,1.55,40.36,40.36,0,0,0,12.26-1.75,23.43,23.43,0,0,0,9.33-5.43,24.65,24.65,0,0,0,5.93-9.37,39,39,0,0,0,2.09-13.46V360.43a21.16,21.16,0,0,0-.8-6.53,8.5,8.5,0,0,0-2.24-3.74,7.41,7.41,0,0,0-3.34-1.74,16.81,16.81,0,0,0-4-.45h-8.57V337.2h53.44Z"/><path class="cls-1" d="M1040,468.5a54,54,0,0,0,7.63-.54q3.63-.57,6.83-1.35v13.26a33.05,33.05,0,0,1-4.34,1.69,58,58,0,0,1-6.38,1.65c-2.43.5-5.17.91-8.22,1.25a95.39,95.39,0,0,1-10,.5,44.13,44.13,0,0,1-12.46-1.65,22.23,22.23,0,0,1-9.47-5.48,25.42,25.42,0,0,1-6-10,47.46,47.46,0,0,1-2.09-15.11v-65.3H980.17V377a26,26,0,0,0,11.77-2.59,27.9,27.9,0,0,0,8.27-6q6.3-6.6,9.37-20.24h17v25.32h26.12v14h-26.12v63.21q0,9.27,3.14,13.56T1040,468.5Z"/><path class="cls-1" d="M1064.46,472.09a28.92,28.92,0,0,0,4.83-.44,12.4,12.4,0,0,0,4.69-1.85,11.12,11.12,0,0,0,3.59-4,14.39,14.39,0,0,0,1.44-7v-62a12.76,12.76,0,0,0-1.44-6.53,10.71,10.71,0,0,0-3.64-3.78,12.58,12.58,0,0,0-4.74-1.75,29.9,29.9,0,0,0-4.73-.4h-2.4V373.49h48v85.34a14.5,14.5,0,0,0,1.44,7,11.22,11.22,0,0,0,3.59,4,12.69,12.69,0,0,0,4.74,1.85,29.51,29.51,0,0,0,4.78.44h2.4v10.81H1062.1V472.09Zm11.66-131.7a15.16,15.16,0,0,1,1.35-6.67,12,12,0,0,1,3.68-4.54,15.92,15.92,0,0,1,5.49-2.59,27.11,27.11,0,0,1,13.51,0,16.26,16.26,0,0,1,5.58,2.59,12.67,12.67,0,0,1,3.84,4.54,14.25,14.25,0,0,1,1.45,6.67,14,14,0,0,1-1.45,6.58,13.19,13.19,0,0,1-3.84,4.59,16.49,16.49,0,0,1-5.58,2.69,25.8,25.8,0,0,1-13.51,0,16.25,16.25,0,0,1-5.49-2.69,12.37,12.37,0,0,1-3.68-4.59,15.11,15.11,0,0,1-1.35-6.58Z"/><path class="cls-1" d="M1136.34,472.09a28.94,28.94,0,0,0,4.84-.44,12.68,12.68,0,0,0,4.68-1.85,11,11,0,0,0,3.59-4,14.39,14.39,0,0,0,1.44-7V351.06a12.76,12.76,0,0,0-1.44-6.53,10.74,10.74,0,0,0-3.64-3.79,12.8,12.8,0,0,0-4.74-1.74,29.9,29.9,0,0,0-4.73-.4H1134V327.83h48v131a14.37,14.37,0,0,0,1.45,7,11,11,0,0,0,3.59,4,12.71,12.71,0,0,0,4.73,1.85,29.73,29.73,0,0,0,4.79.44h2.39v10.81H1134V472.09Z"/><path class="cls-1" d="M1208.22,472.09a28.94,28.94,0,0,0,4.84-.44,12.75,12.75,0,0,0,4.68-1.85,11,11,0,0,0,3.59-4,14.39,14.39,0,0,0,1.44-7v-62a12.76,12.76,0,0,0-1.44-6.53,10.71,10.71,0,0,0-3.64-3.78,12.7,12.7,0,0,0-4.73-1.75,30,30,0,0,0-4.74-.4h-2.39V373.49h48v85.34a14.37,14.37,0,0,0,1.45,7,11,11,0,0,0,3.59,4,12.71,12.71,0,0,0,4.73,1.85,29.73,29.73,0,0,0,4.79.44h2.39v10.81h-64.9V472.09Zm11.66-131.7a15.16,15.16,0,0,1,1.35-6.67,12,12,0,0,1,3.69-4.54,15.87,15.87,0,0,1,5.48-2.59,25.83,25.83,0,0,1,6.83-.85,25.5,25.5,0,0,1,6.68.85,16.31,16.31,0,0,1,5.59,2.59,12.64,12.64,0,0,1,3.83,4.54,14.25,14.25,0,0,1,1.45,6.67,14,14,0,0,1-1.45,6.58,13.06,13.06,0,0,1-3.83,4.59,16.54,16.54,0,0,1-5.59,2.69,24.68,24.68,0,0,1-6.68.9,25.08,25.08,0,0,1-6.83-.9,16.11,16.11,0,0,1-5.48-2.69,12.58,12.58,0,0,1-3.69-4.59,15.11,15.11,0,0,1-1.35-6.58Z"/><path class="cls-1" d="M1338.32,468.5A54,54,0,0,0,1346,468c2.43-.37,4.7-.82,6.83-1.35v13.26a31.71,31.71,0,0,1-4.34,1.69,58,58,0,0,1-6.38,1.65c-2.42.5-5.17.91-8.22,1.25a95.39,95.39,0,0,1-10,.5,44.13,44.13,0,0,1-12.46-1.65,22.32,22.32,0,0,1-9.48-5.48,25.42,25.42,0,0,1-6-10,47.75,47.75,0,0,1-2.09-15.11v-65.3h-15.35V377a26,26,0,0,0,11.76-2.59,28.07,28.07,0,0,0,8.28-6q6.27-6.6,9.37-20.24h16.94v25.32h26.13v14h-26.13v63.21q0,9.27,3.15,13.56T1338.32,468.5Z"/><path class="cls-1" d="M1362.78,472.09a28.94,28.94,0,0,0,4.84-.44,12.68,12.68,0,0,0,4.68-1.85,11,11,0,0,0,3.59-4,14.39,14.39,0,0,0,1.44-7v-62a12.76,12.76,0,0,0-1.44-6.53,10.71,10.71,0,0,0-3.64-3.78,12.58,12.58,0,0,0-4.74-1.75,29.9,29.9,0,0,0-4.73-.4h-2.39V373.49h48v85.34a14.37,14.37,0,0,0,1.45,7,11,11,0,0,0,3.59,4,12.71,12.71,0,0,0,4.73,1.85,29.73,29.73,0,0,0,4.79.44h2.39v10.81h-64.9V472.09Zm11.66-131.7a15.16,15.16,0,0,1,1.35-6.67,12,12,0,0,1,3.69-4.54,15.87,15.87,0,0,1,5.48-2.59,27.11,27.11,0,0,1,13.51,0,16.26,16.26,0,0,1,5.58,2.59,12.49,12.49,0,0,1,3.84,4.54,14.25,14.25,0,0,1,1.45,6.67,14,14,0,0,1-1.45,6.58,13,13,0,0,1-3.84,4.59,16.49,16.49,0,0,1-5.58,2.69,25.8,25.8,0,0,1-13.51,0,16.11,16.11,0,0,1-5.48-2.69,12.65,12.65,0,0,1-3.7-4.63,15.07,15.07,0,0,1-1.37-6.54Z"/><path class="cls-1" d="M1491.26,484.93a64.19,64.19,0,0,1-22.88-3.79,43.59,43.59,0,0,1-16.6-11,46.85,46.85,0,0,1-10.07-17.6,76.9,76.9,0,0,1-3.39-23.77,85.06,85.06,0,0,1,3.39-25.23,48.68,48.68,0,0,1,9.87-18.14,40.47,40.47,0,0,1,15.9-10.92,65,65,0,0,1,41.42-.5A39.63,39.63,0,0,1,1524,383.3a40.74,40.74,0,0,1,9.47,15.36,62.84,62.84,0,0,1,3.29,21.33v10.47h-66.94a79.54,79.54,0,0,0,2.25,17.65,36.76,36.76,0,0,0,5.38,12.16,21.34,21.34,0,0,0,8.37,7.08,26.74,26.74,0,0,0,11.32,2.29,36.57,36.57,0,0,0,9.77-1.24,32,32,0,0,0,8.13-3.49,29.51,29.51,0,0,0,6.38-5.29,30.61,30.61,0,0,0,4.53-6.53q5.49,3,5.49,10a15.67,15.67,0,0,1-2.4,8.33,21,21,0,0,1-7.37,6.92,44.44,44.44,0,0,1-12.52,4.79A78.16,78.16,0,0,1,1491.26,484.93Zm-1.9-100.8q-8.56,0-13.6,8.48t-5.54,24.82h35.29a96.43,96.43,0,0,0-.89-14,39.14,39.14,0,0,0-2.84-10.4,16.62,16.62,0,0,0-5-6.58,12,12,0,0,0-7.42-2.29Z"/><path class="cls-1" d="M1592.45,484.93a85.63,85.63,0,0,1-18.89-1.8,40.57,40.57,0,0,1-12.76-5,20,20,0,0,1-7.18-7.58,20.63,20.63,0,0,1-2.24-9.47,14.8,14.8,0,0,1,1.94-8,14.19,14.19,0,0,1,4.89-4.73,18.57,18.57,0,0,1,6.23-2.25,36.68,36.68,0,0,1,6-.55A38.71,38.71,0,0,0,1572,457a25.65,25.65,0,0,0,4.49,8.62,19.78,19.78,0,0,0,6.93,5.44,21.18,21.18,0,0,0,9,1.89,33,33,0,0,0,9.12-1.1,17.87,17.87,0,0,0,6.28-3,12.26,12.26,0,0,0,4.84-9.82,13.78,13.78,0,0,0-1.25-6,14.39,14.39,0,0,0-4.13-5,37,37,0,0,0-7.73-4.59q-4.85-2.25-12-4.74a114.53,114.53,0,0,1-14.61-6.13,45.85,45.85,0,0,1-10.67-7.37,28.33,28.33,0,0,1-6.58-9.47,31.57,31.57,0,0,1-2.24-12.22,30.82,30.82,0,0,1,3.14-14.25,27.69,27.69,0,0,1,8.92-10.12,41.16,41.16,0,0,1,13.86-6,74.22,74.22,0,0,1,18-2,70,70,0,0,1,16.45,1.65,37,37,0,0,1,11.06,4.33,18.36,18.36,0,0,1,6.28,6.08,13.4,13.4,0,0,1,2,6.88q0,6.88-4.84,10.47t-16,3.59q0-10.17-4.54-15.8t-13.4-5.63a24.62,24.62,0,0,0-6.33.79,16,16,0,0,0-5.29,2.4,12.31,12.31,0,0,0-3.59,3.94,11.09,11.09,0,0,0-1.34,5.53,13.54,13.54,0,0,0,1.24,5.88,14,14,0,0,0,4.39,4.93,45.5,45.5,0,0,0,8.52,4.74q5.38,2.4,13.76,5.28a91.86,91.86,0,0,1,12.51,5.44,43.85,43.85,0,0,1,9.87,7,28.43,28.43,0,0,1,6.43,9,27.27,27.27,0,0,1,2.3,11.51,37.25,37.25,0,0,1-2.94,15.16,29.62,29.62,0,0,1-8.63,11.26,40,40,0,0,1-14,7A66.69,66.69,0,0,1,1592.45,484.93Z"/><path class="cls-1" d="M2138.07,46.55h4a28.58,28.58,0,0,1,3.59.41,33,33,0,0,1,11.55,4.17,34.23,34.23,0,0,1,16.85,33.11,34.22,34.22,0,0,1-39.7,30.28,33.51,33.51,0,0,1-11.46-4.11,34.07,34.07,0,0,1-14.72-17,33.59,33.59,0,0,1-2.2-8.7c-.07-.7-.13-1.4-.2-2.09V78.79a.81.81,0,0,0,0-.22c.05-.93.15-1.85.28-2.76a33.11,33.11,0,0,1,3.83-11.49,34,34,0,0,1,18.64-15.9,31.62,31.62,0,0,1,7.42-1.72C2136.67,46.68,2137.37,46.62,2138.07,46.55Zm1.9,7a27.24,27.24,0,1,0,27.24,27.24h0A27.22,27.22,0,0,0,2140,53.52H2140Z"/><path class="cls-1" d="M2146,81.14l.54.18a7.8,7.8,0,0,1,3.52,2.69A17,17,0,0,1,2152,87.1c1.74,3.48,3.46,7,5.19,10.44.18.37.18.38-.23.38h-9.12a.54.54,0,0,1-.54-.36q-2.2-4.5-4.43-9a10.7,10.7,0,0,0-1.71-2.56,5.15,5.15,0,0,0-3.43-1.6c-1-.1-2.07,0-3.1-.06-.28,0-.36.1-.36.37V97.36c0,.53,0,.53-.54.53h-8.31c-.48,0-.48,0-.48-.48V62.62c0-.57,0-.58.56-.58h14.33a21.51,21.51,0,0,1,6.95,1,8.67,8.67,0,0,1,4.18,2.77,7.9,7.9,0,0,1,1.63,3.88,12.67,12.67,0,0,1-.16,5.2,8.3,8.3,0,0,1-5,5.66A9.81,9.81,0,0,1,2146,81.14Zm-11.75-7.77v4.2c0,.38,0,.39.39.39h3.44a9.68,9.68,0,0,0,2.46-.29,3.49,3.49,0,0,0,2.74-2.64,6.67,6.67,0,0,0,0-3.32,3.25,3.25,0,0,0-2.2-2.47,7.15,7.15,0,0,0-2-.38c-1.49-.1-3,0-4.48-.06-.36,0-.38,0-.38.38Z"/><rect class="cls-1" x="763.4" y="100.42" width="5.2" height="389.84"/></svg>