<svg width="28" height="34" viewBox="0 0 28 34" fill="none" xmlns="http://www.w3.org/2000/svg">
<path d="M27.7293 11.917C27.7293 13.5665 27.7293 15.2161 27.7293 16.8657C27.691 24.5536 22.2871 31.6421 14.7975 33.8515C14.2045 34.0495 13.5617 34.0495 12.9687 33.8515C5.72263 31.3366 1.41715 26.3879 0.167295 18.9111C-0.114498 17.2258 0.0484432 15.5177 0.0331076 13.8305C0.00627019 11.2873 0.0331076 8.74037 0.0331076 6.1972C0.0331076 4.86623 0.293814 4.56837 1.63952 4.5137C5.48685 4.35911 8.92395 3.11109 12.0678 0.931772C13.8659 -0.314361 13.9138 -0.30305 15.71 0.92046C18.2672 2.66618 21.0142 3.93682 24.1312 4.31386C24.8443 4.40247 25.5593 4.46091 26.2762 4.50238C27.4092 4.57214 27.7408 4.90205 27.7427 6.04073C27.7376 8.00387 27.7331 9.96262 27.7293 11.917ZM25.3293 12.4184C25.3293 10.603 25.3158 9.07028 25.3293 7.53948C25.3293 7.06817 25.1893 6.85514 24.6871 6.83818C24.2095 6.80419 23.7344 6.74123 23.2647 6.64965C20.0829 6.13793 17.0699 4.89094 14.4735 3.01117C14.0326 2.69823 13.7068 2.69634 13.2716 3.01117C10.2631 5.18249 6.71068 6.508 2.99481 6.84572C2.56541 6.88719 2.41972 7.05309 2.41972 7.46407C2.48873 10.9253 2.3047 14.3885 2.53282 17.8498C2.93346 23.924 7.39614 29.5381 13.3138 31.4064C13.6746 31.5365 14.0706 31.5365 14.4314 31.4064C20.2691 29.2987 23.804 25.2474 25.036 19.2524C25.519 16.9034 25.289 14.5091 25.3293 12.4184Z" fill="#32D314"/>
<path d="M11.3107 23.1642L6.71005 18.7358C6.55366 18.5817 6.46582 18.3728 6.46582 18.1551C6.46582 17.9374 6.55366 17.7286 6.71005 17.5745L7.95607 16.3227C8.03261 16.2456 8.12387 16.1842 8.22461 16.1419C8.32536 16.0996 8.43361 16.0773 8.54314 16.0762C8.65268 16.0752 8.76135 16.0954 8.86292 16.1357C8.96448 16.1761 9.05694 16.2358 9.135 16.3114L11.6941 18.781C11.7401 18.8263 11.8026 18.8517 11.8676 18.8517C11.9327 18.8517 11.9951 18.8263 12.0411 18.781L18.576 12.2808C18.6535 12.2044 18.7455 12.1438 18.8468 12.1024C18.9481 12.0611 19.0567 12.0398 19.1664 12.0398C19.2761 12.0398 19.3847 12.0611 19.4861 12.1024C19.5874 12.1438 19.6794 12.2044 19.7569 12.2808L21.022 13.5118C21.1784 13.6659 21.2663 13.8747 21.2663 14.0925C21.2663 14.3102 21.1784 14.519 21.022 14.6731L12.4858 23.1566C12.3301 23.3093 12.1197 23.3956 11.8999 23.397C11.68 23.3984 11.4684 23.3148 11.3107 23.1642Z" fill="#32D314"/>
</svg>
