<svg width="113" height="21" viewBox="0 0 113 21" fill="none" xmlns="http://www.w3.org/2000/svg">
<path d="M10.5 0L13.2773 6.67739L20.4861 7.25532L14.9937 11.9601L16.6717 18.9947L10.5 15.225L4.32825 18.9947L6.00626 11.9601L0.513906 7.25532L7.72271 6.67739L10.5 0Z" fill="#FFCC33"/>
<path d="M56.5 0L59.2773 6.67739L66.4861 7.25532L60.9937 11.9601L62.6717 18.9947L56.5 15.225L50.3283 18.9947L52.0063 11.9601L46.5139 7.25532L53.7227 6.67739L56.5 0Z" fill="#FFCC33"/>
<path d="M79.5 0L82.2773 6.67739L89.4861 7.25532L83.9937 11.9601L85.6717 18.9947L79.5 15.225L73.3283 18.9947L75.0063 11.9601L69.5139 7.25532L76.7227 6.67739L79.5 0Z" fill="#FFCC33"/>
<path d="M102.5 0L105.277 6.67739L112.486 7.25532L106.994 11.9601L108.672 18.9947L102.5 15.225L96.3283 18.9947L98.0063 11.9601L92.5139 7.25532L99.7227 6.67739L102.5 0Z" fill="#FFCC33"/>
<path d="M33.5 0L36.2773 6.67739L43.4861 7.25532L37.9937 11.9601L39.6717 18.9947L33.5 15.225L27.3283 18.9947L29.0063 11.9601L23.5139 7.25532L30.7227 6.67739L33.5 0Z" fill="#FFCC33"/>
</svg>
