<svg width="50" height="50" viewBox="0 0 50 50" fill="none" xmlns="http://www.w3.org/2000/svg">
<g id="Whats app">
<path id="BG" d="M25 50C38.8071 50 50 38.8071 50 25C50 11.1929 38.8071 0 25 0C11.1929 0 0 11.1929 0 25C0 38.8071 11.1929 50 25 50Z" fill="#32D314" fill-opacity="0.25"/>
<path id="Green Circle" d="M25 46C36.598 46 46 36.598 46 25C46 13.402 36.598 4 25 4C13.402 4 4 13.402 4 25C4 36.598 13.402 46 25 46Z" fill="#32D314"/>
<g id="Icon">
<g id="Group">
<path id="Vector" d="M25.0909 41.1866C22.5257 41.2822 20.1068 40.6939 17.8253 39.5441C17.4117 39.3351 17.0504 39.3202 16.6203 39.459C14.1119 40.2683 11.5959 41.0567 9.08297 41.8525C8.87244 41.9197 8.61861 42.087 8.44839 41.9436C8.21546 41.7495 8.43346 41.4822 8.50811 41.2598C9.30097 38.9021 10.0938 36.5459 10.9106 34.1957C11.0883 33.6866 11.045 33.2655 10.7926 32.7817C5.57857 22.7941 11.3869 11.1416 22.5227 9.22445C31.4801 7.68353 40.2 14.2608 41.1885 23.3033C42.1709 32.283 35.7131 40.2743 26.7319 41.1791C26.1899 41.2344 25.6389 41.1866 25.0909 41.1866ZM12.4873 37.951C14.0925 37.4418 15.5169 37.0013 16.9324 36.5355C17.3594 36.3951 17.7103 36.3951 18.1254 36.6355C20.6921 38.1257 23.4395 38.7393 26.4243 38.484C32.6731 37.951 37.9857 32.71 38.5322 26.4299C39.2817 17.8264 31.9803 10.7773 23.4022 11.824C13.5116 13.029 8.34088 24.0961 13.7684 32.4682C14.0581 32.9161 14.0984 33.2939 13.9207 33.7836C13.437 35.1095 12.9995 36.4533 12.4873 37.951Z" fill="white"/>
<path id="Vector_2" d="M20.112 17.7268C20.7541 17.6596 21.205 18.0135 21.4603 18.7213C21.7127 19.423 21.971 20.1308 22.3264 20.7833C22.8072 21.6672 22.622 22.369 21.9889 23.0812C21.2005 23.9696 21.2379 23.9801 21.9128 24.9671C23.0968 26.7021 24.6691 27.9459 26.5863 28.7865C27.1074 29.015 27.4822 28.9552 27.8181 28.5013C28.0242 28.2221 28.2631 27.9653 28.4841 27.6965C29.2351 26.7842 29.2396 26.7708 30.343 27.271C31.1583 27.6413 31.9496 28.0623 32.7634 28.4341C33.2756 28.6686 33.4323 29.0359 33.3547 29.5764C33.08 31.5234 31.0941 33.0584 29.0783 32.706C25.5247 32.0863 22.5264 30.4275 20.2121 27.6189C19.2624 26.4662 18.3367 25.2911 17.7006 23.9263C16.7331 21.8494 16.9974 19.8322 18.4024 18.3868C18.8951 17.8806 19.3132 17.7059 20.112 17.7268Z" fill="white"/>
</g>
</g>
</g>
</svg>
