<svg width="186" height="42" viewBox="0 0 186 42" fill="none" xmlns="http://www.w3.org/2000/svg">
<rect width="186" height="42" rx="6" fill="url(#paint0_linear_108_76)"/>
<path d="M27.2061 21.291V26.2744C27.0186 26.5146 26.7227 26.7754 26.3184 27.0566C25.9199 27.3379 25.3984 27.5811 24.7539 27.7861C24.1094 27.9854 23.3184 28.085 22.3809 28.085C21.5664 28.085 20.8223 27.9502 20.1484 27.6807C19.4746 27.4053 18.8945 27.0039 18.4082 26.4766C17.9219 25.9492 17.5469 25.3047 17.2832 24.543C17.0195 23.7812 16.8877 22.9111 16.8877 21.9326V21.0889C16.8877 20.1104 17.0107 19.2402 17.2568 18.4785C17.5088 17.7168 17.8662 17.0723 18.3291 16.5449C18.7979 16.0176 19.3574 15.6162 20.0078 15.3408C20.6641 15.0654 21.3965 14.9277 22.2051 14.9277C23.2891 14.9277 24.1797 15.1064 24.877 15.4639C25.5801 15.8213 26.1191 16.3135 26.4941 16.9404C26.8691 17.5615 27.1035 18.2764 27.1973 19.085H24.8418C24.7773 18.6396 24.6484 18.25 24.4551 17.916C24.2617 17.5762 23.9863 17.3125 23.6289 17.125C23.2773 16.9316 22.8203 16.835 22.2578 16.835C21.7832 16.835 21.3643 16.9287 21.001 17.1162C20.6377 17.3037 20.333 17.5762 20.0869 17.9336C19.8408 18.291 19.6533 18.7334 19.5244 19.2607C19.4014 19.7881 19.3398 20.3916 19.3398 21.0713V21.9326C19.3398 22.6182 19.4102 23.2275 19.5508 23.7607C19.6914 24.2881 19.8936 24.7334 20.1572 25.0967C20.4268 25.4541 20.7578 25.7266 21.1504 25.9141C21.5488 26.0957 22 26.1865 22.5039 26.1865C22.9609 26.1865 23.3389 26.1484 23.6377 26.0723C23.9424 25.9902 24.1855 25.8936 24.3672 25.7822C24.5488 25.6709 24.6895 25.5625 24.7891 25.457V23.0576H22.249V21.291H27.2061Z" fill="white"/>
<path d="M33.5869 28.085C32.8662 28.085 32.2188 27.9678 31.6445 27.7334C31.0703 27.499 30.5811 27.1738 30.1768 26.7578C29.7783 26.3359 29.4707 25.8467 29.2539 25.29C29.043 24.7275 28.9375 24.124 28.9375 23.4795V23.1279C28.9375 22.3955 29.043 21.7305 29.2539 21.1328C29.4648 20.5293 29.7637 20.0107 30.1504 19.5771C30.5371 19.1436 31 18.8096 31.5391 18.5752C32.0781 18.3408 32.6729 18.2236 33.3232 18.2236C33.9971 18.2236 34.5918 18.3379 35.1074 18.5664C35.623 18.7891 36.0537 19.1055 36.3994 19.5156C36.7451 19.9258 37.0059 20.418 37.1816 20.9922C37.3574 21.5605 37.4453 22.1904 37.4453 22.8818V23.8574H29.9922V22.2578H35.1602V22.082C35.1484 21.7129 35.0781 21.376 34.9492 21.0713C34.8203 20.7607 34.6211 20.5146 34.3516 20.333C34.082 20.1455 33.7334 20.0518 33.3057 20.0518C32.96 20.0518 32.6582 20.1279 32.4004 20.2803C32.1484 20.4268 31.9375 20.6377 31.7676 20.9131C31.6035 21.1826 31.4805 21.5049 31.3984 21.8799C31.3164 22.2549 31.2754 22.6709 31.2754 23.1279V23.4795C31.2754 23.8779 31.3281 24.2471 31.4336 24.5869C31.5449 24.9268 31.7061 25.2227 31.917 25.4746C32.1338 25.7207 32.3916 25.9141 32.6904 26.0547C32.9951 26.1895 33.3408 26.2568 33.7275 26.2568C34.2139 26.2568 34.6533 26.1631 35.0459 25.9756C35.4443 25.7822 35.79 25.498 36.083 25.123L37.252 26.3359C37.0527 26.6289 36.7832 26.9102 36.4434 27.1797C36.1094 27.4492 35.7051 27.6689 35.2305 27.8389C34.7559 28.0029 34.208 28.085 33.5869 28.085Z" fill="white"/>
<path d="M43.501 18.3994V20.0693H38.0518V18.3994H43.501ZM39.5107 16.0615H41.8398V25.167C41.8398 25.4482 41.8779 25.665 41.9541 25.8174C42.0303 25.9697 42.1445 26.0723 42.2969 26.125C42.4492 26.1777 42.6309 26.2041 42.8418 26.2041C42.9941 26.2041 43.1348 26.1953 43.2637 26.1777C43.3926 26.1602 43.501 26.1426 43.5889 26.125L43.5977 27.8652C43.4043 27.9297 43.1846 27.9824 42.9385 28.0234C42.6982 28.0645 42.4258 28.085 42.1211 28.085C41.5996 28.085 41.1426 27.9971 40.75 27.8213C40.3574 27.6396 40.0527 27.3496 39.8359 26.9512C39.6191 26.5469 39.5107 26.0137 39.5107 25.3516V16.0615Z" fill="white"/>
<path d="M56.8252 15.1123H59.2422V23.6113C59.2422 24.5898 59.0312 25.4131 58.6094 26.0811C58.1875 26.7432 57.6133 27.2441 56.8867 27.584C56.1602 27.918 55.334 28.085 54.4082 28.085C53.4707 28.085 52.6357 27.918 51.9033 27.584C51.1709 27.2441 50.5967 26.7432 50.1807 26.0811C49.7646 25.4131 49.5566 24.5898 49.5566 23.6113V15.1123H51.9736V23.6113C51.9736 24.209 52.0732 24.6982 52.2725 25.0791C52.4717 25.4541 52.7529 25.7324 53.1162 25.9141C53.4795 26.0957 53.9102 26.1865 54.4082 26.1865C54.9121 26.1865 55.3428 26.0957 55.7002 25.9141C56.0635 25.7324 56.3418 25.4541 56.5352 25.0791C56.7285 24.6982 56.8252 24.209 56.8252 23.6113V15.1123Z" fill="white"/>
<path d="M63.6807 20.2275V31.5654H61.3516V18.3994H63.5049L63.6807 20.2275ZM69.7891 23.0576V23.2422C69.7891 23.9336 69.707 24.5752 69.543 25.167C69.3848 25.7529 69.1504 26.2656 68.8398 26.7051C68.5293 27.1387 68.1426 27.4785 67.6797 27.7246C67.2227 27.9648 66.6953 28.085 66.0977 28.085C65.5117 28.085 65.002 27.9736 64.5684 27.751C64.1348 27.5225 63.7686 27.2002 63.4697 26.7842C63.1709 26.3682 62.9307 25.8848 62.749 25.334C62.5732 24.7773 62.4414 24.1709 62.3535 23.5146V22.9258C62.4414 22.2285 62.5732 21.5957 62.749 21.0273C62.9307 20.4531 63.1709 19.958 63.4697 19.542C63.7686 19.1201 64.1318 18.7949 64.5596 18.5664C64.9932 18.3379 65.5 18.2236 66.0801 18.2236C66.6836 18.2236 67.2139 18.3379 67.6709 18.5664C68.1338 18.7949 68.5234 19.123 68.8398 19.5508C69.1562 19.9785 69.3936 20.4883 69.5518 21.0801C69.71 21.6719 69.7891 22.3311 69.7891 23.0576ZM67.46 23.2422V23.0576C67.46 22.6357 67.4219 22.2461 67.3457 21.8887C67.2695 21.5254 67.1523 21.209 66.9941 20.9395C66.8359 20.6641 66.6309 20.4502 66.3789 20.2979C66.127 20.1455 65.8223 20.0693 65.4648 20.0693C65.1074 20.0693 64.7998 20.1279 64.542 20.2451C64.2842 20.3623 64.0732 20.5293 63.9092 20.7461C63.7451 20.9629 63.6162 21.2207 63.5225 21.5195C63.4346 21.8125 63.376 22.1377 63.3467 22.4951V23.9541C63.3994 24.3877 63.502 24.7773 63.6543 25.123C63.8066 25.4688 64.0293 25.7441 64.3223 25.9492C64.6211 26.1543 65.0078 26.2568 65.4824 26.2568C65.8398 26.2568 66.1445 26.1777 66.3965 26.0195C66.6484 25.8613 66.8535 25.6445 67.0117 25.3691C67.1699 25.0879 67.2842 24.7656 67.3545 24.4023C67.4248 24.0391 67.46 23.6523 67.46 23.2422Z" fill="white"/>
<path d="M77.1895 25.8877V14.4092H79.5273V27.9092H77.418L77.1895 25.8877ZM71.0811 23.2686V23.084C71.0811 22.3574 71.1631 21.6982 71.3271 21.1064C71.4971 20.5088 71.7432 19.9961 72.0654 19.5684C72.3877 19.1406 72.7773 18.8096 73.2344 18.5752C73.6973 18.3408 74.2217 18.2236 74.8076 18.2236C75.376 18.2236 75.8711 18.3379 76.293 18.5664C76.7207 18.7949 77.084 19.1201 77.3828 19.542C77.6875 19.9639 77.9307 20.4648 78.1123 21.0449C78.2939 21.6191 78.4258 22.252 78.5078 22.9434V23.4443C78.4258 24.1182 78.2939 24.7363 78.1123 25.2988C77.9307 25.8613 77.6875 26.3535 77.3828 26.7754C77.084 27.1914 76.7207 27.5137 76.293 27.7422C75.8652 27.9707 75.3643 28.085 74.79 28.085C74.21 28.085 73.6885 27.9648 73.2256 27.7246C72.7686 27.4844 72.3789 27.1475 72.0566 26.7139C71.7402 26.2803 71.4971 25.7705 71.3271 25.1846C71.1631 24.5986 71.0811 23.96 71.0811 23.2686ZM73.4102 23.084V23.2686C73.4102 23.6787 73.4453 24.0625 73.5156 24.4199C73.5859 24.7773 73.7002 25.0938 73.8584 25.3691C74.0166 25.6387 74.2188 25.8496 74.4648 26.002C74.7168 26.1543 75.0215 26.2305 75.3789 26.2305C75.8359 26.2305 76.2109 26.1309 76.5039 25.9316C76.8027 25.7266 77.0342 25.4482 77.1982 25.0967C77.3623 24.7393 77.4678 24.3379 77.5146 23.8926V22.5127C77.4912 22.1611 77.4297 21.8359 77.3301 21.5371C77.2363 21.2383 77.1016 20.9805 76.9258 20.7637C76.7559 20.5469 76.5449 20.377 76.293 20.2539C76.041 20.1309 75.7422 20.0693 75.3965 20.0693C75.0391 20.0693 74.7344 20.1484 74.4824 20.3066C74.2305 20.459 74.0254 20.6729 73.8672 20.9482C73.709 21.2236 73.5918 21.543 73.5156 21.9062C73.4453 22.2695 73.4102 22.6621 73.4102 23.084Z" fill="white"/>
<path d="M86.8662 25.8877V21.502C86.8662 21.1797 86.8105 20.9014 86.6992 20.667C86.5879 20.4326 86.418 20.251 86.1895 20.1221C85.9609 19.9932 85.6709 19.9287 85.3193 19.9287C85.0088 19.9287 84.7363 19.9814 84.502 20.0869C84.2734 20.1924 84.0977 20.3418 83.9746 20.5352C83.8516 20.7227 83.79 20.9395 83.79 21.1855H81.4609C81.4609 20.793 81.5547 20.4209 81.7422 20.0693C81.9297 19.7119 82.1963 19.3955 82.542 19.1201C82.8936 18.8389 83.3125 18.6191 83.7988 18.4609C84.291 18.3027 84.8418 18.2236 85.4512 18.2236C86.1719 18.2236 86.8135 18.3467 87.376 18.5928C87.9443 18.833 88.3896 19.1963 88.7119 19.6826C89.04 20.1689 89.2041 20.7812 89.2041 21.5195V25.668C89.2041 26.1426 89.2334 26.5498 89.292 26.8896C89.3564 27.2236 89.4502 27.5137 89.5732 27.7598V27.9092H87.209C87.0977 27.6689 87.0127 27.3643 86.9541 26.9951C86.8955 26.6201 86.8662 26.251 86.8662 25.8877ZM87.1914 22.1172L87.209 23.4971H85.7412C85.3779 23.4971 85.0586 23.5352 84.7832 23.6113C84.5078 23.6816 84.2822 23.7871 84.1064 23.9277C83.9307 24.0625 83.7988 24.2266 83.7109 24.4199C83.623 24.6074 83.5791 24.8213 83.5791 25.0615C83.5791 25.2959 83.6318 25.5068 83.7373 25.6943C83.8486 25.8818 84.0068 26.0312 84.2119 26.1426C84.4229 26.248 84.6689 26.3008 84.9502 26.3008C85.3604 26.3008 85.7178 26.2188 86.0225 26.0547C86.3271 25.8848 86.5645 25.6797 86.7344 25.4395C86.9043 25.1992 86.9951 24.9707 87.0068 24.7539L87.6748 25.7559C87.5928 25.9961 87.4697 26.251 87.3057 26.5205C87.1416 26.79 86.9307 27.042 86.6729 27.2764C86.415 27.5107 86.1045 27.7041 85.7412 27.8564C85.3779 28.0088 84.9561 28.085 84.4756 28.085C83.8604 28.085 83.3096 27.9619 82.8232 27.7158C82.3369 27.4697 81.9531 27.1328 81.6719 26.7051C81.3906 26.2773 81.25 25.791 81.25 25.2461C81.25 24.7422 81.3438 24.2969 81.5312 23.9102C81.7188 23.5234 81.9971 23.1982 82.3662 22.9346C82.7354 22.665 83.1924 22.4629 83.7373 22.3281C84.2881 22.1875 84.918 22.1172 85.627 22.1172H87.1914Z" fill="white"/>
<path d="M95.7959 18.3994V20.0693H90.3467V18.3994H95.7959ZM91.8057 16.0615H94.1348V25.167C94.1348 25.4482 94.1729 25.665 94.249 25.8174C94.3252 25.9697 94.4395 26.0723 94.5918 26.125C94.7441 26.1777 94.9258 26.2041 95.1367 26.2041C95.2891 26.2041 95.4297 26.1953 95.5586 26.1777C95.6875 26.1602 95.7959 26.1426 95.8838 26.125L95.8926 27.8652C95.6992 27.9297 95.4795 27.9824 95.2334 28.0234C94.9932 28.0645 94.7207 28.085 94.416 28.085C93.8945 28.085 93.4375 27.9971 93.0449 27.8213C92.6523 27.6396 92.3477 27.3496 92.1309 26.9512C91.9141 26.5469 91.8057 26.0137 91.8057 25.3516V16.0615Z" fill="white"/>
<path d="M101.614 28.085C100.894 28.085 100.246 27.9678 99.6719 27.7334C99.0977 27.499 98.6084 27.1738 98.2041 26.7578C97.8057 26.3359 97.498 25.8467 97.2812 25.29C97.0703 24.7275 96.9648 24.124 96.9648 23.4795V23.1279C96.9648 22.3955 97.0703 21.7305 97.2812 21.1328C97.4922 20.5293 97.791 20.0107 98.1777 19.5771C98.5645 19.1436 99.0273 18.8096 99.5664 18.5752C100.105 18.3408 100.7 18.2236 101.351 18.2236C102.024 18.2236 102.619 18.3379 103.135 18.5664C103.65 18.7891 104.081 19.1055 104.427 19.5156C104.772 19.9258 105.033 20.418 105.209 20.9922C105.385 21.5605 105.473 22.1904 105.473 22.8818V23.8574H98.0195V22.2578H103.188V22.082C103.176 21.7129 103.105 21.376 102.977 21.0713C102.848 20.7607 102.648 20.5146 102.379 20.333C102.109 20.1455 101.761 20.0518 101.333 20.0518C100.987 20.0518 100.686 20.1279 100.428 20.2803C100.176 20.4268 99.9648 20.6377 99.7949 20.9131C99.6309 21.1826 99.5078 21.5049 99.4258 21.8799C99.3438 22.2549 99.3027 22.6709 99.3027 23.1279V23.4795C99.3027 23.8779 99.3555 24.2471 99.4609 24.5869C99.5723 24.9268 99.7334 25.2227 99.9443 25.4746C100.161 25.7207 100.419 25.9141 100.718 26.0547C101.022 26.1895 101.368 26.2568 101.755 26.2568C102.241 26.2568 102.681 26.1631 103.073 25.9756C103.472 25.7822 103.817 25.498 104.11 25.123L105.279 26.3359C105.08 26.6289 104.811 26.9102 104.471 27.1797C104.137 27.4492 103.732 27.6689 103.258 27.8389C102.783 28.0029 102.235 28.085 101.614 28.085Z" fill="white"/>
<path d="M112.258 25.3076C112.258 25.1084 112.205 24.9297 112.1 24.7715C111.994 24.6133 111.795 24.4697 111.502 24.3408C111.215 24.2061 110.793 24.0801 110.236 23.9629C109.744 23.8574 109.29 23.7256 108.874 23.5674C108.458 23.4092 108.101 23.2188 107.802 22.9961C107.503 22.7676 107.269 22.501 107.099 22.1963C106.935 21.8857 106.853 21.5283 106.853 21.124C106.853 20.7314 106.938 20.3623 107.107 20.0166C107.277 19.665 107.523 19.3574 107.846 19.0938C108.168 18.8242 108.561 18.6133 109.023 18.4609C109.486 18.3027 110.008 18.2236 110.588 18.2236C111.396 18.2236 112.091 18.3555 112.671 18.6191C113.257 18.8828 113.705 19.2461 114.016 19.709C114.326 20.166 114.481 20.6816 114.481 21.2559H112.161C112.161 21.0039 112.103 20.7754 111.985 20.5703C111.874 20.3652 111.701 20.2012 111.467 20.0781C111.232 19.9492 110.937 19.8848 110.579 19.8848C110.257 19.8848 109.984 19.9375 109.762 20.043C109.545 20.1484 109.381 20.2861 109.27 20.4561C109.158 20.626 109.103 20.8135 109.103 21.0186C109.103 21.1709 109.132 21.3086 109.19 21.4316C109.255 21.5488 109.357 21.6572 109.498 21.7568C109.639 21.8564 109.829 21.9473 110.069 22.0293C110.315 22.1113 110.617 22.1904 110.975 22.2666C111.684 22.4072 112.302 22.5947 112.829 22.8291C113.362 23.0576 113.778 23.3623 114.077 23.7432C114.376 24.124 114.525 24.6104 114.525 25.2021C114.525 25.624 114.435 26.0107 114.253 26.3623C114.071 26.708 113.808 27.0098 113.462 27.2676C113.116 27.5254 112.703 27.7275 112.223 27.874C111.742 28.0146 111.2 28.085 110.597 28.085C109.724 28.085 108.985 27.9297 108.382 27.6191C107.778 27.3027 107.321 26.9043 107.011 26.4238C106.7 25.9375 106.545 25.4336 106.545 24.9121H108.769C108.786 25.2812 108.886 25.5771 109.067 25.7998C109.249 26.0225 109.478 26.1836 109.753 26.2832C110.034 26.377 110.33 26.4238 110.641 26.4238C110.992 26.4238 111.288 26.377 111.528 26.2832C111.769 26.1836 111.95 26.0518 112.073 25.8877C112.196 25.7178 112.258 25.5244 112.258 25.3076Z" fill="white"/>
<path d="M120.361 23.251V23.0664C120.361 22.3691 120.461 21.7275 120.66 21.1416C120.859 20.5498 121.149 20.0371 121.53 19.6035C121.911 19.1699 122.377 18.833 122.928 18.5928C123.479 18.3467 124.105 18.2236 124.809 18.2236C125.523 18.2236 126.156 18.3467 126.707 18.5928C127.264 18.833 127.732 19.1699 128.113 19.6035C128.494 20.0371 128.784 20.5498 128.983 21.1416C129.183 21.7275 129.282 22.3691 129.282 23.0664V23.251C129.282 23.9424 129.183 24.584 128.983 25.1758C128.784 25.7617 128.494 26.2744 128.113 26.7139C127.732 27.1475 127.267 27.4844 126.716 27.7246C126.165 27.9648 125.535 28.085 124.826 28.085C124.123 28.085 123.493 27.9648 122.937 27.7246C122.38 27.4844 121.911 27.1475 121.53 26.7139C121.149 26.2744 120.859 25.7617 120.66 25.1758C120.461 24.584 120.361 23.9424 120.361 23.251ZM122.682 23.0664V23.251C122.682 23.667 122.723 24.0566 122.805 24.4199C122.887 24.7832 123.013 25.1025 123.183 25.3779C123.353 25.6533 123.572 25.8701 123.842 26.0283C124.117 26.1807 124.445 26.2568 124.826 26.2568C125.201 26.2568 125.523 26.1807 125.793 26.0283C126.062 25.8701 126.282 25.6533 126.452 25.3779C126.628 25.1025 126.757 24.7832 126.839 24.4199C126.921 24.0566 126.962 23.667 126.962 23.251V23.0664C126.962 22.6562 126.921 22.2725 126.839 21.915C126.757 21.5518 126.628 21.2324 126.452 20.957C126.282 20.6758 126.06 20.4561 125.784 20.2979C125.515 20.1338 125.189 20.0518 124.809 20.0518C124.434 20.0518 124.111 20.1338 123.842 20.2979C123.572 20.4561 123.353 20.6758 123.183 20.957C123.013 21.2324 122.887 21.5518 122.805 21.915C122.723 22.2725 122.682 22.6562 122.682 23.0664Z" fill="white"/>
<path d="M133.246 20.4297V27.9092H130.926V18.3994H133.105L133.246 20.4297ZM132.877 22.8115H132.191C132.197 22.1201 132.291 21.4932 132.473 20.9307C132.654 20.3682 132.909 19.8848 133.237 19.4805C133.571 19.0762 133.967 18.7656 134.424 18.5488C134.881 18.332 135.391 18.2236 135.953 18.2236C136.41 18.2236 136.823 18.2881 137.192 18.417C137.562 18.5459 137.878 18.751 138.142 19.0322C138.411 19.3135 138.616 19.6826 138.757 20.1396C138.903 20.5908 138.977 21.1475 138.977 21.8096V27.9092H136.639V21.792C136.639 21.3584 136.574 21.0156 136.445 20.7637C136.322 20.5117 136.141 20.333 135.9 20.2275C135.666 20.1221 135.376 20.0693 135.03 20.0693C134.673 20.0693 134.359 20.1426 134.09 20.2891C133.826 20.4297 133.604 20.626 133.422 20.8779C133.246 21.1299 133.111 21.4199 133.018 21.748C132.924 22.0762 132.877 22.4307 132.877 22.8115Z" fill="white"/>
<g clip-path="url(#clip0_108_76)">
<path d="M146 32.4091L147.696 26.5294C146.648 24.8036 146.097 22.8491 146.103 20.8511C146.103 14.5903 151.467 9.5 158.052 9.5C161.249 9.5 164.252 10.6814 166.504 12.8264C168.762 14.9714 170.006 17.8241 170 20.8566C170 27.1174 164.636 32.2077 158.046 32.2077H158.04C156.04 32.2077 154.074 31.7286 152.327 30.8248L146 32.4091ZM152.63 28.7724L152.991 28.9793C154.516 29.8394 156.264 30.2913 158.046 30.2968H158.052C163.524 30.2968 167.983 26.0666 167.983 20.862C167.983 18.3413 166.951 15.9731 165.077 14.1874C163.203 12.4017 160.705 11.4218 158.052 11.4218C152.579 11.4164 148.12 15.6465 148.12 20.8511C148.12 22.6314 148.642 24.368 149.639 25.8706L149.874 26.23L148.871 29.7088L152.63 28.7724Z" fill="white"/>
<path d="M146.418 32.0117L148.057 26.3334C147.043 24.673 146.51 22.7838 146.51 20.8566C146.516 14.8136 151.69 9.89746 158.051 9.89746C161.14 9.89746 164.034 11.0407 166.212 13.1095C168.39 15.1783 169.587 17.9331 169.587 20.862C169.587 26.9051 164.407 31.8212 158.051 31.8212H158.046C156.114 31.8212 154.218 31.3584 152.533 30.4873L146.418 32.0117Z" fill="#5F9F1B"/>
<path d="M146 32.4091L147.696 26.5294C146.648 24.8036 146.097 22.8491 146.103 20.8511C146.103 14.5903 151.467 9.5 158.052 9.5C161.249 9.5 164.252 10.6814 166.504 12.8264C168.762 14.9714 170.006 17.8241 170 20.8566C170 27.1174 164.636 32.2077 158.046 32.2077H158.04C156.04 32.2077 154.074 31.7286 152.327 30.8248L146 32.4091ZM152.63 28.7724L152.991 28.9793C154.516 29.8394 156.264 30.2913 158.046 30.2968H158.052C163.524 30.2968 167.983 26.0666 167.983 20.862C167.983 18.3413 166.951 15.9731 165.077 14.1874C163.203 12.4017 160.705 11.4218 158.052 11.4218C152.579 11.4164 148.12 15.6465 148.12 20.8511C148.12 22.6314 148.642 24.368 149.639 25.8706L149.874 26.23L148.871 29.7088L152.63 28.7724Z" fill="white"/>
<path fill-rule="evenodd" clip-rule="evenodd" d="M155.066 16.1038C154.842 15.6302 154.607 15.6193 154.395 15.6138C154.223 15.6084 154.023 15.6084 153.822 15.6084C153.622 15.6084 153.301 15.6792 153.026 15.9623C152.751 16.2454 151.983 16.9313 151.983 18.3305C151.983 19.7242 153.054 21.0744 153.203 21.2649C153.352 21.4554 155.272 24.4116 158.304 25.5495C160.825 26.4968 161.341 26.3062 161.885 26.2572C162.43 26.2082 163.65 25.5712 163.902 24.9071C164.149 24.2429 164.149 23.6767 164.074 23.5569C164 23.4371 163.799 23.3664 163.501 23.2248C163.203 23.0833 161.736 22.3973 161.461 22.2993C161.186 22.2067 160.986 22.1577 160.791 22.4408C160.59 22.7239 160.017 23.3609 159.845 23.5515C159.673 23.742 159.496 23.7638 159.198 23.6222C158.9 23.4807 157.937 23.1812 156.796 22.2122C155.908 21.4609 155.306 20.5299 155.135 20.2468C154.963 19.9637 155.117 19.8113 155.266 19.6698C155.398 19.5445 155.564 19.3377 155.713 19.1743C155.862 19.011 155.914 18.8912 156.011 18.7007C156.109 18.5101 156.063 18.3468 155.988 18.2053C155.914 18.0692 155.329 16.6646 155.066 16.1038Z" fill="white"/>
</g>
<defs>
<linearGradient id="paint0_linear_108_76" x1="92.4805" y1="-10.9773" x2="92.9189" y2="42.0007" gradientUnits="userSpaceOnUse">
<stop stop-color="#B0D02D"/>
<stop offset="1" stop-color="#1C760B"/>
</linearGradient>
<clipPath id="clip0_108_76">
<rect x="146" y="9.5" width="24" height="22.9091" rx="6" fill="white"/>
</clipPath>
</defs>
</svg>
