<svg xmlns="http://www.w3.org/2000/svg" viewBox="0 0 20 20"><title>banner-tick_1</title><g id="Layer_2" data-name="Layer 2"><g id="color"><path d="M20,10A10,10,0,1,1,10,0a9.85,9.85,0,0,1,5.56,1.7.08.08,0,0,1,0,.13L13.88,3.51a.09.09,0,0,1-.11,0,7.5,7.5,0,1,0-3.4,14,7.54,7.54,0,0,0,7.11-7,7.35,7.35,0,0,0-.67-3.63.09.09,0,0,1,0-.09l1.57-2a.09.09,0,0,1,.15,0A9.87,9.87,0,0,1,20,10Z" fill="#32d314"/><path d="M9.88,13.63,5.15,8.7a.09.09,0,0,1,0-.12L6.28,7.14a.09.09,0,0,1,.13,0l3.22,2a.09.09,0,0,0,.12,0l9.08-9a.09.09,0,0,1,.13,0L20,1a.09.09,0,0,1,0,.13L10,13.62A.08.08,0,0,1,9.88,13.63Z" fill="#32d314"/></g></g></svg>