<svg xmlns="http://www.w3.org/2000/svg" xmlns:xlink="http://www.w3.org/1999/xlink" viewBox="0 0 367.17 632.38"><defs><linearGradient id="New_Gradient_Swatch_1" x1="74.09" y1="119.72" x2="74.09" y2="87.2" gradientUnits="userSpaceOnUse"><stop offset="0" stop-color="#00568b"/><stop offset="1" stop-color="#003964"/></linearGradient><linearGradient id="New_Gradient_Swatch_1-2" x1="73.73" y1="69.18" x2="-1.17" y2="-5.72" xlink:href="#New_Gradient_Swatch_1"/><linearGradient id="New_Gradient_Swatch_1-3" x1="230.81" y1="6.24" x2="231.67" y2="86.51" xlink:href="#New_Gradient_Swatch_1"/><linearGradient id="New_Gradient_Swatch_4" x1="74.09" y1="253.42" x2="74.09" y2="220.9" gradientUnits="userSpaceOnUse"><stop offset="0" stop-color="#40aa00"/><stop offset="1" stop-color="#32d314"/></linearGradient><linearGradient id="New_Gradient_Swatch_4-2" x1="73.73" y1="202.88" x2="-1.17" y2="127.98" xlink:href="#New_Gradient_Swatch_4"/><linearGradient id="New_Gradient_Swatch_4-3" x1="231.02" y1="224.24" x2="231.02" y2="143.11" xlink:href="#New_Gradient_Swatch_4"/><linearGradient id="New_Gradient_Swatch_1-4" x1="74.09" y1="411.26" x2="74.09" y2="333.12" xlink:href="#New_Gradient_Swatch_1"/><linearGradient id="New_Gradient_Swatch_1-5" x1="115.85" y1="378.7" x2="13.85" y2="276.71" xlink:href="#New_Gradient_Swatch_1"/><linearGradient id="New_Gradient_Swatch_1-6" x1="231.91" y1="276.65" x2="230.21" y2="351.8" xlink:href="#New_Gradient_Swatch_1"/><linearGradient id="New_Gradient_Swatch_4-4" x1="74.09" y1="544.96" x2="74.09" y2="466.82" xlink:href="#New_Gradient_Swatch_4"/><linearGradient id="New_Gradient_Swatch_4-5" x1="115.85" y1="512.41" x2="13.85" y2="410.41" xlink:href="#New_Gradient_Swatch_4"/><linearGradient id="New_Gradient_Swatch_4-6" x1="231.02" y1="491.42" x2="231.02" y2="409.44" xlink:href="#New_Gradient_Swatch_4"/><linearGradient id="New_Gradient_Swatch_1-7" x1="115.85" y1="646.11" x2="13.85" y2="544.11" xlink:href="#New_Gradient_Swatch_1"/><linearGradient id="New_Gradient_Swatch_1-8" x1="230.45" y1="543.86" x2="233.23" y2="624.41" xlink:href="#New_Gradient_Swatch_1"/><pattern id="New_Pattern" data-name="New Pattern" width="229.58" height="151.36" patternTransform="translate(108.42 0)" patternUnits="userSpaceOnUse" viewBox="0 0 229.58 151.37"><rect width="229.58" height="151.36" fill="none"/><path d="M56.18,95.25a10.41,10.41,0,0,1,.44,5.17,9.08,9.08,0,0,1-2.44,4.74,13.2,13.2,0,0,1-1.93,1.63,16.07,16.07,0,0,1-3.74,1.82L44,110.19l3.74,10.73a12.17,12.17,0,0,1-2.05.4,6.43,6.43,0,0,1-1.75,0,6.68,6.68,0,0,1-3.68-1.66,8.88,8.88,0,0,1-2.51-3.89L30,93.56l11.8-4.11a14.28,14.28,0,0,1,6.49-.87,8.79,8.79,0,0,1,4.91,2.11A10.59,10.59,0,0,1,56.18,95.25Zm-6.27,6.55-2.73-7.87-7.84,2.73,1.24,3.54,1.81-.62-1.25,2.57h0l3.39,1.64.25-.52,1-2.06.63,1.81L50,101.79Z" fill="#0c3c63"/><path d="M80,96.69a13.06,13.06,0,0,1,.47,6.71,11.3,11.3,0,0,1-3.1,5.72A12.38,12.38,0,0,1,75.05,111,15.74,15.74,0,0,1,72,111a10.87,10.87,0,0,1-5.81-2.62,13.94,13.94,0,0,1-3.66-5.4l-.27-.78L56.07,84.44l7.23-2.51,6.18,17.75a6.14,6.14,0,0,0,2.74,3.65,1.27,1.27,0,0,0,.33.16,4.71,4.71,0,0,0,3.13.19c.29-.07.58-.17.86-.26a5.36,5.36,0,0,0,3.4-2.78A5.49,5.49,0,0,0,80,96.69Z" fill="#0c3c63"/><path d="M75,70.69l-3.14,12,2.52-2,5.36,15.38.21.6a13.07,13.07,0,0,1,.46,6.71,11.28,11.28,0,0,1-3.09,5.73A12.32,12.32,0,0,1,75,111a16.13,16.13,0,0,0,3-.6l.71-.24a15.36,15.36,0,0,0,5.89-3.61,11.82,11.82,0,0,0,3.1-5.72,13.32,13.32,0,0,0-.65-7.33L81.71,78.1H85Z" fill="#2cd717"/><path d="M41.17,102.14Z" fill="#0c3c63"/><path d="M102.8,70.44a3,3,0,0,0-1.2-.82,4.15,4.15,0,0,0-1.61-.19,7.21,7.21,0,0,0-2,.43L93,71.6l.3.85.67-.24a1.3,1.3,0,0,1,.33-.07.62.62,0,0,1,.61.26,1.37,1.37,0,0,1,.26.51l2.71,7.8a2.74,2.74,0,0,1,.13.59,1.33,1.33,0,0,1-.07.38,1.06,1.06,0,0,1-.23.24,1.11,1.11,0,0,1-.31.15l-.67.23.31.89,5.92-2.07-.3-.85-1,.35a1.32,1.32,0,0,1-.33.08.76.76,0,0,1-.34,0,.8.8,0,0,1-.27-.22,2.3,2.3,0,0,1-.25-.47l-.9-2.59.57-.19a7.22,7.22,0,0,0,2.12-1.1,4.53,4.53,0,0,0,1.21-1.33,3.47,3.47,0,0,0,.39-1.49,4.12,4.12,0,0,0-.24-1.51A3,3,0,0,0,102.8,70.44Zm-5.41.77L98,71a2.07,2.07,0,0,1,1-.18,1.16,1.16,0,0,1,.76.25,2.1,2.1,0,0,1,.63.66,7.16,7.16,0,0,1,.5,1.09,5.11,5.11,0,0,1,.32,1.28,2.52,2.52,0,0,1-.09,1,1.62,1.62,0,0,1-.51.69,3.36,3.36,0,0,1-1,.5l-.39.14Z" fill="#0c3c63"/><path d="M112.39,76.87l-.53.18a1.57,1.57,0,0,1-.48.13.79.79,0,0,1-.4,0,.59.59,0,0,1-.36-.23,3.4,3.4,0,0,1-.27-.54l-1-2.8-.16-.46a3,3,0,0,1-.13-.6,3,3,0,0,1,0-1.19,1.93,1.93,0,0,1,.23-.48.91.91,0,0,1,.45-.32.55.55,0,0,1,.41-.06.89.89,0,0,1,.34.16,1,1,0,0,1,.29.38,3,3,0,0,1,.24.59,2.53,2.53,0,0,0,1.38-1,1.49,1.49,0,0,0,.12-1.35,1.29,1.29,0,0,0-.8-.84,2.45,2.45,0,0,0-1.54.14,3.7,3.7,0,0,0-.82.41,1.86,1.86,0,0,0-.54.5,2.52,2.52,0,0,0-.3.62,7.11,7.11,0,0,0-.13.76l-.07,0-.76-1.17-3.3,1.15.3.85h0a3,3,0,0,1,.51-.14,1,1,0,0,1,.41,0,.91.91,0,0,1,.37.27,4.53,4.53,0,0,1,.27.54l1.65,4.75a1.91,1.91,0,0,1,.1.64.79.79,0,0,1-.12.44,1.38,1.38,0,0,1-.34.28,2.5,2.5,0,0,1-.49.2l0,0,.29.85,5.43-1.89Z" fill="#0c3c63"/><path d="M122.19,67.38a3.71,3.71,0,0,0-1.34-1.12,3.46,3.46,0,0,0-1.61-.4,4.91,4.91,0,0,0-1.83.32,4.28,4.28,0,0,0-2.77,2.2,5.05,5.05,0,0,0,.12,3.77,5.85,5.85,0,0,0,1,1.89A3.4,3.4,0,0,0,117,75.17a3.33,3.33,0,0,0,1.61.39,4.91,4.91,0,0,0,1.83-.32A4.41,4.41,0,0,0,123.24,73a5.21,5.21,0,0,0-.13-3.81A8.61,8.61,0,0,0,122.19,67.38Zm-5.49,2.35a4.06,4.06,0,0,1-.1-1.2,1.57,1.57,0,0,1,.31-.82,1.68,1.68,0,0,1,1.59-.56,1.37,1.37,0,0,1,.75.46,3.81,3.81,0,0,1,.67,1,13.77,13.77,0,0,1,.64,1.48,7.67,7.67,0,0,1,.46,1.55,4.4,4.4,0,0,1,.1,1.2,1.4,1.4,0,0,1-1,1.34,1.37,1.37,0,0,1-.85.06,1.51,1.51,0,0,1-.77-.49,4,4,0,0,1-.66-1,10.29,10.29,0,0,1-.64-1.49C117,70.73,116.83,70.24,116.7,69.73Z" fill="#0c3c63"/><path d="M131.58,71.18l-.29-.85-.75.26a1.67,1.67,0,0,1-.4.1,1.29,1.29,0,0,1-.44,0,.82.82,0,0,1-.39-.22,1.89,1.89,0,0,1-.31-.53l-2-5.67,2.23-.77-.38-1.1-2.23.77-.31-.88a9.34,9.34,0,0,1-.29-.94,4.48,4.48,0,0,1-.06-.65,1.37,1.37,0,0,1,.12-.44.71.71,0,0,1,.32-.23.56.56,0,0,1,.44,0,.76.76,0,0,1,.36.23,2.55,2.55,0,0,1,.29.38,2.13,2.13,0,0,1,.18.41,3.37,3.37,0,0,0,1.4-.77.89.89,0,0,0,.21-1,1.21,1.21,0,0,0-.3-.42,1,1,0,0,0-.56-.24,4.85,4.85,0,0,0-.94,0,8.5,8.5,0,0,0-1.34.35,5.79,5.79,0,0,0-1.42.73,3,3,0,0,0-.8,1,2.27,2.27,0,0,0-.26,1.2,5.9,5.9,0,0,0,.29,1.41l.21.6-1.45.51.38,1.09,1.45-.5,2,5.67a1.06,1.06,0,0,1,.09.6.89.89,0,0,1-.17.42,2.79,2.79,0,0,1-.34.28,1.84,1.84,0,0,1-.38.17l-.36.12.3.85Z" fill="#0c3c63"/><path d="M138.31,68.72a3.79,3.79,0,0,0,.86-.74,2,2,0,0,0,.41-.78,1.53,1.53,0,0,0-.06-.73.87.87,0,0,0-.7-.63,1.83,1.83,0,0,1-.17.65,2,2,0,0,1-.35.6,2.34,2.34,0,0,1-.53.51A3.27,3.27,0,0,1,137,68a2.09,2.09,0,0,1-.94.14,1.85,1.85,0,0,1-.87-.34,2.36,2.36,0,0,1-.76-.81,6.53,6.53,0,0,1-.67-1.35l5.31-1.85-.28-.82a4.86,4.86,0,0,0-.84-1.61,3.25,3.25,0,0,0-1.17-.95,3.49,3.49,0,0,0-1.46-.32,5.23,5.23,0,0,0-3.28,1.18,3.8,3.8,0,0,0-1,1.33,3.93,3.93,0,0,0-.27,1.73,6.77,6.77,0,0,0,.42,2.11,7.18,7.18,0,0,0,.93,1.78,4.42,4.42,0,0,0,1.31,1.14,3.66,3.66,0,0,0,1.62.43,5.59,5.59,0,0,0,1.92-.31A3.22,3.22,0,0,0,138.31,68.72Zm-4.22-7.23a.67.67,0,0,1,.63,0,1.19,1.19,0,0,1,.57.39,3.73,3.73,0,0,1,.51.78,9.55,9.55,0,0,1,.45,1.07l-2.79,1a4.33,4.33,0,0,1-.24-2.15,1.31,1.31,0,0,1,.87-1Z" fill="#0c3c63"/><path d="M146.5,66a3.69,3.69,0,0,0,.9-.95,2.3,2.3,0,0,0,.37-1.12,3.18,3.18,0,0,0-.17-1.3,2.4,2.4,0,0,0-.5-.86,2.55,2.55,0,0,0-.74-.53,2.66,2.66,0,0,0-1-.3,6.19,6.19,0,0,0-1.14-.08,7.85,7.85,0,0,1-1.25,0,5.27,5.27,0,0,1-.81-.15,1.29,1.29,0,0,1-.49-.27,1.07,1.07,0,0,1-.26-.42,1.05,1.05,0,0,1-.05-.47.86.86,0,0,1,.18-.41,2.24,2.24,0,0,1,.36-.33,2.29,2.29,0,0,1,.47-.24,1.42,1.42,0,0,1,1.22.09,2.1,2.1,0,0,1,.8,1.15,2.08,2.08,0,0,0,1.18-.73,1.12,1.12,0,0,0,.09-1,1.1,1.1,0,0,0-.32-.49,1.2,1.2,0,0,0-.67-.32,2.88,2.88,0,0,0-1-.05,6.13,6.13,0,0,0-1.36.32,5.15,5.15,0,0,0-1.37.63A3.32,3.32,0,0,0,140,59a2.43,2.43,0,0,0-.28,2.28,3.6,3.6,0,0,0,.51.89,3.2,3.2,0,0,0,1.86.87,8.79,8.79,0,0,0,1.34.09c.44,0,.8,0,1.09.06a2.06,2.06,0,0,1,.73.14,1.22,1.22,0,0,1,.45.28A1.09,1.09,0,0,1,146,64a1,1,0,0,1-.12.92,1.64,1.64,0,0,1-.41.42,6.66,6.66,0,0,1-.72.33,1.67,1.67,0,0,1-.76.1,1.85,1.85,0,0,1-.71-.22,2.05,2.05,0,0,1-.59-.55,3,3,0,0,1-.46-.88,1.82,1.82,0,0,0-.45.2,1.27,1.27,0,0,0-.44.35,2.57,2.57,0,0,0-.25.53,1.23,1.23,0,0,0,.08.68,2.06,2.06,0,0,0,.43.68,1.68,1.68,0,0,0,.78.41,3.77,3.77,0,0,0,1.16,0,7.07,7.07,0,0,0,1.54-.37A10.72,10.72,0,0,0,146.5,66Z" fill="#0c3c63"/><path d="M154.4,63.23a3.26,3.26,0,0,0,.9-.95,2.23,2.23,0,0,0,.37-1.12,3,3,0,0,0-.17-1.29A2.19,2.19,0,0,0,155,59a2.55,2.55,0,0,0-.74-.53,2.66,2.66,0,0,0-1-.3,6.19,6.19,0,0,0-1.14-.08,7.9,7.9,0,0,1-1.25,0,4.47,4.47,0,0,1-.81-.16,1.36,1.36,0,0,1-.49-.26,1,1,0,0,1-.26-.43.88.88,0,0,1,0-.46.93.93,0,0,1,.17-.42,2.12,2.12,0,0,1,.36-.32,2.07,2.07,0,0,1,.47-.24,1.45,1.45,0,0,1,1.23.09,2.09,2.09,0,0,1,.79,1.15,2.36,2.36,0,0,0,1.18-.73,1.14,1.14,0,0,0,.1-1,1.15,1.15,0,0,0-.33-.48,1.2,1.2,0,0,0-.67-.32,2.88,2.88,0,0,0-1-.05,5.73,5.73,0,0,0-1.36.32,5.29,5.29,0,0,0-1.37.63,3.32,3.32,0,0,0-.94.85,2.81,2.81,0,0,0-.42,1.06,2.67,2.67,0,0,0,.15,1.22,3.06,3.06,0,0,0,.51.89,2.85,2.85,0,0,0,.79.56,3,3,0,0,0,1.06.31,8.79,8.79,0,0,0,1.34.09c.44,0,.81,0,1.09.05a2.32,2.32,0,0,1,.73.15,1.15,1.15,0,0,1,.45.28,1,1,0,0,1,.27.42,1,1,0,0,1,0,.46,1.48,1.48,0,0,1-.16.46,1.37,1.37,0,0,1-.41.42,4.25,4.25,0,0,1-.68.31,1.68,1.68,0,0,1-.76.11,1.79,1.79,0,0,1-.72-.23,2.18,2.18,0,0,1-.59-.55,3,3,0,0,1-.46-.87,2,2,0,0,0-.45.2,1.13,1.13,0,0,0-.43.35,1.14,1.14,0,0,0-.17,1.21,1.91,1.91,0,0,0,.43.68,1.68,1.68,0,0,0,.78.41,4.1,4.1,0,0,0,1.16,0,7.88,7.88,0,0,0,1.54-.38A8.72,8.72,0,0,0,154.4,63.23Z" fill="#0c3c63"/><path d="M157.11,61.3l.29.85,5.18-1.8-.3-.85-.18.06a1.38,1.38,0,0,1-.4.1,1.29,1.29,0,0,1-.44,0,.82.82,0,0,1-.39-.22,1.51,1.51,0,0,1-.31-.53l-2.37-6.8-3.82,1.33.29.85.18-.06a1.8,1.8,0,0,1,.4-.1,1.28,1.28,0,0,1,.44,0,2.48,2.48,0,0,1,.4.22,1.55,1.55,0,0,1,.29.49l1.71,4.93a1.06,1.06,0,0,1,.09.6.89.89,0,0,1-.17.42,2.2,2.2,0,0,1-.34.28,1.63,1.63,0,0,1-.38.17Zm-2.27-10.38a1,1,0,0,0,.41.26,1,1,0,0,0,.5.06,1.84,1.84,0,0,0,1.06-.37,1,1,0,0,0,.39-.37.87.87,0,0,0,.2-.47,1.69,1.69,0,0,0-.08-.56A1.49,1.49,0,0,0,157,49a1.08,1.08,0,0,0-.45-.24,1.06,1.06,0,0,0-.53,0,1.84,1.84,0,0,0-1.06.37,1.23,1.23,0,0,0-.36.36,1.08,1.08,0,0,0-.16.45,1.79,1.79,0,0,0,.08.57A1.44,1.44,0,0,0,154.84,50.92Z" fill="#0c3c63"/><path d="M169.57,50.88a3.8,3.8,0,0,0-1.34-1.12,3.33,3.33,0,0,0-1.61-.39,5,5,0,0,0-1.84.32A4.26,4.26,0,0,0,162,51.88a5.08,5.08,0,0,0,.12,3.78,5.63,5.63,0,0,0,1,1.88,3.8,3.8,0,0,0,1.34,1.12,3.46,3.46,0,0,0,1.61.4,5.35,5.35,0,0,0,1.83-.32,4.45,4.45,0,0,0,2.76-2.24,5.19,5.19,0,0,0-.13-3.8A5.88,5.88,0,0,0,169.57,50.88Zm-5.46,2.34A4,4,0,0,1,164,52a1.47,1.47,0,0,1,.53-1.1,1.5,1.5,0,0,1,2.13.18,4,4,0,0,1,.66,1,12,12,0,0,1,.64,1.48,7.67,7.67,0,0,1,.46,1.55,4.06,4.06,0,0,1,.1,1.2,1.4,1.4,0,0,1-1,1.34,1.24,1.24,0,0,1-.85.06,1.51,1.51,0,0,1-.77-.49,4,4,0,0,1-.66-1,12,12,0,0,1-.64-1.48C164.42,54.22,164.28,53.72,164.11,53.22Z" fill="#0c3c63"/><path d="M183.22,53.12l-.29-.85h0a3,3,0,0,1-.51.14.61.61,0,0,1-.4,0,.78.78,0,0,1-.34-.28,1.84,1.84,0,0,1-.28-.58l-1.31-3.75a4.93,4.93,0,0,0-.67-1.36,2.76,2.76,0,0,0-.86-.77,2.34,2.34,0,0,0-1.05-.27,4.22,4.22,0,0,0-1.2.22,4.76,4.76,0,0,0-.69.28,2.41,2.41,0,0,0-.58.4,2.5,2.5,0,0,0-.42.62,2.94,2.94,0,0,0-.27.93l-.07,0-.62-1.09L170.22,48l.31.89h0a3,3,0,0,1,.51-.14.69.69,0,0,1,.4,0,.54.54,0,0,1,.36.23,2.73,2.73,0,0,1,.26.51l1.68,4.82a1.78,1.78,0,0,1,.1.64,1,1,0,0,1-.16.45,1.38,1.38,0,0,1-.34.28,2.66,2.66,0,0,1-.48.2l0,0,.3.85,5-1.74-.29-.85h0a2.73,2.73,0,0,1-.51.14.92.92,0,0,1-.4,0,.64.64,0,0,1-.36-.23,2.67,2.67,0,0,1-.25-.51l-1.09-3.12a8.32,8.32,0,0,1-.26-1,5.57,5.57,0,0,1,0-.9,1.5,1.5,0,0,1,.23-.72,1.35,1.35,0,0,1,1.25-.51,1.68,1.68,0,0,1,.54.29,2.07,2.07,0,0,1,.44.6,6.64,6.64,0,0,1,.4.89l1.86,5.35Z" fill="#0c3c63"/><path d="M186.24,43.41a1.15,1.15,0,0,1,.45.28,1.82,1.82,0,0,1,.35.55,5.22,5.22,0,0,1,.3.73l.31.89-1.34.5A5.33,5.33,0,0,0,183.82,48a2.36,2.36,0,0,0-.25,2.27,3.83,3.83,0,0,0,.62,1.09A2.23,2.23,0,0,0,185,52a2.38,2.38,0,0,0,1,.21,3.24,3.24,0,0,0,1-.2,3.38,3.38,0,0,0,.75-.34,3.35,3.35,0,0,0,.52-.46,2.8,2.8,0,0,0,.36-.56c.08-.23.2-.47.3-.74l.14,0,.71,1,3-1-.3-.85-.07,0a2.5,2.5,0,0,1-.49.09.54.54,0,0,1-.34-.08,1.18,1.18,0,0,1-.27-.31,3.35,3.35,0,0,1-.23-.55L189.7,44a4.43,4.43,0,0,0-.66-1.2,2.37,2.37,0,0,0-.93-.63,3.18,3.18,0,0,0-1.23-.09,7.78,7.78,0,0,0-1.53.38,8.25,8.25,0,0,0-1.28.56,4.28,4.28,0,0,0-1,.65,3.83,3.83,0,0,0-.53.78,1.09,1.09,0,0,0,0,.85,1,1,0,0,0,.86.65,4.11,4.11,0,0,0,1.72-.32,2.59,2.59,0,0,1-.21-.72,1.5,1.5,0,0,1,0-.63.9.9,0,0,1,.68-.79A1,1,0,0,1,186.24,43.41Zm-.2,6.07a2.82,2.82,0,0,1-.15-.79A1.28,1.28,0,0,1,186,48a1.41,1.41,0,0,1,.41-.54,3.12,3.12,0,0,1,.76-.43l.73-.29.42,1.2a3.81,3.81,0,0,1,.19.89,2.84,2.84,0,0,1-.09.75,2,2,0,0,1-.35.6,1.47,1.47,0,0,1-.59.36.79.79,0,0,1-.83-.11,2.19,2.19,0,0,1-.59-1Z" fill="#0c3c63"/><path d="M193.36,48.68l.29.85,5.17-1.8-.29-.85-.18.06a1.8,1.8,0,0,1-.4.1,1.29,1.29,0,0,1-.44,0,.82.82,0,0,1-.39-.22,1.51,1.51,0,0,1-.31-.53l-3.63-10.41-3.82,1.33.28.81.18-.06a1.38,1.38,0,0,1,.4-.1,1.28,1.28,0,0,1,.44,0,2.36,2.36,0,0,1,.39.22,1.47,1.47,0,0,1,.3.49l3,8.58a1.42,1.42,0,0,1,.09.6.89.89,0,0,1-.17.42,2.2,2.2,0,0,1-.34.28,1.84,1.84,0,0,1-.38.17Z" fill="#0c3c63"/><path d="M110.8,85.65l-4.25,1.48.29.85.67-.24a1.28,1.28,0,0,1,.34-.07.91.91,0,0,1,.33,0,.93.93,0,0,1,.27.22,1.37,1.37,0,0,1,.26.51l2.22,6.38a3.76,3.76,0,0,1,.19,1.12,1.73,1.73,0,0,1-.2.91,2,2,0,0,1-.59.68,3.44,3.44,0,0,1-1,.49,3.17,3.17,0,0,1-1,.24,2.48,2.48,0,0,1-.88-.13,2.33,2.33,0,0,1-.75-.57,3.11,3.11,0,0,1-.57-1.08L104,90.21a2.69,2.69,0,0,1-.12-.59,1.76,1.76,0,0,1,.06-.38.63.63,0,0,1,.2-.23,1,1,0,0,1,.31-.14l.67-.24-.29-.85-5.6,2,.29.85.71-.25a1.21,1.21,0,0,1,.33-.07,1,1,0,0,1,.3,0,.86.86,0,0,1,.28.23,1.38,1.38,0,0,1,.25.5l2.17,6.24a4.33,4.33,0,0,0,.92,1.59,2.83,2.83,0,0,0,1.28.82,4,4,0,0,0,1.64.15,8.91,8.91,0,0,0,2-.46,6.62,6.62,0,0,0,1.76-.89,3.78,3.78,0,0,0,1-1.15,2.5,2.5,0,0,0,.36-1.36,4.21,4.21,0,0,0-.26-1.53L110,88.1a2.69,2.69,0,0,1-.12-.59,1.31,1.31,0,0,1,.06-.38.63.63,0,0,1,.2-.23,1,1,0,0,1,.31-.14l.71-.25Z" fill="#0c3c63"/><path d="M118.94,94.21a1.76,1.76,0,0,1-.61-1l-1.76-5,2.1-.73-.39-1.1-2.09.73-.7-2-1.35.47a3.86,3.86,0,0,1-.19,1.85,2.94,2.94,0,0,1-.51.69,2.17,2.17,0,0,1-.85.54l.29.81,1.24-.43,1.82,5.25a5,5,0,0,0,.6,1.14,1.91,1.91,0,0,0,.73.62,1.64,1.64,0,0,0,.89.16,3.32,3.32,0,0,0,1-.2,7.12,7.12,0,0,0,.76-.31c.2-.11.44-.23.6-.33A2.26,2.26,0,0,0,121,95a2.86,2.86,0,0,0,.31-.27L121,93.71a5.54,5.54,0,0,1-.5.29,4.35,4.35,0,0,1-.59.25A1.1,1.1,0,0,1,118.94,94.21Z" fill="#0c3c63"/><path d="M121.93,93.89l-.18.06.3.85,5.17-1.8-.29-.85-.18.06a1.38,1.38,0,0,1-.4.1.82.82,0,0,1-.44,0,1,1,0,0,1-.4-.23,1.65,1.65,0,0,1-.3-.53l-2.37-6.8L119,86.08l.3.85.18-.06a1.8,1.8,0,0,1,.4-.1,1.29,1.29,0,0,1,.44,0,1.11,1.11,0,0,1,.38.18,1.59,1.59,0,0,1,.29.5l1.72,4.92a1.67,1.67,0,0,1,.09.61.85.85,0,0,1-.17.41,2.1,2.1,0,0,1-.34.28,1.43,1.43,0,0,1-.38.17Zm-2.42-10.36a1.05,1.05,0,0,0,.41.25,1.07,1.07,0,0,0,.5.07,1.91,1.91,0,0,0,1.06-.37,1.09,1.09,0,0,0,.39-.38.87.87,0,0,0,.2-.46,1.79,1.79,0,0,0-.08-.57,1.59,1.59,0,0,0-.29-.5,1.21,1.21,0,0,0-.45-.24,1.06,1.06,0,0,0-.53,0,1.91,1.91,0,0,0-1.06.37,1.23,1.23,0,0,0-.36.36,1.2,1.2,0,0,0-.16.45,1.52,1.52,0,0,0,.08.57A1.59,1.59,0,0,0,119.51,83.53Z" fill="#0c3c63"/><path d="M127.65,91.82l-.18.06.29.85,5.18-1.8-.3-.85-.17.06a1.45,1.45,0,0,1-.41.1,1.3,1.3,0,0,1-.44,0,1,1,0,0,1-.39-.22,1.89,1.89,0,0,1-.3-.53L127.3,79.07l-3.83,1.33.3.85.17-.06a1.45,1.45,0,0,1,.41-.1,1.3,1.3,0,0,1,.44,0,2.11,2.11,0,0,1,.39.23,1.44,1.44,0,0,1,.29.49l3,8.57a1.67,1.67,0,0,1,.09.61.93.93,0,0,1-.17.42,1.68,1.68,0,0,1-.34.27,1.17,1.17,0,0,1-.38.17Z" fill="#0c3c63"/><path d="M133.38,89.9l-.18.07.29.85L138.67,89l-.3-.85-.18.07a1.67,1.67,0,0,1-.4.1,1.6,1.6,0,0,1-.44,0,.82.82,0,0,1-.39-.22,1.65,1.65,0,0,1-.3-.53l-2.37-6.8-3.83,1.33.3.85.17-.06a1.38,1.38,0,0,1,.4-.1,1.3,1.3,0,0,1,.44,0,1.41,1.41,0,0,1,.39.19,1.55,1.55,0,0,1,.29.49l1.71,4.93a1.42,1.42,0,0,1,.09.6.89.89,0,0,1-.17.42,2.2,2.2,0,0,1-.34.28,1.84,1.84,0,0,1-.38.17ZM131,79.54a1,1,0,0,0,.41.26.94.94,0,0,0,.5.06,2.68,2.68,0,0,0,.55-.11,2.73,2.73,0,0,0,.51-.26,1.38,1.38,0,0,0,.39-.37.86.86,0,0,0,.19-.47,1.46,1.46,0,0,0-.37-1.06.94.94,0,0,0-.44-.24,1.24,1.24,0,0,0-.54-.06,3.15,3.15,0,0,0-.55.12,3.44,3.44,0,0,0-.51.25,1.25,1.25,0,0,0-.35.37,1,1,0,0,0-.16.45,1.54,1.54,0,0,0,.08.57A.73.73,0,0,0,131,79.54Z" fill="#0c3c63"/><path d="M142.69,86a1.71,1.71,0,0,1-.62-1l-1.75-5,2.09-.73-.39-1.1-2.09.73-.7-2-1.35.47a3.85,3.85,0,0,1-.19,1.85,3,3,0,0,1-.51.7,2.15,2.15,0,0,1-.85.53l.29.82,1.27-.45L139.72,86a4.59,4.59,0,0,0,.6,1.14,1.84,1.84,0,0,0,.73.62,2,2,0,0,0,.89.16,3.26,3.26,0,0,0,1-.2,5.63,5.63,0,0,0,.77-.31l.6-.32a4.16,4.16,0,0,0,.45-.32,1.1,1.1,0,0,0,.3-.26l-.37-1.07c-.13.09-.33.2-.49.29a3.17,3.17,0,0,1-.59.25A1.09,1.09,0,0,1,142.69,86Z" fill="#0c3c63"/><path d="M145.67,85.62l-.18.06.3.85,5.17-1.8-.29-.85-.18.06a1.38,1.38,0,0,1-.4.1,1.3,1.3,0,0,1-.44,0,.84.84,0,0,1-.4-.22,1.65,1.65,0,0,1-.3-.53l-2.37-6.8-3.83,1.33.3.85.18-.06a1.38,1.38,0,0,1,.4-.1,1.3,1.3,0,0,1,.44,0,1.35,1.35,0,0,1,.38.19,1.44,1.44,0,0,1,.29.49l1.72,4.93a1.59,1.59,0,0,1,.09.6.89.89,0,0,1-.17.42,2.2,2.2,0,0,1-.34.28,1.84,1.84,0,0,1-.38.17ZM143,74.77a1.76,1.76,0,0,0,.29.49,1,1,0,0,0,.41.26,1.08,1.08,0,0,0,.5.06,1.91,1.91,0,0,0,1.06-.37,1.16,1.16,0,0,0,.39-.37.87.87,0,0,0,.2-.47,1.46,1.46,0,0,0-.37-1.06,1,1,0,0,0-.45-.24,1.19,1.19,0,0,0-.53-.06,1.91,1.91,0,0,0-1.06.37,1.54,1.54,0,0,0-.36.36,1.19,1.19,0,0,0-.16.46,1.79,1.79,0,0,0,.08.57Z" fill="#0c3c63"/><path d="M157.58,82.39a3.5,3.5,0,0,0,.85-.73,2,2,0,0,0,.41-.78,1.56,1.56,0,0,0-.06-.74.87.87,0,0,0-.7-.63,2.13,2.13,0,0,1-.16.66,2.1,2.1,0,0,1-.35.6,2.15,2.15,0,0,1-.54.5,3.46,3.46,0,0,1-.74.38,2.15,2.15,0,0,1-.95.13,1.88,1.88,0,0,1-.87-.33,2.46,2.46,0,0,1-.76-.81,6.61,6.61,0,0,1-.67-1.36l5.31-1.85-.29-.85a4.86,4.86,0,0,0-.84-1.61A3.14,3.14,0,0,0,156,74a3,3,0,0,0-1.46-.33,5.34,5.34,0,0,0-3.29,1.18,3.9,3.9,0,0,0-1,1.33,4.12,4.12,0,0,0-.28,1.73,7.46,7.46,0,0,0,.42,2.12,7.21,7.21,0,0,0,.94,1.78,4.26,4.26,0,0,0,1.31,1.13,3.41,3.41,0,0,0,1.62.43,5.59,5.59,0,0,0,1.92-.31A5.82,5.82,0,0,0,157.58,82.39Zm-4.27-7.33a1,1,0,0,1,.68,0,1.3,1.3,0,0,1,.58.39,3.17,3.17,0,0,1,.49.74c.16.35.32.69.46,1.08l-2.8,1a4,4,0,0,1-.27-2.13,1.28,1.28,0,0,1,.86-1Z" fill="#0c3c63"/><path d="M165.72,79.64a3.7,3.7,0,0,0,.9-1,2.25,2.25,0,0,0,.36-1.12,3,3,0,0,0-.17-1.29,2.12,2.12,0,0,0-.5-.86,2.44,2.44,0,0,0-.74-.54,2.79,2.79,0,0,0-1-.3,6.19,6.19,0,0,0-1.14-.08,6.71,6.71,0,0,1-1.24,0,5.06,5.06,0,0,1-.81-.15,1.29,1.29,0,0,1-.49-.27,1.09,1.09,0,0,1-.27-.42,1,1,0,0,1,0-.47.85.85,0,0,1,.17-.41,3.6,3.6,0,0,1,.36-.33,2.39,2.39,0,0,1,.48-.24,1.42,1.42,0,0,1,1.22.09,2,2,0,0,1,.79,1.12,2.37,2.37,0,0,0,1.17-.73,1.14,1.14,0,0,0,.1-1,1.1,1.1,0,0,0-.33-.48,1.14,1.14,0,0,0-.67-.32,2.87,2.87,0,0,0-1,0,5.73,5.73,0,0,0-1.36.32,5,5,0,0,0-1.37.63,3.44,3.44,0,0,0-.94.84,3,3,0,0,0-.42,1.07,2.67,2.67,0,0,0,.15,1.22,3.2,3.2,0,0,0,.51.89,3.07,3.07,0,0,0,.79.56,3.24,3.24,0,0,0,1.06.31,8.76,8.76,0,0,0,1.34.08c.44,0,.81,0,1.09.06a2.32,2.32,0,0,1,.73.15,1.13,1.13,0,0,1,.45.27,1.05,1.05,0,0,1,.27.43,1,1,0,0,1-.12.91,1.18,1.18,0,0,1-.41.42,3.89,3.89,0,0,1-.68.32,1.68,1.68,0,0,1-.76.11,2,2,0,0,1-.72-.23,2.15,2.15,0,0,1-.58-.55,2.84,2.84,0,0,1-.47-.87,2.53,2.53,0,0,0-.45.19,1.35,1.35,0,0,0-.43.35,2.14,2.14,0,0,0-.25.53,1.28,1.28,0,0,0,.08.69,2,2,0,0,0,.43.68,1.58,1.58,0,0,0,.78.4,3.77,3.77,0,0,0,1.16,0,7.88,7.88,0,0,0,1.54-.38C164.83,80.06,165.3,79.82,165.72,79.64Z" fill="#0c3c63"/><path d="M195.47,30.22a3.24,3.24,0,0,0-.55.35,3,3,0,0,0-1,1.8,2.38,2.38,0,0,0,0,1,.41.41,0,0,0,0,.22h0l.12.32.06.18a2.42,2.42,0,0,0,.42.65,2.93,2.93,0,0,0,1.64.94,3.24,3.24,0,0,0,1,0,.4.4,0,0,0,.19,0,2.89,2.89,0,0,0-.13-5.64,3,3,0,0,0-1,0,.72.72,0,0,0-.29.06l-.32.11C195.52,30.25,195.48,30.26,195.47,30.22Zm.46.52h0a2.27,2.27,0,0,1,2.91,1.41h0a2.29,2.29,0,1,1-2.91-1.41Z" fill="#0c3c63"/><path d="M197.27,32.65a.68.68,0,0,0,.23-.59.83.83,0,0,0-.15-.43,1.25,1.25,0,0,0-.25-.27.57.57,0,0,0-.39-.1,3.63,3.63,0,0,0-.59.13l-1.14.39s0,0,0,0l1,2.76s0,0,.05,0l.67-.24s0,0,0,0l-.34-1s0,0,0,0l.25-.09a.86.86,0,0,1,.33,0,.8.8,0,0,1,.22.17c.19.21.41.37.6.58,0,0,0,0,0,0l.71-.24s0,0,0-.05c-.23-.2-.47-.43-.71-.67a.63.63,0,0,0-.23-.2.6.6,0,0,0-.35-.11h0S197.25,32.7,197.27,32.65Zm-1.35-.56s0,0,0-.05l.35-.12h.15c.12,0,.18.05.26.15a.31.31,0,0,1,.08.24.33.33,0,0,1-.14.29.44.44,0,0,1-.2.11l-.28.1s0,0,0,0l-.11-.32Z" fill="#0c3c63"/><polygon points="98.47 103.65 98.9 103.5 88.09 72.46 87.66 72.61 98.47 103.65" fill="#0c3c63"/></pattern></defs><title>how-to-apply-for-iec-code</title><g id="Layer_18" data-name="Layer 18"><polygon points="97.63 83.34 50.55 130.42 50.55 51.68 97.63 83.34" fill="url(#New_Gradient_Swatch_1)"/><path d="M8.83,14H67A30.59,30.59,0,0,1,97.63,44.61V83.34a0,0,0,0,1,0,0H39.43A30.59,30.59,0,0,1,8.83,52.75V14A0,0,0,0,1,8.83,14Z" fill="url(#New_Gradient_Swatch_1-2)"/><path d="M51,46.73a27.26,27.26,0,0,1-.45,5.21,11.52,11.52,0,0,1-1.46,3.89,6.6,6.6,0,0,1-2.61,2.45,8.45,8.45,0,0,1-3.93.84,7.44,7.44,0,0,1-4.77-1.48A8.54,8.54,0,0,1,35,53.38a21.72,21.72,0,0,1-.89-6.65,24.23,24.23,0,0,1,.81-6.7,8.33,8.33,0,0,1,2.67-4.26,7.65,7.65,0,0,1,4.93-1.49,7.47,7.47,0,0,1,4.76,1.48A8.67,8.67,0,0,1,50.07,40,21.6,21.6,0,0,1,51,46.73Zm-11.8,0a28,28,0,0,0,.31,4.59,6,6,0,0,0,1,2.77,2.42,2.42,0,0,0,2,.92,2.44,2.44,0,0,0,2-.92,5.93,5.93,0,0,0,1-2.75,28.06,28.06,0,0,0,.32-4.61,28.06,28.06,0,0,0-.32-4.61,6.06,6.06,0,0,0-1-2.78,2.42,2.42,0,0,0-2-.93,2.4,2.4,0,0,0-2,.93,6.06,6.06,0,0,0-1,2.78A28.2,28.2,0,0,0,39.18,46.73Z" fill="#fff"/><path d="M66.18,58.79h-5.1v-14c0-.39,0-.86,0-1.43s0-1.15,0-1.75,0-1.14.07-1.62c-.12.14-.37.38-.73.73s-.72.66-1,.93l-2.77,2.23-2.46-3.07L62,34.66h4.19Z" fill="#fff"/><path d="M358.34,44V89.5h-248V28.85A35.76,35.76,0,0,0,103.71,8H322.37A36,36,0,0,1,358.34,44Z" fill="url(#New_Gradient_Swatch_1-3)"/><polygon points="97.63 217.05 50.55 264.12 50.55 185.38 97.63 217.05" fill="url(#New_Gradient_Swatch_4)"/><path d="M8.83,147.72H67a30.59,30.59,0,0,1,30.59,30.59V217a0,0,0,0,1,0,0H39.43A30.59,30.59,0,0,1,8.83,186.45V147.72A0,0,0,0,1,8.83,147.72Z" fill="url(#New_Gradient_Swatch_4-2)"/><path d="M51,181.43a27.19,27.19,0,0,1-.45,5.21,11.66,11.66,0,0,1-1.46,3.9A6.65,6.65,0,0,1,46.46,193a8.45,8.45,0,0,1-3.93.84,7.44,7.44,0,0,1-4.77-1.48A8.55,8.55,0,0,1,35,188.09a21.83,21.83,0,0,1-.89-6.66,24.1,24.1,0,0,1,.81-6.69,8.32,8.32,0,0,1,2.67-4.27A7.64,7.64,0,0,1,42.53,169a7.47,7.47,0,0,1,4.76,1.47,8.67,8.67,0,0,1,2.78,4.26A21.64,21.64,0,0,1,51,181.43Zm-11.8,0a27.85,27.85,0,0,0,.31,4.59,6,6,0,0,0,1,2.77,2.67,2.67,0,0,0,4,0,5.93,5.93,0,0,0,1-2.76,33.37,33.37,0,0,0,0-9.22,6,6,0,0,0-1-2.77,2.4,2.4,0,0,0-2-.94,2.38,2.38,0,0,0-2,.94,6,6,0,0,0-1,2.77A28.28,28.28,0,0,0,39.18,181.43Z" fill="#fff"/><path d="M70.43,193.49H53.57v-3.55l6.06-6.12q1.83-1.87,2.94-3.14a10.91,10.91,0,0,0,1.62-2.3,5.16,5.16,0,0,0,.5-2.23,2.7,2.7,0,0,0-.8-2.15,3.06,3.06,0,0,0-2.14-.72,6.13,6.13,0,0,0-2.72.64,13.94,13.94,0,0,0-2.75,1.83l-2.78-3.28a22.94,22.94,0,0,1,2.21-1.68,9.93,9.93,0,0,1,2.7-1.28,12.26,12.26,0,0,1,3.71-.49,9,9,0,0,1,4.08.86,6.37,6.37,0,0,1,2.63,2.33,6.15,6.15,0,0,1,.93,3.34A8.42,8.42,0,0,1,69,179.2a13.28,13.28,0,0,1-2.31,3.27c-1,1.08-2.22,2.27-3.64,3.58L59.92,189v.23H70.43Z" fill="#fff"/><path d="M358.34,178.08v45.54h-248V163a35.82,35.82,0,0,0-6.67-20.87H322.37A36,36,0,0,1,358.34,178.08Z" fill="url(#New_Gradient_Swatch_4-3)"/><polygon points="97.63 350.75 50.55 397.82 50.55 319.08 97.63 350.75" fill="url(#New_Gradient_Swatch_1-4)"/><path d="M8.83,281.42H67A30.59,30.59,0,0,1,97.63,312v38.73a0,0,0,0,1,0,0H39.43A30.59,30.59,0,0,1,8.83,320.16V281.42A0,0,0,0,1,8.83,281.42Z" fill="url(#New_Gradient_Swatch_1-5)"/><path d="M51,314.13a27.29,27.29,0,0,1-.45,5.22,11.6,11.6,0,0,1-1.46,3.89,6.58,6.58,0,0,1-2.61,2.44,8.45,8.45,0,0,1-3.93.85,7.5,7.5,0,0,1-4.77-1.48A8.63,8.63,0,0,1,35,320.79a21.74,21.74,0,0,1-.89-6.66,24.2,24.2,0,0,1,.81-6.69,8.33,8.33,0,0,1,2.67-4.26,7.65,7.65,0,0,1,4.93-1.49,7.42,7.42,0,0,1,4.76,1.48,8.58,8.58,0,0,1,2.78,4.26A21.58,21.58,0,0,1,51,314.13Zm-11.8,0a28.06,28.06,0,0,0,.31,4.6,5.93,5.93,0,0,0,1,2.76,2.4,2.4,0,0,0,2,.93,2.44,2.44,0,0,0,2-.92,5.93,5.93,0,0,0,1-2.75,33.37,33.37,0,0,0,0-9.22,6.06,6.06,0,0,0-1-2.78,2.42,2.42,0,0,0-2-.93,2.4,2.4,0,0,0-2,.93,6.06,6.06,0,0,0-1,2.78A28.15,28.15,0,0,0,39.18,314.13Z" fill="#fff"/><path d="M69.49,307.47a5.58,5.58,0,0,1-2.56,4.88,8.41,8.41,0,0,1-2.65,1.14v.1a7.62,7.62,0,0,1,4.41,1.78,5,5,0,0,1,1.51,3.8,7,7,0,0,1-1,3.77A6.86,6.86,0,0,1,66,325.57a13.68,13.68,0,0,1-5.53,1,19.8,19.8,0,0,1-3.72-.33,15,15,0,0,1-3.25-1v-4.34a14.49,14.49,0,0,0,3.26,1.2,13.6,13.6,0,0,0,3.16.4,5.89,5.89,0,0,0,3.84-1,3.33,3.33,0,0,0,1.1-2.66,2.79,2.79,0,0,0-.51-1.7,3.36,3.36,0,0,0-1.78-1.06,13.41,13.41,0,0,0-3.52-.36H57.22v-3.91h1.86a10.45,10.45,0,0,0,3.39-.42,2.84,2.84,0,0,0,1.59-1.16,3.29,3.29,0,0,0,.42-1.67,2.61,2.61,0,0,0-.79-2,3.84,3.84,0,0,0-2.64-.73,7.32,7.32,0,0,0-2.11.29,9.53,9.53,0,0,0-1.71.69,15.11,15.11,0,0,0-1.33.79l-2.36-3.52a13.11,13.11,0,0,1,3.32-1.7,13.67,13.67,0,0,1,4.55-.68,10.3,10.3,0,0,1,5.91,1.51A4.84,4.84,0,0,1,69.49,307.47Z" fill="#fff"/><path d="M358.34,311.06V356.6h-248V296a35.82,35.82,0,0,0-6.67-20.87H322.37A36,36,0,0,1,358.34,311.06Z" fill="url(#New_Gradient_Swatch_1-6)"/><polygon points="97.63 484.45 50.55 531.53 50.55 452.79 97.63 484.45" fill="url(#New_Gradient_Swatch_4-4)"/><path d="M8.83,415.13H67a30.59,30.59,0,0,1,30.59,30.59v38.73a0,0,0,0,1,0,0H39.43A30.59,30.59,0,0,1,8.83,453.86V415.13A0,0,0,0,1,8.83,415.13Z" fill="url(#New_Gradient_Swatch_4-5)"/><path d="M51,448.84a27.26,27.26,0,0,1-.45,5.21,11.66,11.66,0,0,1-1.46,3.9,6.65,6.65,0,0,1-2.61,2.44,8.45,8.45,0,0,1-3.93.84,7.44,7.44,0,0,1-4.77-1.48A8.55,8.55,0,0,1,35,455.5a21.83,21.83,0,0,1-.89-6.66,24.1,24.1,0,0,1,.81-6.69,8.32,8.32,0,0,1,2.67-4.27,7.65,7.65,0,0,1,4.93-1.49,7.47,7.47,0,0,1,4.76,1.48,8.67,8.67,0,0,1,2.78,4.26A21.6,21.6,0,0,1,51,448.84Zm-11.8,0a27.93,27.93,0,0,0,.31,4.59,6,6,0,0,0,1,2.77,2.42,2.42,0,0,0,2,.92,2.44,2.44,0,0,0,2-.92,5.88,5.88,0,0,0,1-2.75,33.37,33.37,0,0,0,0-9.22,6.06,6.06,0,0,0-1-2.78,2.42,2.42,0,0,0-2-.93,2.4,2.4,0,0,0-2,.93,6.06,6.06,0,0,0-1,2.78A28.28,28.28,0,0,0,39.18,448.84Z" fill="#fff"/><path d="M71,455.9H68.07v5h-5v-5H52.8v-3.55l10.57-15.58h4.7v15.17H71Zm-7.89-4v-4.09c0-.39,0-.84,0-1.37s0-1.06.05-1.59,0-1,.08-1.41,0-.7.06-.86h-.14c-.21.45-.42.89-.66,1.31s-.5.86-.8,1.33l-4.43,6.68Z" fill="#fff"/><path d="M358.34,445.15v45.54h-248V430.05a35.79,35.79,0,0,0-6.67-20.87H322.37A36,36,0,0,1,358.34,445.15Z" fill="url(#New_Gradient_Swatch_4-6)"/><path d="M8.83,548.83H67a30.59,30.59,0,0,1,30.59,30.59v38.73a0,0,0,0,1,0,0H39.43A30.59,30.59,0,0,1,8.83,587.56V548.83A0,0,0,0,1,8.83,548.83Z" fill="url(#New_Gradient_Swatch_1-7)"/><path d="M358.34,578.85v45.54h-248V563.75a35.82,35.82,0,0,0-6.67-20.87H322.37A36,36,0,0,1,358.34,578.85Z" fill="url(#New_Gradient_Swatch_1-8)"/><path d="M51,583.54a27.11,27.11,0,0,1-.45,5.21,11.66,11.66,0,0,1-1.46,3.9,6.58,6.58,0,0,1-2.61,2.44,8.45,8.45,0,0,1-3.93.84,7.5,7.5,0,0,1-4.77-1.47A8.63,8.63,0,0,1,35,590.2a21.78,21.78,0,0,1-.89-6.66,24.1,24.1,0,0,1,.81-6.69,8.36,8.36,0,0,1,2.67-4.27,7.64,7.64,0,0,1,4.93-1.48,7.42,7.42,0,0,1,4.76,1.48,8.59,8.59,0,0,1,2.78,4.25A21.64,21.64,0,0,1,51,583.54Zm-11.8,0a28.06,28.06,0,0,0,.31,4.6,6,6,0,0,0,1,2.76,2.39,2.39,0,0,0,2,.92,2.44,2.44,0,0,0,2-.91,5.93,5.93,0,0,0,1-2.76,33.29,33.29,0,0,0,0-9.21,6,6,0,0,0-1-2.78,2.4,2.4,0,0,0-2-.94,2.38,2.38,0,0,0-2,.94,6,6,0,0,0-1,2.78A28.06,28.06,0,0,0,39.18,583.54Z" fill="#fff"/><path d="M53.55,583.71l1.39-12.28H68.49v4H58.88l-.6,5.2a7.59,7.59,0,0,1,3.63-.92,7,7,0,0,1,5.42,2.15,8.56,8.56,0,0,1,2,6,8.73,8.73,0,0,1-1,4.19,7,7,0,0,1-2.83,2.87,8.85,8.85,0,0,1-4.35,1,9.29,9.29,0,0,1-4.07-.89,7.17,7.17,0,0,1-3-2.49,6.85,6.85,0,0,1-1.16-3.67h4.75a3.58,3.58,0,0,0,1,2.35,3.37,3.37,0,0,0,2.37.84,3,3,0,0,0,2.51-1.18,5.45,5.45,0,0,0,.88-3.31,4.45,4.45,0,0,0-1-3.15,3.71,3.71,0,0,0-2.87-1.1,4.14,4.14,0,0,0-2.77.9l-.46.43Z" fill="#fff"/><rect width="367.17" height="632.38" opacity="0.01" fill="url(#New_Pattern)"/><path d="M136.64,41.38l-3.08-5.44h-1.32v5.44h-2.8v-14h5.24a6.12,6.12,0,0,1,2.76.57,4,4,0,0,1,1.71,1.54,4.34,4.34,0,0,1-.23,4.66,4.14,4.14,0,0,1-2.38,1.53l3.34,5.66Zm-4.4-7.54h2.34a2.38,2.38,0,0,0,1.7-.55,2.07,2.07,0,0,0,.56-1.53,2,2,0,0,0-.56-1.49,2.37,2.37,0,0,0-1.7-.53h-2.34Z" fill="#fff"/><path d="M152.48,36.68h-8.1a2.71,2.71,0,0,0,.84,1.88,2.6,2.6,0,0,0,1.82.68,2.29,2.29,0,0,0,2.22-1.34h3a5.12,5.12,0,0,1-1.84,2.63,5.42,5.42,0,0,1-3.34,1,5.79,5.79,0,0,1-2.87-.71,5,5,0,0,1-2-2,6.1,6.1,0,0,1-.71-3,6.21,6.21,0,0,1,.7-3,4.79,4.79,0,0,1,2-2,6.29,6.29,0,0,1,5.73,0,4.75,4.75,0,0,1,1.94,1.93,5.83,5.83,0,0,1,.69,2.87A7,7,0,0,1,152.48,36.68Zm-2.82-1.88a2.26,2.26,0,0,0-.78-1.73,2.74,2.74,0,0,0-1.86-.65,2.52,2.52,0,0,0-1.75.63,2.7,2.7,0,0,0-.87,1.75Z" fill="#fff"/><path d="M161.12,30.61a4,4,0,0,1,1.48,1.27V30.3h2.82V41.46a6,6,0,0,1-.62,2.75,4.77,4.77,0,0,1-1.86,1.92,6,6,0,0,1-3,.71,6.4,6.4,0,0,1-3.87-1.1,4.08,4.08,0,0,1-1.71-3h2.78a2.05,2.05,0,0,0,1,1.21,3.28,3.28,0,0,0,1.77.45,2.78,2.78,0,0,0,2-.73,3,3,0,0,0,.76-2.21V39.74a4.32,4.32,0,0,1-1.49,1.3,4.55,4.55,0,0,1-2.17.52,4.73,4.73,0,0,1-2.56-.72,4.94,4.94,0,0,1-1.83-2,6.51,6.51,0,0,1-.67-3,6.35,6.35,0,0,1,.67-3,4.8,4.8,0,0,1,4.39-2.7A4.64,4.64,0,0,1,161.12,30.61Zm1.08,3.48A2.84,2.84,0,0,0,161.12,33a2.9,2.9,0,0,0-1.46-.39,2.81,2.81,0,0,0-2.51,1.49,3.38,3.38,0,0,0-.41,1.73,3.54,3.54,0,0,0,.41,1.75,2.93,2.93,0,0,0,1.08,1.15,2.78,2.78,0,0,0,1.43.4,2.86,2.86,0,0,0,2.54-1.51,4,4,0,0,0,0-3.5Z" fill="#fff"/><path d="M168.35,28.51a1.56,1.56,0,0,1-.49-1.17,1.53,1.53,0,0,1,.49-1.17,1.66,1.66,0,0,1,1.23-.47,1.69,1.69,0,0,1,1.23.47,1.57,1.57,0,0,1,.49,1.17,1.6,1.6,0,0,1-.49,1.17,1.73,1.73,0,0,1-1.23.47A1.7,1.7,0,0,1,168.35,28.51ZM171,30.3V41.38h-2.8V30.3Z" fill="#fff"/><path d="M175.52,41.07a4.34,4.34,0,0,1-1.71-1.33,3.37,3.37,0,0,1-.69-1.86h2.82a1.53,1.53,0,0,0,.63,1.06,2.52,2.52,0,0,0,2.62.1,1,1,0,0,0,.45-.82.87.87,0,0,0-.55-.81,10.16,10.16,0,0,0-1.75-.59,14.86,14.86,0,0,1-2-.62,3.57,3.57,0,0,1-1.36-1,2.64,2.64,0,0,1-.57-1.78,2.8,2.8,0,0,1,.53-1.68,3.49,3.49,0,0,1,1.52-1.2,5.57,5.57,0,0,1,2.33-.44,4.76,4.76,0,0,1,3.16,1,3.69,3.69,0,0,1,1.3,2.67h-2.68a1.47,1.47,0,0,0-.55-1.05,2.06,2.06,0,0,0-1.31-.39,2,2,0,0,0-1.17.28.86.86,0,0,0-.41.78.92.92,0,0,0,.56.85,8.76,8.76,0,0,0,1.74.59,13.86,13.86,0,0,1,2,.62,3.43,3.43,0,0,1,1.35,1,2.73,2.73,0,0,1,.59,1.77,3,3,0,0,1-.53,1.72,3.61,3.61,0,0,1-1.52,1.19,5.88,5.88,0,0,1-2.31.43A5.94,5.94,0,0,1,175.52,41.07Z" fill="#fff"/><path d="M187.88,32.6V38a1.07,1.07,0,0,0,.27.81,1.36,1.36,0,0,0,.91.25h1.3v2.36H188.6q-3.54,0-3.54-3.44V32.6h-1.32V30.3h1.32V27.56h2.82V30.3h2.48v2.3Z" fill="#fff"/><path d="M202.6,36.68h-8.1a2.71,2.71,0,0,0,.84,1.88,2.6,2.6,0,0,0,1.82.68,2.29,2.29,0,0,0,2.22-1.34h3a5.12,5.12,0,0,1-1.84,2.63,5.42,5.42,0,0,1-3.34,1,5.79,5.79,0,0,1-2.87-.71,5,5,0,0,1-2-2,6.1,6.1,0,0,1-.71-3,6.21,6.21,0,0,1,.7-3,4.79,4.79,0,0,1,2-2,6.29,6.29,0,0,1,5.73,0A4.75,4.75,0,0,1,202,32.73a5.83,5.83,0,0,1,.69,2.87A7,7,0,0,1,202.6,36.68Zm-2.82-1.88a2.26,2.26,0,0,0-.78-1.73,2.74,2.74,0,0,0-1.86-.65,2.52,2.52,0,0,0-1.75.63,2.7,2.7,0,0,0-.87,1.75Z" fill="#fff"/><path d="M208.93,30.64a3.85,3.85,0,0,1,2-.5v2.94h-.74a2.79,2.79,0,0,0-2,.62,2.83,2.83,0,0,0-.67,2.16v5.52h-2.8V30.3h2.8V32A3.88,3.88,0,0,1,208.93,30.64Z" fill="#fff"/><path d="M219.6,40.85a5.11,5.11,0,0,1-2-2,6,6,0,0,1-.74-3,5.86,5.86,0,0,1,.75-3,5.17,5.17,0,0,1,2.06-2,6.28,6.28,0,0,1,5.8,0,5.21,5.21,0,0,1,2,2,5.86,5.86,0,0,1,.75,3,5.73,5.73,0,0,1-.78,3,5.4,5.4,0,0,1-2.07,2,6.12,6.12,0,0,1-2.94.71A5.84,5.84,0,0,1,219.6,40.85Zm4.31-2.1A2.71,2.71,0,0,0,225,37.64a3.74,3.74,0,0,0,.41-1.8,3.33,3.33,0,0,0-.83-2.43,2.75,2.75,0,0,0-2-.85,2.65,2.65,0,0,0-2,.85,3.37,3.37,0,0,0-.82,2.43,3.48,3.48,0,0,0,.79,2.43,2.64,2.64,0,0,0,2,.85A3,3,0,0,0,223.91,38.75Z" fill="#fff"/><path d="M239.65,31.39a4.75,4.75,0,0,1,1.23,3.49v6.5h-2.81V35.26a2.91,2.91,0,0,0-.65-2,2.34,2.34,0,0,0-1.81-.71,2.38,2.38,0,0,0-1.83.71,2.87,2.87,0,0,0-.67,2v6.12h-2.8V30.3h2.8v1.38a3.92,3.92,0,0,1,1.44-1.13,4.3,4.3,0,0,1,1.9-.41A4.24,4.24,0,0,1,239.65,31.39Z" fill="#fff"/><path d="M251.56,32.6V38a1.07,1.07,0,0,0,.27.81,1.36,1.36,0,0,0,.91.25H254v2.36h-1.76q-3.54,0-3.54-3.44V32.6h-1.32V30.3h1.32V27.56h2.82V30.3H254v2.3Z" fill="#fff"/><path d="M264.54,30.69a3.68,3.68,0,0,1,1.52,1.62,5.51,5.51,0,0,1,.56,2.57v6.5h-2.81V35.26a2.86,2.86,0,0,0-.65-2,2.32,2.32,0,0,0-1.81-.71,2.38,2.38,0,0,0-1.83.71,2.87,2.87,0,0,0-.67,2v6.12h-2.79V26.58h2.79v5.1a3.65,3.65,0,0,1,1.45-1.13,4.62,4.62,0,0,1,2-.41A4.48,4.48,0,0,1,264.54,30.69Z" fill="#fff"/><path d="M279.49,36.68h-8.1a2.8,2.8,0,0,0,.84,1.88,2.64,2.64,0,0,0,1.83.68,2.27,2.27,0,0,0,2.21-1.34h3a5.14,5.14,0,0,1-1.85,2.63,5.4,5.4,0,0,1-3.34,1,5.84,5.84,0,0,1-2.87-.71,5.17,5.17,0,0,1-2-2,6.82,6.82,0,0,1,0-6,4.79,4.79,0,0,1,2-2,5.81,5.81,0,0,1,2.89-.7,5.73,5.73,0,0,1,2.83.68,4.71,4.71,0,0,1,1.95,1.93,5.83,5.83,0,0,1,.68,2.87A5.94,5.94,0,0,1,279.49,36.68Zm-2.81-1.88a2.23,2.23,0,0,0-.79-1.73,2.71,2.71,0,0,0-1.86-.65,2.56,2.56,0,0,0-1.75.63,2.79,2.79,0,0,0-.87,1.75Z" fill="#fff"/><path d="M138.19,54.28a6.16,6.16,0,0,1,2.58,2.45,7.37,7.37,0,0,1,.91,3.69,7.26,7.26,0,0,1-.91,3.67,6.31,6.31,0,0,1-2.58,2.43,8.42,8.42,0,0,1-3.87.86h-4.88v-14h4.88A8.29,8.29,0,0,1,138.19,54.28Zm-.57,9.52a4.58,4.58,0,0,0,1.2-3.38,4.67,4.67,0,0,0-1.2-3.41,4.54,4.54,0,0,0-3.4-1.23h-2V65h2A4.61,4.61,0,0,0,137.62,63.8Z" fill="#fff"/><path d="M153.5,57.62a3.22,3.22,0,0,0-1.32-1.34,4,4,0,0,0-2-.46,4.21,4.21,0,0,0-2.2.56,3.81,3.81,0,0,0-1.5,1.6,5.65,5.65,0,0,0,0,4.84,3.87,3.87,0,0,0,1.53,1.6,4.53,4.53,0,0,0,2.28.56,4,4,0,0,0,2.62-.85,4.11,4.11,0,0,0,1.34-2.37h-4.8V59.62h7.56v2.44a6.69,6.69,0,0,1-1.2,2.7,6.88,6.88,0,0,1-5.62,2.74,7.4,7.4,0,0,1-3.65-.91A6.62,6.62,0,0,1,144,64.06a7.77,7.77,0,0,1,0-7.37,6.51,6.51,0,0,1,2.56-2.54,7.79,7.79,0,0,1,7.73.24,5.84,5.84,0,0,1,2.4,3.23Z" fill="#fff"/><path d="M167.76,53.42v2.26h-5.82v3.58h4.46v2.22h-4.46v5.9h-2.8v-14Z" fill="#fff"/><path d="M179.24,53.42v2.26h-3.72v11.7h-2.8V55.68H169V53.42Z" fill="#fff"/><path d="M190.33,56.63a4.49,4.49,0,0,1,2.17-.51,4.84,4.84,0,0,1,2.57.7,5,5,0,0,1,1.82,2,6.46,6.46,0,0,1,.67,3,6.63,6.63,0,0,1-.67,3,5.13,5.13,0,0,1-1.82,2,4.77,4.77,0,0,1-2.57.72,4.49,4.49,0,0,1-2.15-.5,4.71,4.71,0,0,1-1.51-1.26v6.86H186V56.3h2.8v1.6A4.16,4.16,0,0,1,190.33,56.63Zm4,3.44A2.89,2.89,0,0,0,193.21,59a2.83,2.83,0,0,0-1.45-.38,2.77,2.77,0,0,0-1.43.39,2.81,2.81,0,0,0-1.08,1.13,3.45,3.45,0,0,0-.41,1.74,3.5,3.5,0,0,0,.41,1.74,2.87,2.87,0,0,0,1.08,1.13,2.77,2.77,0,0,0,1.43.39,2.85,2.85,0,0,0,1.45-.4,3.12,3.12,0,0,0,1.08-1.14,3.63,3.63,0,0,0,.41-1.76A3.49,3.49,0,0,0,194.29,60.07Z" fill="#fff"/><path d="M201.64,66.85a5.11,5.11,0,0,1-2-2,6,6,0,0,1-.73-3,5.86,5.86,0,0,1,.75-3,5.15,5.15,0,0,1,2-2,6.28,6.28,0,0,1,5.8,0,5.21,5.21,0,0,1,2.05,2,6.3,6.3,0,0,1,0,6,5.5,5.5,0,0,1-2.08,2,6.1,6.1,0,0,1-2.93.71A5.85,5.85,0,0,1,201.64,66.85Zm4.31-2.1A2.79,2.79,0,0,0,207,63.64a3.86,3.86,0,0,0,.4-1.8,3.33,3.33,0,0,0-.83-2.43,2.73,2.73,0,0,0-2-.85,2.65,2.65,0,0,0-2,.85,3.36,3.36,0,0,0-.81,2.43,3.44,3.44,0,0,0,.79,2.43,2.61,2.61,0,0,0,2,.85A3,3,0,0,0,206,64.75Z" fill="#fff"/><path d="M216.57,56.64a3.85,3.85,0,0,1,2-.5v2.94h-.74a2.79,2.79,0,0,0-2,.62,2.83,2.83,0,0,0-.67,2.16v5.52h-2.8V56.3h2.8V58A3.88,3.88,0,0,1,216.57,56.64Z" fill="#fff"/><path d="M223.7,58.6V64a1.07,1.07,0,0,0,.27.81,1.36,1.36,0,0,0,.91.25h1.3v2.36h-1.76q-3.54,0-3.54-3.44V58.6h-1.32V56.3h1.32V53.56h2.82V56.3h2.48v2.3Z" fill="#fff"/><path d="M228.15,58.82a4.8,4.8,0,0,1,4.39-2.7,4.46,4.46,0,0,1,2.17.5,4.39,4.39,0,0,1,1.49,1.26V56.3H239V67.38H236.2V65.76a4.19,4.19,0,0,1-1.49,1.29,4.6,4.6,0,0,1-2.19.51,4.68,4.68,0,0,1-2.55-.72,5,5,0,0,1-1.82-2,6.51,6.51,0,0,1-.67-3A6.35,6.35,0,0,1,228.15,58.82Zm7.65,1.27A2.84,2.84,0,0,0,234.72,59a2.9,2.9,0,0,0-1.46-.39,2.81,2.81,0,0,0-2.51,1.49,3.38,3.38,0,0,0-.41,1.73,3.54,3.54,0,0,0,.41,1.75,2.93,2.93,0,0,0,1.08,1.15,2.78,2.78,0,0,0,1.43.4,2.86,2.86,0,0,0,2.54-1.51,4,4,0,0,0,0-3.5Z" fill="#fff"/><path d="M244.56,52.58v14.8h-2.8V52.58Z" fill="#fff"/><path d="M138.19,177.32a6.16,6.16,0,0,1,2.58,2.45,7.37,7.37,0,0,1,.91,3.69,7.26,7.26,0,0,1-.91,3.67,6.31,6.31,0,0,1-2.58,2.43,8.42,8.42,0,0,1-3.87.86h-4.88v-14h4.88A8.29,8.29,0,0,1,138.19,177.32Zm-.57,9.52a4.58,4.58,0,0,0,1.2-3.38,4.67,4.67,0,0,0-1.2-3.41,4.54,4.54,0,0,0-3.4-1.23h-2V188h2A4.61,4.61,0,0,0,137.62,186.84Z" fill="#fff"/><path d="M145.82,189.89a5.11,5.11,0,0,1-2-2,6,6,0,0,1-.73-3,5.86,5.86,0,0,1,.75-3,5.15,5.15,0,0,1,2-2,6.28,6.28,0,0,1,5.8,0,5.21,5.21,0,0,1,2,2,6.3,6.3,0,0,1,0,6,5.5,5.5,0,0,1-2.08,2,6.1,6.1,0,0,1-2.93.71A5.85,5.85,0,0,1,145.82,189.89Zm4.31-2.1a2.79,2.79,0,0,0,1.07-1.11,3.86,3.86,0,0,0,.4-1.8,3.33,3.33,0,0,0-.83-2.43,2.73,2.73,0,0,0-2-.85,2.65,2.65,0,0,0-2,.85,3.36,3.36,0,0,0-.81,2.43,3.44,3.44,0,0,0,.79,2.43,2.61,2.61,0,0,0,2,.85A3,3,0,0,0,150.13,187.79Z" fill="#fff"/><path d="M156.52,181.87a4.92,4.92,0,0,1,1.94-2,5.52,5.52,0,0,1,2.84-.71,5.45,5.45,0,0,1,3.41,1,5,5,0,0,1,1.81,2.89h-3a2.19,2.19,0,0,0-.81-1.13,2.56,2.56,0,0,0-3.31.46,4.67,4.67,0,0,0,0,4.92,2.3,2.3,0,0,0,1.9.87,2.13,2.13,0,0,0,2.22-1.52h3a5.18,5.18,0,0,1-1.82,2.86,5.41,5.41,0,0,1-3.4,1.06,5.62,5.62,0,0,1-2.84-.71,5,5,0,0,1-1.94-2,6.82,6.82,0,0,1,0-6Z" fill="#fff"/><path d="M179,179.34v11.08h-2.82V189a3.76,3.76,0,0,1-1.41,1.13,4.43,4.43,0,0,1-1.89.41,4.74,4.74,0,0,1-2.3-.55,3.9,3.9,0,0,1-1.57-1.62,5.39,5.39,0,0,1-.57-2.55v-6.5h2.8v6.1a2.88,2.88,0,0,0,.66,2,2.35,2.35,0,0,0,1.8.71,2.38,2.38,0,0,0,1.82-.71,2.88,2.88,0,0,0,.66-2v-6.1Z" fill="#fff"/><path d="M198.85,180.43a4.72,4.72,0,0,1,1.25,3.49v6.5h-2.8V184.3a2.76,2.76,0,0,0-.66-2,2.71,2.71,0,0,0-3.61,0,2.72,2.72,0,0,0-.67,2v6.12h-2.8V184.3a2.76,2.76,0,0,0-.66-2,2.37,2.37,0,0,0-1.8-.69,2.41,2.41,0,0,0-1.83.69,2.72,2.72,0,0,0-.67,2v6.12h-2.8V179.34h2.8v1.34a3.61,3.61,0,0,1,1.39-1.1,4.27,4.27,0,0,1,1.87-.4,4.79,4.79,0,0,1,2.32.55,3.85,3.85,0,0,1,1.58,1.57,4,4,0,0,1,1.57-1.54,4.8,4.8,0,0,1,5.52.67Z" fill="#fff"/><path d="M213,185.72h-8.1a2.71,2.71,0,0,0,.84,1.88,2.6,2.6,0,0,0,1.82.68,2.29,2.29,0,0,0,2.22-1.34h3a5.12,5.12,0,0,1-1.84,2.63,5.42,5.42,0,0,1-3.34,1,5.79,5.79,0,0,1-2.87-.71,5,5,0,0,1-2-2,6.1,6.1,0,0,1-.71-3,6.21,6.21,0,0,1,.7-3,4.79,4.79,0,0,1,2-2,6.29,6.29,0,0,1,5.73,0,4.75,4.75,0,0,1,1.94,1.93,5.83,5.83,0,0,1,.69,2.87A7,7,0,0,1,213,185.72Zm-2.82-1.88a2.26,2.26,0,0,0-.78-1.73,2.74,2.74,0,0,0-1.86-.65,2.52,2.52,0,0,0-1.75.63,2.7,2.7,0,0,0-.87,1.75Z" fill="#fff"/><path d="M224.44,180.43a4.78,4.78,0,0,1,1.22,3.49v6.5h-2.8V184.3a2.87,2.87,0,0,0-.66-2,2.31,2.31,0,0,0-1.8-.71,2.35,2.35,0,0,0-1.83.71,2.83,2.83,0,0,0-.67,2v6.12h-2.8V179.34h2.8v1.38a3.81,3.81,0,0,1,1.43-1.13,4.31,4.31,0,0,1,1.91-.41A4.26,4.26,0,0,1,224.44,180.43Z" fill="#fff"/><path d="M231.58,181.64V187a1.07,1.07,0,0,0,.27.81,1.36,1.36,0,0,0,.91.25h1.3v2.36H232.3q-3.54,0-3.54-3.44v-5.34h-1.32v-2.3h1.32V176.6h2.82v2.74h2.48v2.3Z" fill="#fff"/><path d="M236,181.86a4.8,4.8,0,0,1,4.39-2.7,4.46,4.46,0,0,1,2.17.5,4.39,4.39,0,0,1,1.49,1.26v-1.58h2.82v11.08h-2.82V188.8a4.19,4.19,0,0,1-1.49,1.29,4.6,4.6,0,0,1-2.19.51,4.68,4.68,0,0,1-2.55-.72,5,5,0,0,1-1.82-2,6.51,6.51,0,0,1-.67-3A6.35,6.35,0,0,1,236,181.86Zm7.65,1.27A2.84,2.84,0,0,0,242.6,182a2.9,2.9,0,0,0-1.46-.39,2.81,2.81,0,0,0-2.51,1.49,3.38,3.38,0,0,0-.41,1.73,3.54,3.54,0,0,0,.41,1.75,2.93,2.93,0,0,0,1.08,1.15,2.78,2.78,0,0,0,1.43.4,2.86,2.86,0,0,0,2.54-1.51,4,4,0,0,0,0-3.5Z" fill="#fff"/><path d="M252.89,181.64V187a1.07,1.07,0,0,0,.28.81,1.36,1.36,0,0,0,.91.25h1.3v2.36h-1.76q-3.54,0-3.54-3.44v-5.34h-1.32v-2.3h1.32V176.6h2.81v2.74h2.49v2.3Z" fill="#fff"/><path d="M257.59,177.55a1.56,1.56,0,0,1-.49-1.17,1.53,1.53,0,0,1,.49-1.17,1.65,1.65,0,0,1,1.22-.47,1.7,1.7,0,0,1,1.24.47,1.56,1.56,0,0,1,.48,1.17,1.59,1.59,0,0,1-.48,1.17,1.74,1.74,0,0,1-1.24.47A1.69,1.69,0,0,1,257.59,177.55Zm2.6,1.79v11.08h-2.8V179.34Z" fill="#fff"/><path d="M265,189.89a5.25,5.25,0,0,1-2-2,6.11,6.11,0,0,1-.73-3,5.86,5.86,0,0,1,.75-3,5.17,5.17,0,0,1,2.06-2,6.26,6.26,0,0,1,5.79,0,5.15,5.15,0,0,1,2,2,5.86,5.86,0,0,1,.75,3,5.73,5.73,0,0,1-.77,3,5.4,5.4,0,0,1-2.07,2,6.14,6.14,0,0,1-2.94.71A5.91,5.91,0,0,1,265,189.89Zm4.32-2.1a2.71,2.71,0,0,0,1.06-1.11,3.74,3.74,0,0,0,.4-1.8,3.29,3.29,0,0,0-.83-2.43,2.71,2.71,0,0,0-2-.85,2.65,2.65,0,0,0-2,.85,3.36,3.36,0,0,0-.81,2.43,3.48,3.48,0,0,0,.79,2.43,2.63,2.63,0,0,0,2,.85A3,3,0,0,0,269.31,187.79Z" fill="#fff"/><path d="M285.05,180.43a4.74,4.74,0,0,1,1.22,3.49v6.5h-2.8V184.3a2.87,2.87,0,0,0-.66-2,2.31,2.31,0,0,0-1.8-.71,2.38,2.38,0,0,0-1.83.71,2.87,2.87,0,0,0-.67,2v6.12h-2.8V179.34h2.8v1.38a3.89,3.89,0,0,1,1.43-1.13,4.34,4.34,0,0,1,1.91-.41A4.24,4.24,0,0,1,285.05,180.43Z" fill="#fff"/><path d="M138,306.87h-5.56l-.92,2.66h-2.94l5-14h3.26l5,14h-3Zm-.76-2.24-2-5.84-2,5.84Z" fill="#fff"/><path d="M148.05,298.78a4.49,4.49,0,0,1,2.17-.51,4.84,4.84,0,0,1,2.57.7,5,5,0,0,1,1.82,2,6.46,6.46,0,0,1,.67,3,6.63,6.63,0,0,1-.67,3,5.13,5.13,0,0,1-1.82,2,4.77,4.77,0,0,1-2.57.72,4.49,4.49,0,0,1-2.15-.5,4.71,4.71,0,0,1-1.51-1.26v6.86h-2.8V298.45h2.8v1.6A4.16,4.16,0,0,1,148.05,298.78Zm4,3.44a2.89,2.89,0,0,0-1.08-1.11,2.83,2.83,0,0,0-1.45-.38,2.77,2.77,0,0,0-1.43.39,2.81,2.81,0,0,0-1.08,1.13,3.45,3.45,0,0,0-.41,1.74,3.5,3.5,0,0,0,.41,1.74,2.87,2.87,0,0,0,1.08,1.13,2.77,2.77,0,0,0,1.43.39,2.85,2.85,0,0,0,1.45-.4,3.12,3.12,0,0,0,1.08-1.14,3.63,3.63,0,0,0,.41-1.76A3.49,3.49,0,0,0,152,302.22Z" fill="#fff"/><path d="M161.61,298.78a4.49,4.49,0,0,1,2.17-.51,4.84,4.84,0,0,1,2.57.7,5,5,0,0,1,1.82,2,6.46,6.46,0,0,1,.67,3,6.63,6.63,0,0,1-.67,3,5.13,5.13,0,0,1-1.82,2,4.77,4.77,0,0,1-2.57.72,4.49,4.49,0,0,1-2.15-.5,4.71,4.71,0,0,1-1.51-1.26v6.86h-2.8V298.45h2.8v1.6A4.16,4.16,0,0,1,161.61,298.78Zm4,3.44a2.89,2.89,0,0,0-1.08-1.11,2.83,2.83,0,0,0-1.45-.38,2.77,2.77,0,0,0-1.43.39,2.81,2.81,0,0,0-1.08,1.13,3.45,3.45,0,0,0-.41,1.74,3.5,3.5,0,0,0,.41,1.74,2.87,2.87,0,0,0,1.08,1.13,2.77,2.77,0,0,0,1.43.39,2.85,2.85,0,0,0,1.45-.4,3.12,3.12,0,0,0,1.08-1.14A3.63,3.63,0,0,0,166,304,3.49,3.49,0,0,0,165.57,302.22Z" fill="#fff"/><path d="M173.68,294.73v14.8h-2.8v-14.8Z" fill="#fff"/><path d="M176.63,296.66a1.56,1.56,0,0,1-.49-1.17,1.53,1.53,0,0,1,.49-1.17,1.66,1.66,0,0,1,1.23-.47,1.69,1.69,0,0,1,1.23.47,1.57,1.57,0,0,1,.49,1.17,1.6,1.6,0,0,1-.49,1.17,1.73,1.73,0,0,1-1.23.47A1.7,1.7,0,0,1,176.63,296.66Zm2.61,1.79v11.08h-2.8V298.45Z" fill="#fff"/><path d="M182,301a4.92,4.92,0,0,1,1.94-2,5.52,5.52,0,0,1,2.84-.71,5.45,5.45,0,0,1,3.41,1,5,5,0,0,1,1.81,2.89h-3a2.19,2.19,0,0,0-.81-1.13,2.56,2.56,0,0,0-3.31.46,4.67,4.67,0,0,0,0,4.92,2.3,2.3,0,0,0,1.9.87,2.13,2.13,0,0,0,2.22-1.52h3a5.18,5.18,0,0,1-1.82,2.86,5.41,5.41,0,0,1-3.4,1.06,5.62,5.62,0,0,1-2.84-.71,5,5,0,0,1-1.94-2,6.82,6.82,0,0,1,0-6Z" fill="#fff"/><path d="M194,301a4.8,4.8,0,0,1,4.39-2.7,4.46,4.46,0,0,1,2.17.5A4.39,4.39,0,0,1,202,300v-1.58h2.82v11.08H202v-1.62a4.19,4.19,0,0,1-1.49,1.29,4.6,4.6,0,0,1-2.19.51,4.68,4.68,0,0,1-2.55-.72,5,5,0,0,1-1.82-2,6.51,6.51,0,0,1-.67-3A6.35,6.35,0,0,1,194,301Zm7.65,1.27a2.84,2.84,0,0,0-1.08-1.12,2.9,2.9,0,0,0-1.46-.39,2.81,2.81,0,0,0-2.51,1.49,3.38,3.38,0,0,0-.41,1.73,3.54,3.54,0,0,0,.41,1.75,2.93,2.93,0,0,0,1.08,1.15,2.78,2.78,0,0,0,1.43.4,2.86,2.86,0,0,0,2.54-1.51,4,4,0,0,0,0-3.5Z" fill="#fff"/><path d="M210.86,300.75v5.36a1.07,1.07,0,0,0,.27.81,1.36,1.36,0,0,0,.91.25h1.3v2.36h-1.76q-3.54,0-3.54-3.44v-5.34h-1.32v-2.3H208v-2.74h2.82v2.74h2.48v2.3Z" fill="#fff"/><path d="M215.55,296.66a1.56,1.56,0,0,1-.49-1.17,1.53,1.53,0,0,1,.49-1.17,1.66,1.66,0,0,1,1.23-.47,1.69,1.69,0,0,1,1.23.47,1.57,1.57,0,0,1,.49,1.17,1.6,1.6,0,0,1-.49,1.17,1.73,1.73,0,0,1-1.23.47A1.7,1.7,0,0,1,215.55,296.66Zm2.61,1.79v11.08h-2.8V298.45Z" fill="#fff"/><path d="M223,309a5.11,5.11,0,0,1-2-2,6,6,0,0,1-.73-3,5.86,5.86,0,0,1,.75-3,5.15,5.15,0,0,1,2.05-2,6.28,6.28,0,0,1,5.8,0,5.21,5.21,0,0,1,2.05,2,6.3,6.3,0,0,1,0,6,5.5,5.5,0,0,1-2.08,2,6.1,6.1,0,0,1-2.93.71A5.85,5.85,0,0,1,223,309Zm4.31-2.1a2.79,2.79,0,0,0,1.07-1.11,3.86,3.86,0,0,0,.4-1.8,3.33,3.33,0,0,0-.83-2.43,2.73,2.73,0,0,0-2-.85,2.65,2.65,0,0,0-2,.85,3.36,3.36,0,0,0-.81,2.43,3.44,3.44,0,0,0,.79,2.43,2.61,2.61,0,0,0,2,.85A3,3,0,0,0,227.27,306.9Z" fill="#fff"/><path d="M243,299.54a4.75,4.75,0,0,1,1.23,3.49v6.5h-2.81v-6.12a2.86,2.86,0,0,0-.65-2,2.32,2.32,0,0,0-1.81-.71,2.38,2.38,0,0,0-1.83.71,2.87,2.87,0,0,0-.67,2v6.12h-2.79V298.45h2.79v1.38a3.92,3.92,0,0,1,1.44-1.13,4.3,4.3,0,0,1,1.9-.41A4.23,4.23,0,0,1,243,299.54Z" fill="#fff"/><path d="M256.74,300.75H254.8v8.78H252v-8.78H250.7v-2.3H252v-.56a3.65,3.65,0,0,1,1.16-3,5.18,5.18,0,0,1,3.5-.9v2.36a2,2,0,0,0-1.42.34,1.68,1.68,0,0,0-.4,1.3v.46h1.94Z" fill="#fff"/><path d="M260.6,309a5.11,5.11,0,0,1-2-2,6,6,0,0,1-.74-3,5.86,5.86,0,0,1,.75-3,5.17,5.17,0,0,1,2.06-2,6.28,6.28,0,0,1,5.8,0,5.21,5.21,0,0,1,2.05,2,5.86,5.86,0,0,1,.75,3,5.73,5.73,0,0,1-.78,3,5.4,5.4,0,0,1-2.07,2,6.12,6.12,0,0,1-2.94.71A5.84,5.84,0,0,1,260.6,309Zm4.31-2.1a2.71,2.71,0,0,0,1.06-1.11,3.74,3.74,0,0,0,.41-1.8,3.33,3.33,0,0,0-.83-2.43,2.75,2.75,0,0,0-2-.85,2.65,2.65,0,0,0-2,.85,3.37,3.37,0,0,0-.82,2.43,3.48,3.48,0,0,0,.79,2.43,2.64,2.64,0,0,0,2,.85A3,3,0,0,0,264.91,306.9Z" fill="#fff"/><path d="M275.52,298.79a3.87,3.87,0,0,1,2-.5v2.94h-.74a2.81,2.81,0,0,0-2,.62,2.88,2.88,0,0,0-.67,2.16v5.52h-2.8V298.45h2.8v1.72A3.88,3.88,0,0,1,275.52,298.79Z" fill="#fff"/><path d="M132.24,321.57v14h-2.8v-14Z" fill="#fff"/><path d="M137.8,323.83v3.5h4.7v2.22h-4.7v3.7h5.3v2.28H135v-14h8.1v2.28Z" fill="#fff"/><path d="M145.89,324.84a6.53,6.53,0,0,1,2.54-2.54,7.61,7.61,0,0,1,7.71.29,6.28,6.28,0,0,1,2.46,3.32h-3.22a3.3,3.3,0,0,0-1.35-1.5,3.9,3.9,0,0,0-2-.5,4.11,4.11,0,0,0-2.17.57,3.79,3.79,0,0,0-1.48,1.61,5.86,5.86,0,0,0,0,4.87,3.81,3.81,0,0,0,1.48,1.62,4.11,4.11,0,0,0,2.17.57,3.9,3.9,0,0,0,2-.51,3.43,3.43,0,0,0,1.35-1.51h3.22a6.34,6.34,0,0,1-2.45,3.33,7.17,7.17,0,0,1-4.11,1.19,7.25,7.25,0,0,1-3.61-.91,6.64,6.64,0,0,1-2.54-2.53,7.77,7.77,0,0,1,0-7.37Z" fill="#fff"/><path d="M165.74,327a4.92,4.92,0,0,1,1.94-2,5.52,5.52,0,0,1,2.84-.71,5.45,5.45,0,0,1,3.41,1,5,5,0,0,1,1.81,2.89h-3a2.19,2.19,0,0,0-.81-1.13,2.56,2.56,0,0,0-3.31.46,4.67,4.67,0,0,0,0,4.92,2.3,2.3,0,0,0,1.9.87,2.13,2.13,0,0,0,2.22-1.52h3a5.18,5.18,0,0,1-1.82,2.86,5.41,5.41,0,0,1-3.4,1.06,5.62,5.62,0,0,1-2.84-.71,5,5,0,0,1-1.94-2,6.82,6.82,0,0,1,0-6Z" fill="#fff"/><path d="M179.84,335a5.11,5.11,0,0,1-2-2,6,6,0,0,1-.73-3,5.86,5.86,0,0,1,.75-3,5.15,5.15,0,0,1,2.05-2,6.28,6.28,0,0,1,5.8,0,5.21,5.21,0,0,1,2.05,2,6.3,6.3,0,0,1,0,6,5.5,5.5,0,0,1-2.08,2,6.1,6.1,0,0,1-2.93.71A5.85,5.85,0,0,1,179.84,335Zm4.31-2.1a2.79,2.79,0,0,0,1.07-1.11,3.86,3.86,0,0,0,.4-1.8,3.33,3.33,0,0,0-.83-2.43,2.73,2.73,0,0,0-2-.85,2.65,2.65,0,0,0-2,.85,3.36,3.36,0,0,0-.81,2.43,3.44,3.44,0,0,0,.79,2.43,2.61,2.61,0,0,0,2,.85A3,3,0,0,0,184.15,332.9Z" fill="#fff"/><path d="M190.51,327a4.74,4.74,0,0,1,1.83-2,4.85,4.85,0,0,1,2.58-.7,4.64,4.64,0,0,1,2.06.47,4.14,4.14,0,0,1,1.56,1.25v-5.26h2.84v14.8h-2.84v-1.64a4,4,0,0,1-1.46,1.32,4.64,4.64,0,0,1-2.18.5,4.73,4.73,0,0,1-2.56-.72,4.94,4.94,0,0,1-1.83-2,6.51,6.51,0,0,1-.67-3A6.35,6.35,0,0,1,190.51,327Zm7.65,1.27a2.84,2.84,0,0,0-1.08-1.12,2.9,2.9,0,0,0-1.46-.39,2.81,2.81,0,0,0-2.51,1.49,3.38,3.38,0,0,0-.41,1.73,3.54,3.54,0,0,0,.41,1.75,2.93,2.93,0,0,0,1.08,1.15,2.78,2.78,0,0,0,1.43.4,2.86,2.86,0,0,0,2.54-1.51,4,4,0,0,0,0-3.5Z" fill="#fff"/><path d="M214.34,330.83h-8.1a2.71,2.71,0,0,0,.84,1.88,2.6,2.6,0,0,0,1.82.68,2.29,2.29,0,0,0,2.22-1.34h3a5.12,5.12,0,0,1-1.84,2.63,5.42,5.42,0,0,1-3.34,1,5.79,5.79,0,0,1-2.87-.71,5,5,0,0,1-2-2,6.1,6.1,0,0,1-.71-3,6.21,6.21,0,0,1,.7-3,4.79,4.79,0,0,1,2-2,6.29,6.29,0,0,1,5.73,0,4.75,4.75,0,0,1,1.94,1.93,5.83,5.83,0,0,1,.69,2.87A7,7,0,0,1,214.34,330.83ZM211.52,329a2.26,2.26,0,0,0-.78-1.73,2.74,2.74,0,0,0-1.86-.65,2.52,2.52,0,0,0-1.75.63,2.7,2.7,0,0,0-.87,1.75Z" fill="#fff"/><path d="M142,429.32l-5.12,14h-3.4l-5.12-14h3l3.84,11.1,3.82-11.1Z" fill="#fff"/><path d="M153.88,438.58h-8.1a2.71,2.71,0,0,0,.84,1.88,2.6,2.6,0,0,0,1.82.68,2.29,2.29,0,0,0,2.22-1.34h3a5.12,5.12,0,0,1-1.84,2.63,5.42,5.42,0,0,1-3.34,1,5.79,5.79,0,0,1-2.87-.71,5,5,0,0,1-2-2,6.1,6.1,0,0,1-.71-3,6.21,6.21,0,0,1,.7-3,4.79,4.79,0,0,1,2-2,6.29,6.29,0,0,1,5.73,0,4.75,4.75,0,0,1,1.94,1.93,5.83,5.83,0,0,1,.69,2.87A7,7,0,0,1,153.88,438.58Zm-2.82-1.88a2.26,2.26,0,0,0-.78-1.73,2.74,2.74,0,0,0-1.86-.65,2.52,2.52,0,0,0-1.75.63,2.7,2.7,0,0,0-.87,1.75Z" fill="#fff"/><path d="M160.21,432.54a3.85,3.85,0,0,1,2-.5V435h-.74a2.79,2.79,0,0,0-2,.62,2.83,2.83,0,0,0-.67,2.16v5.52H156V432.2h2.8v1.72A3.88,3.88,0,0,1,160.21,432.54Z" fill="#fff"/><path d="M169.16,434.5h-1.94v8.78h-2.84V434.5h-1.26v-2.3h1.26v-.56a3.65,3.65,0,0,1,1.16-3,5.18,5.18,0,0,1,3.5-.9v2.36a2,2,0,0,0-1.42.34,1.68,1.68,0,0,0-.4,1.3v.46h1.94Z" fill="#fff"/><path d="M171.17,430.41a1.56,1.56,0,0,1-.49-1.17,1.53,1.53,0,0,1,.49-1.17,1.66,1.66,0,0,1,1.23-.47,1.69,1.69,0,0,1,1.23.47,1.57,1.57,0,0,1,.49,1.17,1.6,1.6,0,0,1-.49,1.17,1.73,1.73,0,0,1-1.23.47A1.7,1.7,0,0,1,171.17,430.41Zm2.61,1.79v11.08H171V432.2Z" fill="#fff"/><path d="M179.8,434.5v5.36a1.07,1.07,0,0,0,.27.81,1.36,1.36,0,0,0,.91.25h1.3v2.36h-1.76q-3.54,0-3.54-3.44V434.5h-1.32v-2.3H177v-2.74h2.82v2.74h2.48v2.3Z" fill="#fff"/><path d="M184.28,434.73a4.92,4.92,0,0,1,1.94-2,5.52,5.52,0,0,1,2.84-.71,5.45,5.45,0,0,1,3.41,1,5,5,0,0,1,1.81,2.89h-3a2.19,2.19,0,0,0-.81-1.13,2.56,2.56,0,0,0-3.31.46,4.67,4.67,0,0,0,0,4.92,2.3,2.3,0,0,0,1.9.87,2.13,2.13,0,0,0,2.22-1.52h3a5.18,5.18,0,0,1-1.82,2.86,5.41,5.41,0,0,1-3.4,1.06,5.62,5.62,0,0,1-2.84-.71,5,5,0,0,1-1.94-2,6.82,6.82,0,0,1,0-6Z" fill="#fff"/><path d="M196.29,434.72a4.8,4.8,0,0,1,4.39-2.7,4.48,4.48,0,0,1,2.17.5,4.39,4.39,0,0,1,1.49,1.26V432.2h2.82v11.08h-2.82v-1.62a4.28,4.28,0,0,1-1.49,1.29,4.6,4.6,0,0,1-2.19.51,4.68,4.68,0,0,1-2.55-.72,5,5,0,0,1-1.82-2,6.51,6.51,0,0,1-.67-3A6.35,6.35,0,0,1,196.29,434.72Zm7.65,1.27a2.84,2.84,0,0,0-1.08-1.12,2.9,2.9,0,0,0-1.46-.39,2.77,2.77,0,0,0-1.44.38,2.73,2.73,0,0,0-1.07,1.11,3.38,3.38,0,0,0-.42,1.73,3.54,3.54,0,0,0,.42,1.75A2.93,2.93,0,0,0,200,440.6a2.78,2.78,0,0,0,1.43.4,2.86,2.86,0,0,0,2.54-1.51,4,4,0,0,0,0-3.5Z" fill="#fff"/><path d="M213.16,434.5v5.36a1.07,1.07,0,0,0,.27.81,1.36,1.36,0,0,0,.91.25h1.3v2.36h-1.76q-3.54,0-3.54-3.44V434.5H209v-2.3h1.32v-2.74h2.82v2.74h2.48v2.3Z" fill="#fff"/><path d="M217.85,430.41a1.56,1.56,0,0,1-.49-1.17,1.53,1.53,0,0,1,.49-1.17,1.66,1.66,0,0,1,1.23-.47,1.69,1.69,0,0,1,1.23.47,1.57,1.57,0,0,1,.49,1.17,1.6,1.6,0,0,1-.49,1.17,1.73,1.73,0,0,1-1.23.47A1.7,1.7,0,0,1,217.85,430.41Zm2.61,1.79v11.08h-2.8V432.2Z" fill="#fff"/><path d="M225.26,442.75a5.11,5.11,0,0,1-2-2,6,6,0,0,1-.74-3,5.86,5.86,0,0,1,.75-3,5.17,5.17,0,0,1,2.06-2,6.28,6.28,0,0,1,5.8,0,5.21,5.21,0,0,1,2,2,5.86,5.86,0,0,1,.75,3,5.73,5.73,0,0,1-.78,3,5.4,5.4,0,0,1-2.07,2,6.1,6.1,0,0,1-2.93.71A5.85,5.85,0,0,1,225.26,442.75Zm4.31-2.1a2.79,2.79,0,0,0,1.07-1.11,3.86,3.86,0,0,0,.4-1.8,3.33,3.33,0,0,0-.83-2.43,2.74,2.74,0,0,0-2-.85,2.65,2.65,0,0,0-2,.85,3.37,3.37,0,0,0-.82,2.43,3.48,3.48,0,0,0,.79,2.43,2.65,2.65,0,0,0,2,.85A3,3,0,0,0,229.57,440.65Z" fill="#fff"/><path d="M245.31,433.29a4.75,4.75,0,0,1,1.23,3.49v6.5h-2.81v-6.12a2.91,2.91,0,0,0-.65-2,2.32,2.32,0,0,0-1.81-.71,2.38,2.38,0,0,0-1.83.71,2.87,2.87,0,0,0-.67,2v6.12H236V432.2h2.8v1.38a3.92,3.92,0,0,1,1.44-1.13,4.3,4.3,0,0,1,1.9-.41A4.24,4.24,0,0,1,245.31,433.29Z" fill="#fff"/><path d="M258.24,432.52a4.54,4.54,0,0,1,2.17-.5,4.79,4.79,0,0,1,2.57.7,4.9,4.9,0,0,1,1.83,2,6.46,6.46,0,0,1,.66,3,6.63,6.63,0,0,1-.66,3,5.08,5.08,0,0,1-1.83,2,5,5,0,0,1-4.74.23,4.31,4.31,0,0,1-1.49-1.27v1.58H254v-14.8h2.8v5.34A3.94,3.94,0,0,1,258.24,432.52Zm4,3.45a2.75,2.75,0,0,0-1.08-1.11,2.89,2.89,0,0,0-2.88,0,2.94,2.94,0,0,0-1.08,1.13,3.55,3.55,0,0,0-.41,1.74,3.61,3.61,0,0,0,.41,1.74,3,3,0,0,0,1.08,1.13,2.82,2.82,0,0,0,2.88,0,3,3,0,0,0,1.08-1.14,3.52,3.52,0,0,0,.41-1.76A3.38,3.38,0,0,0,262.2,436Z" fill="#fff"/><path d="M278.12,432.2l-6.86,16.32h-3l2.41-5.52-4.45-10.8h3.15l2.85,7.74,2.91-7.74Z" fill="#fff"/><path d="M138.19,456.18a6.16,6.16,0,0,1,2.58,2.45,7.37,7.37,0,0,1,.91,3.69,7.26,7.26,0,0,1-.91,3.67,6.24,6.24,0,0,1-2.58,2.43,8.42,8.42,0,0,1-3.87.86h-4.88v-14h4.88A8.29,8.29,0,0,1,138.19,456.18Zm-.57,9.52a4.58,4.58,0,0,0,1.2-3.38,4.67,4.67,0,0,0-1.2-3.41,4.54,4.54,0,0,0-3.4-1.23h-2v9.22h2A4.61,4.61,0,0,0,137.62,465.7Z" fill="#fff"/><path d="M153.5,459.52a3.22,3.22,0,0,0-1.32-1.34,4,4,0,0,0-2-.46,4.21,4.21,0,0,0-2.2.56,3.81,3.81,0,0,0-1.5,1.6,5.65,5.65,0,0,0,0,4.84,3.87,3.87,0,0,0,1.53,1.6,4.53,4.53,0,0,0,2.28.56A4,4,0,0,0,153,466a4.11,4.11,0,0,0,1.34-2.37h-4.8v-2.14h7.56V464a6.69,6.69,0,0,1-1.2,2.7,6.88,6.88,0,0,1-5.62,2.74,7.3,7.3,0,0,1-3.65-.91A6.62,6.62,0,0,1,144,466a7.77,7.77,0,0,1,0-7.37,6.51,6.51,0,0,1,2.56-2.54,7.79,7.79,0,0,1,7.73.24,5.84,5.84,0,0,1,2.4,3.23Z" fill="#fff"/><path d="M167.76,455.32v2.26h-5.82v3.58h4.46v2.22h-4.46v5.9h-2.8v-14Z" fill="#fff"/><path d="M179.24,455.32v2.26h-3.72v11.7h-2.8v-11.7H169v-2.26Z" fill="#fff"/><path d="M138,574.06h-5.56l-.92,2.66h-2.94l5-14h3.26l5,14h-3Zm-.76-2.24-2-5.84-2,5.84Z" fill="#fff"/><path d="M148.05,566a4.49,4.49,0,0,1,2.17-.51,4.93,4.93,0,0,1,2.57.7,5,5,0,0,1,1.82,2,6.49,6.49,0,0,1,.67,3,6.57,6.57,0,0,1-.67,3,5.07,5.07,0,0,1-1.82,2,4.77,4.77,0,0,1-2.57.72,4.38,4.38,0,0,1-2.15-.5,4.47,4.47,0,0,1-1.51-1.26V582h-2.8V565.64h2.8v1.6A4.26,4.26,0,0,1,148.05,566Zm4,3.44a3,3,0,0,0-1.08-1.11,2.93,2.93,0,0,0-1.45-.38,2.77,2.77,0,0,0-1.43.39,2.87,2.87,0,0,0-1.08,1.13,3.5,3.5,0,0,0-.41,1.74,3.45,3.45,0,0,0,.41,1.74,2.81,2.81,0,0,0,1.08,1.13,2.82,2.82,0,0,0,2.88,0A3,3,0,0,0,152,572.9a3.6,3.6,0,0,0,.41-1.76A3.54,3.54,0,0,0,152,569.41Z" fill="#fff"/><path d="M161.61,566a4.49,4.49,0,0,1,2.17-.51,4.93,4.93,0,0,1,2.57.7,5,5,0,0,1,1.82,2,6.49,6.49,0,0,1,.67,3,6.57,6.57,0,0,1-.67,3,5.07,5.07,0,0,1-1.82,2,4.77,4.77,0,0,1-2.57.72,4.38,4.38,0,0,1-2.15-.5,4.47,4.47,0,0,1-1.51-1.26V582h-2.8V565.64h2.8v1.6A4.26,4.26,0,0,1,161.61,566Zm4,3.44a3,3,0,0,0-1.08-1.11,2.93,2.93,0,0,0-1.45-.38,2.77,2.77,0,0,0-1.43.39,2.87,2.87,0,0,0-1.08,1.13,3.5,3.5,0,0,0-.41,1.74,3.45,3.45,0,0,0,.41,1.74,2.81,2.81,0,0,0,1.08,1.13,2.82,2.82,0,0,0,2.88,0,3,3,0,0,0,1.08-1.14,3.6,3.6,0,0,0,.41-1.76A3.54,3.54,0,0,0,165.57,569.41Z" fill="#fff"/><path d="M175.09,566a4,4,0,0,1,2-.5v2.94h-.74a2.34,2.34,0,0,0-2.66,2.78v5.52h-2.8V565.64h2.8v1.72A4,4,0,0,1,175.09,566Z" fill="#fff"/><path d="M181,576.19a5,5,0,0,1-2-2,6.45,6.45,0,0,1,0-6,5.28,5.28,0,0,1,2.05-2,6.28,6.28,0,0,1,5.8,0,5.35,5.35,0,0,1,2,2,5.91,5.91,0,0,1,.75,3,5.77,5.77,0,0,1-.77,3,5.35,5.35,0,0,1-2.08,2,6,6,0,0,1-2.93.71A5.75,5.75,0,0,1,181,576.19Zm4.31-2.1a2.67,2.67,0,0,0,1.07-1.11,3.8,3.8,0,0,0,.4-1.8,3.36,3.36,0,0,0-.83-2.43,2.76,2.76,0,0,0-2-.85,2.69,2.69,0,0,0-2,.85,4.09,4.09,0,0,0,0,4.86,2.58,2.58,0,0,0,2,.85A2.9,2.9,0,0,0,185.31,574.09Z" fill="#fff"/><path d="M196.34,574.14l2.8-8.5h3L198,576.72h-3.4l-4.08-11.08h3Z" fill="#fff"/><path d="M203.65,568.16a4.8,4.8,0,0,1,4.39-2.7,4.57,4.57,0,0,1,2.17.5,4.63,4.63,0,0,1,1.49,1.26v-1.58h2.82v11.08H211.7V575.1a4.19,4.19,0,0,1-1.49,1.29,4.6,4.6,0,0,1-2.19.51,4.68,4.68,0,0,1-2.55-.72,4.93,4.93,0,0,1-1.82-2,6.45,6.45,0,0,1-.67-3A6.38,6.38,0,0,1,203.65,568.16Zm7.65,1.27a2.86,2.86,0,0,0-2.54-1.51,2.87,2.87,0,0,0-1.44.38,2.93,2.93,0,0,0-1.07,1.11,3.43,3.43,0,0,0-.41,1.73,3.51,3.51,0,0,0,.41,1.75,2.86,2.86,0,0,0,1.08,1.15,2.69,2.69,0,0,0,1.43.4,2.9,2.9,0,0,0,1.46-.39,2.84,2.84,0,0,0,1.08-1.12,4,4,0,0,0,0-3.5Z" fill="#fff"/><path d="M220.06,561.92v14.8h-2.8v-14.8Z" fill="#fff"/><path d="M238.32,576.72l-1.52-1.5a6.87,6.87,0,0,1-4.74,1.74,6.39,6.39,0,0,1-2.71-.53,4.08,4.08,0,0,1-1.81-1.5,3.94,3.94,0,0,1-.64-2.25,4.2,4.2,0,0,1,.78-2.48,5.51,5.51,0,0,1,2.3-1.78,4.79,4.79,0,0,1-.78-1.27,3.51,3.51,0,0,1-.24-1.31,3.07,3.07,0,0,1,.5-1.73,3.43,3.43,0,0,1,1.43-1.21,5.06,5.06,0,0,1,2.17-.44,4.53,4.53,0,0,1,2.16.48,3.12,3.12,0,0,1,1.72,3.06h-2.72a1.38,1.38,0,0,0-.32-1,1.25,1.25,0,0,0-.92-.35,1.32,1.32,0,0,0-.93.33,1.09,1.09,0,0,0-.37.85,1.84,1.84,0,0,0,.3,1,7.39,7.39,0,0,0,1,1.21l3.52,3.48.06-.08,0-.08,1.14-1.9h2.92l-1.4,2.46c-.27.52-.56,1-.86,1.48l3.38,3.34ZM235,573.48l-3.44-3.4a2.7,2.7,0,0,0-1.94,2.44,1.92,1.92,0,0,0,.68,1.51,2.57,2.57,0,0,0,1.8.61A4.13,4.13,0,0,0,235,573.48Z" fill="#fff"/><path d="M132.24,588.76v14h-2.8v-14Z" fill="#fff"/><path d="M136.8,602.41a4.25,4.25,0,0,1-1.71-1.33,3.37,3.37,0,0,1-.69-1.86h2.82a1.51,1.51,0,0,0,.63,1.06,2.17,2.17,0,0,0,1.37.42,2.09,2.09,0,0,0,1.25-.32,1,1,0,0,0,.45-.82.87.87,0,0,0-.55-.81,11.12,11.12,0,0,0-1.75-.59,13.57,13.57,0,0,1-2-.62,3.47,3.47,0,0,1-1.36-1,2.62,2.62,0,0,1-.57-1.78,2.84,2.84,0,0,1,.53-1.68,3.64,3.64,0,0,1,1.52-1.2,5.73,5.73,0,0,1,2.33-.44,4.76,4.76,0,0,1,3.16,1,3.69,3.69,0,0,1,1.3,2.67h-2.68a1.47,1.47,0,0,0-.55-1,2.06,2.06,0,0,0-1.31-.39,2.1,2.1,0,0,0-1.17.28.89.89,0,0,0-.41.78.9.9,0,0,0,.56.85,8.15,8.15,0,0,0,1.74.59,15.27,15.27,0,0,1,2,.62,3.64,3.64,0,0,1,1.35,1,2.77,2.77,0,0,1,.59,1.77,2.94,2.94,0,0,1-.53,1.72,3.46,3.46,0,0,1-1.52,1.19,5.7,5.7,0,0,1-2.31.43A5.78,5.78,0,0,1,136.8,602.41Z" fill="#fff"/><path d="M147.7,602.41a4.25,4.25,0,0,1-1.71-1.33,3.37,3.37,0,0,1-.69-1.86h2.82a1.51,1.51,0,0,0,.63,1.06,2.17,2.17,0,0,0,1.37.42,2.09,2.09,0,0,0,1.25-.32,1,1,0,0,0,.45-.82.87.87,0,0,0-.55-.81,11.12,11.12,0,0,0-1.75-.59,13.57,13.57,0,0,1-2-.62,3.47,3.47,0,0,1-1.36-1,2.62,2.62,0,0,1-.57-1.78,2.84,2.84,0,0,1,.53-1.68,3.64,3.64,0,0,1,1.52-1.2,5.73,5.73,0,0,1,2.33-.44,4.76,4.76,0,0,1,3.16,1,3.69,3.69,0,0,1,1.3,2.67h-2.68a1.47,1.47,0,0,0-.55-1,2.06,2.06,0,0,0-1.31-.39,2.1,2.1,0,0,0-1.17.28.89.89,0,0,0-.41.78.9.9,0,0,0,.56.85,8.15,8.15,0,0,0,1.74.59,15.27,15.27,0,0,1,2,.62,3.64,3.64,0,0,1,1.35,1,2.77,2.77,0,0,1,.59,1.77,2.94,2.94,0,0,1-.53,1.72,3.46,3.46,0,0,1-1.52,1.19,5.7,5.7,0,0,1-2.31.43A5.78,5.78,0,0,1,147.7,602.41Z" fill="#fff"/><path d="M167.26,591.64v11.08h-2.82v-1.4a3.67,3.67,0,0,1-1.41,1.13,4.28,4.28,0,0,1-1.89.41,4.63,4.63,0,0,1-2.3-.55,3.78,3.78,0,0,1-1.57-1.62,5.33,5.33,0,0,1-.57-2.55v-6.5h2.8v6.1a2.87,2.87,0,0,0,.66,2,2.31,2.31,0,0,0,1.8.71,2.34,2.34,0,0,0,1.82-.71,2.87,2.87,0,0,0,.66-2v-6.1Z" fill="#fff"/><path d="M170,594.16a4.8,4.8,0,0,1,4.39-2.7,4.57,4.57,0,0,1,2.17.5,4.63,4.63,0,0,1,1.49,1.26v-1.58h2.82v11.08H178V601.1a4.19,4.19,0,0,1-1.49,1.29,4.6,4.6,0,0,1-2.19.51,4.68,4.68,0,0,1-2.55-.72,4.93,4.93,0,0,1-1.82-2,6.45,6.45,0,0,1-.67-3A6.38,6.38,0,0,1,170,594.16Zm7.65,1.27a2.86,2.86,0,0,0-2.54-1.51,2.87,2.87,0,0,0-1.44.38,2.93,2.93,0,0,0-1.07,1.11,3.43,3.43,0,0,0-.41,1.73,3.51,3.51,0,0,0,.41,1.75,2.86,2.86,0,0,0,1.08,1.15,2.69,2.69,0,0,0,1.43.4,2.9,2.9,0,0,0,1.46-.39,2.84,2.84,0,0,0,1.08-1.12,4,4,0,0,0,0-3.5Z" fill="#fff"/><path d="M192.92,592.73a4.82,4.82,0,0,1,1.22,3.49v6.5h-2.8V596.6a2.88,2.88,0,0,0-.66-2,2.35,2.35,0,0,0-1.8-.71,2.39,2.39,0,0,0-1.83.71,2.84,2.84,0,0,0-.67,2v6.12h-2.8V591.64h2.8V593a3.91,3.91,0,0,1,1.43-1.13,4.45,4.45,0,0,1,1.91-.41A4.29,4.29,0,0,1,192.92,592.73Z" fill="#fff"/><path d="M196.78,594.17a5,5,0,0,1,1.94-2,5.62,5.62,0,0,1,2.84-.71,5.51,5.51,0,0,1,3.41,1,5,5,0,0,1,1.81,2.89h-3a2.24,2.24,0,0,0-.81-1.13,2.37,2.37,0,0,0-1.41-.41,2.3,2.3,0,0,0-1.9.87,3.84,3.84,0,0,0-.7,2.47,3.78,3.78,0,0,0,.7,2.45,2.3,2.3,0,0,0,1.9.87,2.12,2.12,0,0,0,2.22-1.52h3a5.14,5.14,0,0,1-1.82,2.86,5.35,5.35,0,0,1-3.4,1.06,5.52,5.52,0,0,1-2.84-.71,4.92,4.92,0,0,1-1.94-2,6.82,6.82,0,0,1,0-6Z" fill="#fff"/><path d="M219.06,598H211a2.69,2.69,0,0,0,.84,1.88,2.56,2.56,0,0,0,1.82.68,2.28,2.28,0,0,0,2.22-1.34h3a5,5,0,0,1-1.84,2.63,5.36,5.36,0,0,1-3.34,1,5.68,5.68,0,0,1-2.87-.71,4.92,4.92,0,0,1-2-2,6.05,6.05,0,0,1-.71-3,6.26,6.26,0,0,1,.7-3,4.9,4.9,0,0,1,2-2,6.29,6.29,0,0,1,5.73,0,4.87,4.87,0,0,1,1.94,1.93,5.86,5.86,0,0,1,.69,2.87A7,7,0,0,1,219.06,598Zm-2.82-1.88a2.27,2.27,0,0,0-.78-1.73,2.79,2.79,0,0,0-1.86-.65,2.52,2.52,0,0,0-1.75.63,2.72,2.72,0,0,0-.87,1.75Z" fill="#fff"/><path d="M228,602.19a5,5,0,0,1-2-2,6.45,6.45,0,0,1,0-6,5.28,5.28,0,0,1,2-2,6.28,6.28,0,0,1,5.8,0,5.35,5.35,0,0,1,2,2,5.91,5.91,0,0,1,.75,3,5.77,5.77,0,0,1-.77,3,5.35,5.35,0,0,1-2.08,2,6,6,0,0,1-2.93.71A5.75,5.75,0,0,1,228,602.19Zm4.31-2.1a2.67,2.67,0,0,0,1.07-1.11,3.8,3.8,0,0,0,.4-1.8,3.36,3.36,0,0,0-.83-2.43,2.76,2.76,0,0,0-2-.85,2.69,2.69,0,0,0-2,.85,4.09,4.09,0,0,0,0,4.86,2.58,2.58,0,0,0,2,.85A2.9,2.9,0,0,0,232.29,600.09Z" fill="#fff"/><path d="M243.78,593.94h-1.94v8.78H239v-8.78h-1.26v-2.3H239v-.56a3.65,3.65,0,0,1,1.16-3,5.18,5.18,0,0,1,3.5-.9v2.36a2.09,2.09,0,0,0-1.42.34,1.7,1.7,0,0,0-.4,1.3v.46h1.94Z" fill="#fff"/><path d="M253.15,588.76v14h-2.8v-14Z" fill="#fff"/><path d="M258.72,591v3.5h4.7v2.22h-4.7v3.7H264v2.28h-8.1v-14H264V591Z" fill="#fff"/><path d="M266.81,592a6.66,6.66,0,0,1,2.54-2.54,7.25,7.25,0,0,1,3.61-.91,7.14,7.14,0,0,1,4.1,1.2,6.25,6.25,0,0,1,2.45,3.32H276.3a3.49,3.49,0,0,0-1.36-1.5,4,4,0,0,0-2-.5,4.16,4.16,0,0,0-2.17.57,3.89,3.89,0,0,0-1.47,1.61,5.86,5.86,0,0,0,0,4.87,3.85,3.85,0,0,0,1.47,1.62,4.16,4.16,0,0,0,2.17.57,3.88,3.88,0,0,0,2-.51,3.46,3.46,0,0,0,1.36-1.51h3.21a6.17,6.17,0,0,1-2.45,3.33,7,7,0,0,1-4.1,1.19,7.15,7.15,0,0,1-3.61-.91,6.57,6.57,0,0,1-2.54-2.53,7.14,7.14,0,0,1-.93-3.68A7.23,7.23,0,0,1,266.81,592Z" fill="#fff"/><path d="M286.66,594.17a5,5,0,0,1,1.94-2,5.61,5.61,0,0,1,2.83-.71,5.52,5.52,0,0,1,3.42,1,5,5,0,0,1,1.81,2.89h-3a2.3,2.3,0,0,0-.81-1.13,2.4,2.4,0,0,0-1.41-.41,2.33,2.33,0,0,0-1.91.87,3.9,3.9,0,0,0-.7,2.47,3.84,3.84,0,0,0,.7,2.45,2.33,2.33,0,0,0,1.91.87,2.12,2.12,0,0,0,2.22-1.52h3a5.14,5.14,0,0,1-1.82,2.86,5.36,5.36,0,0,1-3.41,1.06,5.51,5.51,0,0,1-2.83-.71,4.92,4.92,0,0,1-1.94-2,6.82,6.82,0,0,1,0-6Z" fill="#fff"/><path d="M300.75,602.19a5.11,5.11,0,0,1-2-2,6.06,6.06,0,0,1-.73-3,5.91,5.91,0,0,1,.75-3,5.35,5.35,0,0,1,2.05-2,6.28,6.28,0,0,1,5.8,0,5.28,5.28,0,0,1,2.05,2,5.91,5.91,0,0,1,.75,3,5.68,5.68,0,0,1-.77,3,5.22,5.22,0,0,1-2.08,2,6,6,0,0,1-2.93.71A5.8,5.8,0,0,1,300.75,602.19Zm4.31-2.1a2.56,2.56,0,0,0,1.07-1.11,3.68,3.68,0,0,0,.4-1.8,3.32,3.32,0,0,0-.83-2.43,2.75,2.75,0,0,0-2-.85,2.69,2.69,0,0,0-2,.85,3.4,3.4,0,0,0-.81,2.43,3.45,3.45,0,0,0,.79,2.43,2.59,2.59,0,0,0,2,.85A2.85,2.85,0,0,0,305.06,600.09Z" fill="#fff"/><path d="M311.42,594.16a4.83,4.83,0,0,1,4.41-2.7,4.74,4.74,0,0,1,2.06.47,4.08,4.08,0,0,1,1.56,1.25v-5.26h2.84v14.8h-2.84v-1.64A3.68,3.68,0,0,1,318,602.4a4.47,4.47,0,0,1-2.18.5,4.78,4.78,0,0,1-2.56-.72,5,5,0,0,1-1.83-2,6.57,6.57,0,0,1-.67-3A6.51,6.51,0,0,1,311.42,594.16Zm7.65,1.27a2.78,2.78,0,0,0-1.08-1.12,2.92,2.92,0,0,0-2.9,0,3,3,0,0,0-1.07,1.11,3.54,3.54,0,0,0-.41,1.73,3.62,3.62,0,0,0,.41,1.75A3,3,0,0,0,315.1,600a2.74,2.74,0,0,0,1.43.4,2.88,2.88,0,0,0,1.46-.39,2.71,2.71,0,0,0,1.08-1.12,4,4,0,0,0,0-3.5Z" fill="#fff"/><path d="M335.25,598h-8.1a2.78,2.78,0,0,0,.84,1.88,2.59,2.59,0,0,0,1.82.68,2.27,2.27,0,0,0,2.22-1.34h3a5.06,5.06,0,0,1-1.85,2.63,5.34,5.34,0,0,1-3.34,1,5.74,5.74,0,0,1-2.87-.71,5,5,0,0,1-2-2,6.16,6.16,0,0,1-.71-3,6.38,6.38,0,0,1,.7-3,5,5,0,0,1,2-2,6,6,0,0,1,2.9-.7,5.83,5.83,0,0,1,2.83.68,4.81,4.81,0,0,1,1.94,1.93,5.86,5.86,0,0,1,.69,2.87A5.94,5.94,0,0,1,335.25,598Zm-2.82-1.88a2.21,2.21,0,0,0-.78-1.73,2.76,2.76,0,0,0-1.86-.65,2.56,2.56,0,0,0-1.75.63,2.82,2.82,0,0,0-.87,1.75Z" fill="#fff"/></g></svg>